<!DOCTYPE svg PUBLIC "-//W3C//DTD SVG 20010904//EN" "http://www.w3.org/TR/2001/REC-SVG-20010904/DTD/svg10.dtd">
<svg version="1.0" xmlns="http://www.w3.org/2000/svg" width="1600px" height="1600px" viewBox="0 0 16000 16000" preserveAspectRatio="xMidYMid meet">
<g id="layer101" fill="#000000" stroke="none">
 <path d="M0 8000 l0 -8000 8000 0 8000 0 0 8000 0 8000 -8000 0 -8000 0 0 -8000z"/>
 </g>
<g id="layer102" fill="#53758e" stroke="none">
 <path d="M0 8000 l0 -8000 8000 0 8000 0 0 8000 0 8000 -8000 0 -8000 0 0 -8000z m250 7862 c47 -25 112 -59 145 -77 33 -17 101 -53 150 -80 50 -26 122 -65 160 -85 39 -20 102 -54 140 -75 39 -21 111 -59 160 -85 50 -26 119 -63 155 -82 36 -19 115 -61 175 -93 61 -32 151 -80 200 -107 50 -27 110 -58 135 -71 25 -12 47 -25 48 -29 2 -5 8 -8 13 -8 9 0 152 -75 399 -208 36 -19 106 -56 155 -82 50 -26 131 -68 180 -95 95 -50 174 -93 315 -167 47 -25 112 -60 145 -78 33 -18 112 -60 175 -93 63 -33 174 -91 245 -130 129 -69 189 -101 400 -212 61 -32 133 -70 160 -85 57 -31 174 -93 355 -188 69 -36 137 -73 152 -83 14 -11 29 -19 33 -19 4 0 80 -39 169 -86 183 -99 265 -142 386 -206 110 -58 238 -126 320 -170 36 -19 115 -61 175 -93 61 -32 142 -74 180 -95 39 -21 176 -94 305 -162 340 -182 386 -206 480 -256 89 -47 180 -95 303 -161 39 -21 122 -64 182 -96 61 -32 238 -126 395 -210 157 -84 335 -178 395 -210 108 -56 186 -98 315 -167 36 -20 119 -64 185 -98 66 -35 215 -113 330 -175 116 -62 248 -133 295 -157 329 -174 948 -503 1060 -563 74 -40 185 -98 245 -130 61 -32 133 -70 160 -85 44 -23 187 -100 556 -294 52 -28 232 -123 398 -211 l303 -160 -3618 -3 c-2766 -1 -3620 1 -3631 10 -8 6 -35 43 -60 82 -25 39 -49 73 -53 76 -3 3 -26 34 -50 70 -24 36 -48 68 -54 72 -7 5 -7 8 -1 8 6 0 5 4 -1 8 -7 4 -29 32 -50 63 -90 130 -128 184 -134 189 -3 3 -22 30 -43 60 -20 30 -63 92 -95 136 -31 45 -77 110 -101 145 -25 35 -49 67 -55 71 -7 5 -7 8 -1 8 6 0 5 4 -1 8 -7 4 -29 32 -50 63 -90 130 -128 184 -134 189 -3 3 -22 30 -43 60 -20 30 -63 92 -95 136 -31 45 -77 110 -101 145 -25 35 -47 66 -51 69 -3 3 -27 37 -53 75 -59 89 -113 166 -130 185 -6 8 -29 40 -50 70 -20 30 -63 92 -95 136 -31 45 -77 110 -101 145 -25 35 -47 66 -51 69 -3 3 -27 37 -53 75 -59 89 -113 166 -130 185 -6 8 -29 40 -50 70 -20 30 -63 92 -95 136 -31 45 -77 110 -101 145 -25 35 -48 66 -51 69 -4 3 -28 37 -54 75 -67 101 -114 167 -132 189 -8 10 -31 41 -50 70 -19 28 -60 88 -92 132 -31 45 -77 110 -101 145 -25 35 -48 66 -51 69 -4 3 -28 37 -54 75 -67 101 -114 167 -132 189 -8 10 -31 41 -50 70 -19 28 -60 88 -92 132 -31 45 -77 110 -101 145 -25 35 -48 66 -51 69 -4 3 -28 37 -54 75 -67 101 -114 167 -132 189 -8 10 -31 41 -50 70 -19 28 -60 88 -92 132 -31 45 -77 110 -101 145 -25 35 -48 66 -51 69 -4 3 -28 37 -54 75 -67 101 -114 167 -132 189 -8 10 -31 41 -50 70 -19 28 -60 88 -92 132 -31 45 -77 110 -101 145 -25 35 -48 66 -51 69 -4 3 -28 37 -54 75 -67 101 -114 167 -132 189 -18 21 -84 123 -84 130 0 4 62 -27 240 -122z"/>
 </g>
<g id="layer103" fill="#5988a0" stroke="none">
 <path d="M21 15996 c2 -2 49 -27 104 -57 55 -29 114 -60 130 -70 17 -10 62 -33 100 -53 39 -20 77 -40 85 -45 20 -13 308 -165 390 -206 36 -18 79 -44 96 -59 17 -14 34 -23 37 -20 6 6 213 -101 240 -125 11 -9 24 -16 30 -16 10 0 43 -17 127 -64 8 -4 24 -12 35 -18 146 -72 303 -159 316 -174 9 -10 19 -16 22 -12 7 6 571 -291 600 -316 11 -9 24 -16 30 -16 16 0 95 -42 132 -70 17 -12 42 -25 56 -28 14 -4 42 -18 63 -32 20 -14 40 -25 45 -25 12 0 120 -60 126 -71 4 -5 12 -9 19 -9 7 0 59 -25 117 -56 57 -31 130 -70 162 -86 31 -16 57 -33 57 -39 0 -5 8 -9 18 -9 9 0 118 -55 242 -121 124 -67 254 -136 290 -154 36 -18 72 -40 79 -49 7 -9 30 -20 51 -26 21 -6 61 -25 88 -44 28 -18 61 -36 74 -39 14 -4 41 -18 62 -32 20 -14 40 -25 45 -25 15 0 121 -62 121 -71 0 -5 8 -9 18 -9 16 0 47 -16 142 -69 8 -5 40 -21 70 -36 30 -16 62 -34 71 -41 8 -8 23 -14 33 -14 9 0 19 -7 22 -15 4 -8 13 -15 20 -15 22 0 134 -59 134 -70 0 -6 8 -10 18 -10 9 0 51 -19 92 -41 143 -77 225 -121 285 -151 33 -16 74 -41 92 -54 17 -13 37 -24 43 -24 17 0 223 -110 236 -126 6 -8 18 -14 26 -14 20 0 128 -59 128 -71 0 -5 8 -9 18 -9 10 0 43 -14 73 -30 64 -36 77 -44 104 -57 111 -55 165 -86 165 -94 0 -5 7 -9 15 -9 23 0 135 -59 135 -70 0 -6 7 -10 15 -10 22 0 155 -68 155 -80 0 -5 17 -14 38 -20 20 -5 60 -23 87 -40 69 -41 66 -40 198 -106 66 -32 121 -65 124 -71 3 -7 13 -13 22 -13 23 0 131 -59 131 -71 0 -5 9 -9 19 -9 10 0 45 -15 77 -34 33 -19 105 -58 162 -85 56 -28 102 -55 102 -61 0 -5 7 -10 15 -10 23 0 135 -59 135 -70 0 -6 7 -10 16 -10 20 0 275 -133 321 -166 17 -13 36 -24 41 -24 15 0 75 -31 109 -56 17 -13 37 -24 43 -24 18 0 90 -40 90 -50 0 -6 8 -10 18 -10 23 0 132 -58 132 -71 0 -5 9 -9 19 -9 10 0 45 -15 77 -34 54 -32 113 -63 337 -176 42 -22 77 -44 77 -50 0 -5 7 -10 15 -10 15 0 46 -16 245 -122 41 -22 102 -54 135 -71 33 -17 74 -40 90 -52 17 -13 42 -25 56 -28 14 -4 42 -18 63 -32 20 -14 40 -25 45 -25 12 0 120 -60 126 -71 4 -5 12 -9 20 -9 7 0 39 -15 71 -34 33 -19 104 -58 159 -86 212 -108 255 -131 255 -141 0 -5 7 -9 15 -9 8 0 42 -15 76 -32 33 -18 102 -55 152 -81 51 -27 121 -64 157 -83 36 -19 101 -54 145 -79 44 -24 112 -60 150 -80 39 -20 106 -56 150 -80 44 -24 112 -60 150 -80 39 -20 95 -51 127 -68 31 -18 149 -81 263 -142 l207 -110 -3618 -3 c-2766 -1 -3620 1 -3631 10 -8 6 -35 43 -60 82 -25 39 -49 73 -53 76 -3 3 -26 34 -50 70 -24 36 -48 68 -54 72 -7 5 -7 8 -1 8 6 0 5 4 -1 8 -7 4 -29 32 -50 63 -90 130 -128 184 -134 189 -3 3 -22 30 -43 60 -20 30 -63 92 -95 136 -31 45 -77 110 -101 145 -25 35 -49 67 -55 71 -7 5 -7 8 -1 8 6 0 5 4 -1 8 -7 4 -29 32 -50 63 -90 130 -128 184 -134 189 -3 3 -22 30 -43 60 -20 30 -63 92 -95 136 -31 45 -77 110 -101 145 -25 35 -47 66 -51 69 -3 3 -27 37 -53 75 -59 89 -113 166 -130 185 -6 8 -29 40 -50 70 -20 30 -63 92 -95 136 -31 45 -77 110 -101 145 -25 35 -47 66 -51 69 -3 3 -27 37 -53 75 -59 89 -113 166 -130 185 -6 8 -29 40 -50 70 -20 30 -63 92 -95 136 -31 45 -77 110 -101 145 -25 35 -48 66 -51 69 -4 3 -28 37 -54 75 -67 101 -114 167 -132 189 -8 10 -31 41 -50 70 -19 28 -60 88 -92 132 -31 45 -77 110 -101 145 -25 35 -48 66 -51 69 -4 3 -28 37 -54 75 -67 101 -114 167 -132 189 -8 10 -31 41 -50 70 -19 28 -60 88 -92 132 -31 45 -77 110 -101 145 -25 35 -48 66 -51 69 -4 3 -28 37 -54 75 -67 101 -114 167 -132 189 -8 10 -31 41 -50 70 -19 28 -60 88 -92 132 -31 45 -77 110 -101 145 -25 35 -48 66 -51 69 -4 3 -28 37 -54 75 -67 101 -114 167 -132 189 -8 10 -31 41 -50 70 -19 28 -60 88 -92 132 -31 45 -77 110 -101 145 -25 35 -48 66 -51 69 -4 3 -28 37 -54 75 -74 112 -128 189 -147 208 -9 10 -25 33 -35 52 -10 19 -24 37 -31 39 -11 4 -13 -1482 -13 -7979 l0 -7985 8000 0 8000 0 0 8000 0 8000 -7992 0 c-4395 0 -7989 -2 -7987 -4z"/>
 </g>
<g id="layer104" fill="#6ea0d7" stroke="none">
 <path d="M13971 15977 c-5 -13 -24 -73 -41 -133 -83 -284 -258 -821 -363 -1114 -210 -587 -462 -1194 -744 -1800 -104 -222 -396 -803 -485 -965 -30 -55 -71 -129 -90 -165 -227 -423 -592 -1022 -936 -1538 -74 -111 -133 -204 -131 -205 15 -12 392 -207 400 -207 5 0 9 -1393 9 -3630 l0 -3630 -3625 0 -3625 0 0 3627 c0 3494 -1 3627 -18 3647 -10 12 -33 45 -52 74 -18 30 -38 59 -45 65 -6 7 -31 41 -55 77 -24 36 -48 68 -54 72 -7 5 -7 8 -1 8 6 0 5 4 -1 8 -7 4 -29 32 -50 63 -90 130 -128 184 -134 189 -3 3 -22 30 -43 60 -20 30 -63 92 -95 136 -31 45 -77 110 -101 145 -25 35 -49 67 -55 71 -7 5 -7 8 -1 8 6 0 5 4 -1 8 -7 4 -29 32 -50 63 -90 130 -128 184 -134 189 -3 3 -22 30 -43 60 -20 30 -63 92 -95 136 -31 45 -77 110 -101 145 -25 35 -47 66 -51 69 -3 3 -27 37 -53 75 -59 89 -113 166 -130 185 -6 8 -29 40 -50 70 -20 30 -63 92 -95 136 -31 45 -77 110 -101 145 -25 35 -47 66 -51 69 -3 3 -27 37 -53 75 -59 89 -113 166 -130 185 -6 8 -29 40 -50 70 -20 30 -63 92 -95 136 -31 45 -77 110 -101 145 -25 35 -48 66 -51 69 -4 3 -28 37 -54 75 -67 101 -114 167 -132 189 -8 10 -31 41 -50 70 -19 28 -60 88 -92 132 -31 45 -77 110 -101 145 -25 35 -48 66 -51 69 -4 3 -28 37 -54 75 -67 101 -114 167 -132 189 -8 10 -31 41 -50 70 -19 28 -60 88 -92 132 -31 45 -77 110 -101 145 -25 35 -48 66 -51 69 -4 3 -28 37 -54 75 -67 101 -114 167 -132 189 -8 10 -31 41 -50 70 -19 28 -60 88 -92 132 -31 45 -77 110 -101 145 -25 35 -48 66 -51 69 -4 3 -28 37 -54 75 -67 101 -114 167 -132 189 -8 10 -31 41 -50 70 -19 28 -60 88 -92 132 -31 45 -77 110 -101 145 -25 35 -48 66 -51 69 -4 3 -28 37 -54 75 -66 99 -114 167 -131 187 -8 10 -27 37 -42 60 -15 24 -28 45 -30 47 -2 2 -6 2 -9 -1 -3 -3 15 -66 39 -139 24 -74 72 -222 107 -329 34 -107 70 -217 80 -245 10 -27 28 -84 40 -125 13 -41 31 -97 41 -124 11 -27 19 -54 19 -61 0 -7 8 -34 19 -61 10 -27 40 -116 66 -199 27 -82 69 -215 95 -295 26 -80 68 -212 95 -295 26 -82 56 -172 66 -199 11 -27 19 -54 19 -61 0 -7 8 -34 19 -61 10 -27 28 -83 41 -124 12 -41 30 -97 40 -125 10 -27 46 -138 80 -245 35 -107 80 -247 100 -310 21 -63 66 -203 100 -310 60 -187 75 -233 115 -345 9 -27 21 -66 25 -85 4 -19 16 -57 25 -85 40 -112 55 -158 115 -345 34 -107 79 -247 100 -310 20 -63 65 -203 100 -310 34 -107 70 -217 80 -245 10 -27 28 -84 40 -125 12 -41 31 -97 41 -124 11 -27 19 -54 19 -61 0 -7 8 -34 19 -61 10 -27 40 -116 66 -199 27 -82 63 -195 80 -250 18 -55 61 -188 95 -295 34 -107 71 -217 81 -244 10 -27 19 -54 19 -61 0 -7 8 -34 19 -61 10 -27 28 -83 41 -124 12 -41 30 -97 40 -125 10 -27 46 -138 80 -245 35 -107 80 -247 100 -310 21 -63 66 -203 100 -310 34 -107 70 -217 80 -245 9 -27 25 -72 35 -100 9 -27 21 -66 25 -85 4 -19 16 -57 25 -85 42 -118 56 -160 115 -345 34 -107 79 -247 100 -310 20 -63 56 -176 80 -250 23 -74 51 -157 61 -184 11 -27 19 -54 19 -61 0 -7 8 -34 19 -61 10 -27 29 -83 41 -124 12 -41 31 -97 41 -124 11 -27 19 -54 19 -61 0 -7 8 -34 19 -61 10 -27 38 -110 61 -184 24 -74 60 -187 80 -250 21 -63 66 -203 100 -310 59 -185 73 -227 115 -345 9 -27 21 -66 25 -85 4 -19 16 -57 25 -85 10 -27 26 -72 35 -100 10 -27 46 -138 80 -245 34 -107 79 -247 100 -310 20 -63 65 -203 100 -310 34 -107 70 -217 80 -245 32 -93 40 -119 36 -122 -17 -17 -755 -386 -1001 -501 -888 -412 -1891 -792 -2775 -1051 -96 -29 -185 -56 -197 -61 l-23 -10 0 -1010 0 -1010 8000 0 8000 0 0 8000 0 8000 -1010 0 -1010 0 -9 -23z"/>
 </g>
<g id="layer105" fill="#d370d3" stroke="none">
 <path d="M13971 15977 c-5 -13 -24 -73 -41 -133 -83 -284 -258 -821 -363 -1114 -210 -587 -462 -1194 -744 -1800 -104 -222 -396 -803 -485 -965 -30 -55 -71 -129 -90 -165 -227 -423 -592 -1022 -936 -1538 -74 -111 -133 -204 -131 -205 15 -12 392 -207 400 -207 5 0 9 -908 9 -2360 0 -1298 4 -2360 8 -2360 4 0 24 17 43 38 19 21 42 42 50 47 7 4 -12 -19 -43 -51 l-58 -60 0 -1257 0 -1257 -3625 0 -3625 0 0 3627 c0 3494 -1 3627 -18 3647 -10 12 -33 45 -52 74 -18 30 -38 59 -45 65 -6 7 -31 41 -55 77 -24 36 -48 68 -54 72 -7 5 -7 8 -1 8 6 0 5 4 -1 8 -7 4 -29 32 -50 63 -90 130 -128 184 -134 189 -3 3 -22 30 -43 60 -20 30 -63 92 -95 136 -31 45 -77 110 -101 145 -25 35 -49 67 -55 71 -7 5 -7 8 -1 8 6 0 5 4 -1 8 -7 4 -29 32 -50 63 -90 130 -128 184 -134 189 -3 3 -22 30 -43 60 -20 30 -63 92 -95 136 -31 45 -77 110 -101 145 -25 35 -47 66 -51 69 -3 3 -27 37 -53 75 -59 89 -113 166 -130 185 -6 8 -29 40 -50 70 -20 30 -63 92 -95 136 -31 45 -77 110 -101 145 -25 35 -47 66 -51 69 -3 3 -27 37 -53 75 -59 89 -113 166 -130 185 -6 8 -29 40 -50 70 -20 30 -63 92 -95 136 -31 45 -77 110 -101 145 -25 35 -48 66 -51 69 -4 3 -28 37 -54 75 -67 101 -114 167 -132 189 -8 10 -31 41 -50 70 -19 28 -60 88 -92 132 -31 45 -77 110 -101 145 -25 35 -48 66 -51 69 -4 3 -28 37 -54 75 -67 101 -114 167 -132 189 -8 10 -31 41 -50 70 -19 28 -60 88 -92 132 -31 45 -77 110 -101 145 -25 35 -48 66 -51 69 -4 3 -28 37 -54 75 -67 101 -114 167 -132 189 -8 10 -31 41 -50 70 -19 28 -60 88 -92 132 -31 45 -77 110 -101 145 -25 35 -48 66 -51 69 -4 3 -28 37 -54 75 -67 101 -114 167 -132 189 -8 10 -31 41 -50 70 -19 28 -60 88 -92 132 -31 45 -77 110 -101 145 -25 35 -48 66 -51 69 -4 3 -28 37 -54 75 -66 99 -114 167 -131 187 -8 10 -27 37 -42 60 -15 24 -28 45 -30 47 -2 2 -6 2 -9 -1 -3 -3 15 -66 39 -139 24 -74 72 -222 107 -329 34 -107 70 -217 80 -245 10 -27 28 -84 40 -125 13 -41 31 -97 41 -124 11 -27 19 -54 19 -61 0 -7 8 -34 19 -61 10 -27 40 -116 66 -199 27 -82 69 -215 95 -295 26 -80 68 -212 95 -295 26 -82 56 -172 66 -199 11 -27 19 -54 19 -61 0 -7 8 -34 19 -61 10 -27 28 -83 41 -124 12 -41 30 -97 40 -125 10 -27 46 -138 80 -245 35 -107 80 -247 100 -310 21 -63 66 -203 100 -310 60 -187 75 -233 115 -345 9 -27 21 -66 25 -85 4 -19 16 -57 25 -85 40 -112 55 -158 115 -345 34 -107 79 -247 100 -310 20 -63 65 -203 100 -310 34 -107 70 -217 80 -245 10 -27 28 -84 40 -125 12 -41 31 -97 41 -124 11 -27 19 -54 19 -61 0 -7 8 -34 19 -61 10 -27 40 -116 66 -199 27 -82 63 -195 80 -250 18 -55 61 -188 95 -295 34 -107 71 -217 81 -244 10 -27 19 -54 19 -61 0 -7 8 -34 19 -61 10 -27 28 -83 41 -124 12 -41 30 -97 40 -125 10 -27 46 -138 80 -245 35 -107 80 -247 100 -310 21 -63 66 -203 100 -310 34 -107 70 -217 80 -245 9 -27 25 -72 35 -100 9 -27 21 -66 25 -85 4 -19 16 -57 25 -85 42 -118 56 -160 115 -345 34 -107 79 -247 100 -310 20 -63 56 -176 80 -250 23 -74 51 -157 61 -184 11 -27 19 -54 19 -61 0 -7 8 -34 19 -61 10 -27 29 -83 41 -124 12 -41 31 -97 41 -124 11 -27 19 -54 19 -61 0 -7 8 -34 19 -61 10 -27 38 -110 61 -184 24 -74 60 -187 80 -250 21 -63 66 -203 100 -310 59 -185 73 -227 115 -345 9 -27 21 -66 25 -85 4 -19 16 -57 25 -85 10 -27 26 -72 35 -100 10 -27 46 -138 80 -245 34 -107 79 -247 100 -310 20 -63 65 -203 100 -310 34 -107 70 -217 80 -245 32 -93 40 -119 36 -122 -17 -17 -755 -386 -1001 -501 -888 -412 -1891 -792 -2775 -1051 -96 -29 -185 -56 -197 -61 l-23 -10 0 -1010 0 -1010 3945 0 3945 0 21 32 c19 30 20 25 3 -17 -5 -13 447 -15 4040 -15 l4046 0 0 4240 c0 4033 -1 4239 -17 4233 -17 -7 -17 -6 0 11 16 17 17 209 17 3767 l0 3749 -1010 0 -1010 0 -9 -23z m1966 -7534 c-4 -3 -10 -3 -14 0 -3 4 0 7 7 7 7 0 10 -3 7 -7z m-157 -88 c-7 -9 -15 -13 -19 -10 -3 3 1 10 9 15 21 14 24 12 10 -5z m-125 -75 c-3 -5 -11 -10 -16 -10 -6 0 -7 5 -4 10 3 6 11 10 16 10 6 0 7 -4 4 -10z m-35 -14 c0 -3 -5 -8 -12 -12 -7 -4 -8 -3 -4 4 7 12 16 16 16 8z m-53 -43 c-4 -3 -7 0 -7 7 0 7 3 10 7 7 3 -4 3 -10 0 -14z m-32 -13 c-3 -5 -12 -10 -18 -10 -7 0 -6 4 3 10 19 12 23 12 15 0z m-400 -250 c-3 -5 -11 -10 -16 -10 -6 0 -7 5 -4 10 3 6 11 10 16 10 6 0 7 -4 4 -10z m-250 -160 c-3 -5 -12 -10 -18 -10 -7 0 -6 4 3 10 19 12 23 12 15 0z m-240 -160 c-3 -5 -12 -10 -18 -10 -7 0 -6 4 3 10 19 12 23 12 15 0z m-45 -24 c0 -3 -5 -8 -12 -12 -7 -4 -8 -3 -4 4 7 12 16 16 16 8z m-100 -70 c0 -3 -5 -8 -12 -12 -7 -4 -8 -3 -4 4 7 12 16 16 16 8z m-245 -176 c-3 -5 -12 -10 -18 -10 -7 0 -6 4 3 10 19 12 23 12 15 0z m-55 -34 c0 -3 -5 -8 -12 -12 -7 -4 -8 -3 -4 4 7 12 16 16 16 8z m-60 -46 c0 -5 -5 -10 -11 -10 -5 0 -7 5 -4 10 3 6 8 10 11 10 2 0 4 -4 4 -10z m-200 -144 c0 -3 -5 -8 -12 -12 -7 -4 -8 -3 -4 4 7 12 16 16 16 8z m-130 -100 c0 -2 -12 -11 -27 -20 l-28 -17 24 20 c23 21 31 25 31 17z m-175 -136 c-3 -5 -11 -10 -16 -10 -6 0 -7 5 -4 10 3 6 11 10 16 10 6 0 7 -4 4 -10z m-140 -110 c-3 -5 -11 -10 -16 -10 -6 0 -7 5 -4 10 3 6 11 10 16 10 6 0 7 -4 4 -10z m-155 -120 c0 -5 -5 -10 -11 -10 -5 0 -7 5 -4 10 3 6 8 10 11 10 2 0 4 -4 4 -10z m-457 -375 c-3 -9 -8 -14 -10 -11 -3 3 -2 9 2 15 9 16 15 13 8 -4z m-163 -139 c0 -3 -5 -8 -12 -12 -7 -4 -8 -3 -4 4 7 12 16 16 16 8z m-360 -320 c0 -3 -5 -8 -12 -12 -7 -4 -8 -3 -4 4 7 12 16 16 16 8z m-100 -96 c0 -5 -5 -10 -11 -10 -5 0 -7 5 -4 10 3 6 8 10 11 10 2 0 4 -4 4 -10z m-110 -99 c0 -5 -7 -12 -16 -15 -14 -5 -15 -4 -4 9 14 17 20 19 20 6z m-140 -135 c0 -3 -4 -8 -10 -11 -5 -3 -10 -1 -10 4 0 6 5 11 10 11 6 0 10 -2 10 -4z m-2570 -2970 c0 -2 -8 -10 -17 -17 -16 -13 -17 -12 -4 4 13 16 21 21 21 13z m-50 -70 c0 -3 -5 -8 -12 -12 -7 -4 -8 -3 -4 4 7 12 16 16 16 8z m-70 -100 c0 -3 -5 -8 -12 -12 -7 -4 -8 -3 -4 4 7 12 16 16 16 8z m-90 -130 c0 -3 -5 -8 -12 -12 -7 -4 -8 -3 -4 4 7 12 16 16 16 8z m-220 -336 c0 -5 -5 -10 -11 -10 -5 0 -7 5 -4 10 3 6 8 10 11 10 2 0 4 -4 4 -10z m-90 -134 c0 -3 -5 -8 -12 -12 -7 -4 -8 -3 -4 4 7 12 16 16 16 8z m-240 -386 c0 -5 -5 -10 -11 -10 -5 0 -7 5 -4 10 3 6 8 10 11 10 2 0 4 -4 4 -10z m-140 -240 c0 -5 -5 -10 -11 -10 -5 0 -7 5 -4 10 3 6 8 10 11 10 2 0 4 -4 4 -10z m-210 -360 c0 -5 -5 -10 -11 -10 -5 0 -7 5 -4 10 3 6 8 10 11 10 2 0 4 -4 4 -10z m-179 -313 c-10 -9 -11 -8 -5 6 3 10 9 15 12 12 3 -3 0 -11 -7 -18z m-41 -81 c0 -3 -5 -8 -12 -12 -7 -4 -8 -3 -4 4 7 12 16 16 16 8z"/>
 </g>
<g id="layer106" fill="#efe7c8" stroke="none">
 <path d="M13971 15977 c-5 -13 -24 -73 -41 -133 -83 -284 -258 -821 -363 -1114 -210 -587 -462 -1194 -744 -1800 -104 -222 -396 -803 -485 -965 -30 -55 -71 -129 -90 -165 -227 -423 -592 -1022 -936 -1538 -74 -111 -133 -204 -131 -205 15 -12 392 -207 400 -207 5 0 9 -908 9 -2360 0 -1298 3 -2360 7 -2360 3 0 94 87 202 193 497 490 1015 948 1561 1382 96 76 193 153 215 170 99 79 485 365 660 490 50 35 109 78 133 95 61 45 565 382 697 466 193 124 554 344 740 452 99 57 183 109 187 116 4 6 8 1697 8 3759 l0 3747 -1010 0 -1010 0 -9 -23z"/>
 <path d="M3940 3613 c-99 -55 -697 -354 -880 -440 -924 -432 -1929 -816 -2840 -1082 -96 -29 -185 -56 -197 -61 l-23 -10 0 -1010 0 -1010 3947 2 3948 3 73 140 c198 377 372 691 571 1025 64 107 120 203 126 213 74 133 550 859 730 1115 l65 92 -2559 0 -2559 0 -20 58 c-11 31 -48 145 -82 252 -103 325 -145 453 -194 595 -10 28 -23 70 -29 94 -7 25 -16 46 -22 47 -5 1 -30 -9 -55 -23z"/>
 </g>
<g id="layer107" fill="#f8ebbf" stroke="none">
 <path d="M13980 15991 c0 -5 -5 -22 -12 -38 -6 -15 -10 -32 -9 -37 1 -4 -3 -14 -9 -20 -5 -7 -7 -15 -4 -19 3 -3 -2 -17 -11 -30 -9 -14 -18 -43 -20 -66 -2 -22 -11 -55 -20 -74 -9 -19 -18 -49 -20 -68 -3 -18 -9 -37 -15 -43 -5 -5 -10 -20 -10 -32 0 -13 -5 -26 -10 -29 -6 -4 -8 -11 -4 -16 3 -5 -2 -23 -10 -41 -9 -17 -16 -39 -16 -49 0 -10 -5 -21 -10 -24 -6 -4 -8 -11 -5 -16 3 -5 0 -23 -8 -41 -23 -52 -30 -72 -28 -81 1 -5 -5 -23 -13 -40 -22 -51 -29 -71 -27 -80 1 -5 -5 -23 -13 -40 -22 -51 -29 -71 -27 -80 1 -5 -5 -23 -13 -40 -8 -18 -20 -50 -27 -72 -6 -22 -18 -49 -25 -60 -8 -12 -16 -38 -19 -59 -2 -21 -12 -50 -21 -64 -9 -14 -18 -33 -19 -41 -1 -9 -9 -34 -19 -56 -10 -21 -19 -51 -21 -66 -2 -14 -13 -42 -24 -62 -11 -19 -17 -37 -15 -40 3 -3 -4 -20 -15 -38 -12 -19 -21 -43 -21 -54 0 -11 -11 -41 -25 -66 -13 -26 -22 -49 -19 -52 4 -3 -1 -16 -10 -29 -9 -12 -16 -29 -16 -38 0 -8 -7 -28 -15 -44 -8 -15 -15 -34 -15 -41 0 -7 -7 -18 -15 -25 -8 -7 -12 -16 -9 -21 4 -8 -22 -78 -46 -121 -6 -10 -10 -24 -10 -32 0 -7 -7 -19 -15 -26 -8 -7 -12 -16 -9 -21 3 -5 -7 -29 -21 -54 -15 -24 -28 -56 -30 -70 -1 -14 -10 -34 -19 -44 -9 -9 -13 -20 -10 -24 4 -3 -3 -21 -15 -40 -11 -19 -21 -40 -21 -46 0 -18 -38 -99 -50 -106 -6 -4 -8 -11 -4 -16 3 -5 -2 -22 -12 -37 -10 -15 -19 -34 -19 -44 -1 -9 -10 -29 -20 -45 -11 -15 -18 -32 -17 -36 2 -8 -22 -57 -43 -86 -5 -7 -10 -19 -10 -25 0 -10 -55 -129 -76 -166 -5 -8 -12 -22 -15 -30 -3 -8 -9 -24 -14 -35 -21 -55 -65 -143 -81 -164 -10 -13 -16 -28 -13 -33 3 -5 -2 -18 -12 -29 -10 -11 -18 -29 -19 -39 -1 -11 -9 -28 -18 -38 -9 -10 -17 -25 -17 -34 0 -8 -9 -27 -20 -41 -11 -14 -20 -32 -20 -40 0 -8 -9 -26 -20 -40 -11 -14 -20 -32 -20 -40 0 -8 -9 -26 -20 -40 -11 -14 -20 -32 -20 -40 0 -8 -9 -26 -20 -40 -11 -14 -20 -32 -20 -40 0 -8 -13 -31 -30 -52 -16 -21 -30 -43 -30 -50 0 -17 -27 -71 -65 -130 -18 -27 -35 -62 -38 -76 -4 -14 -20 -43 -37 -64 -16 -21 -30 -46 -30 -55 0 -9 -11 -34 -25 -54 -14 -20 -25 -41 -25 -45 0 -5 -13 -25 -30 -46 -16 -21 -30 -45 -30 -55 0 -9 -9 -25 -20 -35 -11 -10 -20 -25 -20 -33 0 -8 -11 -27 -25 -44 -14 -16 -25 -38 -25 -49 0 -11 -7 -22 -15 -25 -8 -4 -12 -10 -9 -16 3 -5 -6 -21 -20 -35 -14 -14 -26 -33 -26 -43 0 -9 -9 -25 -20 -35 -11 -10 -20 -26 -20 -36 0 -10 -7 -22 -14 -26 -8 -5 -26 -34 -40 -66 -14 -31 -30 -57 -36 -57 -5 0 -10 -7 -10 -16 0 -8 -13 -32 -30 -52 -16 -20 -37 -55 -46 -77 -9 -22 -27 -51 -40 -64 -13 -13 -24 -30 -24 -37 0 -17 -40 -84 -50 -84 -4 0 -13 -14 -19 -31 -6 -17 -24 -46 -41 -65 -16 -19 -30 -41 -30 -49 0 -8 -11 -26 -25 -41 -14 -15 -25 -32 -25 -39 0 -6 -13 -26 -30 -45 -16 -18 -33 -43 -36 -54 -9 -28 -56 -99 -71 -109 -7 -4 -13 -14 -13 -21 0 -7 -9 -21 -20 -31 -11 -10 -20 -24 -20 -31 0 -7 -9 -21 -19 -31 -10 -10 -31 -40 -46 -68 -16 -27 -34 -54 -41 -58 -8 -4 -14 -13 -14 -20 0 -7 -14 -29 -31 -50 -17 -21 -30 -39 -28 -41 16 -11 392 -206 400 -206 5 0 9 -901 9 -2343 0 -1289 3 -2347 7 -2351 4 -3 49 35 100 86 51 51 95 91 98 88 2 -3 53 43 113 102 60 59 106 110 103 113 -3 3 5 8 17 12 12 3 22 12 22 19 0 8 7 14 16 14 9 0 18 9 21 20 3 11 11 20 18 20 8 0 29 18 48 40 19 22 39 40 44 40 6 0 13 9 16 20 3 11 12 20 21 20 9 0 16 4 16 10 0 10 96 103 113 109 18 6 62 45 64 56 1 5 8 12 15 15 26 10 88 65 88 78 0 6 4 12 9 12 5 0 45 34 88 75 43 41 83 75 90 75 7 0 20 11 29 25 9 14 22 25 30 25 7 0 21 11 30 25 9 14 21 25 28 25 6 0 40 30 75 65 36 36 70 65 77 65 6 0 14 6 17 14 3 8 22 22 43 32 20 10 39 26 42 36 2 10 8 18 12 18 4 0 27 18 51 40 24 22 49 40 56 40 7 0 17 9 23 20 6 11 17 20 25 20 8 0 19 9 25 20 6 11 15 20 21 20 5 0 29 18 51 40 23 22 48 40 55 40 7 0 17 9 23 20 6 11 17 20 25 20 8 0 19 9 25 20 6 11 15 20 19 20 5 0 23 14 41 30 18 17 48 38 68 47 19 9 50 32 68 50 18 18 38 33 43 33 5 0 11 7 14 15 4 8 21 21 39 28 18 8 56 36 83 62 28 26 62 51 78 57 15 6 32 19 38 29 5 10 14 19 19 19 5 0 23 13 40 29 18 16 56 41 86 57 30 15 54 33 54 39 0 7 24 24 53 38 28 15 74 47 101 72 26 25 55 45 62 45 8 0 14 4 14 8 0 9 122 93 152 104 10 4 18 12 18 17 0 5 15 14 34 21 18 6 53 29 76 50 24 22 51 40 60 40 10 0 34 16 54 35 21 19 44 35 52 35 8 0 22 9 31 20 10 11 23 20 30 20 6 0 16 6 20 13 11 17 90 67 107 67 7 0 16 7 20 15 3 9 25 24 49 34 24 11 56 31 70 45 14 14 34 26 43 26 9 0 27 11 40 25 13 14 32 25 42 25 11 0 22 7 26 15 3 8 12 15 20 15 8 0 26 11 40 25 14 14 32 25 40 25 8 0 27 11 42 25 15 14 35 25 44 25 10 0 20 7 24 15 3 8 12 15 21 15 8 0 15 4 15 9 0 5 15 14 33 22 17 7 46 23 63 36 17 13 38 23 46 23 9 0 35 16 58 35 23 19 48 35 56 35 8 0 23 9 34 20 11 11 29 20 39 20 10 0 22 7 25 16 3 9 11 14 18 12 6 -2 22 6 35 18 l23 21 0 3747 0 3746 -1010 0 c-620 0 -1010 -4 -1010 -9z"/>
 <path d="M3955 3622 c-16 -8 -32 -19 -33 -24 -5 -11 -139 -78 -156 -78 -8 0 -17 -7 -20 -16 -3 -9 -13 -14 -20 -11 -8 3 -31 -7 -52 -24 -20 -16 -43 -29 -51 -29 -8 0 -26 -9 -40 -20 -14 -11 -32 -20 -40 -20 -8 0 -26 -9 -40 -20 -14 -11 -32 -20 -40 -20 -8 0 -26 -9 -40 -20 -14 -11 -34 -20 -43 -20 -10 0 -23 -7 -30 -15 -7 -9 -19 -14 -25 -11 -7 2 -28 -5 -46 -17 -67 -41 -180 -97 -198 -97 -9 0 -32 -11 -51 -25 -18 -13 -55 -32 -81 -40 -27 -9 -51 -21 -54 -26 -4 -5 -14 -9 -24 -9 -10 0 -24 -6 -30 -14 -7 -8 -27 -18 -44 -21 -18 -4 -40 -14 -49 -22 -9 -8 -21 -12 -26 -9 -5 3 -22 -4 -37 -16 -15 -11 -38 -22 -52 -24 -13 -1 -33 -10 -42 -18 -10 -9 -27 -16 -38 -16 -11 0 -37 -11 -57 -25 -20 -14 -49 -28 -64 -31 -15 -4 -42 -15 -59 -26 -18 -11 -37 -17 -42 -14 -5 3 -14 -1 -21 -9 -7 -8 -19 -15 -26 -15 -8 0 -22 -4 -32 -9 -38 -19 -78 -35 -95 -37 -9 -1 -26 -9 -36 -18 -9 -9 -22 -16 -28 -16 -6 0 -24 -7 -39 -15 -16 -8 -36 -15 -44 -15 -9 0 -26 -7 -38 -16 -12 -8 -26 -13 -31 -10 -5 3 -14 -1 -21 -9 -7 -8 -18 -15 -25 -15 -7 0 -26 -7 -41 -15 -16 -8 -37 -15 -46 -15 -9 0 -20 -5 -23 -11 -4 -5 -12 -8 -18 -6 -7 3 -28 -3 -47 -13 -61 -31 -108 -50 -123 -50 -9 0 -19 -5 -22 -11 -4 -5 -12 -8 -18 -6 -7 2 -31 -7 -53 -20 -23 -13 -55 -25 -72 -27 -16 -3 -40 -10 -53 -17 -49 -25 -59 -29 -78 -29 -11 0 -22 -4 -25 -9 -3 -4 -22 -11 -41 -14 -20 -3 -59 -17 -88 -31 -29 -13 -66 -28 -82 -32 -17 -4 -35 -11 -42 -16 -6 -5 -22 -11 -35 -12 -25 -4 -46 -11 -95 -32 -17 -8 -35 -14 -40 -13 -9 2 -29 -5 -80 -27 -17 -8 -35 -14 -40 -13 -8 2 -18 -1 -60 -18 -10 -4 -22 -7 -28 -8 -5 0 -16 -4 -22 -8 -7 -5 -17 -6 -21 -3 -5 3 -32 -6 -60 -20 -29 -14 -56 -22 -62 -19 -5 3 -26 -4 -48 -15 -22 -11 -54 -22 -72 -25 -18 -2 -48 -11 -68 -21 -19 -9 -47 -17 -61 -19 -24 -2 -35 -5 -78 -22 -10 -4 -22 -8 -28 -9 -5 -1 -12 -3 -15 -4 -3 -1 -15 -4 -26 -5 -12 -1 -35 -8 -53 -16 l-31 -14 0 -1007 0 -1008 3947 2 3947 3 15 30 c8 17 18 37 23 45 4 8 13 26 19 40 47 105 71 150 78 150 11 0 26 40 22 55 -1 5 4 14 12 20 7 5 17 22 20 37 4 15 18 39 32 54 14 15 25 35 25 46 0 10 7 21 15 24 8 4 13 10 10 15 -7 10 54 119 66 119 5 0 9 9 9 19 0 11 11 33 25 49 14 17 25 39 25 49 0 11 11 29 25 41 14 12 25 30 25 40 0 10 9 25 20 34 11 10 22 30 26 45 3 15 12 33 18 38 19 17 46 63 46 80 0 8 9 24 20 35 11 11 20 25 20 31 0 16 51 99 61 99 5 0 9 9 9 20 0 12 11 31 25 44 14 13 25 30 25 38 0 8 12 33 28 54 15 21 36 56 47 78 11 21 26 40 33 43 6 3 12 12 12 19 0 18 50 94 61 94 5 0 9 9 9 20 0 12 11 32 25 46 14 14 25 29 25 34 0 15 59 104 75 113 8 4 15 15 15 23 0 15 26 62 44 79 6 6 20 28 31 49 11 22 32 52 48 67 15 15 27 32 27 38 0 17 50 89 66 95 8 3 14 15 14 26 0 11 7 23 15 26 8 4 15 11 15 17 0 12 100 160 112 165 4 2 15 19 24 38 9 19 30 49 47 67 16 18 41 47 55 65 l24 32 -2559 0 -2560 0 -11 23 c-6 12 -16 40 -22 62 -6 22 -15 49 -20 60 -4 11 -14 43 -21 70 -6 28 -15 55 -19 60 -4 6 -13 33 -20 60 -7 28 -16 55 -20 60 -4 6 -10 25 -14 43 -3 19 -12 48 -20 65 -8 18 -17 46 -21 62 -4 17 -12 44 -19 60 -7 17 -42 119 -77 227 -35 109 -66 197 -69 197 -3 -1 -18 -8 -35 -17z"/>
 </g>

</svg>