<!DOCTYPE svg PUBLIC "-//W3C//DTD SVG 20010904//EN" "http://www.w3.org/TR/2001/REC-SVG-20010904/DTD/svg10.dtd">
<svg version="1.0" xmlns="http://www.w3.org/2000/svg" width="1600px" height="1600px" viewBox="0 0 16000 16000" preserveAspectRatio="xMidYMid meet">
<g id="layer101" fill="#131313" stroke="none">
 <path d="M0 8000 l0 -8000 8000 0 8000 0 0 8000 0 8000 -8000 0 -8000 0 0 -8000z"/>
 </g>
<g id="layer102" fill="#72a59d" stroke="none">
 <path d="M0 15987 c0 -8 6 -27 14 -43 8 -16 74 -182 146 -369 72 -187 147 -378 165 -425 19 -47 76 -195 129 -330 52 -135 99 -256 105 -270 5 -14 92 -236 191 -495 100 -258 197 -508 215 -555 42 -108 77 -197 237 -610 71 -184 145 -373 163 -420 19 -47 76 -195 129 -330 52 -135 99 -256 105 -270 5 -14 92 -236 191 -495 100 -258 202 -522 227 -585 81 -209 157 -405 285 -735 38 -99 85 -218 103 -265 19 -47 61 -155 94 -240 156 -405 534 -1382 556 -1435 13 -33 56 -143 95 -245 86 -224 142 -367 187 -479 18 -47 30 -88 26 -92 -21 -18 -618 -55 -1126 -69 -638 -18 -1532 21 -2131 93 l-106 13 0 -3668 0 -3668 8000 0 8000 0 0 8000 0 8000 -2640 0 c-1452 0 -2640 -2 -2640 -5 0 -3 4 -13 10 -23 15 -28 194 -352 210 -381 52 -92 95 -167 103 -176 4 -5 30 -48 57 -95 27 -47 53 -90 58 -96 5 -5 15 -21 22 -35 36 -67 416 -637 467 -699 7 -8 36 -48 65 -89 113 -158 266 -361 283 -376 6 -5 40 -48 75 -95 36 -47 74 -94 85 -105 12 -11 59 -67 105 -125 46 -58 91 -112 100 -120 9 -8 45 -49 81 -90 168 -195 257 -290 588 -621 283 -282 472 -463 550 -525 15 -12 -599 -639 -889 -908 -822 -760 -1619 -1360 -2585 -1944 -278 -168 -511 -297 -935 -520 -266 -139 -927 -445 -942 -435 -5 2 -8 466 -8 1031 l0 1027 -167 110 c-93 60 -386 253 -653 429 -267 175 -537 353 -600 394 -63 42 -241 158 -395 260 -154 101 -353 232 -443 290 -89 59 -282 186 -430 283 -147 97 -559 369 -917 604 -357 234 -729 478 -825 542 -355 234 -919 604 -1237 813 -569 374 -1070 703 -1298 853 -121 80 -326 215 -455 299 -129 85 -341 224 -470 309 -312 205 -307 202 -314 187 -4 -7 -4 -3 -2 10 2 12 0 22 -5 22 -5 0 -9 -6 -9 -13z"/>
 </g>
<g id="layer103" fill="#7ab4aa" stroke="none">
 <path d="M10720 15995 c0 -3 4 -13 10 -23 15 -28 194 -352 210 -381 52 -92 95 -167 103 -176 4 -5 30 -48 57 -95 27 -47 53 -90 58 -96 5 -5 15 -21 22 -35 36 -67 416 -637 467 -699 7 -8 36 -48 65 -89 113 -158 266 -361 283 -376 6 -5 40 -48 75 -95 36 -47 74 -94 85 -105 12 -11 59 -67 105 -125 46 -58 91 -112 100 -120 9 -8 45 -49 81 -90 168 -195 257 -290 588 -621 283 -282 475 -466 550 -525 7 -6 -52 -74 -116 -137 -35 -33 -63 -65 -63 -72 0 -7 -49 -58 -110 -115 -60 -56 -110 -108 -110 -116 0 -8 -7 -14 -15 -14 -8 0 -15 -7 -15 -16 0 -9 -9 -18 -20 -21 -11 -3 -20 -12 -20 -20 0 -8 -9 -17 -20 -20 -11 -3 -20 -12 -20 -20 0 -8 -9 -17 -20 -20 -11 -3 -20 -12 -20 -19 0 -8 -11 -19 -23 -23 -13 -5 -73 -61 -132 -125 -60 -64 -114 -116 -121 -116 -7 0 -39 -29 -70 -65 -32 -36 -63 -65 -69 -65 -6 0 -34 -25 -62 -55 -28 -30 -55 -55 -60 -55 -6 0 -24 -18 -42 -40 -17 -22 -38 -40 -45 -40 -8 0 -26 -16 -40 -35 -15 -19 -33 -35 -41 -35 -7 0 -23 -13 -35 -30 -12 -16 -27 -30 -34 -30 -8 0 -26 -16 -40 -35 -15 -19 -33 -35 -41 -35 -8 0 -19 -9 -25 -20 -6 -11 -17 -20 -25 -20 -7 0 -23 -13 -35 -30 -12 -16 -27 -30 -35 -30 -7 0 -20 -11 -29 -25 -9 -14 -21 -25 -27 -25 -6 0 -20 -11 -31 -25 -11 -14 -25 -25 -31 -25 -7 0 -18 -9 -25 -20 -7 -11 -19 -20 -27 -20 -8 0 -19 -9 -25 -20 -6 -11 -16 -20 -23 -20 -7 0 -18 -9 -25 -20 -7 -11 -19 -20 -27 -20 -8 0 -15 -4 -15 -9 0 -10 -115 -101 -128 -101 -5 0 -12 -7 -16 -15 -3 -8 -12 -15 -20 -15 -7 0 -16 -7 -20 -15 -3 -8 -12 -15 -20 -15 -9 0 -20 -9 -26 -20 -6 -11 -17 -20 -24 -20 -8 0 -16 -7 -20 -15 -3 -8 -12 -15 -21 -15 -8 0 -15 -4 -15 -10 0 -5 -16 -17 -35 -26 -20 -9 -40 -25 -46 -35 -5 -11 -14 -19 -19 -19 -5 0 -21 -11 -36 -25 -15 -14 -33 -25 -39 -25 -7 0 -15 -7 -19 -15 -3 -8 -12 -15 -21 -15 -8 0 -15 -4 -15 -8 0 -9 -122 -100 -147 -109 -8 -3 -27 -17 -41 -29 -14 -13 -29 -24 -33 -24 -4 0 -19 -10 -33 -23 -13 -12 -37 -29 -52 -37 -16 -8 -36 -23 -46 -32 -10 -10 -22 -18 -27 -18 -6 0 -22 -11 -36 -24 -14 -13 -42 -32 -61 -41 -20 -9 -44 -25 -55 -36 -10 -10 -23 -19 -29 -19 -5 0 -19 -9 -30 -20 -11 -11 -27 -20 -35 -20 -8 0 -15 -4 -15 -9 0 -7 -57 -45 -142 -96 -9 -5 -90 -56 -181 -112 -90 -57 -168 -103 -174 -103 -5 0 -25 -11 -44 -26 -19 -14 -52 -34 -74 -45 -22 -10 -58 -32 -80 -48 -38 -27 -128 -78 -240 -136 -27 -15 -72 -39 -100 -55 -82 -48 -180 -99 -431 -223 -132 -65 -246 -122 -254 -127 -8 -6 -40 -22 -70 -36 -129 -61 -218 -103 -263 -122 -49 -22 -104 -46 -185 -82 -26 -12 -63 -30 -83 -40 -20 -11 -39 -16 -43 -13 -3 4 -6 472 -6 1040 0 569 -4 1032 -9 1029 -4 -3 -25 10 -46 28 -21 19 -50 40 -64 47 -14 8 -42 26 -61 41 -19 16 -41 28 -50 28 -8 0 -20 8 -26 18 -6 9 -36 30 -67 46 -31 15 -62 35 -69 43 -7 9 -31 24 -53 33 -22 10 -53 29 -68 44 -16 14 -43 32 -60 40 -18 7 -47 28 -66 45 -19 17 -40 31 -47 31 -6 0 -33 18 -60 40 -26 21 -51 37 -54 35 -4 -2 -25 11 -46 30 -21 20 -58 45 -81 56 -23 11 -43 24 -45 28 -4 10 -132 91 -144 91 -5 0 -19 11 -32 24 -12 14 -43 34 -67 46 -25 12 -45 26 -45 30 0 5 -10 12 -22 16 -13 4 -33 16 -45 28 -12 12 -43 32 -70 45 -26 14 -58 34 -71 47 -13 12 -40 30 -60 39 -20 10 -42 23 -47 30 -15 18 -168 115 -182 115 -6 0 -18 8 -25 19 -7 10 -40 33 -73 51 -33 17 -65 38 -70 45 -6 7 -26 20 -45 28 -19 8 -50 29 -69 46 -19 17 -40 31 -47 31 -7 0 -35 18 -62 39 -27 22 -52 38 -54 35 -3 -2 -22 12 -44 31 -21 20 -58 45 -81 56 -23 11 -43 24 -45 28 -4 10 -132 91 -144 91 -5 0 -19 11 -32 24 -12 14 -43 34 -67 46 -25 12 -45 26 -45 30 0 5 -10 12 -22 16 -13 4 -33 16 -45 28 -12 12 -43 32 -70 45 -26 14 -58 34 -71 47 -13 12 -40 30 -60 39 -20 10 -41 23 -47 29 -15 19 -163 116 -175 116 -7 0 -19 9 -28 19 -10 11 -44 34 -77 51 -33 17 -65 38 -70 45 -6 7 -26 20 -45 28 -19 8 -50 29 -69 46 -19 17 -40 31 -47 31 -7 0 -35 18 -63 40 -28 22 -55 40 -61 40 -5 0 -18 8 -28 18 -27 27 -79 62 -84 57 -3 -3 -18 7 -33 21 -34 31 -249 172 -282 185 -13 5 -23 13 -23 18 0 5 -13 14 -30 20 -16 5 -30 14 -30 20 0 5 -13 14 -30 20 -16 5 -30 14 -30 20 0 5 -14 14 -31 20 -18 6 -42 22 -56 35 -13 13 -41 32 -61 41 -20 10 -41 23 -47 29 -17 20 -163 116 -177 116 -7 0 -18 8 -24 18 -6 9 -36 30 -67 46 -31 15 -62 35 -69 43 -7 9 -31 24 -53 33 -22 10 -55 32 -74 49 -19 17 -40 31 -47 31 -7 0 -35 18 -63 40 -28 22 -55 40 -61 40 -5 0 -18 8 -28 18 -27 27 -79 62 -84 57 -2 -3 -22 11 -44 30 -21 20 -58 45 -81 56 -23 11 -43 24 -45 28 -4 10 -114 80 -144 92 -13 4 -24 13 -24 18 0 5 -13 14 -30 20 -16 5 -30 14 -30 20 0 5 -13 14 -30 20 -16 5 -30 14 -30 20 0 5 -10 13 -22 17 -13 4 -33 16 -45 28 -12 12 -43 32 -70 45 -26 14 -58 34 -70 46 -12 11 -34 27 -50 35 -15 8 -44 27 -63 42 -19 16 -41 28 -50 28 -8 0 -20 8 -26 18 -6 9 -36 30 -67 46 -31 15 -62 35 -69 43 -7 9 -31 24 -53 33 -22 10 -53 29 -68 44 -16 14 -43 32 -60 40 -18 7 -47 28 -66 45 -19 17 -40 31 -47 31 -6 0 -33 18 -60 40 -26 21 -51 37 -54 35 -4 -2 -25 11 -46 30 -21 20 -58 45 -81 56 -23 11 -43 24 -45 28 -4 10 -132 91 -144 91 -5 0 -19 11 -32 24 -12 14 -43 34 -67 46 -25 12 -45 26 -45 30 0 5 -10 12 -22 16 -13 4 -33 16 -45 28 -12 12 -43 32 -70 45 -26 14 -58 34 -71 47 -13 12 -40 30 -60 39 -20 10 -42 23 -47 30 -15 18 -168 115 -182 115 -6 0 -18 8 -25 19 -7 10 -40 33 -73 51 -33 17 -65 38 -70 45 -6 7 -26 20 -45 28 -19 8 -50 29 -69 46 -19 17 -40 31 -47 31 -7 0 -35 18 -62 39 -27 22 -52 38 -54 35 -3 -2 -22 12 -44 31 -21 20 -58 45 -81 56 -23 11 -43 24 -45 28 -2 5 -25 22 -53 39 -34 21 -52 27 -57 19 -8 -12 0 -30 10 -23 4 2 7 -10 8 -27 0 -18 11 -54 23 -82 28 -61 34 -77 56 -140 10 -27 21 -54 25 -60 4 -5 10 -23 14 -39 4 -15 16 -49 27 -75 32 -71 37 -84 45 -111 3 -14 15 -45 26 -70 32 -72 36 -82 53 -137 9 -29 21 -55 26 -58 5 -4 9 -13 9 -22 0 -8 11 -37 25 -65 14 -27 25 -58 25 -67 0 -10 3 -20 6 -24 4 -3 16 -34 28 -69 22 -62 49 -126 67 -160 5 -10 9 -23 9 -29 0 -6 7 -27 16 -47 28 -64 32 -75 59 -152 14 -41 30 -79 34 -85 5 -5 11 -23 15 -39 7 -27 37 -100 57 -138 5 -10 9 -23 9 -29 0 -6 7 -27 16 -47 24 -56 31 -72 50 -129 10 -29 22 -53 26 -53 4 0 8 -10 8 -23 0 -13 4 -27 8 -32 4 -6 16 -36 27 -67 10 -32 22 -58 27 -58 4 0 8 -10 8 -23 0 -12 9 -40 19 -61 11 -21 23 -51 26 -67 4 -16 11 -31 16 -34 5 -4 9 -14 9 -23 0 -9 6 -29 14 -43 7 -14 16 -38 20 -54 4 -16 21 -55 37 -88 16 -32 29 -65 29 -73 0 -8 9 -33 19 -57 11 -23 23 -53 26 -67 4 -14 16 -45 27 -70 26 -59 32 -75 53 -135 10 -27 21 -54 25 -60 4 -5 10 -23 14 -39 4 -15 16 -49 27 -75 32 -71 37 -84 45 -111 3 -14 15 -45 26 -70 32 -72 36 -82 53 -137 9 -29 21 -55 26 -58 5 -4 9 -13 9 -22 0 -8 11 -37 25 -65 14 -27 25 -58 25 -67 0 -10 3 -20 6 -24 4 -3 16 -34 28 -69 22 -62 49 -126 67 -160 5 -10 9 -23 9 -29 0 -6 7 -27 16 -47 28 -64 32 -75 59 -152 14 -41 30 -79 34 -85 5 -5 11 -23 15 -39 7 -27 37 -100 57 -138 5 -10 9 -23 9 -29 0 -6 7 -27 16 -47 24 -56 31 -72 50 -129 10 -29 22 -53 26 -53 4 0 8 -10 8 -23 0 -13 4 -27 8 -32 4 -6 16 -36 27 -67 10 -32 22 -58 27 -58 4 0 8 -10 8 -23 0 -12 9 -40 19 -61 11 -21 23 -51 26 -67 4 -16 11 -31 16 -34 5 -4 9 -14 9 -23 0 -9 6 -29 14 -43 7 -14 16 -38 20 -54 4 -16 21 -55 37 -88 16 -32 29 -65 29 -73 0 -8 9 -33 19 -57 11 -23 23 -53 26 -67 9 -29 40 -103 61 -142 8 -14 14 -33 14 -42 0 -9 9 -35 19 -59 11 -23 23 -53 26 -67 4 -14 16 -45 27 -70 32 -72 36 -84 44 -110 3 -14 15 -45 26 -70 32 -72 36 -82 53 -137 9 -29 21 -55 26 -58 5 -4 9 -13 9 -22 0 -8 11 -37 25 -65 14 -27 25 -58 25 -67 0 -10 3 -20 6 -24 4 -3 16 -34 28 -69 24 -67 49 -126 72 -170 8 -14 14 -33 14 -42 0 -9 4 -24 9 -34 14 -27 27 -61 51 -132 13 -36 28 -74 35 -85 6 -11 15 -33 19 -49 4 -15 16 -49 27 -75 27 -59 33 -75 54 -136 10 -27 21 -54 25 -60 4 -5 10 -23 14 -39 4 -15 16 -49 27 -75 29 -65 35 -79 55 -138 10 -29 22 -53 26 -53 4 0 8 -10 8 -22 0 -12 8 -40 19 -62 10 -23 28 -70 41 -106 12 -36 26 -69 30 -75 4 -5 10 -23 14 -39 4 -17 21 -56 37 -89 16 -32 29 -65 29 -73 0 -8 4 -22 9 -32 15 -29 29 -66 37 -92 8 -28 39 -102 60 -142 8 -14 14 -33 14 -42 0 -9 9 -35 19 -59 11 -23 23 -53 26 -67 4 -14 16 -45 27 -70 11 -25 23 -54 28 -65 4 -11 16 -44 28 -73 l20 -52 -21 -5 c-12 -2 -40 -4 -62 -3 -22 0 -71 -2 -110 -6 -158 -15 -283 -24 -445 -30 -58 -2 -166 -7 -240 -11 -74 -4 -353 -7 -620 -7 -267 0 -546 3 -620 7 -74 4 -182 9 -240 11 -159 6 -271 14 -445 30 -38 3 -95 8 -125 10 -69 5 -153 12 -205 19 -22 2 -62 7 -90 10 -27 3 -74 7 -103 9 l-52 3 0 -3664 0 -3663 8000 0 8000 0 0 8000 0 8000 -2640 0 c-1452 0 -2640 -2 -2640 -5z m-10609 -142 c32 -52 16 -51 -20 2 -17 25 -31 49 -31 52 0 11 30 -20 51 -54z m105 -148 c21 -30 34 -58 31 -61 -3 -3 -17 12 -31 34 -14 22 -30 43 -36 47 -10 6 -14 35 -5 35 3 0 21 -25 41 -55z m104 -147 c6 -10 7 -18 2 -18 -10 0 -62 74 -62 87 0 9 45 -43 60 -69z m67 -96 c22 -26 29 -42 18 -42 -8 0 -65 82 -64 94 0 6 6 3 12 -7 7 -10 22 -31 34 -45z m47 -68 c10 -25 -1 -29 -14 -5 -6 12 -7 21 -1 21 5 0 12 -7 15 -16z m36 -44 c0 -5 -4 -10 -10 -10 -5 0 -10 5 -10 10 0 6 5 10 10 10 6 0 10 -4 10 -10z m20 -41 c0 -6 -4 -7 -10 -4 -5 3 -10 11 -10 16 0 6 5 7 10 4 6 -3 10 -11 10 -16z m105 -142 c10 -15 16 -30 13 -32 -5 -5 -68 81 -68 92 0 9 33 -27 55 -60z m81 -114 c-2 -2 7 -16 20 -30 13 -14 24 -31 24 -37 0 -16 -69 66 -70 83 0 11 3 11 15 1 9 -7 14 -15 11 -17z m84 -117 c0 -7 7 -19 16 -26 22 -19 37 -50 24 -50 -9 0 -60 72 -60 85 0 3 5 5 10 5 6 0 10 -6 10 -14z m77 -113 c36 -47 85 -124 80 -129 -2 -3 -28 29 -55 70 -28 42 -48 76 -45 76 3 0 12 -8 20 -17z m136 -203 c-6 -6 -33 30 -33 44 0 6 9 0 20 -14 10 -14 16 -27 13 -30z m51 -66 c5 -14 4 -15 -9 -4 -17 14 -19 20 -6 20 5 0 12 -7 15 -16z m49 -63 c9 -16 17 -33 17 -38 0 -10 -49 49 -50 60 0 17 17 5 33 -22z m47 -72 c0 -6 -4 -7 -10 -4 -5 3 -10 11 -10 16 0 6 5 7 10 4 6 -3 10 -11 10 -16z m50 -65 c17 -26 29 -48 27 -50 -5 -6 -67 73 -67 85 0 19 8 12 40 -35z m101 -146 c11 -16 16 -28 12 -28 -10 0 -73 86 -73 98 0 7 22 -18 61 -70z m88 -124 c26 -44 27 -57 0 -24 -29 37 -41 60 -30 60 5 0 18 -16 30 -36z m95 -143 c-6 -6 -53 50 -53 64 0 6 13 -5 29 -24 16 -19 27 -37 24 -40z m100 -134 c10 -15 14 -27 10 -27 -10 0 -64 73 -64 86 0 10 32 -24 54 -59z m76 -105 c18 -22 26 -42 16 -42 -7 0 -76 97 -76 106 1 5 10 -2 21 -16 10 -14 28 -36 39 -48z m44 -68 c5 -14 4 -15 -9 -4 -17 14 -19 20 -6 20 5 0 12 -7 15 -16z m81 -122 c-6 -6 -44 39 -45 53 0 6 11 -3 25 -19 14 -16 23 -31 20 -34z m85 -115 c-1 -14 -60 53 -60 67 0 6 14 -4 30 -22 17 -18 30 -39 30 -45z m91 -123 c17 -25 29 -48 26 -50 -5 -5 -77 89 -77 100 0 14 21 -6 51 -50z m109 -156 c6 -11 7 -18 1 -18 -8 0 -50 60 -59 85 -5 13 45 -45 58 -67z m70 -98 c21 -27 26 -45 10 -35 -13 8 -70 91 -70 102 1 4 10 -3 20 -17 11 -14 29 -36 40 -50z m44 -66 c5 -14 4 -15 -9 -4 -17 14 -19 20 -6 20 5 0 12 -7 15 -16z m62 -91 c-7 -7 -26 7 -26 19 0 6 6 6 15 -2 9 -7 13 -15 11 -17z m69 -95 c25 -30 48 -69 43 -73 -5 -5 -88 110 -88 122 0 4 7 -1 16 -12 8 -11 21 -28 29 -37z m75 -109 c0 -6 -4 -7 -10 -4 -5 3 -10 11 -10 16 0 6 5 7 10 4 6 -3 10 -11 10 -16z m30 -34 c7 -8 10 -15 7 -15 -3 0 5 -12 18 -26 25 -27 32 -44 18 -44 -5 0 -16 12 -25 28 -10 15 -25 37 -34 50 -18 24 -4 31 16 7z m130 -187 c7 -12 7 -18 0 -18 -10 0 -60 73 -60 87 0 9 45 -43 60 -69z m58 -82 c32 -43 41 -63 23 -51 -14 8 -72 95 -63 95 4 0 22 -20 40 -44z m56 -82 c9 -24 7 -28 -9 -14 -17 14 -20 30 -6 30 5 0 12 -7 15 -16z m48 -64 c20 -36 7 -40 -16 -5 -18 27 -20 35 -8 35 4 0 15 -14 24 -30z m58 -88 c0 -5 8 -17 18 -28 27 -28 55 -74 50 -79 -2 -3 -23 22 -47 55 -23 33 -37 60 -31 60 5 0 10 -4 10 -8z m100 -143 c0 -6 -4 -7 -10 -4 -5 3 -10 11 -10 16 0 6 5 7 10 4 6 -3 10 -11 10 -16z m36 -46 c-3 -3 6 -17 20 -31 13 -15 24 -31 24 -37 0 -15 -69 68 -70 84 0 11 3 11 15 1 9 -7 13 -15 11 -17z m103 -148 c18 -25 28 -45 23 -45 -9 0 -62 73 -62 85 0 11 8 3 39 -40z m58 -82 c28 -36 64 -95 60 -99 -2 -2 -23 23 -45 56 -23 33 -39 60 -35 60 3 0 12 -8 20 -17z m137 -202 c-6 -7 -44 40 -43 54 0 6 11 -3 24 -20 13 -16 22 -32 19 -34z m100 -134 c10 -15 14 -27 10 -27 -10 0 -64 73 -64 86 0 10 32 -24 54 -59z m76 -105 c18 -22 26 -42 16 -42 -7 0 -76 97 -76 106 1 5 10 -2 21 -16 10 -14 28 -36 39 -48z m50 -73 c0 -6 -4 -7 -10 -4 -5 3 -10 11 -10 16 0 6 5 7 10 4 6 -3 10 -11 10 -16z m41 -61 c26 -31 41 -58 32 -58 -9 1 -66 80 -57 80 3 0 14 -10 25 -22z m119 -171 c0 -13 -59 53 -60 68 0 5 14 -5 30 -23 17 -18 30 -38 30 -45z m94 -136 c-6 -6 -53 50 -53 64 0 6 13 -5 29 -24 16 -19 27 -37 24 -40z m26 -32 c0 -6 -4 -7 -10 -4 -5 3 -10 11 -10 16 0 6 5 7 10 4 6 -3 10 -11 10 -16z m80 -111 c6 -10 7 -18 3 -18 -9 0 -63 74 -63 87 0 9 44 -42 60 -69z m50 -82 c0 -6 -9 0 -20 14 -26 33 -25 52 0 21 11 -13 20 -28 20 -35z"/>
 </g>
<g id="layer104" fill="#cb96a9" stroke="none">
 <path d="M10720 15995 c0 -3 4 -13 10 -23 15 -28 194 -352 210 -381 52 -92 95 -167 103 -176 4 -5 30 -48 57 -95 27 -47 53 -90 58 -96 5 -5 15 -21 22 -35 36 -67 416 -637 467 -699 7 -8 36 -48 65 -89 113 -158 266 -361 283 -376 6 -5 40 -48 75 -95 36 -47 74 -94 85 -105 12 -11 59 -67 105 -125 46 -58 91 -112 100 -120 9 -8 45 -49 81 -90 167 -195 257 -290 588 -621 402 -402 721 -690 1006 -910 44 -34 89 -71 101 -83 12 -12 60 -50 108 -86 124 -92 198 -148 217 -164 9 -8 50 -37 90 -65 116 -80 165 -115 199 -141 18 -14 37 -28 43 -32 33 -20 -438 -989 -740 -1523 -939 -1657 -2135 -3093 -3588 -4305 -2098 -1751 -4639 -2918 -7335 -3370 -896 -150 -1660 -211 -2620 -210 l-505 1 -3 -990 -2 -991 8000 0 8000 0 0 8000 0 8000 -2640 0 c-1452 0 -2640 -2 -2640 -5z"/>
 <path d="M30 15920 c0 -6 4 -18 9 -28 19 -34 41 -90 41 -101 0 -6 4 -19 9 -29 5 -9 13 -28 19 -42 5 -14 17 -41 26 -62 9 -20 16 -43 16 -51 0 -9 4 -18 9 -22 5 -3 17 -29 26 -58 9 -28 23 -64 31 -79 8 -14 14 -33 14 -42 0 -9 9 -33 20 -53 11 -21 20 -45 20 -53 0 -9 4 -20 9 -26 10 -9 71 -163 71 -177 0 -5 11 -32 25 -61 14 -29 28 -67 31 -84 4 -18 10 -32 15 -32 5 0 9 -9 9 -20 0 -11 4 -28 9 -38 21 -39 41 -91 41 -105 0 -9 5 -19 10 -22 6 -3 10 -14 10 -23 0 -9 12 -39 25 -67 14 -27 25 -56 25 -62 0 -7 13 -41 29 -76 16 -35 35 -83 41 -107 6 -24 20 -59 31 -79 10 -20 19 -41 19 -48 0 -8 4 -21 9 -31 19 -34 41 -90 41 -101 0 -6 4 -19 9 -29 5 -9 14 -30 21 -47 7 -16 19 -42 26 -57 8 -14 14 -34 14 -45 0 -10 7 -26 15 -36 7 -10 19 -41 25 -68 7 -27 15 -49 20 -49 4 0 13 -21 20 -47 7 -27 17 -52 21 -57 5 -6 9 -17 9 -25 0 -9 7 -29 16 -46 9 -16 25 -55 35 -85 11 -30 24 -63 30 -72 5 -10 9 -23 9 -31 0 -7 9 -29 20 -50 11 -20 20 -44 20 -52 0 -8 9 -32 20 -52 11 -21 20 -43 20 -50 0 -8 4 -21 9 -31 19 -34 41 -90 41 -101 0 -6 4 -19 9 -29 5 -9 13 -28 19 -42 5 -14 17 -41 26 -62 9 -20 16 -43 16 -51 0 -9 4 -18 9 -22 5 -3 17 -29 26 -58 9 -28 20 -60 26 -69 5 -10 9 -23 9 -30 0 -7 11 -35 25 -63 13 -27 25 -57 25 -65 0 -9 4 -20 9 -25 10 -10 71 -164 71 -178 0 -5 11 -32 25 -61 14 -29 28 -67 31 -84 4 -18 10 -32 15 -32 5 0 9 -9 9 -20 0 -11 4 -28 9 -38 21 -39 41 -91 41 -105 0 -9 5 -19 10 -22 6 -3 10 -14 10 -23 0 -9 12 -39 25 -67 14 -27 25 -56 25 -62 0 -7 13 -41 29 -76 16 -35 35 -83 41 -107 6 -24 20 -59 31 -79 10 -20 19 -41 19 -48 0 -8 4 -21 9 -31 19 -34 41 -90 41 -101 0 -6 4 -19 9 -29 5 -9 14 -30 21 -47 7 -16 19 -42 26 -57 8 -14 14 -33 14 -42 0 -9 4 -25 10 -36 24 -48 28 -57 35 -88 3 -18 10 -32 14 -32 5 0 14 -21 21 -47 7 -27 17 -52 21 -58 5 -5 9 -16 9 -25 0 -8 7 -28 16 -45 9 -16 25 -55 35 -85 11 -30 24 -63 30 -72 5 -10 9 -23 9 -31 0 -7 9 -29 20 -50 11 -20 20 -44 20 -52 0 -8 9 -32 20 -52 11 -21 20 -43 20 -50 0 -8 4 -21 9 -31 17 -31 41 -90 41 -99 0 -5 9 -26 20 -48 11 -22 20 -45 20 -51 0 -6 7 -25 15 -40 8 -16 15 -37 15 -46 0 -9 4 -19 9 -23 5 -3 17 -29 26 -58 9 -28 20 -60 26 -69 5 -10 9 -23 9 -30 0 -7 11 -35 25 -63 13 -27 25 -57 25 -65 0 -9 4 -20 9 -25 9 -10 62 -145 76 -195 4 -14 14 -34 21 -45 8 -11 14 -29 14 -42 0 -12 5 -25 10 -28 6 -3 10 -15 10 -26 0 -10 5 -19 10 -19 6 0 10 -9 10 -20 0 -11 4 -28 9 -38 19 -36 41 -91 41 -104 0 -7 7 -22 15 -32 8 -11 15 -30 15 -42 0 -13 4 -26 10 -29 5 -3 17 -32 26 -63 9 -31 25 -73 35 -92 11 -19 19 -42 19 -52 0 -9 5 -20 10 -23 6 -3 10 -14 10 -23 0 -9 11 -39 25 -67 13 -27 25 -56 25 -63 0 -7 5 -21 10 -32 6 -11 15 -29 20 -40 6 -11 10 -25 10 -31 0 -6 7 -27 16 -47 9 -21 20 -46 24 -57 4 -11 15 -36 24 -57 9 -20 16 -41 16 -47 0 -6 5 -20 10 -31 24 -48 28 -57 35 -88 3 -18 10 -32 14 -32 5 0 14 -21 21 -47 7 -27 17 -52 21 -57 5 -6 9 -17 9 -25 0 -9 7 -29 16 -46 9 -16 25 -55 35 -85 11 -30 24 -63 30 -72 5 -10 9 -23 9 -31 0 -7 9 -29 20 -50 11 -20 20 -46 20 -56 0 -11 4 -22 9 -26 5 -3 15 -22 21 -43 12 -39 18 -53 44 -114 9 -20 16 -40 16 -45 0 -5 9 -26 20 -48 11 -22 20 -45 20 -51 0 -6 7 -25 15 -40 8 -16 15 -37 15 -46 0 -9 4 -19 9 -23 5 -3 17 -29 26 -58 9 -28 20 -60 26 -69 5 -10 9 -23 9 -30 0 -6 8 -30 18 -52 11 -23 58 -142 105 -266 47 -124 115 -301 152 -395 36 -93 91 -235 122 -315 30 -80 59 -153 64 -162 9 -17 125 -18 2214 -18 l2205 0 0 2208 0 2207 -2209 -3 -2208 -2 -26 37 c-15 21 -41 59 -59 84 -52 72 -162 228 -178 253 -8 13 -46 67 -85 121 -69 95 -169 236 -203 285 -9 14 -53 76 -97 139 -99 140 -139 198 -235 335 -41 58 -108 153 -149 209 -40 56 -89 125 -107 152 -18 28 -94 136 -168 240 -169 238 -250 352 -301 425 -69 99 -169 240 -260 370 -174 245 -267 376 -328 464 -88 126 -84 120 -172 245 -44 62 -93 132 -109 155 -76 109 -223 316 -250 353 -17 23 -56 78 -86 123 -30 44 -73 105 -95 134 -22 30 -87 122 -145 205 -58 83 -149 213 -202 289 -53 75 -119 168 -145 206 -26 37 -91 128 -143 202 -52 73 -124 174 -158 223 -64 91 -72 100 -72 81z"/>
 </g>
<g id="layer105" fill="#b4b4b8" stroke="none">
 <path d="M10720 15995 c0 -3 4 -13 10 -23 15 -28 194 -352 210 -381 52 -92 95 -167 103 -176 4 -5 30 -48 57 -95 27 -47 53 -90 58 -96 5 -5 15 -21 22 -35 36 -67 416 -637 467 -699 7 -8 36 -48 65 -89 113 -158 266 -361 283 -376 6 -5 40 -48 75 -95 36 -47 74 -94 85 -105 12 -11 59 -67 105 -125 46 -58 91 -112 100 -120 9 -8 45 -49 81 -90 167 -195 257 -290 588 -621 402 -402 721 -690 1006 -910 44 -34 89 -71 101 -83 12 -12 60 -50 108 -86 124 -92 198 -148 217 -164 9 -8 50 -37 90 -65 116 -80 165 -115 199 -141 18 -14 37 -28 43 -32 33 -20 -438 -989 -740 -1523 -939 -1657 -2135 -3093 -3588 -4305 -2098 -1751 -4639 -2918 -7335 -3370 -896 -150 -1660 -211 -2620 -210 l-505 1 -3 -990 -2 -991 8000 0 8000 0 0 8000 0 8000 -2640 0 c-1452 0 -2640 -2 -2640 -5z m5197 -5332 c-4 -3 -7 0 -7 7 0 7 3 10 7 7 3 -4 3 -10 0 -14z m-30 -190 c-4 -3 -7 0 -7 7 0 7 3 10 7 7 3 -4 3 -10 0 -14z m-10 -50 c-4 -3 -7 0 -7 7 0 7 3 10 7 7 3 -4 3 -10 0 -14z m-30 -180 c-4 -3 -7 0 -7 7 0 7 3 10 7 7 3 -4 3 -10 0 -14z m-40 -210 c-4 -3 -7 0 -7 7 0 7 3 10 7 7 3 -4 3 -10 0 -14z m-40 -200 c-4 -3 -7 0 -7 7 0 7 3 10 7 7 3 -4 3 -10 0 -14z m-90 -400 c-4 -3 -7 0 -7 7 0 7 3 10 7 7 3 -4 3 -10 0 -14z m-40 -170 c-4 -3 -7 0 -7 7 0 7 3 10 7 7 3 -4 3 -10 0 -14z m-750 -2360 c-4 -3 -7 0 -7 7 0 7 3 10 7 7 3 -4 3 -10 0 -14z m-2187 -3937 c0 -3 -5 -8 -12 -12 -7 -4 -8 -3 -4 4 7 12 16 16 16 8z m-330 -430 c0 -3 -5 -8 -12 -12 -7 -4 -8 -3 -4 4 7 12 16 16 16 8z m-230 -290 c0 -3 -5 -8 -12 -12 -7 -4 -8 -3 -4 4 7 12 16 16 16 8z m-200 -240 c0 -3 -5 -8 -12 -12 -7 -4 -8 -3 -4 4 7 12 16 16 16 8z m-40 -50 c0 -3 -5 -8 -12 -12 -7 -4 -8 -3 -4 4 7 12 16 16 16 8z m-170 -190 c0 -3 -5 -8 -12 -12 -7 -4 -8 -3 -4 4 7 12 16 16 16 8z m-280 -310 c0 -3 -5 -8 -12 -12 -7 -4 -8 -3 -4 4 7 12 16 16 16 8z m-110 -120 c0 -2 -8 -10 -17 -17 -16 -13 -17 -12 -4 4 13 16 21 21 21 13z m-160 -170 c0 -2 -8 -10 -17 -17 -16 -13 -17 -12 -4 4 13 16 21 21 21 13z m-40 -40 c0 -3 -5 -8 -12 -12 -7 -4 -8 -3 -4 4 7 12 16 16 16 8z m-370 -370 c0 -3 -5 -8 -12 -12 -7 -4 -8 -3 -4 4 7 12 16 16 16 8z m-30 -30 c0 -2 -8 -10 -17 -17 -16 -13 -17 -12 -4 4 13 16 21 21 21 13z m-170 -160 c0 -3 -5 -8 -12 -12 -7 -4 -8 -3 -4 4 7 12 16 16 16 8z m-120 -110 c0 -3 -5 -8 -12 -12 -7 -4 -8 -3 -4 4 7 12 16 16 16 8z m-320 -290 c0 -3 -5 -8 -12 -12 -7 -4 -8 -3 -4 4 7 12 16 16 16 8z"/>
 <path d="M30 15920 c0 -6 4 -18 9 -28 19 -34 41 -90 41 -101 0 -6 4 -19 9 -29 5 -9 13 -28 19 -42 5 -14 17 -41 26 -62 9 -20 16 -43 16 -51 0 -9 4 -18 9 -22 5 -3 17 -29 26 -58 9 -28 23 -64 31 -79 8 -14 14 -33 14 -42 0 -9 9 -33 20 -53 11 -21 20 -45 20 -53 0 -9 4 -20 9 -26 10 -9 71 -163 71 -177 0 -5 11 -32 25 -61 14 -29 28 -67 31 -84 4 -18 10 -32 15 -32 5 0 9 -9 9 -20 0 -11 4 -28 9 -38 21 -39 41 -91 41 -105 0 -9 5 -19 10 -22 6 -3 10 -14 10 -23 0 -9 12 -39 25 -67 14 -27 25 -56 25 -62 0 -7 13 -41 29 -76 16 -35 35 -83 41 -107 6 -24 20 -59 31 -79 10 -20 19 -41 19 -48 0 -8 4 -21 9 -31 19 -34 41 -90 41 -101 0 -6 4 -19 9 -29 5 -9 14 -30 21 -47 7 -16 19 -42 26 -57 8 -14 14 -34 14 -45 0 -10 7 -26 15 -36 7 -10 19 -41 25 -68 7 -27 15 -49 20 -49 4 0 13 -21 20 -47 7 -27 17 -52 21 -57 5 -6 9 -17 9 -25 0 -9 7 -29 16 -46 9 -16 25 -55 35 -85 11 -30 24 -63 30 -72 5 -10 9 -23 9 -31 0 -7 9 -29 20 -50 11 -20 20 -44 20 -52 0 -8 9 -32 20 -52 11 -21 20 -43 20 -50 0 -8 4 -21 9 -31 19 -34 41 -90 41 -101 0 -6 4 -19 9 -29 5 -9 13 -28 19 -42 5 -14 17 -41 26 -62 9 -20 16 -43 16 -51 0 -9 4 -18 9 -22 5 -3 17 -29 26 -58 9 -28 20 -60 26 -69 5 -10 9 -23 9 -30 0 -7 11 -35 25 -63 13 -27 25 -57 25 -65 0 -9 4 -20 9 -25 10 -10 71 -164 71 -178 0 -5 11 -32 25 -61 14 -29 28 -67 31 -84 4 -18 10 -32 15 -32 5 0 9 -9 9 -20 0 -11 4 -28 9 -38 21 -39 41 -91 41 -105 0 -9 5 -19 10 -22 6 -3 10 -14 10 -23 0 -9 12 -39 25 -67 14 -27 25 -56 25 -62 0 -7 13 -41 29 -76 16 -35 35 -83 41 -107 6 -24 20 -59 31 -79 10 -20 19 -41 19 -48 0 -8 4 -21 9 -31 19 -34 41 -90 41 -101 0 -6 4 -19 9 -29 5 -9 14 -30 21 -47 7 -16 19 -42 26 -57 8 -14 14 -33 14 -42 0 -9 4 -25 10 -36 24 -48 28 -57 35 -88 3 -18 10 -32 14 -32 5 0 14 -21 21 -47 7 -27 17 -52 21 -58 5 -5 9 -16 9 -25 0 -8 7 -28 16 -45 9 -16 25 -55 35 -85 11 -30 24 -63 30 -72 5 -10 9 -23 9 -31 0 -7 9 -29 20 -50 11 -20 20 -44 20 -52 0 -8 9 -32 20 -52 11 -21 20 -43 20 -50 0 -8 4 -21 9 -31 17 -31 41 -90 41 -99 0 -5 9 -26 20 -48 11 -22 20 -45 20 -51 0 -6 7 -25 15 -40 8 -16 15 -37 15 -46 0 -9 4 -19 9 -23 5 -3 17 -29 26 -58 9 -28 20 -60 26 -69 5 -10 9 -23 9 -30 0 -7 11 -35 25 -63 13 -27 25 -57 25 -65 0 -9 4 -20 9 -25 9 -10 62 -145 76 -195 4 -14 14 -34 21 -45 8 -11 14 -29 14 -42 0 -12 5 -25 10 -28 6 -3 10 -15 10 -26 0 -10 5 -19 10 -19 6 0 10 -9 10 -20 0 -11 4 -28 9 -38 19 -36 41 -91 41 -104 0 -7 7 -22 15 -32 8 -11 15 -30 15 -42 0 -13 4 -26 10 -29 5 -3 17 -32 26 -63 9 -31 25 -73 35 -92 11 -19 19 -42 19 -52 0 -9 5 -20 10 -23 6 -3 10 -14 10 -23 0 -9 11 -39 25 -67 13 -27 25 -56 25 -63 0 -7 5 -21 10 -32 6 -11 15 -29 20 -40 6 -11 10 -25 10 -31 0 -6 7 -27 16 -47 9 -21 20 -46 24 -57 4 -11 15 -36 24 -57 9 -20 16 -41 16 -47 0 -6 5 -20 10 -31 24 -48 28 -57 35 -88 3 -18 10 -32 14 -32 5 0 14 -21 21 -47 7 -27 17 -52 21 -57 5 -6 9 -17 9 -25 0 -9 7 -29 16 -46 9 -16 25 -55 35 -85 11 -30 24 -63 30 -72 5 -10 9 -23 9 -31 0 -7 9 -29 20 -50 11 -20 20 -46 20 -56 0 -11 4 -22 9 -26 5 -3 15 -22 21 -43 12 -39 18 -53 44 -114 9 -20 16 -40 16 -45 0 -5 9 -26 20 -48 11 -22 20 -45 20 -51 0 -6 7 -25 15 -40 8 -16 15 -37 15 -46 0 -9 4 -19 9 -23 5 -3 17 -29 26 -58 9 -28 20 -60 26 -69 5 -10 9 -23 9 -30 0 -6 8 -30 18 -52 11 -23 58 -142 105 -266 47 -124 115 -301 152 -395 36 -93 91 -235 122 -315 30 -80 59 -153 64 -162 9 -17 125 -18 2214 -18 l2205 0 0 2208 0 2207 -2209 -3 -2208 -2 -26 37 c-15 21 -41 59 -59 84 -52 72 -162 228 -178 253 -8 13 -46 67 -85 121 -69 95 -169 236 -203 285 -9 14 -53 76 -97 139 -99 140 -139 198 -235 335 -41 58 -108 153 -149 209 -40 56 -89 125 -107 152 -18 28 -94 136 -168 240 -169 238 -250 352 -301 425 -69 99 -169 240 -260 370 -174 245 -267 376 -328 464 -88 126 -84 120 -172 245 -44 62 -93 132 -109 155 -76 109 -223 316 -250 353 -17 23 -56 78 -86 123 -30 44 -73 105 -95 134 -22 30 -87 122 -145 205 -58 83 -149 213 -202 289 -53 75 -119 168 -145 206 -26 37 -91 128 -143 202 -52 73 -124 174 -158 223 -64 91 -72 100 -72 81z m4227 -8527 c-4 -3 -10 -3 -14 0 -3 4 0 7 7 7 7 0 10 -3 7 -7z m-290 -40 c-4 -3 -10 -3 -14 0 -3 4 0 7 7 7 7 0 10 -3 7 -7z"/>
 </g>
<g id="layer106" fill="#ceb4b3" stroke="none">
 <path d="M10720 15995 c0 -3 4 -13 10 -23 15 -28 194 -352 210 -381 52 -92 95 -167 103 -176 4 -5 30 -48 57 -95 27 -47 53 -90 58 -96 5 -5 15 -21 22 -35 36 -67 416 -637 467 -699 7 -8 36 -48 65 -89 113 -158 266 -361 283 -376 6 -5 40 -48 75 -95 36 -47 74 -94 85 -105 12 -11 59 -67 105 -125 46 -58 91 -112 100 -120 9 -8 45 -49 81 -90 35 -41 102 -118 148 -170 131 -148 780 -793 931 -925 74 -64 164 -143 200 -175 36 -31 106 -90 155 -130 50 -40 95 -78 100 -84 6 -6 39 -34 75 -60 36 -27 72 -56 80 -65 9 -9 23 -20 32 -26 32 -21 173 -130 183 -141 6 -7 39 -32 75 -56 36 -24 74 -51 85 -61 11 -9 72 -52 135 -96 63 -44 126 -89 139 -100 l24 -20 -38 -88 c-122 -285 -392 -842 -555 -1143 -955 -1771 -2211 -3310 -3745 -4590 -2098 -1751 -4639 -2918 -7335 -3370 -896 -150 -1660 -211 -2620 -210 l-505 1 -3 -990 -2 -991 8000 0 8000 0 0 8000 0 8000 -2640 0 c-1452 0 -2640 -2 -2640 -5z m5197 -5327 c-3 -8 -6 -5 -6 6 -1 11 2 17 5 13 3 -3 4 -12 1 -19z m-10 -45 c-4 -3 -7 0 -7 7 0 7 3 10 7 7 3 -4 3 -10 0 -14z m-20 -145 c-3 -8 -6 -5 -6 6 -1 11 2 17 5 13 3 -3 4 -12 1 -19z m-10 -50 c-3 -8 -6 -5 -6 6 -1 11 2 17 5 13 3 -3 4 -12 1 -19z m-10 -45 c-4 -3 -7 0 -7 7 0 7 3 10 7 7 3 -4 3 -10 0 -14z m-20 -135 c-3 -8 -6 -5 -6 6 -1 11 2 17 5 13 3 -3 4 -12 1 -19z m-10 -40 c-3 -8 -6 -5 -6 6 -1 11 2 17 5 13 3 -3 4 -12 1 -19z m-10 -45 c-4 -3 -7 0 -7 7 0 7 3 10 7 7 3 -4 3 -10 0 -14z m-20 -125 c-3 -8 -6 -5 -6 6 -1 11 2 17 5 13 3 -3 4 -12 1 -19z m-10 -40 c-3 -8 -6 -5 -6 6 -1 11 2 17 5 13 3 -3 4 -12 1 -19z m-10 -45 c-4 -3 -7 0 -7 7 0 7 3 10 7 7 3 -4 3 -10 0 -14z m-20 -115 c-3 -8 -6 -5 -6 6 -1 11 2 17 5 13 3 -3 4 -12 1 -19z m-10 -35 c-4 -3 -7 0 -7 7 0 7 3 10 7 7 3 -4 3 -10 0 -14z m-10 -40 c-4 -3 -7 0 -7 7 0 7 3 10 7 7 3 -4 3 -10 0 -14z m-20 -110 c-4 -3 -7 0 -7 7 0 7 3 10 7 7 3 -4 3 -10 0 -14z m-10 -40 c-4 -3 -7 0 -7 7 0 7 3 10 7 7 3 -4 3 -10 0 -14z m-30 -140 c-4 -3 -7 0 -7 7 0 7 3 10 7 7 3 -4 3 -10 0 -14z m-10 -35 c-3 -8 -6 -5 -6 6 -1 11 2 17 5 13 3 -3 4 -12 1 -19z m-10 -35 c-4 -3 -7 0 -7 7 0 7 3 10 7 7 3 -4 3 -10 0 -14z m-20 -100 c-4 -3 -7 0 -7 7 0 7 3 10 7 7 3 -4 3 -10 0 -14z m-10 -35 c-3 -8 -6 -5 -6 6 -1 11 2 17 5 13 3 -3 4 -12 1 -19z m-10 -35 c-4 -3 -7 0 -7 7 0 7 3 10 7 7 3 -4 3 -10 0 -14z m-20 -90 c-4 -3 -7 0 -7 7 0 7 3 10 7 7 3 -4 3 -10 0 -14z m-10 -40 c-4 -3 -7 0 -7 7 0 7 3 10 7 7 3 -4 3 -10 0 -14z m-10 -30 c-4 -3 -7 0 -7 7 0 7 3 10 7 7 3 -4 3 -10 0 -14z m-30 -120 c-4 -3 -7 0 -7 7 0 7 3 10 7 7 3 -4 3 -10 0 -14z m-30 -120 c-4 -3 -7 0 -7 7 0 7 3 10 7 7 3 -4 3 -10 0 -14z m-10 -30 c-4 -3 -7 0 -7 7 0 7 3 10 7 7 3 -4 3 -10 0 -14z m-50 -180 c-4 -3 -7 0 -7 7 0 7 3 10 7 7 3 -4 3 -10 0 -14z m-30 -110 c-4 -3 -7 0 -7 7 0 7 3 10 7 7 3 -4 3 -10 0 -14z m-40 -130 c-4 -3 -7 0 -7 7 0 7 3 10 7 7 3 -4 3 -10 0 -14z m-10 -30 c-4 -3 -7 0 -7 7 0 7 3 10 7 7 3 -4 3 -10 0 -14z m-20 -80 c-4 -3 -7 0 -7 7 0 7 3 10 7 7 3 -4 3 -10 0 -14z m-40 -130 c-4 -3 -7 0 -7 7 0 7 3 10 7 7 3 -4 3 -10 0 -14z m-50 -150 c-4 -3 -7 0 -7 7 0 7 3 10 7 7 3 -4 3 -10 0 -14z m-40 -120 c-4 -3 -7 0 -7 7 0 7 3 10 7 7 3 -4 3 -10 0 -14z m-40 -120 c-4 -3 -7 0 -7 7 0 7 3 10 7 7 3 -4 3 -10 0 -14z m-17 -67 c0 -3 -5 -8 -12 -12 -7 -4 -8 -3 -4 4 7 12 16 16 16 8z m-59 -153 c-12 -20 -14 -14 -5 12 4 9 9 14 11 11 3 -2 0 -13 -6 -23z m-40 -106 c-10 -9 -11 -8 -5 6 3 10 9 15 12 12 3 -3 0 -11 -7 -18z m-114 -314 c-4 -3 -7 0 -7 7 0 7 3 10 7 7 3 -4 3 -10 0 -14z m-86 -216 c-10 -9 -11 -8 -5 6 3 10 9 15 12 12 3 -3 0 -11 -7 -18z m-14 -34 c-4 -3 -7 0 -7 7 0 7 3 10 7 7 3 -4 3 -10 0 -14z m-87 -227 c0 -3 -5 -8 -12 -12 -7 -4 -8 -3 -4 4 7 12 16 16 16 8z m-29 -49 c-10 -9 -11 -8 -5 6 3 10 9 15 12 12 3 -3 0 -11 -7 -18z m-70 -170 c-10 -9 -11 -8 -5 6 3 10 9 15 12 12 3 -3 0 -11 -7 -18z m-90 -200 c-10 -9 -11 -8 -5 6 3 10 9 15 12 12 3 -3 0 -11 -7 -18z m-30 -70 c-10 -9 -11 -8 -5 6 3 10 9 15 12 12 3 -3 0 -11 -7 -18z m-94 -204 c-4 -3 -7 0 -7 7 0 7 3 10 7 7 3 -4 3 -10 0 -14z m-76 -156 c-10 -9 -11 -8 -5 6 3 10 9 15 12 12 3 -3 0 -11 -7 -18z m-191 -391 c0 -3 -5 -8 -12 -12 -7 -4 -8 -3 -4 4 7 12 16 16 16 8z m-40 -76 c-6 -11 -13 -20 -16 -20 -2 0 0 9 6 20 6 11 13 20 16 20 2 0 0 -9 -6 -20z m-80 -154 c0 -3 -5 -8 -12 -12 -7 -4 -8 -3 -4 4 7 12 16 16 16 8z m-60 -120 c0 -3 -5 -8 -12 -12 -7 -4 -8 -3 -4 4 7 12 16 16 16 8z m-59 -99 c-10 -9 -11 -8 -5 6 3 10 9 15 12 12 3 -3 0 -11 -7 -18z m-31 -61 c0 -3 -5 -8 -12 -12 -7 -4 -8 -3 -4 4 7 12 16 16 16 8z m-40 -70 c0 -3 -5 -8 -12 -12 -7 -4 -8 -3 -4 4 7 12 16 16 16 8z m-70 -130 c0 -3 -5 -8 -12 -12 -7 -4 -8 -3 -4 4 7 12 16 16 16 8z m-57 -91 c-3 -9 -8 -14 -10 -11 -3 3 -2 9 2 15 9 16 15 13 8 -4z m-33 -59 c0 -3 -5 -8 -12 -12 -7 -4 -8 -3 -4 4 7 12 16 16 16 8z m-83 -143 c-4 -3 -7 0 -7 7 0 7 3 10 7 7 3 -4 3 -10 0 -14z m-247 -397 c0 -3 -5 -8 -12 -12 -7 -4 -8 -3 -4 4 7 12 16 16 16 8z m-77 -121 c-3 -9 -8 -14 -10 -11 -3 3 -2 9 2 15 9 16 15 13 8 -4z m-123 -189 c0 -3 -5 -8 -12 -12 -7 -4 -8 -3 -4 4 7 12 16 16 16 8z m-190 -280 c0 -3 -5 -8 -12 -12 -7 -4 -8 -3 -4 4 7 12 16 16 16 8z m-50 -70 c0 -3 -5 -8 -12 -12 -7 -4 -8 -3 -4 4 7 12 16 16 16 8z m-70 -100 c0 -3 -5 -8 -12 -12 -7 -4 -8 -3 -4 4 7 12 16 16 16 8z m-70 -100 c0 -3 -5 -8 -12 -12 -7 -4 -8 -3 -4 4 7 12 16 16 16 8z m-60 -80 c0 -3 -5 -8 -12 -12 -7 -4 -8 -3 -4 4 7 12 16 16 16 8z m-40 -60 c0 -3 -5 -8 -12 -12 -7 -4 -8 -3 -4 4 7 12 16 16 16 8z m-20 -30 c0 -3 -5 -8 -12 -12 -7 -4 -8 -3 -4 4 7 12 16 16 16 8z m-50 -60 c0 -3 -5 -8 -12 -12 -7 -4 -8 -3 -4 4 7 12 16 16 16 8z m-120 -160 c0 -3 -5 -8 -12 -12 -7 -4 -8 -3 -4 4 7 12 16 16 16 8z m-30 -40 c0 -3 -5 -8 -12 -12 -7 -4 -8 -3 -4 4 7 12 16 16 16 8z m-130 -170 c0 -2 -8 -10 -17 -17 -16 -13 -17 -12 -4 4 13 16 21 21 21 13z m-40 -50 c0 -3 -5 -8 -12 -12 -7 -4 -8 -3 -4 4 7 12 16 16 16 8z m-90 -110 c0 -3 -5 -8 -12 -12 -7 -4 -8 -3 -4 4 7 12 16 16 16 8z m-30 -40 c0 -2 -8 -10 -17 -17 -16 -13 -17 -12 -4 4 13 16 21 21 21 13z m-40 -50 c0 -3 -5 -8 -12 -12 -7 -4 -8 -3 -4 4 7 12 16 16 16 8z m-30 -40 c0 -3 -5 -8 -12 -12 -7 -4 -8 -3 -4 4 7 12 16 16 16 8z m-120 -140 c0 -2 -8 -10 -17 -17 -16 -13 -17 -12 -4 4 13 16 21 21 21 13z m-50 -60 c0 -3 -5 -8 -12 -12 -7 -4 -8 -3 -4 4 7 12 16 16 16 8z m-30 -40 c0 -3 -5 -8 -12 -12 -7 -4 -8 -3 -4 4 7 12 16 16 16 8z m-40 -50 c0 -3 -4 -8 -10 -11 -5 -3 -10 -1 -10 4 0 6 5 11 10 11 6 0 10 -2 10 -4z m-50 -50 c0 -2 -8 -10 -17 -17 -16 -13 -17 -12 -4 4 13 16 21 21 21 13z m-60 -69 c0 -2 -10 -12 -22 -23 l-23 -19 19 23 c18 21 26 27 26 19z m-60 -71 c0 -2 -8 -10 -17 -17 -16 -13 -17 -12 -4 4 13 16 21 21 21 13z m-53 -63 c-4 -3 -7 0 -7 7 0 7 3 10 7 7 3 -4 3 -10 0 -14z m-67 -77 c0 -2 -7 -7 -16 -10 -8 -3 -12 -2 -9 4 6 10 25 14 25 6z m-80 -80 c0 -2 -8 -10 -17 -17 -16 -13 -17 -12 -4 4 13 16 21 21 21 13z m-80 -89 c0 -2 -17 -19 -37 -38 l-38 -34 34 38 c33 34 41 42 41 34z m-110 -120 c0 -2 -19 -21 -42 -42 l-43 -40 40 43 c36 39 45 47 45 39z m-90 -91 c0 -3 -5 -8 -12 -12 -7 -4 -8 -3 -4 4 7 12 16 16 16 8z m-84 -94 c-17 -16 -18 -16 -5 5 7 12 15 20 18 17 3 -2 -3 -12 -13 -22z m-26 -26 c0 -3 -5 -8 -12 -12 -7 -4 -8 -3 -4 4 7 12 16 16 16 8z m-160 -160 c0 -2 -8 -10 -17 -17 -16 -13 -17 -12 -4 4 13 16 21 21 21 13z m-40 -40 c0 -2 -8 -10 -17 -17 -16 -13 -17 -12 -4 4 13 16 21 21 21 13z m-170 -170 c0 -3 -5 -8 -12 -12 -7 -4 -8 -3 -4 4 7 12 16 16 16 8z m-30 -30 c0 -2 -8 -10 -17 -17 -16 -13 -17 -12 -4 4 13 16 21 21 21 13z m-90 -80 c0 -3 -5 -8 -12 -12 -7 -4 -8 -3 -4 4 7 12 16 16 16 8z m-30 -29 c0 -2 -10 -12 -22 -23 l-23 -19 19 23 c18 21 26 27 26 19z m-50 -51 c0 -3 -5 -8 -12 -12 -7 -4 -8 -3 -4 4 7 12 16 16 16 8z m-80 -69 c0 -2 -15 -16 -32 -33 l-33 -29 29 33 c28 30 36 37 36 29z m-130 -121 c0 -2 -8 -10 -17 -17 -16 -13 -17 -12 -4 4 13 16 21 21 21 13z m-90 -80 c0 -3 -5 -8 -12 -12 -7 -4 -8 -3 -4 4 7 12 16 16 16 8z m-110 -99 c0 -2 -12 -14 -27 -28 l-28 -24 24 28 c23 25 31 32 31 24z m-80 -71 c0 -2 -8 -10 -17 -17 -16 -13 -17 -12 -4 4 13 16 21 21 21 13z m-80 -70 c0 -3 -5 -8 -12 -12 -7 -4 -8 -3 -4 4 7 12 16 16 16 8z"/>
 <path d="M30 15920 c0 -6 4 -18 9 -28 19 -34 41 -90 41 -101 0 -6 4 -19 9 -29 5 -9 13 -28 19 -42 5 -14 17 -41 26 -62 9 -20 16 -43 16 -51 0 -9 4 -18 9 -22 5 -3 17 -29 26 -58 9 -28 23 -64 31 -79 8 -14 14 -33 14 -42 0 -9 9 -33 20 -53 11 -21 20 -45 20 -53 0 -9 4 -20 9 -26 10 -9 71 -163 71 -177 0 -5 11 -32 25 -61 14 -29 28 -67 31 -84 4 -18 10 -32 15 -32 5 0 9 -9 9 -20 0 -11 4 -28 9 -38 21 -39 41 -91 41 -105 0 -9 5 -19 10 -22 6 -3 10 -14 10 -23 0 -9 12 -39 25 -67 14 -27 25 -56 25 -62 0 -7 13 -41 29 -76 16 -35 35 -83 41 -107 6 -24 20 -59 31 -79 10 -20 19 -41 19 -48 0 -8 4 -21 9 -31 19 -34 41 -90 41 -101 0 -6 4 -19 9 -29 5 -9 14 -30 21 -47 7 -16 19 -42 26 -57 8 -14 14 -34 14 -45 0 -10 7 -26 15 -36 7 -10 19 -41 25 -68 7 -27 15 -49 20 -49 4 0 13 -21 20 -47 7 -27 17 -52 21 -57 5 -6 9 -17 9 -25 0 -9 7 -29 16 -46 9 -16 25 -55 35 -85 11 -30 24 -63 30 -72 5 -10 9 -23 9 -31 0 -7 9 -29 20 -50 11 -20 20 -44 20 -52 0 -8 9 -32 20 -52 11 -21 20 -43 20 -50 0 -8 4 -21 9 -31 19 -34 41 -90 41 -101 0 -6 4 -19 9 -29 5 -9 13 -28 19 -42 5 -14 17 -41 26 -62 9 -20 16 -43 16 -51 0 -9 4 -18 9 -22 5 -3 17 -29 26 -58 9 -28 20 -60 26 -69 5 -10 9 -23 9 -30 0 -7 11 -35 25 -63 13 -27 25 -57 25 -65 0 -9 4 -20 9 -25 10 -10 71 -164 71 -178 0 -5 11 -32 25 -61 14 -29 28 -67 31 -84 4 -18 10 -32 15 -32 5 0 9 -9 9 -20 0 -11 4 -28 9 -38 21 -39 41 -91 41 -105 0 -9 5 -19 10 -22 6 -3 10 -14 10 -23 0 -9 12 -39 25 -67 14 -27 25 -56 25 -62 0 -7 13 -41 29 -76 16 -35 35 -83 41 -107 6 -24 20 -59 31 -79 10 -20 19 -41 19 -48 0 -8 4 -21 9 -31 19 -34 41 -90 41 -101 0 -6 4 -19 9 -29 5 -9 14 -30 21 -47 7 -16 19 -42 26 -57 8 -14 14 -33 14 -42 0 -9 4 -25 10 -36 24 -48 28 -57 35 -88 3 -18 10 -32 14 -32 5 0 14 -21 21 -47 7 -27 17 -52 21 -58 5 -5 9 -16 9 -25 0 -8 7 -28 16 -45 9 -16 25 -55 35 -85 11 -30 24 -63 30 -72 5 -10 9 -23 9 -31 0 -7 9 -29 20 -50 11 -20 20 -44 20 -52 0 -8 9 -32 20 -52 11 -21 20 -43 20 -50 0 -8 4 -21 9 -31 17 -31 41 -90 41 -99 0 -5 9 -26 20 -48 11 -22 20 -45 20 -51 0 -6 7 -25 15 -40 8 -16 15 -37 15 -46 0 -9 4 -19 9 -23 5 -3 17 -29 26 -58 9 -28 20 -60 26 -69 5 -10 9 -23 9 -30 0 -7 11 -35 25 -63 13 -27 25 -57 25 -65 0 -9 4 -20 9 -25 9 -10 62 -145 76 -195 4 -14 14 -34 21 -45 8 -11 14 -29 14 -42 0 -12 5 -25 10 -28 6 -3 10 -15 10 -26 0 -10 5 -19 10 -19 6 0 10 -9 10 -20 0 -11 4 -28 9 -38 19 -36 41 -91 41 -104 0 -7 7 -22 15 -32 8 -11 15 -30 15 -42 0 -13 4 -26 10 -29 5 -3 17 -32 26 -63 9 -31 25 -73 35 -92 11 -19 19 -42 19 -52 0 -9 5 -20 10 -23 6 -3 10 -14 10 -23 0 -9 11 -39 25 -67 13 -27 25 -56 25 -63 0 -7 5 -21 10 -32 6 -11 15 -29 20 -40 6 -11 10 -25 10 -31 0 -6 7 -27 16 -47 9 -21 20 -46 24 -57 4 -11 15 -36 24 -57 9 -20 16 -41 16 -47 0 -6 5 -20 10 -31 24 -48 28 -57 35 -88 3 -18 10 -32 14 -32 5 0 14 -21 21 -47 7 -27 17 -52 21 -57 5 -6 9 -17 9 -25 0 -9 7 -29 16 -46 9 -16 25 -55 35 -85 11 -30 24 -63 30 -72 5 -10 9 -23 9 -31 0 -7 9 -29 20 -50 11 -20 20 -46 20 -56 0 -11 4 -22 9 -26 5 -3 15 -22 21 -43 12 -39 18 -53 44 -114 9 -20 16 -40 16 -45 0 -5 9 -26 20 -48 11 -22 20 -45 20 -51 0 -6 7 -25 15 -40 8 -16 15 -37 15 -46 0 -9 4 -19 9 -23 5 -3 17 -29 26 -58 9 -28 20 -60 26 -69 5 -10 9 -23 9 -30 0 -6 8 -30 18 -52 11 -23 58 -142 105 -266 47 -124 115 -301 152 -395 36 -93 91 -235 122 -315 30 -80 59 -153 64 -162 9 -17 125 -18 2214 -18 l2205 0 0 2208 0 2207 -2209 -3 -2208 -2 -26 37 c-15 21 -41 59 -59 84 -52 72 -162 228 -178 253 -8 13 -46 67 -85 121 -69 95 -169 236 -203 285 -9 14 -53 76 -97 139 -99 140 -139 198 -235 335 -41 58 -108 153 -149 209 -40 56 -89 125 -107 152 -18 28 -94 136 -168 240 -169 238 -250 352 -301 425 -69 99 -169 240 -260 370 -174 245 -267 376 -328 464 -88 126 -84 120 -172 245 -44 62 -93 132 -109 155 -76 109 -223 316 -250 353 -17 23 -56 78 -86 123 -30 44 -73 105 -95 134 -22 30 -87 122 -145 205 -58 83 -149 213 -202 289 -53 75 -119 168 -145 206 -26 37 -91 128 -143 202 -52 73 -124 174 -158 223 -64 91 -72 100 -72 81z m4227 -8527 c-4 -3 -10 -3 -14 0 -3 4 0 7 7 7 7 0 10 -3 7 -7z m-290 -40 c-4 -3 -10 -3 -14 0 -3 4 0 7 7 7 7 0 10 -3 7 -7z"/>
 </g>
<g id="layer107" fill="#b6c3bc" stroke="none">
 <path d="M10720 15993 c0 -5 9 -19 20 -33 11 -14 20 -31 20 -38 0 -7 10 -29 23 -50 41 -67 47 -77 62 -107 8 -16 24 -43 35 -60 20 -31 31 -51 92 -166 20 -36 52 -89 72 -117 20 -29 36 -57 36 -62 0 -6 29 -55 65 -109 36 -54 65 -102 65 -106 0 -4 13 -24 29 -44 15 -20 36 -52 45 -71 9 -19 27 -48 42 -65 14 -16 32 -43 40 -60 7 -16 25 -43 40 -60 14 -16 32 -43 40 -60 8 -16 27 -46 44 -65 16 -19 30 -39 30 -43 0 -5 20 -33 45 -64 25 -30 45 -61 45 -69 0 -8 4 -14 8 -14 5 0 24 -24 42 -52 19 -29 40 -57 47 -61 7 -4 13 -13 13 -18 0 -6 21 -36 46 -67 26 -31 49 -64 52 -72 5 -13 89 -120 127 -161 8 -9 15 -20 15 -26 0 -5 14 -25 31 -44 16 -19 48 -54 70 -78 21 -24 39 -49 39 -55 0 -6 19 -32 43 -57 83 -89 152 -171 158 -187 4 -10 29 -40 55 -67 106 -110 219 -238 226 -256 4 -11 184 -195 400 -410 476 -474 481 -479 493 -479 6 0 46 -35 91 -78 101 -98 195 -180 309 -272 50 -40 95 -78 100 -84 6 -6 39 -34 75 -60 36 -27 72 -56 80 -65 9 -9 23 -20 32 -26 32 -21 173 -130 183 -141 6 -7 39 -32 75 -56 36 -24 74 -51 85 -61 11 -9 72 -52 135 -96 63 -44 126 -89 139 -100 l24 -20 -38 -88 c-122 -285 -392 -842 -555 -1143 -955 -1771 -2211 -3310 -3745 -4590 -2098 -1751 -4639 -2918 -7335 -3370 -896 -150 -1660 -211 -2620 -210 l-505 1 -3 -990 -2 -991 4963 0 c4657 0 4964 1 4987 17 24 16 24 16 11 0 -13 -16 164 -17 3013 -17 l3026 0 0 8000 0 8000 -2640 0 c-1452 0 -2640 -3 -2640 -7z m5197 -5325 c-3 -8 -6 -5 -6 6 -1 11 2 17 5 13 3 -3 4 -12 1 -19z m-10 -45 c-4 -3 -7 0 -7 7 0 7 3 10 7 7 3 -4 3 -10 0 -14z m0 -50 c-4 -3 -7 0 -7 7 0 7 3 10 7 7 3 -4 3 -10 0 -14z m-10 -50 c-4 -3 -7 0 -7 7 0 7 3 10 7 7 3 -4 3 -10 0 -14z m-10 -45 c-3 -8 -6 -5 -6 6 -1 11 2 17 5 13 3 -3 4 -12 1 -19z m-10 -50 c-3 -8 -6 -5 -6 6 -1 11 2 17 5 13 3 -3 4 -12 1 -19z m-10 -45 c-4 -3 -7 0 -7 7 0 7 3 10 7 7 3 -4 3 -10 0 -14z m0 -40 c-4 -3 -7 0 -7 7 0 7 3 10 7 7 3 -4 3 -10 0 -14z m-10 -50 c-4 -3 -7 0 -7 7 0 7 3 10 7 7 3 -4 3 -10 0 -14z m-10 -45 c-3 -8 -6 -5 -6 6 -1 11 2 17 5 13 3 -3 4 -12 1 -19z m-10 -40 c-3 -8 -6 -5 -6 6 -1 11 2 17 5 13 3 -3 4 -12 1 -19z m-10 -45 c-4 -3 -7 0 -7 7 0 7 3 10 7 7 3 -4 3 -10 0 -14z m3 -38 c0 -8 -4 -15 -10 -15 -5 0 -7 7 -4 15 4 8 8 15 10 15 2 0 4 -7 4 -15z m-13 -52 c-4 -3 -7 0 -7 7 0 7 3 10 7 7 3 -4 3 -10 0 -14z m-10 -35 c-3 -8 -6 -5 -6 6 -1 11 2 17 5 13 3 -3 4 -12 1 -19z m-10 -40 c-3 -8 -6 -5 -6 6 -1 11 2 17 5 13 3 -3 4 -12 1 -19z m-10 -45 c-4 -3 -7 0 -7 7 0 7 3 10 7 7 3 -4 3 -10 0 -14z m3 -33 c0 -5 -5 -10 -11 -10 -5 0 -7 5 -4 10 3 6 8 10 11 10 2 0 4 -4 4 -10z m-13 -47 c-4 -3 -7 0 -7 7 0 7 3 10 7 7 3 -4 3 -10 0 -14z m-10 -35 c-3 -8 -6 -5 -6 6 -1 11 2 17 5 13 3 -3 4 -12 1 -19z m-10 -35 c-4 -3 -7 0 -7 7 0 7 3 10 7 7 3 -4 3 -10 0 -14z m-10 -40 c-4 -3 -7 0 -7 7 0 7 3 10 7 7 3 -4 3 -10 0 -14z m3 -33 c0 -5 -5 -10 -11 -10 -5 0 -7 5 -4 10 3 6 8 10 11 10 2 0 4 -4 4 -10z m-23 -77 c-4 -3 -7 0 -7 7 0 7 3 10 7 7 3 -4 3 -10 0 -14z m-10 -40 c-4 -3 -7 0 -7 7 0 7 3 10 7 7 3 -4 3 -10 0 -14z m-7 -63 c0 -5 -5 -10 -11 -10 -5 0 -7 5 -4 10 3 6 8 10 11 10 2 0 4 -4 4 -10z m-13 -47 c-4 -3 -7 0 -7 7 0 7 3 10 7 7 3 -4 3 -10 0 -14z m-10 -30 c-4 -3 -7 0 -7 7 0 7 3 10 7 7 3 -4 3 -10 0 -14z m-10 -35 c-3 -8 -6 -5 -6 6 -1 11 2 17 5 13 3 -3 4 -12 1 -19z m-10 -35 c-4 -3 -7 0 -7 7 0 7 3 10 7 7 3 -4 3 -10 0 -14z m-10 -70 c-4 -3 -7 0 -7 7 0 7 3 10 7 7 3 -4 3 -10 0 -14z m-13 -47 c-3 -15 -8 -25 -11 -23 -2 3 -1 17 3 31 3 15 8 25 11 23 2 -3 1 -17 -3 -31z m-17 -53 c-4 -3 -7 0 -7 7 0 7 3 10 7 7 3 -4 3 -10 0 -14z m3 -23 c0 -5 -5 -10 -11 -10 -5 0 -7 5 -4 10 3 6 8 10 11 10 2 0 4 -4 4 -10z m-13 -37 c-4 -3 -7 0 -7 7 0 7 3 10 7 7 3 -4 3 -10 0 -14z m-10 -35 c-3 -8 -6 -5 -6 6 -1 11 2 17 5 13 3 -3 4 -12 1 -19z m-10 -35 c-4 -3 -7 0 -7 7 0 7 3 10 7 7 3 -4 3 -10 0 -14z m-10 -30 c-4 -3 -7 0 -7 7 0 7 3 10 7 7 3 -4 3 -10 0 -14z m3 -23 c0 -5 -5 -10 -11 -10 -5 0 -7 5 -4 10 3 6 8 10 11 10 2 0 4 -4 4 -10z m-13 -37 c-4 -3 -7 0 -7 7 0 7 3 10 7 7 3 -4 3 -10 0 -14z m-10 -30 c-4 -3 -7 0 -7 7 0 7 3 10 7 7 3 -4 3 -10 0 -14z m-10 -30 c-4 -3 -7 0 -7 7 0 7 3 10 7 7 3 -4 3 -10 0 -14z m-10 -60 c-4 -3 -7 0 -7 7 0 7 3 10 7 7 3 -4 3 -10 0 -14z m-16 -50 c-12 -20 -14 -14 -5 12 4 9 9 14 11 11 3 -2 0 -13 -6 -23z m-14 -40 c-4 -3 -7 0 -7 7 0 7 3 10 7 7 3 -4 3 -10 0 -14z m-10 -60 c-4 -3 -7 0 -7 7 0 7 3 10 7 7 3 -4 3 -10 0 -14z m-10 -30 c-4 -3 -7 0 -7 7 0 7 3 10 7 7 3 -4 3 -10 0 -14z m-20 -60 c-4 -3 -7 0 -7 7 0 7 3 10 7 7 3 -4 3 -10 0 -14z m-10 -30 c-4 -3 -7 0 -7 7 0 7 3 10 7 7 3 -4 3 -10 0 -14z m-10 -50 c-4 -3 -7 0 -7 7 0 7 3 10 7 7 3 -4 3 -10 0 -14z m-10 -30 c-4 -3 -7 0 -7 7 0 7 3 10 7 7 3 -4 3 -10 0 -14z m-10 -30 c-4 -3 -7 0 -7 7 0 7 3 10 7 7 3 -4 3 -10 0 -14z m-10 -50 c-4 -3 -7 0 -7 7 0 7 3 10 7 7 3 -4 3 -10 0 -14z m-10 -30 c-4 -3 -7 0 -7 7 0 7 3 10 7 7 3 -4 3 -10 0 -14z m-27 -70 c-11 -17 -11 -17 -6 0 3 10 6 24 7 30 0 9 2 9 5 0 3 -7 0 -20 -6 -30z m-23 -90 c-4 -3 -7 0 -7 7 0 7 3 10 7 7 3 -4 3 -10 0 -14z m-40 -130 c-4 -3 -7 0 -7 7 0 7 3 10 7 7 3 -4 3 -10 0 -14z m-46 -140 c-12 -20 -14 -14 -5 12 4 9 9 14 11 11 3 -2 0 -13 -6 -23z m-14 -60 c-4 -3 -7 0 -7 7 0 7 3 10 7 7 3 -4 3 -10 0 -14z m-26 -60 c-12 -20 -14 -14 -5 12 4 9 9 14 11 11 3 -2 0 -13 -6 -23z m-14 -60 c-4 -3 -7 0 -7 7 0 7 3 10 7 7 3 -4 3 -10 0 -14z m-26 -60 c-12 -20 -14 -14 -5 12 4 9 9 14 11 11 3 -2 0 -13 -6 -23z m-25 -80 c-8 -15 -15 -25 -16 -21 0 12 23 58 27 54 3 -2 -2 -17 -11 -33z m-29 -90 c-4 -3 -7 0 -7 7 0 7 3 10 7 7 3 -4 3 -10 0 -14z m-26 -60 c-12 -20 -14 -14 -5 12 4 9 9 14 11 11 3 -2 0 -13 -6 -23z m-35 -100 c-8 -15 -15 -25 -16 -21 0 12 23 58 27 54 3 -2 -2 -17 -11 -33z m-35 -96 c-10 -9 -11 -8 -5 6 3 10 9 15 12 12 3 -3 0 -11 -7 -18z m-14 -34 c-4 -3 -7 0 -7 7 0 7 3 10 7 7 3 -4 3 -10 0 -14z m-36 -96 c-10 -9 -11 -8 -5 6 3 10 9 15 12 12 3 -3 0 -11 -7 -18z m-25 -74 c-18 -33 -21 -26 -6 13 6 15 13 24 16 21 3 -3 -1 -18 -10 -34z m-95 -236 c-10 -9 -11 -8 -5 6 3 10 9 15 12 12 3 -3 0 -11 -7 -18z m-14 -39 c-3 -8 -6 -5 -6 6 -1 11 2 17 5 13 3 -3 4 -12 1 -19z m-102 -248 c-9 -16 -18 -30 -21 -30 -2 0 2 14 11 30 9 17 18 30 21 30 2 0 -2 -13 -11 -30z m-34 -83 c-10 -9 -11 -8 -5 6 3 10 9 15 12 12 3 -3 0 -11 -7 -18z m-21 -61 c0 -3 -5 -8 -12 -12 -7 -4 -8 -3 -4 4 7 12 16 16 16 8z m-29 -49 c-10 -9 -11 -8 -5 6 3 10 9 15 12 12 3 -3 0 -11 -7 -18z m-31 -77 c-6 -11 -13 -20 -16 -20 -2 0 0 9 6 20 6 11 13 20 16 20 2 0 0 -9 -6 -20z m-23 -52 c-3 -8 -6 -5 -6 6 -1 11 2 17 5 13 3 -3 4 -12 1 -19z m-7 -22 c0 -3 -5 -8 -12 -12 -7 -4 -8 -3 -4 4 7 12 16 16 16 8z m-29 -49 c-10 -9 -11 -8 -5 6 3 10 9 15 12 12 3 -3 0 -11 -7 -18z m-21 -55 c0 -5 -7 -17 -15 -28 -14 -18 -14 -17 -4 9 12 27 19 34 19 19z m-20 -56 c0 -3 -5 -8 -12 -12 -7 -4 -8 -3 -4 4 7 12 16 16 16 8z m-43 -83 c-4 -3 -7 0 -7 7 0 7 3 10 7 7 3 -4 3 -10 0 -14z m-17 -37 c0 -3 -5 -8 -12 -12 -7 -4 -8 -3 -4 4 7 12 16 16 16 8z m-23 -48 c-3 -8 -6 -5 -6 6 -1 11 2 17 5 13 3 -3 4 -12 1 -19z m-17 -38 c-6 -11 -13 -20 -16 -20 -2 0 0 9 6 20 6 11 13 20 16 20 2 0 0 -9 -6 -20z m-56 -117 c-19 -45 -40 -71 -25 -30 14 36 30 67 36 67 2 0 -3 -17 -11 -37z m-54 -117 c0 -3 -5 -8 -12 -12 -7 -4 -8 -3 -4 4 7 12 16 16 16 8z m-40 -80 c0 -3 -5 -8 -12 -12 -7 -4 -8 -3 -4 4 7 12 16 16 16 8z m-40 -80 c0 -3 -5 -8 -12 -12 -7 -4 -8 -3 -4 4 7 12 16 16 16 8z m-40 -80 c0 -3 -5 -8 -12 -12 -7 -4 -8 -3 -4 4 7 12 16 16 16 8z m-29 -49 c-11 -27 -51 -95 -51 -85 0 8 52 108 56 108 2 0 0 -10 -5 -23z m-61 -121 c0 -3 -5 -8 -12 -12 -7 -4 -8 -3 -4 4 7 12 16 16 16 8z m-23 -43 c-4 -3 -7 0 -7 7 0 7 3 10 7 7 3 -4 3 -10 0 -14z m-23 -43 c-10 -16 -20 -28 -22 -26 -4 5 28 56 35 56 2 0 -4 -13 -13 -30z m-34 -64 c0 -3 -5 -8 -12 -12 -7 -4 -8 -3 -4 4 7 12 16 16 16 8z m-23 -43 c-4 -3 -7 0 -7 7 0 7 3 10 7 7 3 -4 3 -10 0 -14z m-7 -17 c0 -3 -5 -8 -12 -12 -7 -4 -8 -3 -4 4 7 12 16 16 16 8z m-20 -30 c0 -3 -5 -8 -12 -12 -7 -4 -8 -3 -4 4 7 12 16 16 16 8z m-26 -51 c-9 -14 -18 -25 -21 -25 -5 0 5 18 20 38 17 22 18 13 1 -13z m-34 -64 c-5 -11 -15 -23 -21 -27 -6 -3 -3 5 6 20 20 30 30 35 15 7z m-40 -75 c0 -2 -8 -10 -17 -17 -16 -13 -17 -12 -4 4 13 16 21 21 21 13z m-47 -81 c-3 -9 -8 -14 -10 -11 -3 3 -2 9 2 15 9 16 15 13 8 -4z m-26 -42 c-4 -3 -7 0 -7 7 0 7 3 10 7 7 3 -4 3 -10 0 -14z m-7 -17 c0 -3 -5 -8 -12 -12 -7 -4 -8 -3 -4 4 7 12 16 16 16 8z m-27 -46 c-3 -11 -9 -20 -15 -20 -5 0 -4 9 2 20 6 11 12 20 14 20 2 0 2 -9 -1 -20z m-30 -45 c-3 -9 -8 -14 -10 -11 -3 3 -2 9 2 15 9 16 15 13 8 -4z m-23 -49 c0 -2 -8 -10 -17 -17 -16 -13 -17 -12 -4 4 13 16 21 21 21 13z m-39 -59 c-10 -9 -11 -8 -5 6 3 10 9 15 12 12 3 -3 0 -11 -7 -18z m-11 -21 c0 -3 -5 -8 -12 -12 -7 -4 -8 -3 -4 4 7 12 16 16 16 8z m-51 -86 c-12 -22 -26 -43 -31 -46 -10 -7 4 24 30 64 23 35 24 26 1 -18z m-49 -84 c0 -3 -5 -8 -12 -12 -7 -4 -8 -3 -4 4 7 12 16 16 16 8z m-20 -30 c0 -3 -5 -8 -12 -12 -7 -4 -8 -3 -4 4 7 12 16 16 16 8z m-20 -40 c0 -2 -8 -10 -17 -17 -16 -13 -17 -12 -4 4 13 16 21 21 21 13z m-37 -51 c-3 -9 -8 -14 -10 -11 -3 3 -2 9 2 15 9 16 15 13 8 -4z m-53 -89 c0 -3 -5 -8 -12 -12 -7 -4 -8 -3 -4 4 7 12 16 16 16 8z m-32 -51 c-6 -14 -15 -25 -20 -25 -5 0 -1 11 8 25 9 14 18 25 20 25 2 0 -2 -11 -8 -25z m-35 -50 c-3 -9 -8 -14 -10 -11 -3 3 -2 9 2 15 9 16 15 13 8 -4z m-13 -29 c0 -2 -8 -10 -17 -17 -16 -13 -17 -12 -4 4 13 16 21 21 21 13z m-57 -81 c-3 -9 -8 -14 -10 -11 -3 3 -2 9 2 15 9 16 15 13 8 -4z m-25 -45 c-7 -10 -14 -17 -17 -15 -4 4 18 35 25 35 2 0 -1 -9 -8 -20z m-38 -54 c0 -3 -5 -8 -12 -12 -7 -4 -8 -3 -4 4 7 12 16 16 16 8z m-39 -63 c-14 -24 -55 -72 -45 -53 12 24 45 70 50 70 3 0 0 -8 -5 -17z m-73 -108 c-11 -20 -23 -34 -25 -31 -5 5 35 66 42 66 3 0 -5 -16 -17 -35z m-48 -69 c0 -3 -5 -8 -12 -12 -7 -4 -8 -3 -4 4 7 12 16 16 16 8z m-42 -66 c-7 -10 -14 -17 -17 -15 -4 4 18 35 25 35 2 0 -1 -9 -8 -20z m-38 -54 c0 -2 -8 -10 -17 -17 -16 -13 -17 -12 -4 4 13 16 21 21 21 13z m-52 -76 c-7 -11 -17 -20 -22 -20 -5 0 -1 9 9 20 10 11 20 20 22 20 2 0 -2 -9 -9 -20z m-75 -104 c-10 -13 -20 -22 -22 -20 -4 4 29 44 36 44 2 0 -4 -11 -14 -24z m-23 -40 c0 -3 -4 -8 -10 -11 -5 -3 -10 -1 -10 4 0 6 5 11 10 11 6 0 10 -2 10 -4z m-40 -50 c0 -2 -8 -10 -17 -17 -16 -13 -17 -12 -4 4 13 16 21 21 21 13z m-57 -81 c-10 -13 -22 -25 -26 -25 -4 0 0 11 10 25 10 13 22 25 26 25 4 0 0 -11 -10 -25z m-36 -52 c-4 -3 -10 -3 -14 0 -3 4 0 7 7 7 7 0 10 -3 7 -7z m-17 -17 c0 -3 -5 -8 -12 -12 -7 -4 -8 -3 -4 4 7 12 16 16 16 8z m-20 -30 c0 -3 -5 -8 -12 -12 -7 -4 -8 -3 -4 4 7 12 16 16 16 8z m-42 -55 c-7 -12 -16 -21 -21 -21 -4 0 0 11 10 24 22 29 30 27 11 -3z m-31 -48 c-4 -3 -10 -3 -14 0 -3 4 0 7 7 7 7 0 10 -3 7 -7z m-47 -57 c0 -3 -5 -8 -12 -12 -7 -4 -8 -3 -4 4 7 12 16 16 16 8z m-42 -55 c-7 -12 -16 -21 -21 -21 -4 0 0 11 10 24 22 29 30 27 11 -3z m-33 -51 c-3 -5 -11 -10 -16 -10 -6 0 -7 5 -4 10 3 6 11 10 16 10 6 0 7 -4 4 -10z m-55 -64 c0 -3 -5 -8 -12 -12 -7 -4 -8 -3 -4 4 7 12 16 16 16 8z m-20 -30 c0 -2 -7 -9 -15 -16 -13 -11 -14 -10 -9 4 5 14 24 23 24 12z m-65 -74 l-28 -27 24 31 c13 17 26 30 28 27 3 -2 -8 -16 -24 -31z m-25 -36 c0 -2 -8 -10 -17 -17 -16 -13 -17 -12 -4 4 13 16 21 21 21 13z m-30 -40 c0 -2 -8 -10 -17 -17 -16 -13 -17 -12 -4 4 13 16 21 21 21 13z m-49 -59 c-10 -9 -11 -8 -5 6 3 10 9 15 12 12 3 -3 0 -11 -7 -18z m-50 -60 l-34 -32 29 37 c15 20 30 35 33 32 3 -2 -10 -19 -28 -37z m-31 -41 c0 -2 -8 -10 -17 -17 -16 -13 -17 -12 -4 4 13 16 21 21 21 13z m-40 -50 c0 -2 -8 -10 -17 -17 -16 -13 -17 -12 -4 4 13 16 21 21 21 13z m-30 -39 c0 -2 -10 -12 -21 -23 -22 -19 -22 -19 -8 4 12 19 29 30 29 19z m-40 -51 c0 -2 -7 -9 -15 -16 -13 -11 -14 -10 -9 4 5 14 24 23 24 12z m-40 -51 c0 -2 -10 -10 -22 -16 -21 -11 -22 -11 -9 4 13 16 31 23 31 12z m-40 -38 c0 -2 -10 -12 -22 -23 l-23 -19 19 23 c18 21 26 27 26 19z m-50 -61 c0 -2 -8 -10 -17 -17 -16 -13 -17 -12 -4 4 13 16 21 21 21 13z m-40 -49 c0 -2 -10 -12 -21 -23 -22 -19 -22 -19 -8 4 12 19 29 30 29 19z m-69 -80 c-13 -12 -20 -15 -16 -7 14 26 28 41 33 35 3 -3 -5 -16 -17 -28z m-41 -47 c0 -5 -10 -15 -22 -21 -23 -12 -23 -12 -4 10 21 23 26 26 26 11z m-50 -53 c0 -2 -10 -12 -22 -23 l-23 -19 19 23 c18 21 26 27 26 19z m-85 -95 l-28 -27 24 31 c13 17 26 30 28 27 3 -2 -8 -16 -24 -31z m-45 -55 c0 -2 -14 -16 -32 -33 l-31 -29 23 33 c20 27 40 42 40 29z m-70 -80 c0 -2 -14 -16 -32 -33 l-31 -29 22 33 c18 26 41 42 41 29z m-104 -108 c-8 -11 -25 -28 -38 -36 -15 -11 -11 -4 11 20 39 41 49 47 27 16z m-126 -134 c-24 -25 -46 -45 -49 -45 -3 0 15 20 39 45 24 25 46 45 49 45 3 0 -15 -20 -39 -45z m-60 -59 c0 -3 -5 -8 -12 -12 -7 -4 -8 -3 -4 4 7 12 16 16 16 8z m-60 -69 c0 -1 -46 -47 -102 -102 l-103 -100 95 101 c82 87 110 113 110 101z m-210 -211 c0 -2 -8 -10 -17 -17 -16 -13 -17 -12 -4 4 13 16 21 21 21 13z m-40 -39 c0 -1 -53 -54 -117 -117 l-118 -115 115 118 c107 109 120 122 120 114z m-290 -281 c0 -3 -5 -8 -12 -12 -7 -4 -8 -3 -4 4 7 12 16 16 16 8z m-30 -29 c0 -2 -19 -21 -42 -42 l-43 -40 40 43 c36 39 45 47 45 39z m-145 -141 c-9 -13 -24 -27 -33 -31 -10 -4 -5 6 12 24 36 37 42 39 21 7z m-105 -101 c-13 -14 -28 -25 -34 -25 -6 1 3 12 19 25 39 32 45 32 15 0z m-80 -70 c-13 -14 -28 -25 -34 -25 -6 0 3 11 19 25 39 31 45 32 15 0z m-85 -75 c-10 -11 -22 -20 -28 -20 -5 0 1 9 14 20 31 25 37 25 14 0z m-45 -33 c0 -2 -12 -14 -27 -28 l-28 -24 24 28 c23 25 31 32 31 24z m-90 -88 c-7 -11 -14 -18 -17 -15 -3 3 0 12 7 21 18 21 23 19 10 -6z m-55 -49 c-10 -11 -23 -20 -29 -20 -6 0 0 9 14 20 32 25 38 25 15 0z"/>
 <path d="M30 15920 c0 -6 4 -18 9 -28 19 -34 41 -90 41 -101 0 -6 4 -19 9 -29 5 -9 13 -28 19 -42 5 -14 17 -41 26 -62 9 -20 16 -43 16 -51 0 -9 4 -18 9 -22 5 -3 17 -29 26 -58 9 -28 23 -64 31 -79 8 -14 14 -33 14 -42 0 -9 9 -33 20 -53 11 -21 20 -45 20 -53 0 -9 4 -20 9 -26 10 -9 71 -163 71 -177 0 -5 11 -32 25 -61 14 -29 28 -67 31 -84 4 -18 10 -32 15 -32 5 0 9 -9 9 -20 0 -11 4 -28 9 -38 21 -39 41 -91 41 -105 0 -9 5 -19 10 -22 6 -3 10 -14 10 -23 0 -9 12 -39 25 -67 14 -27 25 -56 25 -62 0 -7 13 -41 29 -76 16 -35 35 -83 41 -107 6 -24 20 -59 31 -79 10 -20 19 -41 19 -48 0 -8 4 -21 9 -31 19 -34 41 -90 41 -101 0 -6 4 -19 9 -29 5 -9 14 -30 21 -47 7 -16 19 -42 26 -57 8 -14 14 -34 14 -45 0 -10 7 -26 15 -36 7 -10 19 -41 25 -68 7 -27 15 -49 20 -49 4 0 13 -21 20 -47 7 -27 17 -52 21 -57 5 -6 9 -17 9 -25 0 -9 7 -29 16 -46 9 -16 25 -55 35 -85 11 -30 24 -63 30 -72 5 -10 9 -23 9 -31 0 -7 9 -29 20 -50 11 -20 20 -44 20 -52 0 -8 9 -32 20 -52 11 -21 20 -43 20 -50 0 -8 4 -21 9 -31 19 -34 41 -90 41 -101 0 -6 4 -19 9 -29 5 -9 13 -28 19 -42 5 -14 17 -41 26 -62 9 -20 16 -43 16 -51 0 -9 4 -18 9 -22 5 -3 17 -29 26 -58 9 -28 20 -60 26 -69 5 -10 9 -23 9 -30 0 -7 11 -35 25 -63 13 -27 25 -57 25 -65 0 -9 4 -20 9 -25 10 -10 71 -164 71 -178 0 -5 11 -32 25 -61 14 -29 28 -67 31 -84 4 -18 10 -32 15 -32 5 0 9 -9 9 -20 0 -11 4 -28 9 -38 21 -39 41 -91 41 -105 0 -9 5 -19 10 -22 6 -3 10 -14 10 -23 0 -9 12 -39 25 -67 14 -27 25 -56 25 -62 0 -7 13 -41 29 -76 16 -35 35 -83 41 -107 6 -24 20 -59 31 -79 10 -20 19 -41 19 -48 0 -8 4 -21 9 -31 19 -34 41 -90 41 -101 0 -6 4 -19 9 -29 5 -9 14 -30 21 -47 7 -16 19 -42 26 -57 8 -14 14 -33 14 -42 0 -9 4 -25 10 -36 24 -48 28 -57 35 -88 3 -18 10 -32 14 -32 5 0 14 -21 21 -47 7 -27 17 -52 21 -58 5 -5 9 -16 9 -25 0 -8 7 -28 16 -45 9 -16 25 -55 35 -85 11 -30 24 -63 30 -72 5 -10 9 -23 9 -31 0 -7 9 -29 20 -50 11 -20 20 -44 20 -52 0 -8 9 -32 20 -52 11 -21 20 -43 20 -50 0 -8 4 -21 9 -31 17 -31 41 -90 41 -99 0 -5 9 -26 20 -48 11 -22 20 -45 20 -51 0 -6 7 -25 15 -40 8 -16 15 -37 15 -46 0 -9 4 -19 9 -23 5 -3 17 -29 26 -58 9 -28 20 -60 26 -69 5 -10 9 -23 9 -30 0 -7 11 -35 25 -63 13 -27 25 -57 25 -65 0 -9 4 -20 9 -25 9 -10 62 -145 76 -195 4 -14 14 -34 21 -45 8 -11 14 -29 14 -42 0 -12 5 -25 10 -28 6 -3 10 -15 10 -26 0 -10 5 -19 10 -19 6 0 10 -9 10 -20 0 -11 4 -28 9 -38 19 -36 41 -91 41 -104 0 -7 7 -22 15 -32 8 -11 15 -30 15 -42 0 -13 4 -26 10 -29 5 -3 17 -32 26 -63 9 -31 25 -73 35 -92 11 -19 19 -42 19 -52 0 -9 5 -20 10 -23 6 -3 10 -14 10 -23 0 -9 11 -39 25 -67 13 -27 25 -56 25 -63 0 -7 5 -21 10 -32 6 -11 15 -29 20 -40 6 -11 10 -25 10 -31 0 -6 7 -27 16 -47 9 -21 20 -46 24 -57 4 -11 15 -36 24 -57 9 -20 16 -41 16 -47 0 -6 5 -20 10 -31 24 -48 28 -57 35 -88 3 -18 10 -32 14 -32 5 0 14 -21 21 -47 7 -27 17 -52 21 -57 5 -6 9 -17 9 -25 0 -9 7 -29 16 -46 9 -16 25 -55 35 -85 11 -30 24 -63 30 -72 5 -10 9 -23 9 -31 0 -7 9 -29 20 -50 11 -20 20 -46 20 -56 0 -11 4 -22 9 -26 5 -3 15 -22 21 -43 12 -39 18 -53 44 -114 9 -20 16 -40 16 -45 0 -5 9 -26 20 -48 11 -22 20 -45 20 -51 0 -6 7 -25 15 -40 8 -16 15 -37 15 -46 0 -9 4 -19 9 -23 5 -3 17 -29 26 -58 9 -28 20 -60 26 -69 5 -10 9 -23 9 -30 0 -6 8 -30 18 -52 11 -23 58 -142 105 -266 47 -124 115 -301 152 -395 36 -93 91 -235 122 -315 30 -80 59 -153 64 -162 9 -17 125 -18 2214 -18 l2205 0 0 2208 0 2207 -2209 -3 -2208 -2 -26 37 c-15 21 -41 59 -59 84 -52 72 -162 228 -178 253 -8 13 -46 67 -85 121 -69 95 -169 236 -203 285 -9 14 -53 76 -97 139 -99 140 -139 198 -235 335 -41 58 -108 153 -149 209 -40 56 -89 125 -107 152 -18 28 -94 136 -168 240 -169 238 -250 352 -301 425 -69 99 -169 240 -260 370 -174 245 -267 376 -328 464 -88 126 -84 120 -172 245 -44 62 -93 132 -109 155 -76 109 -223 316 -250 353 -17 23 -56 78 -86 123 -30 44 -73 105 -95 134 -22 30 -87 122 -145 205 -58 83 -149 213 -202 289 -53 75 -119 168 -145 206 -26 37 -91 128 -143 202 -52 73 -124 174 -158 223 -64 91 -72 100 -72 81z m7917 -7517 c-4 -3 -10 -3 -14 0 -3 4 0 7 7 7 7 0 10 -3 7 -7z m-32 -13 c-3 -5 -12 -10 -18 -10 -7 0 -6 4 3 10 19 12 23 12 15 0z m-88 -37 c-4 -3 -10 -3 -14 0 -3 4 0 7 7 7 7 0 10 -3 7 -7z m-80 -30 c-4 -3 -10 -3 -14 0 -3 4 0 7 7 7 7 0 10 -3 7 -7z m-210 -80 c-4 -3 -10 -3 -14 0 -3 4 0 7 7 7 7 0 10 -3 7 -7z m-142 -53 c-3 -5 -12 -10 -18 -10 -7 0 -6 4 3 10 19 12 23 12 15 0z m-328 -117 c-4 -3 -10 -3 -14 0 -3 4 0 7 7 7 7 0 10 -3 7 -7z m-120 -40 c-4 -3 -10 -3 -14 0 -3 4 0 7 7 7 7 0 10 -3 7 -7z m-120 -40 c-4 -3 -10 -3 -14 0 -3 4 0 7 7 7 7 0 10 -3 7 -7z m-530 -160 c-4 -3 -10 -3 -14 0 -3 4 0 7 7 7 7 0 10 -3 7 -7z m-110 -30 c-4 -3 -10 -3 -14 0 -3 4 0 7 7 7 7 0 10 -3 7 -7z m-210 -60 c-4 -3 -10 -3 -14 0 -3 4 0 7 7 7 7 0 10 -3 7 -7z m-320 -80 c-4 -3 -10 -3 -14 0 -3 4 0 7 7 7 7 0 10 -3 7 -7z m-170 -40 c-4 -3 -10 -3 -14 0 -3 4 0 7 7 7 7 0 10 -3 7 -7z m-140 -30 c-4 -3 -10 -3 -14 0 -3 4 0 7 7 7 7 0 10 -3 7 -7z m-230 -50 c-4 -3 -10 -3 -14 0 -3 4 0 7 7 7 7 0 10 -3 7 -7z m-120 -20 c-4 -3 -10 -3 -14 0 -3 4 0 7 7 7 7 0 10 -3 7 -7z m-40 -10 c-4 -3 -10 -3 -14 0 -3 4 0 7 7 7 7 0 10 -3 7 -7z m-210 -40 c-4 -3 -10 -3 -14 0 -3 4 0 7 7 7 7 0 10 -3 7 -7z m-50 -10 c-4 -3 -10 -3 -14 0 -3 4 0 7 7 7 7 0 10 -3 7 -7z m-40 -10 c-4 -3 -10 -3 -14 0 -3 4 0 7 7 7 7 0 10 -3 7 -7z m-100 -10 c-4 -3 -10 -3 -14 0 -3 4 0 7 7 7 7 0 10 -3 7 -7z m-50 -10 c-4 -3 -10 -3 -14 0 -3 4 0 7 7 7 7 0 10 -3 7 -7z m-40 -10 c-4 -3 -10 -3 -14 0 -3 4 0 7 7 7 7 0 10 -3 7 -7z m-50 -10 c-4 -3 -10 -3 -14 0 -3 4 0 7 7 7 7 0 10 -3 7 -7z m-110 -10 c-4 -3 -10 -3 -14 0 -3 4 0 7 7 7 7 0 10 -3 7 -7z m-50 -10 c-4 -3 -10 -3 -14 0 -3 4 0 7 7 7 7 0 10 -3 7 -7z m-60 -10 c-4 -3 -10 -3 -14 0 -3 4 0 7 7 7 7 0 10 -3 7 -7z m-170 -20 c-4 -3 -10 -3 -14 0 -3 4 0 7 7 7 7 0 10 -3 7 -7z m-60 -10 c-4 -3 -10 -3 -14 0 -3 4 0 7 7 7 7 0 10 -3 7 -7z m-60 -10 c-4 -3 -10 -3 -14 0 -3 4 0 7 7 7 7 0 10 -3 7 -7z"/>
 </g>
<g id="layer108" fill="#a7d3cc" stroke="none">
 <path d="M10720 15993 c0 -5 9 -19 20 -33 11 -14 20 -31 20 -38 0 -7 10 -29 23 -50 41 -67 47 -77 62 -107 8 -16 24 -43 35 -60 20 -31 31 -51 92 -166 20 -36 52 -89 72 -117 20 -29 36 -57 36 -62 0 -6 29 -55 65 -109 36 -54 65 -102 65 -106 0 -4 13 -24 29 -44 15 -20 36 -52 45 -71 9 -19 27 -48 42 -65 14 -16 32 -43 40 -60 7 -16 25 -43 40 -60 14 -16 32 -43 40 -60 8 -16 27 -46 44 -65 16 -19 30 -39 30 -43 0 -5 20 -33 45 -64 25 -30 45 -61 45 -69 0 -8 4 -14 8 -14 5 0 24 -24 42 -52 19 -29 40 -57 47 -61 7 -4 13 -13 13 -18 0 -6 21 -36 46 -67 26 -31 49 -64 52 -72 5 -13 89 -120 127 -161 8 -9 15 -20 15 -26 0 -5 14 -25 31 -44 16 -19 48 -54 70 -78 21 -24 39 -49 39 -55 0 -6 19 -32 43 -57 83 -89 152 -171 158 -187 4 -10 29 -40 55 -67 106 -110 219 -238 226 -256 4 -11 184 -195 400 -410 476 -474 481 -479 493 -479 6 0 39 -28 75 -63 36 -35 112 -103 170 -152 58 -48 110 -94 115 -100 9 -10 160 -132 385 -310 149 -118 343 -260 545 -399 l42 -29 -67 -151 c-149 -336 -372 -794 -530 -1086 -955 -1771 -2211 -3310 -3745 -4590 -2098 -1751 -4639 -2918 -7335 -3370 -896 -150 -1660 -211 -2620 -210 l-505 1 -3 -990 -2 -991 4964 0 4964 0 51 46 c28 25 51 42 51 37 0 -4 -19 -25 -42 -45 l-43 -37 3028 -1 3027 0 0 8000 0 8000 -2640 0 c-1452 0 -2640 -3 -2640 -7z m4185 -4673 c3 -5 4 -10 1 -10 -3 0 -8 5 -11 10 -3 6 -4 10 -1 10 3 0 8 -4 11 -10z m120 -80 c3 -5 4 -10 1 -10 -3 0 -8 5 -11 10 -3 6 -4 10 -1 10 3 0 8 -4 11 -10z m220 -140 c3 -5 4 -10 1 -10 -3 0 -8 5 -11 10 -3 6 -4 10 -1 10 3 0 8 -4 11 -10z m210 -130 c3 -5 4 -10 1 -10 -3 0 -8 5 -11 10 -3 6 -4 10 -1 10 3 0 8 -4 11 -10z m290 -170 c3 -5 4 -10 1 -10 -3 0 -8 5 -11 10 -3 6 -4 10 -1 10 3 0 8 -4 11 -10z m172 -132 c-3 -7 -5 -2 -5 12 0 14 2 19 5 13 2 -7 2 -19 0 -25z m-10 -55 c-3 -10 -5 -4 -5 12 0 17 2 24 5 18 2 -7 2 -21 0 -30z m3 -33 c0 -5 -5 -10 -11 -10 -5 0 -7 5 -4 10 3 6 8 10 11 10 2 0 4 -4 4 -10z m-13 -52 c-3 -7 -5 -2 -5 12 0 14 2 19 5 13 2 -7 2 -19 0 -25z m-10 -50 c-3 -7 -5 -2 -5 12 0 14 2 19 5 13 2 -7 2 -19 0 -25z m-10 -50 c-3 -7 -5 -2 -5 12 0 14 2 19 5 13 2 -7 2 -19 0 -25z m-10 -50 c-3 -7 -5 -2 -5 12 0 14 2 19 5 13 2 -7 2 -19 0 -25z m-7 -58 l-8 -35 -1 31 c-1 17 2 34 6 37 11 12 12 3 3 -33z m-13 -72 c-3 -7 -5 -2 -5 12 0 14 2 19 5 13 2 -7 2 -19 0 -25z m-10 -40 c-3 -8 -6 -5 -6 6 -1 11 2 17 5 13 3 -3 4 -12 1 -19z m-10 -50 c-3 -8 -6 -5 -6 6 -1 11 2 17 5 13 3 -3 4 -12 1 -19z m-6 -59 l-9 -34 -1 31 c-1 17 2 34 6 37 12 13 14 -1 4 -34z m-14 -61 c-3 -8 -6 -5 -6 6 -1 11 2 17 5 13 3 -3 4 -12 1 -19z m-10 -40 c-3 -8 -6 -5 -6 6 -1 11 2 17 5 13 3 -3 4 -12 1 -19z m-10 -50 c-3 -7 -5 -2 -5 12 0 14 2 19 5 13 2 -7 2 -19 0 -25z m-3 -45 c-10 -40 -14 -41 -14 -5 0 18 5 32 10 32 6 0 8 -11 4 -27z m-17 -65 c-3 -8 -6 -5 -6 6 -1 11 2 17 5 13 3 -3 4 -12 1 -19z m-10 -35 c-4 -3 -7 0 -7 7 0 7 3 10 7 7 3 -4 3 -10 0 -14z m-10 -45 c-3 -8 -6 -5 -6 6 -1 11 2 17 5 13 3 -3 4 -12 1 -19z m2 -25 c0 -5 -4 -17 -9 -28 -8 -18 -9 -17 -9 8 -1 15 4 27 9 27 6 0 10 -3 9 -7z m-22 -75 c-3 -8 -6 -5 -6 6 -1 11 2 17 5 13 3 -3 4 -12 1 -19z m-10 -40 c-3 -8 -6 -5 -6 6 -1 11 2 17 5 13 3 -3 4 -12 1 -19z m-10 -40 c-3 -8 -6 -5 -6 6 -1 11 2 17 5 13 3 -3 4 -12 1 -19z m-12 -69 l-14 -44 6 40 c6 42 12 59 19 52 2 -2 -3 -23 -11 -48z m-18 -71 c-3 -8 -6 -5 -6 6 -1 11 2 17 5 13 3 -3 4 -12 1 -19z m-10 -40 c-3 -8 -6 -5 -6 6 -1 11 2 17 5 13 3 -3 4 -12 1 -19z m-14 -78 c-9 -34 -17 -59 -19 -57 -6 6 20 117 27 117 4 0 0 -27 -8 -60z m-26 -87 c-4 -3 -7 0 -7 7 0 7 3 10 7 7 3 -4 3 -10 0 -14z m-6 -44 c-9 -22 -10 -22 -10 -3 -1 11 2 24 6 27 12 12 14 0 4 -24z m-17 -63 c-3 -15 -8 -25 -11 -23 -2 3 -1 17 3 31 3 15 8 25 11 23 2 -3 1 -17 -3 -31z m-17 -53 c-4 -3 -7 0 -7 7 0 7 3 10 7 7 3 -4 3 -10 0 -14z m-12 -59 l-15 -39 6 35 c7 38 14 54 20 47 2 -2 -3 -21 -11 -43z m-18 -61 c-4 -3 -7 0 -7 7 0 7 3 10 7 7 3 -4 3 -10 0 -14z m-17 -83 c-16 -59 -20 -46 -7 20 6 30 13 47 15 38 2 -9 -2 -35 -8 -58z m-23 -67 c-4 -3 -7 0 -7 7 0 7 3 10 7 7 3 -4 3 -10 0 -14z m-22 -84 c-8 -19 -13 -26 -11 -17 3 9 8 34 13 55 5 26 8 32 11 17 2 -12 -4 -37 -13 -55z m-21 -73 c-3 -15 -8 -25 -11 -23 -2 3 -1 17 3 31 3 15 8 25 11 23 2 -3 1 -17 -3 -31z m-24 -93 c-10 -32 -23 -78 -30 -101 -6 -24 -13 -42 -16 -40 -6 7 49 198 58 198 3 0 -2 -26 -12 -57z m-60 -190 c-11 -17 -11 -17 -6 0 3 10 6 24 7 30 0 9 2 9 5 0 3 -7 0 -20 -6 -30z m-17 -69 c-8 -25 -17 -44 -18 -42 -6 6 19 88 26 88 4 0 1 -20 -8 -46z m-26 -71 c-4 -3 -7 0 -7 7 0 7 3 10 7 7 3 -4 3 -10 0 -14z m0 -20 c-4 -3 -10 -3 -14 0 -3 4 0 7 7 7 7 0 10 -3 7 -7z m-18 -52 c-6 -18 -13 -30 -15 -28 -2 2 1 18 7 36 6 18 13 30 15 28 2 -2 -1 -18 -7 -36z m-22 -58 c-4 -3 -7 0 -7 7 0 7 3 10 7 7 3 -4 3 -10 0 -14z m-3 -28 c-4 -8 -8 -15 -10 -15 -2 0 -4 7 -4 15 0 8 4 15 10 15 5 0 7 -7 4 -15z m-25 -72 c-26 -82 -42 -123 -45 -120 -2 2 8 40 23 85 14 45 28 80 30 78 3 -3 -1 -22 -8 -43z m-65 -198 c-23 -61 -28 -52 -7 14 10 29 19 48 21 42 2 -6 -4 -31 -14 -56z m-34 -106 c-17 -41 -22 -31 -8 17 6 21 13 33 15 26 3 -7 -1 -26 -7 -43z m-55 -140 c-27 -58 -27 -55 2 31 10 29 19 47 21 38 2 -8 -9 -39 -23 -69z m-30 -96 c-16 -38 -34 -63 -20 -28 4 11 10 30 12 43 3 12 9 22 14 22 5 0 2 -17 -6 -37z m-32 -93 c-8 -30 -21 -34 -15 -5 2 14 8 25 12 25 5 0 6 -9 3 -20z m-32 -67 c-12 -20 -14 -14 -5 12 4 9 9 14 11 11 3 -2 0 -13 -6 -23z m-16 -50 c-3 -16 -10 -32 -15 -37 -5 -5 -4 7 2 27 13 43 23 50 13 10z m-45 -120 c-11 -21 -19 -31 -16 -23 25 79 31 93 34 78 2 -9 -6 -34 -18 -55z m-32 -88 c-6 -14 -13 -24 -14 -22 -6 6 9 47 17 47 5 0 3 -11 -3 -25z m-43 -108 c-22 -53 -27 -46 -8 10 9 26 18 43 20 37 2 -6 -3 -27 -12 -47z m-35 -87 c-16 -40 -23 -33 -9 9 6 18 14 30 17 27 2 -3 -1 -19 -8 -36z m-45 -110 c-24 -52 -30 -46 -8 8 9 23 18 40 21 37 3 -3 -3 -23 -13 -45z m-56 -137 c-20 -49 -59 -120 -48 -87 13 39 64 152 67 149 3 -2 -6 -30 -19 -62z m-49 -127 c0 -3 -4 -8 -10 -11 -5 -3 -10 -1 -10 4 0 6 5 11 10 11 6 0 10 -2 10 -4z m-29 -49 c-10 -9 -11 -8 -5 6 3 10 9 15 12 12 3 -3 0 -11 -7 -18z m-26 -67 c-9 -16 -17 -30 -19 -30 -3 0 1 14 7 30 6 17 15 30 19 30 5 0 2 -13 -7 -30z m-25 -53 c0 -7 -7 -22 -15 -33 -13 -17 -14 -16 -4 14 11 33 19 41 19 19z m-40 -92 c-6 -15 -13 -25 -16 -23 -2 3 1 17 7 32 16 34 23 27 9 -9z m-20 -43 c0 -5 -7 -17 -15 -28 -14 -18 -14 -17 -4 9 12 27 19 34 19 19z m-20 -56 c0 -3 -4 -8 -10 -11 -5 -3 -10 -1 -10 4 0 6 5 11 10 11 6 0 10 -2 10 -4z m-55 -105 c-21 -43 -29 -39 -8 4 9 19 18 33 21 31 2 -2 -4 -18 -13 -35z m-40 -90 c-22 -44 -26 -38 -7 10 9 23 18 37 20 31 2 -6 -4 -24 -13 -41z m-75 -155 c-28 -58 -53 -106 -56 -106 -3 0 -4 3 -2 8 2 4 26 53 53 109 27 56 51 101 52 99 2 -2 -19 -51 -47 -110z m-72 -146 c-5 -17 -14 -33 -19 -36 -8 -5 4 37 17 57 11 19 12 8 2 -21z m-40 -80 c-5 -17 -14 -33 -19 -36 -8 -5 4 37 17 57 11 19 12 8 2 -21z m-35 -67 c-11 -31 -105 -207 -115 -218 -5 -5 18 45 52 113 56 110 80 152 63 105z m-158 -307 c-20 -36 -39 -66 -41 -66 -3 0 12 31 33 69 21 38 39 68 41 66 2 -2 -13 -33 -33 -69z m-65 -120 c-30 -49 -36 -46 -8 3 12 22 24 38 26 36 3 -2 -6 -20 -18 -39z m-38 -73 c-11 -16 -22 -38 -26 -50 -4 -11 -14 -27 -23 -35 -9 -7 -2 15 17 50 19 34 38 62 43 62 5 0 0 -12 -11 -27z m-62 -112 c0 -5 -9 -19 -20 -32 l-20 -24 16 33 c15 32 24 40 24 23z m-51 -95 c-7 -14 -16 -26 -20 -26 -5 0 0 13 9 29 20 36 27 34 11 -3z m-51 -89 c-13 -25 -27 -46 -31 -47 -5 0 4 22 20 49 34 62 42 60 11 -2z m-58 -96 c-11 -22 -24 -42 -29 -46 -6 -3 2 15 15 40 31 55 42 60 14 6z m-58 -98 c-10 -15 -30 -48 -44 -73 -38 -71 -70 -121 -74 -117 -2 2 26 54 63 115 36 62 68 110 71 108 2 -3 -5 -17 -16 -33z m-122 -207 c0 -2 -8 -10 -17 -17 -16 -13 -17 -12 -4 4 13 16 21 21 21 13z m-45 -72 c-14 -20 -25 -41 -25 -45 0 -5 -4 -9 -10 -9 -5 0 3 20 18 45 15 25 30 45 34 45 4 0 -4 -16 -17 -36z m-77 -124 c-18 -33 -37 -60 -42 -60 -4 0 0 12 9 27 10 14 26 41 37 60 34 57 31 36 -4 -27z m-62 -98 c-8 -16 -22 -34 -31 -42 -9 -7 -4 5 11 28 32 48 41 55 20 14z m-39 -69 c-4 -3 -10 -3 -14 0 -3 4 0 7 7 7 7 0 10 -3 7 -7z m-38 -53 c-13 -22 -26 -40 -31 -40 -5 0 4 18 18 40 15 22 29 40 31 40 2 0 -6 -18 -18 -40z m-49 -70 c-6 -11 -13 -20 -16 -20 -2 0 0 9 6 20 6 11 13 20 16 20 2 0 0 -9 -6 -20z m-32 -52 c-33 -58 -102 -157 -106 -153 -5 4 106 175 114 175 3 0 -1 -10 -8 -22z m-156 -233 c-15 -25 -30 -45 -35 -45 -4 0 6 20 23 45 17 25 33 45 35 45 3 0 -8 -20 -23 -45z m-56 -77 c-8 -13 -26 -40 -38 -60 -12 -21 -25 -38 -30 -38 -4 0 11 27 34 60 22 33 43 60 46 60 2 0 -3 -10 -12 -22z m-76 -118 c0 -5 -5 -10 -11 -10 -5 0 -7 5 -4 10 3 6 8 10 11 10 2 0 4 -4 4 -10z m-27 -32 c-5 -7 -19 -30 -32 -51 -13 -21 -26 -36 -28 -33 -5 5 55 96 63 96 3 0 1 -6 -3 -12z m-80 -111 c-36 -58 -79 -117 -85 -117 -4 0 13 29 39 65 26 36 48 65 50 65 2 0 0 -6 -4 -13z m-104 -150 c-8 -7 -30 -37 -49 -65 -19 -28 -38 -52 -42 -52 -4 0 15 32 44 70 28 39 53 68 56 66 2 -3 -2 -11 -9 -19z m-99 -141 c0 -2 -7 -7 -16 -10 -8 -3 -12 -2 -9 4 6 10 25 14 25 6z m-67 -81 c-21 -29 -43 -56 -50 -59 -7 -3 9 22 34 54 25 33 48 60 50 60 2 0 -13 -25 -34 -55z m-53 -80 c0 -2 -10 -10 -22 -16 -21 -11 -22 -11 -9 4 13 16 31 23 31 12z m-62 -67 c-25 -37 -158 -205 -247 -313 -31 -38 -79 -98 -106 -132 -26 -35 -52 -63 -57 -63 -5 0 15 28 44 63 29 34 127 155 218 270 156 196 200 248 148 175z m-439 -550 c-13 -13 -62 -69 -108 -126 -46 -56 -86 -100 -89 -97 -3 2 22 35 54 72 33 38 79 92 103 121 23 28 48 52 53 52 6 0 0 -10 -13 -22z m-219 -257 c0 -5 -12 -17 -27 -26 l-28 -18 24 27 c26 28 31 31 31 17z m-112 -123 c-35 -40 -92 -105 -127 -145 -34 -39 -69 -74 -77 -77 -7 -3 48 62 123 144 75 83 138 150 141 150 2 0 -24 -33 -60 -72z m-240 -266 c-7 -10 -31 -34 -53 -52 -35 -30 -34 -27 10 18 51 54 65 65 43 34z m-246 -259 c-153 -160 -374 -380 -566 -563 -49 -47 89 94 308 312 218 219 396 402 396 408 0 5 5 10 11 10 6 0 -61 -75 -149 -167z m-698 -685 c-20 -24 -45 -47 -53 -52 -9 -5 6 14 34 43 60 62 72 67 19 9z m-100 -92 c-5 -13 -56 -59 -214 -194 -73 -63 -73 -62 10 14 47 44 112 105 145 136 33 32 61 58 62 58 1 0 0 -6 -3 -14z m-315 -286 c-13 -16 -25 -28 -27 -25 -5 5 37 55 45 55 2 0 -6 -13 -18 -30z"/>
 <path d="M30 15920 c0 -6 4 -18 9 -28 19 -34 41 -90 41 -101 0 -6 4 -19 9 -29 5 -9 13 -28 19 -42 5 -14 17 -41 26 -62 9 -20 16 -43 16 -51 0 -9 4 -18 9 -22 5 -3 17 -29 26 -58 9 -28 23 -64 31 -79 8 -14 14 -33 14 -42 0 -9 9 -33 20 -53 11 -21 20 -45 20 -53 0 -9 4 -20 9 -26 10 -9 71 -163 71 -177 0 -5 11 -32 25 -61 14 -29 28 -67 31 -84 4 -18 10 -32 15 -32 5 0 9 -9 9 -20 0 -11 4 -28 9 -38 21 -39 41 -91 41 -105 0 -9 5 -19 10 -22 6 -3 10 -14 10 -23 0 -9 12 -39 25 -67 14 -27 25 -56 25 -62 0 -7 13 -41 29 -76 16 -35 35 -83 41 -107 6 -24 20 -59 31 -79 10 -20 19 -41 19 -48 0 -8 4 -21 9 -31 19 -34 41 -90 41 -101 0 -6 4 -19 9 -29 5 -9 14 -30 21 -47 7 -16 19 -42 26 -57 8 -14 14 -34 14 -45 0 -10 7 -26 15 -36 7 -10 19 -41 25 -68 7 -27 15 -49 20 -49 4 0 13 -21 20 -47 7 -27 17 -52 21 -57 5 -6 9 -17 9 -25 0 -9 7 -29 16 -46 9 -16 25 -55 35 -85 11 -30 24 -63 30 -72 5 -10 9 -23 9 -31 0 -7 9 -29 20 -50 11 -20 20 -44 20 -52 0 -8 9 -32 20 -52 11 -21 20 -43 20 -50 0 -8 4 -21 9 -31 19 -34 41 -90 41 -101 0 -6 4 -19 9 -29 5 -9 13 -28 19 -42 5 -14 17 -41 26 -62 9 -20 16 -43 16 -51 0 -9 4 -18 9 -22 5 -3 17 -29 26 -58 9 -28 20 -60 26 -69 5 -10 9 -23 9 -30 0 -7 11 -35 25 -63 13 -27 25 -57 25 -65 0 -9 4 -20 9 -25 10 -10 71 -164 71 -178 0 -5 11 -32 25 -61 14 -29 28 -67 31 -84 4 -18 10 -32 15 -32 5 0 9 -9 9 -20 0 -11 4 -28 9 -38 21 -39 41 -91 41 -105 0 -9 5 -19 10 -22 6 -3 10 -14 10 -23 0 -9 12 -39 25 -67 14 -27 25 -56 25 -62 0 -7 13 -41 29 -76 16 -35 35 -83 41 -107 6 -24 20 -59 31 -79 10 -20 19 -41 19 -48 0 -8 4 -21 9 -31 19 -34 41 -90 41 -101 0 -6 4 -19 9 -29 5 -9 14 -30 21 -47 7 -16 19 -42 26 -57 8 -14 14 -33 14 -42 0 -9 4 -25 10 -36 24 -48 28 -57 35 -88 3 -18 10 -32 14 -32 5 0 14 -21 21 -47 7 -27 17 -52 21 -58 5 -5 9 -16 9 -25 0 -8 7 -28 16 -45 9 -16 25 -55 35 -85 11 -30 24 -63 30 -72 5 -10 9 -23 9 -31 0 -7 9 -29 20 -50 11 -20 20 -44 20 -52 0 -8 9 -32 20 -52 11 -21 20 -43 20 -50 0 -8 4 -21 9 -31 17 -31 41 -90 41 -99 0 -5 9 -26 20 -48 11 -22 20 -45 20 -51 0 -6 7 -25 15 -40 8 -16 15 -37 15 -46 0 -9 4 -19 9 -23 5 -3 17 -29 26 -58 9 -28 20 -60 26 -69 5 -10 9 -23 9 -30 0 -7 11 -35 25 -63 13 -27 25 -57 25 -65 0 -9 4 -20 9 -25 9 -10 62 -145 76 -195 4 -14 14 -34 21 -45 8 -11 14 -29 14 -42 0 -12 5 -25 10 -28 6 -3 10 -15 10 -26 0 -10 5 -19 10 -19 6 0 10 -9 10 -20 0 -11 4 -28 9 -38 19 -36 41 -91 41 -104 0 -7 7 -22 15 -32 8 -11 15 -30 15 -42 0 -13 4 -26 10 -29 5 -3 17 -32 26 -63 9 -31 25 -73 35 -92 11 -19 19 -42 19 -52 0 -9 5 -20 10 -23 6 -3 10 -14 10 -23 0 -9 11 -39 25 -67 13 -27 25 -56 25 -63 0 -7 5 -21 10 -32 6 -11 15 -29 20 -40 6 -11 10 -25 10 -31 0 -6 7 -27 16 -47 9 -21 20 -46 24 -57 4 -11 15 -36 24 -57 9 -20 16 -41 16 -47 0 -6 5 -20 10 -31 24 -48 28 -57 35 -88 3 -18 10 -32 14 -32 5 0 14 -21 21 -47 7 -27 17 -52 21 -57 5 -6 9 -17 9 -25 0 -9 7 -29 16 -46 9 -16 25 -55 35 -85 11 -30 24 -63 30 -72 5 -10 9 -23 9 -31 0 -7 9 -29 20 -50 11 -20 20 -46 20 -56 0 -11 4 -22 9 -26 5 -3 15 -22 21 -43 12 -39 18 -53 44 -114 9 -20 16 -40 16 -45 0 -5 9 -26 20 -48 11 -22 20 -45 20 -51 0 -6 7 -25 15 -40 8 -16 15 -37 15 -46 0 -9 4 -19 9 -23 5 -3 17 -29 26 -58 9 -28 20 -60 26 -69 5 -10 9 -23 9 -30 0 -6 8 -30 18 -52 11 -23 58 -142 105 -266 47 -124 115 -301 152 -395 36 -93 91 -235 122 -315 30 -80 59 -153 64 -162 9 -17 125 -18 2214 -18 l2205 0 0 2208 0 2207 -2209 -3 -2208 -2 -26 37 c-15 21 -41 59 -59 84 -52 72 -162 228 -178 253 -8 13 -46 67 -85 121 -69 95 -169 236 -203 285 -9 14 -53 76 -97 139 -99 140 -139 198 -235 335 -41 58 -108 153 -149 209 -40 56 -89 125 -107 152 -18 28 -94 136 -168 240 -169 238 -250 352 -301 425 -69 99 -169 240 -260 370 -174 245 -267 376 -328 464 -88 126 -84 120 -172 245 -44 62 -93 132 -109 155 -76 109 -223 316 -250 353 -17 23 -56 78 -86 123 -30 44 -73 105 -95 134 -22 30 -87 122 -145 205 -58 83 -149 213 -202 289 -53 75 -119 168 -145 206 -26 37 -91 128 -143 202 -52 73 -124 174 -158 223 -64 91 -72 100 -72 81z m7917 -7517 c-4 -3 -10 -3 -14 0 -3 4 0 7 7 7 7 0 10 -3 7 -7z m-32 -13 c-3 -5 -12 -10 -18 -10 -7 0 -6 4 3 10 19 12 23 12 15 0z m-88 -37 c-4 -3 -10 -3 -14 0 -3 4 0 7 7 7 7 0 10 -3 7 -7z m-80 -30 c-4 -3 -10 -3 -14 0 -3 4 0 7 7 7 7 0 10 -3 7 -7z m-210 -80 c-4 -3 -10 -3 -14 0 -3 4 0 7 7 7 7 0 10 -3 7 -7z m-142 -53 c-3 -5 -12 -10 -18 -10 -7 0 -6 4 3 10 19 12 23 12 15 0z m-328 -117 c-4 -3 -10 -3 -14 0 -3 4 0 7 7 7 7 0 10 -3 7 -7z m-120 -40 c-4 -3 -10 -3 -14 0 -3 4 0 7 7 7 7 0 10 -3 7 -7z m-120 -40 c-4 -3 -10 -3 -14 0 -3 4 0 7 7 7 7 0 10 -3 7 -7z m-530 -160 c-4 -3 -10 -3 -14 0 -3 4 0 7 7 7 7 0 10 -3 7 -7z m-110 -30 c-4 -3 -10 -3 -14 0 -3 4 0 7 7 7 7 0 10 -3 7 -7z m-210 -60 c-4 -3 -10 -3 -14 0 -3 4 0 7 7 7 7 0 10 -3 7 -7z m-320 -80 c-4 -3 -10 -3 -14 0 -3 4 0 7 7 7 7 0 10 -3 7 -7z m-170 -40 c-4 -3 -10 -3 -14 0 -3 4 0 7 7 7 7 0 10 -3 7 -7z m-140 -30 c-4 -3 -10 -3 -14 0 -3 4 0 7 7 7 7 0 10 -3 7 -7z m-230 -50 c-4 -3 -10 -3 -14 0 -3 4 0 7 7 7 7 0 10 -3 7 -7z m-120 -20 c-4 -3 -10 -3 -14 0 -3 4 0 7 7 7 7 0 10 -3 7 -7z m-40 -10 c-4 -3 -10 -3 -14 0 -3 4 0 7 7 7 7 0 10 -3 7 -7z m-210 -40 c-4 -3 -10 -3 -14 0 -3 4 0 7 7 7 7 0 10 -3 7 -7z m-50 -10 c-4 -3 -10 -3 -14 0 -3 4 0 7 7 7 7 0 10 -3 7 -7z m-40 -10 c-4 -3 -10 -3 -14 0 -3 4 0 7 7 7 7 0 10 -3 7 -7z m-100 -10 c-4 -3 -10 -3 -14 0 -3 4 0 7 7 7 7 0 10 -3 7 -7z m-50 -10 c-4 -3 -10 -3 -14 0 -3 4 0 7 7 7 7 0 10 -3 7 -7z m-40 -10 c-4 -3 -10 -3 -14 0 -3 4 0 7 7 7 7 0 10 -3 7 -7z m-50 -10 c-4 -3 -10 -3 -14 0 -3 4 0 7 7 7 7 0 10 -3 7 -7z m-110 -10 c-4 -3 -10 -3 -14 0 -3 4 0 7 7 7 7 0 10 -3 7 -7z m-50 -10 c-4 -3 -10 -3 -14 0 -3 4 0 7 7 7 7 0 10 -3 7 -7z m-60 -10 c-4 -3 -10 -3 -14 0 -3 4 0 7 7 7 7 0 10 -3 7 -7z m-170 -20 c-4 -3 -10 -3 -14 0 -3 4 0 7 7 7 7 0 10 -3 7 -7z m-60 -10 c-4 -3 -10 -3 -14 0 -3 4 0 7 7 7 7 0 10 -3 7 -7z m-60 -10 c-4 -3 -10 -3 -14 0 -3 4 0 7 7 7 7 0 10 -3 7 -7z"/>
 </g>
<g id="layer109" fill="#9edacf" stroke="none">
 <path d="M10720 15993 c0 -5 9 -19 20 -33 11 -14 20 -31 20 -38 0 -7 10 -29 23 -50 41 -67 47 -77 62 -107 8 -16 24 -43 35 -60 20 -31 31 -51 92 -166 20 -36 52 -89 72 -117 20 -29 36 -57 36 -62 0 -6 29 -55 65 -109 36 -54 65 -102 65 -106 0 -4 13 -24 29 -44 15 -20 36 -52 45 -71 9 -19 27 -48 42 -65 14 -16 32 -43 40 -60 7 -16 25 -43 40 -60 14 -16 32 -43 40 -60 8 -16 27 -46 44 -65 16 -19 30 -39 30 -43 0 -5 20 -33 45 -64 25 -30 45 -61 45 -69 0 -8 4 -14 8 -14 5 0 24 -24 42 -52 19 -29 40 -57 47 -61 7 -4 13 -13 13 -18 0 -6 21 -36 46 -67 26 -31 49 -64 52 -72 5 -13 89 -120 127 -161 8 -9 15 -20 15 -26 0 -5 14 -25 31 -44 16 -19 48 -54 70 -78 21 -24 39 -49 39 -55 0 -6 19 -32 43 -57 83 -89 152 -171 158 -187 4 -10 29 -40 55 -67 106 -110 219 -238 226 -256 4 -11 184 -195 400 -410 476 -474 481 -479 493 -479 6 0 39 -28 75 -63 36 -35 112 -103 170 -152 58 -48 110 -94 115 -100 9 -10 160 -132 385 -310 149 -118 292 -223 540 -396 44 -31 77 -59 54 -46 -8 4 -26 -26 -49 -81 -122 -284 -392 -841 -555 -1142 -955 -1771 -2211 -3310 -3745 -4590 -2098 -1751 -4639 -2918 -7335 -3370 -896 -150 -1660 -211 -2620 -210 l-505 1 -3 -990 -2 -991 4961 0 4961 0 142 124 c418 364 1078 1008 1406 1371 84 94 172 190 195 215 213 231 776 923 960 1180 22 30 43 60 48 65 8 11 46 63 113 155 22 30 58 80 80 110 283 385 817 1237 1059 1685 21 39 84 157 142 263 91 170 368 723 388 777 4 12 9 15 12 8 2 -7 -4 -30 -16 -50 -11 -21 -78 -157 -151 -303 -72 -146 -152 -305 -178 -355 -27 -49 -61 -115 -77 -145 -16 -30 -37 -67 -47 -82 -11 -16 -16 -28 -13 -28 3 0 -2 -12 -12 -28 -11 -15 -24 -38 -31 -52 -7 -14 -23 -43 -37 -65 -13 -22 -31 -56 -40 -75 -9 -19 -19 -37 -23 -40 -4 -3 -18 -27 -32 -55 -14 -27 -28 -52 -31 -55 -4 -3 -17 -25 -30 -49 -13 -24 -29 -51 -34 -60 -30 -47 -85 -143 -85 -146 0 -3 -20 -34 -45 -70 -24 -36 -42 -65 -40 -65 4 0 -35 -63 -53 -85 -4 -5 -23 -37 -42 -70 -18 -33 -37 -62 -40 -65 -4 -3 -14 -19 -23 -36 -9 -17 -23 -36 -31 -43 -9 -7 -13 -17 -10 -22 3 -5 1 -9 -4 -9 -5 0 -15 -13 -22 -29 -6 -16 -19 -37 -29 -48 -10 -10 -30 -40 -46 -66 -34 -60 -115 -180 -124 -187 -4 -3 -22 -30 -40 -60 -19 -30 -37 -57 -40 -60 -4 -3 -24 -32 -46 -65 -21 -33 -42 -62 -47 -63 -4 -2 -8 -10 -8 -17 0 -7 -3 -15 -7 -17 -5 -1 -21 -23 -37 -48 -17 -25 -35 -49 -41 -55 -5 -5 -30 -40 -55 -77 -25 -38 -48 -68 -52 -68 -5 0 -8 -6 -8 -14 0 -8 -3 -16 -8 -18 -4 -1 -25 -28 -47 -58 -22 -30 -45 -59 -52 -63 -8 -5 -11 -12 -8 -18 4 -5 2 -9 -3 -9 -5 0 -26 -25 -48 -57 -21 -31 -45 -63 -54 -71 -8 -9 -15 -18 -15 -21 0 -3 -9 -15 -20 -27 -11 -12 -41 -50 -67 -85 -27 -35 -81 -105 -120 -155 -40 -50 -108 -135 -152 -190 -43 -54 -88 -107 -100 -118 -11 -10 -21 -21 -21 -25 0 -3 -9 -15 -20 -26 -11 -11 -57 -66 -103 -122 -45 -55 -89 -104 -97 -107 -8 -3 -15 -12 -15 -20 0 -8 -6 -19 -14 -23 -8 -4 -67 -69 -131 -143 -64 -74 -135 -153 -158 -176 -23 -22 -91 -94 -152 -160 -142 -154 -626 -638 -779 -779 -66 -61 -140 -131 -165 -156 -25 -25 -102 -95 -171 -154 -69 -59 -133 -117 -144 -129 -10 -11 -21 -21 -25 -22 -3 0 -28 -21 -56 -47 l-50 -47 3028 0 3027 0 0 8000 0 8000 -2640 0 c-1452 0 -2640 -3 -2640 -7z m4175 -4668 l20 -16 -20 10 c-11 5 -29 17 -40 26 l-20 16 20 -10 c11 -5 29 -17 40 -26z m120 -80 l20 -16 -20 10 c-11 5 -29 17 -40 26 l-20 16 20 -10 c11 -5 29 -17 40 -26z m115 -75 c8 -5 11 -10 5 -10 -5 0 -21 10 -35 21 -24 20 -5 13 30 -11z m45 -30 c3 -5 4 -10 1 -10 -3 0 -8 5 -11 10 -3 6 -4 10 -1 10 3 0 8 -4 11 -10z m30 -20 c3 -5 4 -10 1 -10 -3 0 -8 5 -11 10 -3 6 -4 10 -1 10 3 0 8 -4 11 -10z m46 -27 c13 -17 13 -17 -6 -3 -11 8 -22 16 -24 17 -2 2 0 3 6 3 6 0 17 -8 24 -17z m89 -60 c0 -7 -39 17 -46 28 -3 6 5 3 20 -6 14 -10 26 -19 26 -22z m45 -23 c3 -5 4 -10 1 -10 -3 0 -8 5 -11 10 -3 6 -4 10 -1 10 3 0 8 -4 11 -10z m75 -46 c0 -2 -13 2 -30 11 -16 9 -30 18 -30 21 0 2 14 -2 30 -11 17 -9 30 -18 30 -21z m66 -40 c18 -14 18 -14 -6 -3 -31 14 -36 19 -24 19 6 0 19 -7 30 -16z m59 -34 c3 -5 4 -10 1 -10 -3 0 -8 5 -11 10 -3 6 -4 10 -1 10 3 0 8 -4 11 -10z m75 -46 c0 -2 -9 0 -20 6 -11 6 -20 13 -20 16 0 2 9 0 20 -6 11 -6 20 -13 20 -16z m90 -50 c0 -2 -13 2 -30 11 -16 9 -30 18 -30 21 0 2 14 -2 30 -11 17 -9 30 -18 30 -21z m50 -30 c0 -2 -9 0 -20 6 -11 6 -20 13 -20 16 0 2 9 0 20 -6 11 -6 20 -13 20 -16z m85 -44 c3 -5 4 -10 1 -10 -3 0 -8 5 -11 10 -3 6 -4 10 -1 10 3 0 8 -4 11 -10z m31 -59 c-4 -20 -8 -55 -11 -78 -3 -24 -12 -73 -19 -110 -8 -38 -17 -90 -20 -116 -4 -26 -15 -86 -25 -132 -10 -46 -17 -86 -14 -88 2 -3 -5 -40 -16 -83 -11 -44 -22 -99 -25 -124 -3 -25 -12 -65 -20 -90 l-15 -45 6 40 c3 22 11 72 19 110 51 248 125 672 128 732 0 17 5 29 9 26 5 -3 6 -21 3 -42z m-169 -908 c-2 -21 -12 -65 -21 -99 -8 -33 -18 -77 -20 -96 -3 -20 -12 -60 -20 -89 -9 -30 -18 -70 -21 -89 -3 -19 -13 -60 -21 -90 -9 -30 -17 -64 -19 -75 -1 -11 -10 -47 -19 -80 -10 -33 -20 -71 -21 -85 -2 -14 -11 -45 -19 -69 -9 -24 -16 -51 -16 -60 0 -9 -8 -45 -19 -81 -11 -36 -25 -85 -32 -110 -6 -25 -14 -40 -16 -33 -2 7 9 58 25 115 41 141 163 640 203 826 33 151 44 186 36 115z m-272 -1100 c-4 -16 -8 -36 -10 -45 -5 -23 -34 -121 -57 -193 -11 -33 -22 -70 -24 -83 -3 -12 -13 -45 -24 -72 -11 -28 -18 -50 -15 -50 3 0 -6 -29 -20 -65 -13 -36 -24 -66 -23 -68 2 -3 -31 -113 -52 -172 -9 -27 -25 -72 -35 -100 -9 -27 -20 -63 -24 -80 -5 -16 -15 -44 -24 -62 -10 -18 -17 -39 -17 -47 0 -8 -9 -36 -21 -63 -11 -26 -23 -59 -25 -72 -3 -13 -12 -37 -20 -53 -9 -17 -17 -39 -20 -51 -2 -11 -12 -39 -23 -61 -10 -23 -22 -56 -26 -73 -3 -18 -11 -35 -16 -38 -5 -4 -9 -15 -9 -26 0 -11 -11 -42 -25 -69 -14 -28 -23 -50 -20 -50 3 0 -4 -18 -15 -40 -11 -21 -20 -44 -20 -50 0 -5 -8 -29 -19 -53 -10 -23 -28 -67 -41 -97 -12 -30 -33 -80 -45 -110 -13 -30 -33 -80 -45 -110 -11 -30 -30 -72 -41 -92 -11 -21 -18 -38 -15 -38 3 0 -6 -20 -20 -45 -13 -25 -22 -45 -19 -45 4 0 -2 -17 -13 -37 -10 -21 -26 -54 -35 -73 -9 -19 -28 -62 -43 -95 -15 -33 -28 -62 -29 -65 -7 -22 -65 -140 -70 -140 -6 0 -10 -9 145 340 324 727 602 1495 835 2308 18 60 34 89 20 35z"/>
 <path d="M30 15920 c0 -6 4 -18 9 -28 19 -34 41 -90 41 -101 0 -6 4 -19 9 -29 5 -9 13 -28 19 -42 5 -14 17 -41 26 -62 9 -20 16 -43 16 -51 0 -9 4 -18 9 -22 5 -3 17 -29 26 -58 9 -28 23 -64 31 -79 8 -14 14 -33 14 -42 0 -9 9 -33 20 -53 11 -21 20 -45 20 -53 0 -9 4 -20 9 -26 10 -9 71 -163 71 -177 0 -5 11 -32 25 -61 14 -29 28 -67 31 -84 4 -18 10 -32 15 -32 5 0 9 -9 9 -20 0 -11 4 -28 9 -38 21 -39 41 -91 41 -105 0 -9 5 -19 10 -22 6 -3 10 -14 10 -23 0 -9 12 -39 25 -67 14 -27 25 -56 25 -62 0 -7 13 -41 29 -76 16 -35 35 -83 41 -107 6 -24 20 -59 31 -79 10 -20 19 -41 19 -48 0 -8 4 -21 9 -31 19 -34 41 -90 41 -101 0 -6 4 -19 9 -29 5 -9 14 -30 21 -47 7 -16 19 -42 26 -57 8 -14 14 -34 14 -45 0 -10 7 -26 15 -36 7 -10 19 -41 25 -68 7 -27 15 -49 20 -49 4 0 13 -21 20 -47 7 -27 17 -52 21 -57 5 -6 9 -17 9 -25 0 -9 7 -29 16 -46 9 -16 25 -55 35 -85 11 -30 24 -63 30 -72 5 -10 9 -23 9 -31 0 -7 9 -29 20 -50 11 -20 20 -44 20 -52 0 -8 9 -32 20 -52 11 -21 20 -43 20 -50 0 -8 4 -21 9 -31 19 -34 41 -90 41 -101 0 -6 4 -19 9 -29 5 -9 13 -28 19 -42 5 -14 17 -41 26 -62 9 -20 16 -43 16 -51 0 -9 4 -18 9 -22 5 -3 17 -29 26 -58 9 -28 20 -60 26 -69 5 -10 9 -23 9 -30 0 -7 11 -35 25 -63 13 -27 25 -57 25 -65 0 -9 4 -20 9 -25 10 -10 71 -164 71 -178 0 -5 11 -32 25 -61 14 -29 28 -67 31 -84 4 -18 10 -32 15 -32 5 0 9 -9 9 -20 0 -11 4 -28 9 -38 21 -39 41 -91 41 -105 0 -9 5 -19 10 -22 6 -3 10 -14 10 -23 0 -9 12 -39 25 -67 14 -27 25 -56 25 -62 0 -7 13 -41 29 -76 16 -35 35 -83 41 -107 6 -24 20 -59 31 -79 10 -20 19 -41 19 -48 0 -8 4 -21 9 -31 19 -34 41 -90 41 -101 0 -6 4 -19 9 -29 5 -9 14 -30 21 -47 7 -16 19 -42 26 -57 8 -14 14 -33 14 -42 0 -9 4 -25 10 -36 24 -48 28 -57 35 -88 3 -18 10 -32 14 -32 5 0 14 -21 21 -47 7 -27 17 -52 21 -58 5 -5 9 -16 9 -25 0 -8 7 -28 16 -45 9 -16 25 -55 35 -85 11 -30 24 -63 30 -72 5 -10 9 -23 9 -31 0 -7 9 -29 20 -50 11 -20 20 -44 20 -52 0 -8 9 -32 20 -52 11 -21 20 -43 20 -50 0 -8 4 -21 9 -31 17 -31 41 -90 41 -99 0 -5 9 -26 20 -48 11 -22 20 -45 20 -51 0 -6 7 -25 15 -40 8 -16 15 -37 15 -46 0 -9 4 -19 9 -23 5 -3 17 -29 26 -58 9 -28 20 -60 26 -69 5 -10 9 -23 9 -30 0 -7 11 -35 25 -63 13 -27 25 -57 25 -65 0 -9 4 -20 9 -25 9 -10 62 -145 76 -195 4 -14 14 -34 21 -45 8 -11 14 -29 14 -42 0 -12 5 -25 10 -28 6 -3 10 -15 10 -26 0 -10 5 -19 10 -19 6 0 10 -9 10 -20 0 -11 4 -28 9 -38 19 -36 41 -91 41 -104 0 -7 7 -22 15 -32 8 -11 15 -30 15 -42 0 -13 4 -26 10 -29 5 -3 17 -32 26 -63 9 -31 25 -73 35 -92 11 -19 19 -42 19 -52 0 -9 5 -20 10 -23 6 -3 10 -14 10 -23 0 -9 11 -39 25 -67 13 -27 25 -56 25 -63 0 -7 5 -21 10 -32 6 -11 15 -29 20 -40 6 -11 10 -25 10 -31 0 -6 7 -27 16 -47 9 -21 20 -46 24 -57 4 -11 15 -36 24 -57 9 -20 16 -41 16 -47 0 -6 5 -20 10 -31 24 -48 28 -57 35 -88 3 -18 10 -32 14 -32 5 0 14 -21 21 -47 7 -27 17 -52 21 -57 5 -6 9 -17 9 -25 0 -9 7 -29 16 -46 9 -16 25 -55 35 -85 11 -30 24 -63 30 -72 5 -10 9 -23 9 -31 0 -7 9 -29 20 -50 11 -20 20 -46 20 -56 0 -11 4 -22 9 -26 5 -3 15 -22 21 -43 12 -39 18 -53 44 -114 9 -20 16 -40 16 -45 0 -5 9 -26 20 -48 11 -22 20 -45 20 -51 0 -6 7 -25 15 -40 8 -16 15 -37 15 -46 0 -9 4 -19 9 -23 5 -3 17 -29 26 -58 9 -28 20 -60 26 -69 5 -10 9 -23 9 -30 0 -6 8 -30 18 -52 11 -23 58 -142 105 -266 47 -124 116 -301 152 -395 37 -93 92 -237 123 -319 l57 -150 5 575 5 574 3 -587 2 -588 2205 0 2205 0 0 2208 0 2207 -2209 -3 -2208 -2 -26 37 c-15 21 -41 59 -59 84 -52 72 -162 228 -178 253 -8 13 -46 67 -85 121 -69 95 -169 236 -203 285 -9 14 -53 76 -97 139 -99 140 -139 198 -235 335 -41 58 -108 153 -149 209 -40 56 -89 125 -107 152 -18 28 -94 136 -168 240 -169 238 -250 352 -301 425 -69 99 -169 240 -260 370 -174 245 -267 376 -328 464 -88 126 -84 120 -172 245 -44 62 -93 132 -109 155 -76 109 -223 316 -250 353 -17 23 -56 78 -86 123 -30 44 -73 105 -95 134 -22 30 -87 122 -145 205 -58 83 -149 213 -202 289 -53 75 -119 168 -145 206 -26 37 -91 128 -143 202 -52 73 -124 174 -158 223 -64 91 -72 100 -72 81z m7917 -7517 c-4 -3 -10 -3 -14 0 -3 4 0 7 7 7 7 0 10 -3 7 -7z m-32 -13 c-3 -5 -12 -10 -18 -10 -7 0 -6 4 3 10 19 12 23 12 15 0z m-88 -37 c-4 -3 -10 -3 -14 0 -3 4 0 7 7 7 7 0 10 -3 7 -7z m-80 -30 c-4 -3 -10 -3 -14 0 -3 4 0 7 7 7 7 0 10 -3 7 -7z m-210 -80 c-4 -3 -10 -3 -14 0 -3 4 0 7 7 7 7 0 10 -3 7 -7z m-142 -53 c-3 -5 -12 -10 -18 -10 -7 0 -6 4 3 10 19 12 23 12 15 0z m-328 -117 c-4 -3 -10 -3 -14 0 -3 4 0 7 7 7 7 0 10 -3 7 -7z m-120 -40 c-4 -3 -10 -3 -14 0 -3 4 0 7 7 7 7 0 10 -3 7 -7z m-120 -40 c-4 -3 -10 -3 -14 0 -3 4 0 7 7 7 7 0 10 -3 7 -7z m-530 -160 c-4 -3 -10 -3 -14 0 -3 4 0 7 7 7 7 0 10 -3 7 -7z m-110 -30 c-4 -3 -10 -3 -14 0 -3 4 0 7 7 7 7 0 10 -3 7 -7z m-210 -60 c-4 -3 -10 -3 -14 0 -3 4 0 7 7 7 7 0 10 -3 7 -7z m-320 -80 c-4 -3 -10 -3 -14 0 -3 4 0 7 7 7 7 0 10 -3 7 -7z m-170 -40 c-4 -3 -10 -3 -14 0 -3 4 0 7 7 7 7 0 10 -3 7 -7z m-140 -30 c-4 -3 -10 -3 -14 0 -3 4 0 7 7 7 7 0 10 -3 7 -7z m-230 -50 c-4 -3 -10 -3 -14 0 -3 4 0 7 7 7 7 0 10 -3 7 -7z m-120 -20 c-4 -3 -10 -3 -14 0 -3 4 0 7 7 7 7 0 10 -3 7 -7z m-40 -10 c-4 -3 -10 -3 -14 0 -3 4 0 7 7 7 7 0 10 -3 7 -7z m-210 -40 c-4 -3 -10 -3 -14 0 -3 4 0 7 7 7 7 0 10 -3 7 -7z m-50 -10 c-4 -3 -10 -3 -14 0 -3 4 0 7 7 7 7 0 10 -3 7 -7z m-40 -10 c-4 -3 -10 -3 -14 0 -3 4 0 7 7 7 7 0 10 -3 7 -7z m-100 -10 c-4 -3 -10 -3 -14 0 -3 4 0 7 7 7 7 0 10 -3 7 -7z m-50 -10 c-4 -3 -10 -3 -14 0 -3 4 0 7 7 7 7 0 10 -3 7 -7z m-40 -10 c-4 -3 -10 -3 -14 0 -3 4 0 7 7 7 7 0 10 -3 7 -7z m-50 -10 c-4 -3 -10 -3 -14 0 -3 4 0 7 7 7 7 0 10 -3 7 -7z m-110 -10 c-4 -3 -10 -3 -14 0 -3 4 0 7 7 7 7 0 10 -3 7 -7z m-50 -10 c-4 -3 -10 -3 -14 0 -3 4 0 7 7 7 7 0 10 -3 7 -7z m-60 -10 c-4 -3 -10 -3 -14 0 -3 4 0 7 7 7 7 0 10 -3 7 -7z m-170 -20 c-4 -3 -10 -3 -14 0 -3 4 0 7 7 7 7 0 10 -3 7 -7z m-60 -10 c-4 -3 -10 -3 -14 0 -3 4 0 7 7 7 7 0 10 -3 7 -7z m-60 -10 c-4 -3 -10 -3 -14 0 -3 4 0 7 7 7 7 0 10 -3 7 -7z"/>
 </g>
<g id="layer110" fill="#d5bbc5" stroke="none">
 <path d="M10720 15993 c0 -5 9 -19 20 -33 11 -14 20 -31 20 -38 0 -7 10 -29 23 -50 41 -67 47 -77 62 -107 8 -16 24 -43 35 -60 20 -31 31 -51 92 -166 20 -36 52 -89 72 -117 20 -29 36 -57 36 -62 0 -6 29 -55 65 -109 36 -54 65 -102 65 -106 0 -4 13 -24 29 -44 15 -20 36 -52 45 -71 9 -19 27 -48 42 -65 14 -16 32 -43 40 -60 7 -16 25 -43 40 -60 14 -16 32 -43 40 -60 8 -16 27 -46 44 -65 16 -19 30 -39 30 -43 0 -5 20 -33 45 -64 25 -30 45 -61 45 -69 0 -8 4 -14 8 -14 5 0 24 -24 42 -52 19 -29 40 -57 47 -61 7 -4 13 -13 13 -18 0 -6 21 -36 46 -67 26 -31 49 -64 52 -72 5 -13 89 -120 127 -161 8 -9 15 -20 15 -26 0 -5 14 -25 31 -44 16 -19 48 -54 70 -78 21 -24 39 -49 39 -55 0 -6 19 -32 43 -57 83 -89 152 -171 158 -187 4 -10 29 -40 55 -67 106 -110 219 -238 226 -256 4 -11 184 -195 400 -410 476 -474 481 -479 493 -479 6 0 39 -28 75 -63 36 -35 112 -103 170 -152 58 -48 110 -94 115 -100 9 -10 160 -132 385 -310 117 -93 267 -204 410 -305 47 -33 108 -75 135 -95 102 -73 455 -305 463 -305 5 0 17 -9 27 -20 10 -11 21 -20 25 -20 4 0 47 -25 96 -55 49 -30 190 -112 314 -184 195 -112 225 -132 224 -153 -1 -47 -13 -135 -28 -203 -8 -38 -17 -92 -20 -118 -4 -26 -15 -86 -25 -132 -10 -46 -17 -86 -14 -88 2 -3 -5 -40 -16 -83 -11 -44 -22 -99 -25 -122 -3 -24 -12 -67 -20 -95 -8 -29 -17 -68 -19 -87 -3 -19 -12 -62 -21 -96 -8 -33 -18 -77 -20 -96 -3 -20 -12 -60 -20 -89 -9 -30 -18 -70 -21 -89 -3 -19 -13 -60 -21 -90 -9 -30 -17 -64 -19 -75 -1 -11 -10 -47 -19 -80 -10 -33 -20 -71 -21 -85 -2 -14 -11 -45 -19 -69 -9 -24 -16 -51 -16 -60 0 -9 -9 -46 -20 -83 -11 -38 -29 -98 -40 -135 -11 -38 -22 -78 -25 -90 -5 -27 -31 -118 -57 -198 -11 -33 -22 -70 -24 -83 -3 -12 -13 -45 -24 -72 -11 -28 -18 -50 -15 -50 3 0 -7 -30 -21 -67 -14 -38 -24 -69 -24 -71 2 -4 -29 -107 -50 -167 -9 -27 -25 -72 -35 -100 -9 -27 -20 -63 -24 -80 -5 -16 -15 -44 -24 -62 -10 -18 -17 -39 -17 -47 0 -8 -9 -36 -21 -63 -11 -26 -23 -59 -25 -72 -3 -13 -12 -37 -20 -53 -9 -17 -17 -39 -20 -51 -2 -11 -12 -39 -23 -61 -10 -23 -22 -56 -26 -73 -3 -18 -11 -35 -16 -38 -5 -4 -9 -15 -9 -26 0 -11 -11 -42 -25 -69 -14 -28 -23 -50 -20 -50 3 0 -4 -18 -15 -40 -11 -21 -20 -44 -20 -50 0 -5 -8 -29 -19 -53 -10 -23 -28 -67 -41 -97 -12 -30 -33 -80 -45 -110 -13 -30 -33 -80 -45 -110 -11 -30 -30 -72 -41 -92 -11 -21 -18 -38 -15 -38 3 0 -6 -20 -20 -45 -13 -25 -22 -45 -19 -45 4 0 -2 -17 -13 -37 -10 -21 -26 -54 -35 -73 -9 -19 -28 -62 -43 -95 -15 -33 -28 -62 -29 -65 -1 -5 -46 -102 -94 -205 -46 -98 -286 -579 -329 -660 -27 -49 -61 -115 -77 -145 -16 -30 -37 -67 -47 -82 -11 -16 -16 -28 -13 -28 3 0 -2 -12 -12 -28 -11 -15 -24 -38 -31 -52 -7 -14 -23 -43 -37 -65 -13 -22 -31 -56 -40 -75 -9 -19 -19 -37 -23 -40 -4 -3 -18 -27 -32 -55 -14 -27 -28 -52 -31 -55 -4 -3 -17 -25 -30 -49 -13 -24 -29 -51 -34 -60 -30 -47 -85 -143 -85 -146 0 -3 -20 -34 -45 -70 -24 -36 -42 -65 -40 -65 4 0 -35 -63 -53 -85 -4 -5 -23 -37 -42 -70 -18 -33 -37 -62 -40 -65 -4 -3 -14 -19 -23 -36 -9 -17 -23 -36 -31 -43 -9 -7 -13 -17 -10 -22 3 -5 1 -9 -4 -9 -5 0 -15 -13 -22 -29 -6 -16 -19 -37 -29 -48 -10 -10 -30 -40 -46 -66 -34 -60 -115 -180 -124 -187 -4 -3 -22 -30 -40 -60 -19 -30 -37 -57 -40 -60 -4 -3 -24 -32 -46 -65 -21 -33 -42 -62 -47 -63 -4 -2 -8 -10 -8 -17 0 -7 -3 -15 -7 -17 -5 -1 -21 -23 -37 -48 -17 -25 -35 -49 -41 -55 -5 -5 -30 -40 -55 -77 -25 -38 -48 -68 -52 -68 -5 0 -8 -6 -8 -14 0 -8 -3 -16 -8 -18 -4 -1 -25 -28 -47 -58 -22 -30 -45 -59 -52 -63 -8 -5 -11 -12 -8 -18 4 -5 2 -9 -3 -9 -5 0 -26 -25 -48 -57 -21 -31 -45 -63 -54 -71 -8 -9 -15 -18 -15 -21 0 -3 -9 -15 -20 -27 -11 -12 -41 -50 -67 -85 -27 -35 -81 -105 -120 -155 -40 -50 -108 -135 -152 -190 -43 -54 -88 -107 -100 -118 -11 -10 -21 -21 -21 -25 0 -3 -9 -15 -20 -26 -11 -11 -57 -66 -103 -122 -45 -55 -89 -104 -97 -107 -8 -3 -15 -12 -15 -20 0 -8 -6 -19 -14 -23 -8 -4 -67 -69 -131 -143 -64 -74 -135 -153 -158 -176 -23 -22 -91 -94 -152 -160 -142 -154 -626 -638 -779 -779 -66 -61 -140 -131 -165 -156 -25 -25 -102 -95 -171 -154 -69 -59 -133 -117 -144 -129 -10 -11 -21 -21 -25 -22 -3 0 -28 -21 -56 -47 l-50 -47 3028 0 3027 0 0 8000 0 8000 -2640 0 c-1452 0 -2640 -3 -2640 -7z"/>
 <path d="M6013 10593 l-2203 -3 0 -2205 0 -2205 2205 0 2205 0 0 2210 c0 1216 -1 2209 -2 2208 -2 -2 -994 -4 -2205 -5z m1934 -2190 c-4 -3 -10 -3 -14 0 -3 4 0 7 7 7 7 0 10 -3 7 -7z m-32 -13 c-3 -5 -12 -10 -18 -10 -7 0 -6 4 3 10 19 12 23 12 15 0z m-88 -37 c-4 -3 -10 -3 -14 0 -3 4 0 7 7 7 7 0 10 -3 7 -7z m-80 -30 c-4 -3 -10 -3 -14 0 -3 4 0 7 7 7 7 0 10 -3 7 -7z m-210 -80 c-4 -3 -10 -3 -14 0 -3 4 0 7 7 7 7 0 10 -3 7 -7z m-142 -53 c-3 -5 -12 -10 -18 -10 -7 0 -6 4 3 10 19 12 23 12 15 0z m-328 -117 c-4 -3 -10 -3 -14 0 -3 4 0 7 7 7 7 0 10 -3 7 -7z m-120 -40 c-4 -3 -10 -3 -14 0 -3 4 0 7 7 7 7 0 10 -3 7 -7z m-120 -40 c-4 -3 -10 -3 -14 0 -3 4 0 7 7 7 7 0 10 -3 7 -7z m-530 -160 c-4 -3 -10 -3 -14 0 -3 4 0 7 7 7 7 0 10 -3 7 -7z m-110 -30 c-4 -3 -10 -3 -14 0 -3 4 0 7 7 7 7 0 10 -3 7 -7z m-210 -60 c-4 -3 -10 -3 -14 0 -3 4 0 7 7 7 7 0 10 -3 7 -7z m-320 -80 c-4 -3 -10 -3 -14 0 -3 4 0 7 7 7 7 0 10 -3 7 -7z m-170 -40 c-4 -3 -10 -3 -14 0 -3 4 0 7 7 7 7 0 10 -3 7 -7z m-140 -30 c-4 -3 -10 -3 -14 0 -3 4 0 7 7 7 7 0 10 -3 7 -7z m-230 -50 c-4 -3 -10 -3 -14 0 -3 4 0 7 7 7 7 0 10 -3 7 -7z m-120 -20 c-4 -3 -10 -3 -14 0 -3 4 0 7 7 7 7 0 10 -3 7 -7z m-40 -10 c-4 -3 -10 -3 -14 0 -3 4 0 7 7 7 7 0 10 -3 7 -7z m-210 -40 c-4 -3 -10 -3 -14 0 -3 4 0 7 7 7 7 0 10 -3 7 -7z m-50 -10 c-4 -3 -10 -3 -14 0 -3 4 0 7 7 7 7 0 10 -3 7 -7z m-40 -10 c-4 -3 -10 -3 -14 0 -3 4 0 7 7 7 7 0 10 -3 7 -7z m-100 -10 c-4 -3 -10 -3 -14 0 -3 4 0 7 7 7 7 0 10 -3 7 -7z m-50 -10 c-4 -3 -10 -3 -14 0 -3 4 0 7 7 7 7 0 10 -3 7 -7z m-40 -10 c-4 -3 -10 -3 -14 0 -3 4 0 7 7 7 7 0 10 -3 7 -7z m-50 -10 c-4 -3 -10 -3 -14 0 -3 4 0 7 7 7 7 0 10 -3 7 -7z m-110 -10 c-4 -3 -10 -3 -14 0 -3 4 0 7 7 7 7 0 10 -3 7 -7z m-50 -10 c-4 -3 -10 -3 -14 0 -3 4 0 7 7 7 7 0 10 -3 7 -7z m-60 -10 c-4 -3 -10 -3 -14 0 -3 4 0 7 7 7 7 0 10 -3 7 -7z m-170 -20 c-4 -3 -10 -3 -14 0 -3 4 0 7 7 7 7 0 10 -3 7 -7z m-60 -10 c-4 -3 -10 -3 -14 0 -3 4 0 7 7 7 7 0 10 -3 7 -7z m-60 -10 c-4 -3 -10 -3 -14 0 -3 4 0 7 7 7 7 0 10 -3 7 -7z"/>
 </g>
<g id="layer111" fill="#ddcbbb" stroke="none">
 <path d="M10720 15993 c0 -5 9 -19 20 -33 11 -14 20 -31 20 -38 0 -7 10 -29 23 -50 41 -67 47 -77 62 -107 8 -16 24 -43 35 -60 20 -31 31 -51 92 -166 20 -36 52 -89 72 -117 20 -29 36 -57 36 -62 0 -6 29 -55 65 -109 36 -54 65 -102 65 -106 0 -4 13 -24 29 -44 15 -20 36 -52 45 -71 9 -19 27 -48 42 -65 14 -16 32 -43 40 -60 7 -16 25 -43 40 -60 14 -16 32 -43 40 -60 8 -16 27 -46 44 -65 16 -19 30 -39 30 -43 0 -5 20 -33 45 -64 25 -30 45 -61 45 -69 0 -8 4 -14 8 -14 5 0 24 -24 42 -52 19 -29 40 -57 47 -61 7 -4 13 -13 13 -18 0 -6 21 -36 46 -67 26 -31 49 -64 52 -72 5 -13 89 -120 127 -161 8 -9 15 -20 15 -26 0 -5 14 -25 31 -44 16 -19 48 -54 70 -78 21 -24 39 -49 39 -55 0 -6 19 -32 43 -57 83 -89 152 -171 158 -187 4 -10 29 -40 55 -67 106 -110 219 -238 226 -256 4 -11 184 -195 400 -410 476 -474 481 -479 493 -479 6 0 39 -28 75 -63 36 -35 112 -103 170 -152 58 -48 110 -94 115 -100 9 -10 160 -132 385 -310 117 -93 267 -204 410 -305 47 -33 108 -75 135 -95 102 -73 455 -305 463 -305 5 0 17 -9 27 -20 10 -11 21 -20 25 -20 4 0 47 -25 96 -55 145 -89 524 -305 535 -305 13 0 5 -71 -22 -225 -11 -60 -29 -162 -40 -225 -64 -366 -212 -1035 -279 -1261 -11 -36 -20 -72 -20 -80 0 -8 -9 -44 -20 -81 -19 -66 -33 -115 -80 -283 -12 -44 -28 -98 -35 -120 -7 -22 -25 -80 -40 -130 -14 -49 -35 -115 -44 -145 -10 -30 -28 -89 -41 -130 -21 -71 -34 -109 -75 -225 -9 -27 -20 -64 -24 -80 -5 -17 -14 -42 -21 -55 -7 -13 -17 -38 -21 -55 -4 -16 -21 -68 -39 -115 -17 -47 -36 -99 -41 -117 -5 -18 -16 -45 -24 -60 -8 -15 -15 -34 -15 -41 0 -7 -9 -32 -20 -54 -11 -23 -20 -47 -20 -53 0 -6 -16 -49 -36 -95 -20 -47 -39 -97 -44 -111 -4 -15 -14 -42 -22 -60 -22 -51 -51 -121 -103 -249 -25 -63 -52 -128 -60 -145 -7 -16 -23 -52 -35 -80 -22 -51 -51 -115 -75 -170 -8 -16 -23 -52 -35 -80 -19 -44 -64 -140 -129 -280 -11 -22 -78 -159 -150 -305 -125 -251 -153 -306 -281 -545 -82 -154 -89 -167 -115 -210 -13 -22 -31 -56 -40 -75 -9 -19 -19 -37 -23 -40 -4 -3 -18 -27 -32 -55 -14 -27 -28 -52 -31 -55 -4 -3 -16 -23 -28 -45 -12 -22 -33 -58 -46 -80 -14 -22 -35 -58 -47 -80 -12 -22 -27 -47 -33 -56 -5 -9 -27 -45 -48 -80 -21 -35 -51 -84 -67 -109 -16 -25 -44 -70 -62 -100 -17 -30 -36 -59 -40 -65 -21 -26 -58 -87 -58 -95 0 -6 -4 -10 -9 -10 -5 0 -14 -13 -21 -29 -6 -16 -19 -37 -29 -48 -10 -10 -30 -40 -46 -66 -34 -60 -115 -180 -124 -187 -4 -3 -22 -30 -40 -60 -19 -30 -36 -57 -40 -60 -3 -3 -10 -12 -16 -21 -29 -46 -88 -135 -94 -139 -4 -3 -23 -30 -44 -60 -48 -71 -133 -191 -149 -210 -7 -8 -31 -40 -53 -70 -22 -30 -43 -57 -47 -58 -5 -2 -8 -10 -8 -18 0 -8 -4 -14 -8 -14 -4 0 -28 -28 -52 -62 -24 -35 -47 -64 -52 -66 -4 -2 -8 -8 -8 -14 0 -6 -10 -21 -22 -33 -13 -12 -44 -51 -70 -86 -27 -35 -81 -105 -120 -155 -40 -49 -113 -141 -162 -202 -49 -62 -93 -112 -98 -112 -4 0 -8 -7 -8 -15 0 -7 -6 -18 -14 -22 -8 -4 -57 -61 -111 -125 -53 -65 -100 -118 -106 -118 -5 0 -9 -7 -9 -15 0 -7 -6 -18 -14 -22 -8 -4 -67 -69 -131 -143 -64 -74 -131 -149 -148 -167 -18 -17 -90 -93 -162 -170 -170 -181 -591 -603 -778 -779 -82 -76 -163 -153 -180 -170 -18 -17 -88 -80 -157 -139 -69 -59 -134 -118 -145 -131 -12 -13 -23 -24 -26 -24 -3 0 -28 -20 -55 -45 l-49 -45 3028 0 3027 0 0 8000 0 8000 -2640 0 c-1452 0 -2640 -3 -2640 -7z"/>
 <path d="M6013 10593 l-2203 -3 0 -2205 0 -2205 2205 0 2205 0 0 2210 c0 1216 -1 2209 -2 2208 -2 -2 -994 -4 -2205 -5z m2124 -2110 c-4 -3 -10 -3 -14 0 -3 4 0 7 7 7 7 0 10 -3 7 -7z m-27 -8 c0 -2 -9 -9 -20 -15 -12 -6 -20 -7 -20 -1 0 5 8 12 18 14 9 3 18 5 20 6 1 0 2 -1 2 -4z m-110 -49 c0 -2 -7 -7 -16 -10 -8 -3 -12 -2 -9 4 6 10 25 14 25 6z m-45 -16 c-3 -5 -12 -10 -18 -10 -7 0 -6 4 3 10 19 12 23 12 15 0z m-40 -20 c-3 -5 -12 -10 -18 -10 -7 0 -6 4 3 10 19 12 23 12 15 0z m-38 -16 c-3 -3 -12 -4 -19 -1 -8 3 -5 6 6 6 11 1 17 -2 13 -5z m-42 -14 c-3 -5 -12 -10 -18 -10 -7 0 -6 4 3 10 19 12 23 12 15 0z m-35 -14 c0 -2 -7 -7 -16 -10 -8 -3 -12 -2 -9 4 6 10 25 14 25 6z m-45 -16 c-3 -5 -12 -10 -18 -10 -7 0 -6 4 3 10 19 12 23 12 15 0z m-138 -57 c-4 -3 -10 -3 -14 0 -3 4 0 7 7 7 7 0 10 -3 7 -7z m-27 -7 c0 -3 -5 -8 -12 -12 -7 -4 -8 -3 -4 4 7 12 16 16 16 8z m-53 -23 c-4 -3 -10 -3 -14 0 -3 4 0 7 7 7 7 0 10 -3 7 -7z m-97 -33 c-8 -5 -19 -10 -25 -10 -5 0 -3 5 5 10 8 5 20 10 25 10 6 0 3 -5 -5 -10z m-45 -20 c-3 -5 -12 -10 -18 -10 -7 0 -6 4 3 10 19 12 23 12 15 0z m-218 -77 c-4 -3 -10 -3 -14 0 -3 4 0 7 7 7 7 0 10 -3 7 -7z m-32 -13 c-3 -5 -11 -10 -16 -10 -6 0 -7 5 -4 10 3 6 11 10 16 10 6 0 7 -4 4 -10z m-65 -20 c-8 -5 -19 -10 -25 -10 -5 0 -3 5 5 10 8 5 20 10 25 10 6 0 3 -5 -5 -10z m-120 -40 c-8 -5 -19 -10 -25 -10 -5 0 -3 5 5 10 8 5 20 10 25 10 6 0 3 -5 -5 -10z m-63 -27 c-4 -3 -10 -3 -14 0 -3 4 0 7 7 7 7 0 10 -3 7 -7z m-57 -13 c-8 -5 -19 -10 -25 -10 -5 0 -3 5 5 10 8 5 20 10 25 10 6 0 3 -5 -5 -10z m-43 -17 c-4 -3 -10 -3 -14 0 -3 4 0 7 7 7 7 0 10 -3 7 -7z m-100 -30 c-4 -3 -10 -3 -14 0 -3 4 0 7 7 7 7 0 10 -3 7 -7z m-37 -13 c-20 -13 -33 -13 -25 0 3 6 14 10 23 10 15 0 15 -2 2 -10z m-93 -27 c-4 -3 -10 -3 -14 0 -3 4 0 7 7 7 7 0 10 -3 7 -7z m-30 -10 c-4 -3 -10 -3 -14 0 -3 4 0 7 7 7 7 0 10 -3 7 -7z m-50 -10 c-4 -3 -10 -3 -14 0 -3 4 0 7 7 7 7 0 10 -3 7 -7z m-30 -10 c-4 -3 -10 -3 -14 0 -3 4 0 7 7 7 7 0 10 -3 7 -7z m-50 -20 c-4 -3 -10 -3 -14 0 -3 4 0 7 7 7 7 0 10 -3 7 -7z m-110 -30 c-4 -3 -10 -3 -14 0 -3 4 0 7 7 7 7 0 10 -3 7 -7z m-110 -30 c-4 -3 -10 -3 -14 0 -3 4 0 7 7 7 7 0 10 -3 7 -7z m-40 -10 c-4 -3 -10 -3 -14 0 -3 4 0 7 7 7 7 0 10 -3 7 -7z m-47 -13 c0 -5 -5 -10 -11 -10 -5 0 -7 5 -4 10 3 6 8 10 11 10 2 0 4 -4 4 -10z m-33 -7 c-4 -3 -10 -3 -14 0 -3 4 0 7 7 7 7 0 10 -3 7 -7z m-90 -30 c-4 -3 -10 -3 -14 0 -3 4 0 7 7 7 7 0 10 -3 7 -7z m-100 -20 c-4 -3 -10 -3 -14 0 -3 4 0 7 7 7 7 0 10 -3 7 -7z m-30 -10 c-4 -3 -10 -3 -14 0 -3 4 0 7 7 7 7 0 10 -3 7 -7z m-30 -10 c-4 -3 -10 -3 -14 0 -3 4 0 7 7 7 7 0 10 -3 7 -7z m-100 -20 c-4 -3 -10 -3 -14 0 -3 4 0 7 7 7 7 0 10 -3 7 -7z m-30 -10 c-4 -3 -10 -3 -14 0 -3 4 0 7 7 7 7 0 10 -3 7 -7z m-30 -10 c-4 -3 -10 -3 -14 0 -3 4 0 7 7 7 7 0 10 -3 7 -7z m-140 -30 c-4 -3 -10 -3 -14 0 -3 4 0 7 7 7 7 0 10 -3 7 -7z m-30 -9 c-3 -3 -12 -4 -19 -1 -8 3 -5 6 6 6 11 1 17 -2 13 -5z m-70 -11 c-4 -3 -10 -3 -14 0 -3 4 0 7 7 7 7 0 10 -3 7 -7z m-40 -10 c-4 -3 -10 -3 -14 0 -3 4 0 7 7 7 7 0 10 -3 7 -7z m-30 -9 c-3 -3 -12 -4 -19 -1 -8 3 -5 6 6 6 11 1 17 -2 13 -5z m-77 -14 c0 -5 -5 -10 -11 -10 -5 0 -7 5 -4 10 3 6 8 10 11 10 2 0 4 -4 4 -10z m37 4 c-3 -3 -12 -4 -19 -1 -8 3 -5 6 6 6 11 1 17 -2 13 -5z m-80 -11 c-4 -3 -10 -3 -14 0 -3 4 0 7 7 7 7 0 10 -3 7 -7z m-40 -10 c-4 -3 -10 -3 -14 0 -3 4 0 7 7 7 7 0 10 -3 7 -7z m-40 -10 c-4 -3 -10 -3 -14 0 -3 4 0 7 7 7 7 0 10 -3 7 -7z m-67 -13 c0 -5 -5 -10 -11 -10 -5 0 -7 5 -4 10 3 6 8 10 11 10 2 0 4 -4 4 -10z m37 4 c-3 -3 -12 -4 -19 -1 -8 3 -5 6 6 6 11 1 17 -2 13 -5z m-80 -11 c-4 -3 -10 -3 -14 0 -3 4 0 7 7 7 7 0 10 -3 7 -7z m-40 -10 c-4 -3 -10 -3 -14 0 -3 4 0 7 7 7 7 0 10 -3 7 -7z m-40 -9 c-3 -3 -12 -4 -19 -1 -8 3 -5 6 6 6 11 1 17 -2 13 -5z m-50 -11 c-4 -3 -10 -3 -14 0 -3 4 0 7 7 7 7 0 10 -3 7 -7z m-80 -10 c-4 -3 -10 -3 -14 0 -3 4 0 7 7 7 7 0 10 -3 7 -7z m-40 -9 c-3 -3 -12 -4 -19 -1 -8 3 -5 6 6 6 11 1 17 -2 13 -5z m-44 -11 c-7 -2 -19 -2 -25 0 -7 3 -2 5 12 5 14 0 19 -2 13 -5z m-88 -13 c3 -5 -1 -10 -10 -10 -9 0 -13 5 -10 10 3 6 8 10 10 10 2 0 7 -4 10 -10z m42 4 c-3 -3 -12 -4 -19 -1 -8 3 -5 6 6 6 11 1 17 -2 13 -5z m-90 -10 c-3 -3 -12 -4 -19 -1 -8 3 -5 6 6 6 11 1 17 -2 13 -5z m-50 -10 c-3 -3 -12 -4 -19 -1 -8 3 -5 6 6 6 11 1 17 -2 13 -5z m-50 -10 c-3 -3 -12 -4 -19 -1 -8 3 -5 6 6 6 11 1 17 -2 13 -5z m-92 -14 c3 -5 -1 -10 -10 -10 -9 0 -13 5 -10 10 3 6 8 10 10 10 2 0 7 -4 10 -10z m52 4 c-3 -3 -12 -4 -19 -1 -8 3 -5 6 6 6 11 1 17 -2 13 -5z m-110 -11 c-4 -3 -10 -3 -14 0 -3 4 0 7 7 7 7 0 10 -3 7 -7z m-50 -9 c-3 -3 -12 -4 -19 -1 -8 3 -5 6 6 6 11 1 17 -2 13 -5z m-54 -11 c-7 -2 -19 -2 -25 0 -7 3 -2 5 12 5 14 0 19 -2 13 -5z m-113 -13 c0 -5 -5 -10 -11 -10 -5 0 -7 5 -4 10 3 6 8 10 11 10 2 0 4 -4 4 -10z m57 4 c-3 -3 -12 -4 -19 -1 -8 3 -5 6 6 6 11 1 17 -2 13 -5z m-110 -10 c-3 -3 -12 -4 -19 -1 -8 3 -5 6 6 6 11 1 17 -2 13 -5z m-60 -10 c-3 -3 -12 -4 -19 -1 -8 3 -5 6 6 6 11 1 17 -2 13 -5z m-64 -11 c-7 -2 -19 -2 -25 0 -7 3 -2 5 12 5 14 0 19 -2 13 -5z m-123 -13 c0 -5 -5 -10 -11 -10 -5 0 -7 5 -4 10 3 6 8 10 11 10 2 0 4 -4 4 -10z m63 3 c-7 -2 -19 -2 -25 0 -7 3 -2 5 12 5 14 0 19 -2 13 -5z"/>
 </g>
<g id="layer112" fill="#ececec" stroke="none">
 <path d="M6013 10593 l-2203 -3 0 -1624 0 -1623 38 4 c148 15 848 122 932 143 19 5 51 11 70 13 48 6 208 39 503 104 693 152 1261 317 2037 591 73 26 179 67 400 152 78 31 313 127 373 154 l57 25 0 1035 c0 570 -1 1035 -2 1034 -2 -2 -994 -4 -2205 -5z"/>
 </g>

</svg>