<!DOCTYPE svg PUBLIC "-//W3C//DTD SVG 20010904//EN" "http://www.w3.org/TR/2001/REC-SVG-20010904/DTD/svg10.dtd">
<svg version="1.0" xmlns="http://www.w3.org/2000/svg" width="1600px" height="1600px" viewBox="0 0 16000 16000" preserveAspectRatio="xMidYMid meet">
<g id="layer101" fill="#000000" stroke="none">
 <path d="M0 8000 l0 -8000 8000 0 8000 0 0 8000 0 8000 -8000 0 -8000 0 0 -8000z"/>
 </g>
<g id="layer102" fill="#a7bbcc" stroke="none">
 <path d="M0 9148 c0 -3769 4 -6848 8 -6842 4 6 27 15 52 21 44 11 129 31 305 73 50 12 113 27 140 35 28 7 66 16 85 20 19 3 69 14 110 25 41 10 113 28 160 39 154 36 304 72 460 110 25 6 68 16 95 22 28 6 85 19 128 30 42 10 112 27 155 38 42 10 109 26 147 36 39 10 88 21 110 25 22 4 72 15 110 25 39 9 104 25 145 35 41 10 98 24 125 31 28 6 84 20 125 29 74 17 102 24 250 60 41 10 116 28 165 40 50 11 126 29 170 40 44 10 121 28 170 40 50 11 124 30 165 40 41 11 91 22 110 25 19 4 58 13 85 20 28 8 89 23 138 34 115 28 245 59 337 81 158 38 133 47 269 -89 67 -66 160 -153 208 -193 49 -40 93 -78 98 -84 11 -13 260 -196 317 -234 l38 -25 0 -457 0 -458 -1040 0 -1040 0 0 -600 0 -600 1040 0 1041 0 -3 -270 -3 -270 5513 0 5512 0 0 1297 c0 1039 -2 1294 -12 1281 -8 -10 -54 -26 -113 -38 -101 -22 -209 -47 -300 -69 -156 -38 -209 -51 -295 -70 -52 -12 -117 -28 -145 -36 -27 -7 -66 -16 -85 -20 -19 -3 -69 -14 -110 -25 -121 -30 -212 -52 -255 -60 -45 -8 -146 -33 -250 -61 -38 -11 -78 -19 -88 -19 -11 0 -49 -8 -85 -19 -37 -10 -112 -29 -167 -41 -55 -12 -134 -31 -175 -41 -41 -9 -118 -27 -170 -40 -52 -12 -129 -30 -170 -40 -41 -10 -114 -27 -162 -39 -49 -11 -125 -29 -170 -40 -122 -28 -241 -56 -348 -81 -52 -12 -125 -30 -162 -40 -36 -11 -74 -19 -85 -19 -10 0 -49 -8 -88 -19 -38 -10 -89 -23 -112 -29 l-43 -9 0 1326 0 1327 -2567 1279 c-2688 1340 -3249 1620 -7326 3665 l-2502 1255 2492 3 2491 2 49 -21 c26 -11 154 -63 283 -116 129 -52 334 -136 455 -185 121 -49 315 -128 430 -175 116 -47 257 -104 315 -128 133 -54 530 -216 810 -330 220 -89 704 -286 910 -370 199 -81 369 -150 565 -230 105 -42 289 -118 410 -167 121 -49 315 -128 430 -175 271 -110 420 -170 690 -280 121 -50 348 -142 505 -206 157 -64 436 -177 620 -252 184 -76 416 -170 515 -210 99 -40 254 -103 345 -140 393 -161 568 -232 765 -312 282 -114 428 -174 690 -280 121 -50 348 -142 505 -206 157 -64 436 -177 620 -252 184 -75 427 -174 540 -220 178 -72 480 -196 518 -212 26 -11 10 14 -40 62 -29 28 -127 116 -218 195 -91 80 -178 159 -195 175 -16 17 -104 96 -195 175 -91 79 -178 158 -195 175 -16 16 -106 97 -200 179 -93 82 -181 162 -195 177 -14 14 -97 90 -186 167 -88 77 -173 153 -190 169 -16 16 -105 96 -199 178 -93 82 -183 163 -200 180 -16 17 -104 96 -195 175 -91 79 -178 158 -195 175 -16 17 -102 94 -189 171 -88 76 -173 152 -190 169 -17 17 -105 96 -196 176 -91 79 -178 158 -195 175 -16 17 -106 97 -200 179 -93 81 -173 153 -177 159 -4 6 -8 464 -8 1018 l0 1007 -52 5 c-329 31 -436 56 -656 150 -290 124 -561 351 -744 623 -127 188 -222 419 -270 653 -20 99 -23 144 -23 325 0 238 16 345 81 542 224 682 841 1158 1554 1202 l105 6 3 550 c1 303 0 560 -3 573 l-5 22 -6200 0 -6200 0 0 -6852z m9280 -7401 l0 -763 -52 -12 c-29 -6 -73 -17 -98 -23 -25 -6 -79 -19 -120 -29 -41 -10 -106 -26 -145 -35 -38 -10 -88 -21 -110 -25 -40 -8 -114 -25 -255 -60 -41 -10 -113 -27 -160 -38 -47 -11 -115 -28 -152 -36 -37 -9 -72 -16 -78 -16 -7 0 -10 214 -10 680 l0 679 38 10 c20 5 66 17 102 25 303 73 707 228 960 369 36 20 68 36 73 37 4 0 7 -343 7 -763z m-2270 -607 l0 -600 -1015 0 -1015 0 0 600 0 600 1015 0 1015 0 0 -600z"/>
 <path d="M12420 13104 l0 -1754 58 0 c71 0 287 32 367 55 124 34 213 68 323 120 472 226 810 640 943 1158 44 172 62 457 39 622 -6 39 -13 88 -16 110 -12 87 -57 241 -101 350 -185 449 -551 807 -999 979 -153 58 -364 103 -521 110 l-93 5 0 -1755z"/>
 <path d="M15991 6114 c0 -11 3 -14 6 -6 3 7 2 16 -1 19 -3 4 -6 -2 -5 -13z"/>
 </g>
<g id="layer103" fill="#b2cbe1" stroke="none">
 <path d="M0 9148 c0 -3769 4 -6848 8 -6842 4 6 27 15 52 21 44 11 129 31 305 73 50 12 113 27 140 35 28 7 66 16 85 20 19 3 69 14 110 25 41 10 113 28 160 39 154 36 304 72 460 110 25 6 68 16 95 22 28 6 85 19 128 30 42 10 112 27 155 38 42 10 109 26 147 36 39 10 88 21 110 25 22 4 72 15 110 25 39 9 104 25 145 35 41 10 98 24 125 31 28 6 84 20 125 29 74 17 102 24 250 60 41 10 116 28 165 40 50 11 126 29 170 40 44 10 121 28 170 40 50 11 124 30 165 40 41 11 91 22 110 25 19 4 58 13 85 20 28 8 89 23 138 34 115 28 245 59 337 81 158 38 133 47 269 -89 67 -66 160 -153 208 -193 49 -40 93 -78 98 -84 11 -13 260 -196 317 -234 l38 -25 0 -457 0 -458 -1040 0 -1040 0 0 -600 0 -600 1040 0 1041 0 -3 -270 -3 -270 5513 0 5512 0 0 1297 c0 1039 -2 1294 -12 1281 -8 -10 -54 -26 -113 -38 -101 -22 -209 -47 -300 -69 -156 -38 -209 -51 -295 -70 -52 -12 -117 -28 -145 -36 -27 -7 -66 -16 -85 -20 -19 -3 -69 -14 -110 -25 -121 -30 -212 -52 -255 -60 -45 -8 -146 -33 -250 -61 -38 -11 -78 -19 -88 -19 -11 0 -49 -8 -85 -19 -37 -10 -112 -29 -167 -41 -55 -12 -134 -31 -175 -41 -41 -9 -118 -27 -170 -40 -52 -12 -129 -30 -170 -40 -41 -10 -114 -27 -162 -39 -49 -11 -125 -29 -170 -40 -122 -28 -241 -56 -348 -81 -52 -12 -125 -30 -162 -40 -36 -11 -74 -19 -85 -19 -10 0 -49 -8 -88 -19 -38 -10 -89 -23 -112 -29 l-43 -9 0 1308 c0 918 -3 1315 -11 1332 -8 19 -561 298 -2567 1298 -1407 701 -3064 1528 -3685 1839 -620 311 -2255 1130 -3632 1820 -1378 690 -2505 1257 -2505 1260 0 3 1122 4 2494 2 l2495 -2 48 -21 c26 -11 154 -63 283 -116 129 -52 334 -136 455 -185 121 -49 315 -128 430 -175 116 -47 257 -104 315 -128 133 -54 530 -216 810 -330 220 -89 704 -286 910 -370 199 -81 369 -150 565 -230 105 -42 289 -118 410 -167 121 -49 315 -128 430 -175 271 -110 420 -170 690 -280 121 -50 348 -142 505 -206 157 -64 436 -177 620 -252 184 -76 416 -170 515 -210 99 -40 254 -103 345 -140 393 -161 568 -232 765 -312 282 -114 428 -174 690 -280 121 -50 348 -142 505 -206 157 -64 436 -177 620 -252 184 -75 427 -174 540 -220 178 -72 480 -196 518 -212 26 -11 10 14 -40 62 -29 28 -127 116 -218 195 -91 80 -178 159 -195 175 -16 17 -104 96 -195 175 -91 79 -178 158 -195 175 -16 16 -106 97 -200 179 -93 82 -181 162 -195 177 -14 14 -97 90 -186 167 -88 77 -173 153 -190 169 -16 16 -105 96 -199 178 -93 82 -183 163 -200 180 -16 17 -104 96 -195 175 -91 79 -178 158 -195 175 -16 17 -102 94 -189 171 -88 76 -173 152 -190 169 -17 17 -105 96 -196 176 -91 79 -178 158 -195 175 -16 17 -106 97 -200 179 -93 81 -173 153 -177 159 -4 6 -8 464 -8 1018 l0 1007 -52 6 c-29 3 -66 5 -83 5 -58 -1 -120 5 -132 13 -7 4 -23 5 -36 1 -14 -3 -28 -1 -31 5 -4 5 -13 8 -20 5 -8 -3 -17 -1 -20 5 -4 6 -13 8 -20 5 -8 -3 -17 -1 -20 5 -4 6 -13 8 -20 5 -8 -3 -17 -1 -20 5 -4 6 -13 8 -20 5 -8 -3 -17 -1 -21 5 -3 6 -15 11 -27 11 -11 0 -34 6 -51 13 -18 8 -50 20 -72 27 -22 7 -51 21 -64 31 -12 10 -38 21 -57 25 -19 3 -37 10 -40 15 -3 5 -25 18 -50 29 -24 11 -44 25 -44 30 0 6 -8 10 -18 10 -10 0 -25 9 -35 20 -9 11 -22 20 -29 20 -7 0 -24 12 -37 25 -13 14 -29 25 -37 25 -7 0 -36 23 -63 50 -28 28 -54 50 -58 50 -13 0 -113 105 -113 118 0 7 -7 12 -15 12 -8 0 -15 6 -15 13 0 6 -25 38 -55 71 -30 32 -55 65 -55 73 0 8 -11 24 -25 37 -13 12 -36 45 -50 72 -26 50 -37 70 -55 102 -6 9 -12 23 -15 30 -3 6 -7 18 -10 25 -3 6 -9 19 -14 27 -20 33 -51 108 -51 122 0 8 -5 19 -11 25 -5 5 -12 23 -14 39 -2 16 -5 29 -6 29 -1 0 -3 10 -4 22 -1 12 -10 38 -19 58 -10 20 -15 43 -12 52 3 8 3 20 -1 26 -5 7 -9 21 -10 32 -1 11 -5 36 -8 55 -3 19 -7 53 -10 75 -5 53 -5 328 1 385 8 79 9 85 17 98 5 7 6 21 2 31 -3 11 -1 22 5 26 6 4 8 15 5 25 -3 10 -1 21 5 25 6 3 8 10 5 15 -3 4 2 20 10 36 7 15 12 31 9 36 -3 4 -2 14 3 21 4 6 8 17 8 22 1 6 4 17 7 25 4 8 14 38 23 67 9 28 23 57 31 63 7 7 14 21 14 32 0 24 57 138 70 138 5 0 13 12 16 28 9 34 120 198 139 206 8 3 15 12 15 19 0 8 16 27 35 41 19 15 35 33 35 39 0 13 90 107 103 107 4 0 32 24 62 54 30 29 70 61 89 70 18 8 39 22 46 31 7 8 18 15 26 15 7 0 20 7 29 16 9 9 46 32 83 51 37 18 85 43 107 54 22 12 52 28 67 35 14 8 34 14 44 14 9 0 41 11 71 25 29 14 58 23 63 20 5 -3 12 0 15 6 4 5 13 8 21 5 7 -3 16 -1 20 5 3 6 12 8 19 5 7 -2 25 2 41 10 15 8 34 12 42 9 7 -3 19 -2 25 2 7 5 26 9 42 10 17 1 48 5 70 8 22 3 76 6 120 8 l80 2 3 550 c1 303 0 560 -3 573 l-5 22 -6200 0 -6200 0 0 -6852z m9280 -7401 l0 -763 -52 -12 c-29 -6 -73 -17 -98 -23 -25 -6 -79 -19 -120 -29 -41 -10 -106 -26 -145 -35 -38 -10 -88 -21 -110 -25 -40 -8 -114 -25 -255 -60 -41 -10 -113 -27 -160 -38 -47 -11 -115 -28 -152 -36 -37 -9 -72 -16 -78 -16 -7 0 -10 214 -10 680 l0 679 38 10 c20 5 66 17 102 25 303 73 707 228 960 369 36 20 68 36 73 37 4 0 7 -343 7 -763z m-2270 -607 l0 -600 -1015 0 -1015 0 0 600 0 600 1015 0 1015 0 0 -600z"/>
 <path d="M12420 13104 l0 -1755 88 6 c48 3 98 7 112 10 14 2 41 7 60 10 19 4 44 8 55 9 11 1 28 6 38 11 10 4 20 5 24 2 3 -4 22 1 42 9 20 8 52 17 71 20 19 2 53 13 75 23 22 11 90 40 152 66 61 26 117 53 124 61 6 8 17 14 24 14 16 0 137 80 148 97 4 7 14 13 22 13 7 0 34 20 59 45 26 25 49 45 52 45 7 0 164 159 164 166 0 4 18 24 40 46 22 22 40 47 40 54 0 8 7 17 15 20 8 4 15 11 15 17 0 5 11 25 25 43 14 18 25 36 25 39 0 4 12 26 28 49 15 22 42 73 60 111 19 39 41 84 49 100 23 45 72 193 66 199 -3 3 -1 11 4 18 10 12 19 47 28 108 2 14 4 27 6 30 1 3 3 16 4 30 2 14 7 48 11 75 11 65 11 355 0 420 -4 28 -10 64 -11 80 -2 17 -4 30 -5 30 -1 0 -3 11 -5 25 -7 54 -25 123 -35 135 -5 6 -7 14 -4 18 3 3 -1 20 -9 39 -8 18 -18 47 -22 63 -11 49 -135 292 -178 348 -13 18 -27 42 -31 53 -4 12 -22 38 -41 57 -19 20 -35 39 -35 44 0 4 -11 19 -25 33 -13 14 -54 58 -91 98 -37 39 -73 72 -80 72 -8 0 -21 11 -30 25 -9 14 -20 25 -26 25 -10 0 -28 14 -61 46 -29 28 -131 96 -187 124 -25 12 -52 26 -60 31 -8 5 -22 12 -30 15 -8 3 -40 18 -71 35 -31 16 -65 29 -75 29 -11 0 -28 7 -38 15 -10 8 -23 12 -28 9 -5 -3 -14 -1 -21 4 -16 13 -158 53 -167 47 -4 -3 -32 3 -61 11 -30 9 -81 18 -114 20 -33 1 -60 3 -60 4 0 1 -28 3 -62 5 l-63 4 0 -1755z"/>
 <path d="M15991 6114 c0 -11 3 -14 6 -6 3 7 2 16 -1 19 -3 4 -6 -2 -5 -13z"/>
 </g>
<g id="layer104" fill="#f4ebb3" stroke="none">
 <path d="M2950 15395 l0 -605 1015 0 1015 0 2 -712 3 -713 998 -3 997 -2 0 -293 c0 -160 3 -430 7 -599 l6 -308 -1006 0 -1007 0 0 600 0 600 -1015 0 -1015 0 0 -600 0 -600 1015 0 1015 0 0 -786 0 -785 53 -23 c28 -13 160 -67 292 -121 132 -54 339 -138 460 -187 121 -49 315 -128 430 -175 116 -47 257 -104 315 -128 133 -54 530 -216 810 -330 220 -89 704 -286 910 -370 199 -81 369 -150 565 -230 105 -42 289 -118 410 -167 121 -49 315 -128 430 -175 271 -110 420 -170 690 -280 121 -50 348 -142 505 -206 157 -64 436 -177 620 -252 184 -76 416 -170 515 -210 99 -40 254 -103 345 -140 393 -161 568 -232 765 -312 282 -114 428 -174 690 -280 121 -50 348 -142 505 -206 157 -64 436 -177 620 -252 184 -75 427 -174 540 -220 178 -72 480 -196 518 -212 26 -11 10 14 -40 62 -29 28 -127 116 -218 195 -91 80 -178 159 -195 175 -16 17 -104 96 -195 175 -91 79 -178 158 -195 175 -16 16 -106 97 -200 179 -93 82 -181 162 -195 177 -14 14 -97 90 -186 167 -88 77 -173 153 -190 169 -16 16 -105 96 -199 178 -93 82 -183 163 -200 180 -16 17 -104 96 -195 175 -91 79 -178 158 -195 175 -16 17 -102 94 -189 171 -88 76 -173 152 -190 169 -17 17 -105 96 -196 176 -91 79 -178 158 -195 175 -16 17 -106 97 -199 178 -93 81 -178 158 -190 170 -11 13 -82 76 -156 141 -136 119 -156 137 -257 232 -31 29 -59 50 -64 48 -4 -3 -11 0 -15 6 -5 8 -2 10 7 5 16 -9 -27 31 -97 89 -27 22 -57 50 -67 62 -10 12 -26 25 -37 28 -11 4 -20 13 -20 21 0 8 -4 14 -8 14 -5 0 -42 31 -82 69 -41 39 -78 68 -82 65 -5 -3 -7 -2 -6 3 2 5 -37 45 -87 88 -49 44 -91 83 -93 88 -2 4 -10 7 -17 7 -8 0 -17 9 -20 20 -3 11 -9 20 -13 20 -4 0 -25 17 -47 37 -22 21 -98 89 -170 152 -71 63 -144 128 -161 145 -68 66 -145 131 -154 128 -6 -1 -9 2 -8 7 2 4 -41 47 -95 94 -98 86 -117 104 -224 204 -31 29 -60 50 -65 47 -5 -3 -7 -2 -6 3 2 5 -44 51 -102 103 -58 51 -118 105 -134 119 -16 14 -56 52 -89 83 -34 31 -65 54 -69 52 -5 -3 -7 -1 -6 4 2 4 -37 44 -87 87 -49 43 -91 82 -93 87 -2 4 -10 8 -17 8 -8 0 -17 9 -20 20 -3 11 -10 20 -15 20 -5 0 -26 17 -47 38 -21 21 -92 85 -158 142 -66 57 -140 123 -165 147 -25 24 -53 51 -63 60 -16 16 -17 113 -15 1945 l3 1928 -1155 0 -1155 0 3 -605 2 -605 -1000 0 -1000 0 2 605 3 605 -1017 0 -1018 0 0 -605z"/>
 <path d="M12385 15990 c3 -5 8 -10 11 -10 2 0 4 5 4 10 0 6 -5 10 -11 10 -5 0 -7 -4 -4 -10z"/>
 <path d="M14150 13150 c0 -7 3 -10 7 -7 3 4 3 10 0 14 -4 3 -7 0 -7 -7z"/>
 <path d="M14151 13054 c0 -11 3 -14 6 -6 3 7 2 16 -1 19 -3 4 -6 -2 -5 -13z"/>
 <path d="M0 6445 c0 -2282 4 -4145 8 -4139 4 6 27 15 52 21 53 13 185 45 307 74 49 11 111 26 138 34 28 7 66 16 85 20 19 3 69 14 110 25 41 10 113 28 160 39 154 36 304 72 460 110 25 6 68 16 95 22 28 6 85 19 128 30 42 10 112 27 155 38 42 10 109 26 147 36 39 10 88 21 110 25 22 4 72 15 110 25 39 9 104 25 145 35 41 10 98 24 125 31 28 6 84 20 125 29 74 17 102 24 250 60 41 10 116 28 165 40 50 11 127 30 173 40 45 11 121 29 170 40 48 12 121 30 162 40 41 11 91 22 110 25 19 4 58 13 85 20 28 8 89 23 138 34 115 28 245 59 337 81 158 38 133 47 269 -89 67 -66 160 -153 208 -193 49 -40 93 -78 98 -84 37 -42 413 -304 529 -370 137 -78 301 -163 314 -164 7 0 29 -10 50 -23 20 -12 55 -29 77 -36 22 -8 68 -27 103 -42 34 -16 67 -29 73 -29 5 0 23 -7 38 -15 16 -8 39 -16 52 -19 13 -2 44 -12 69 -21 25 -9 52 -18 60 -20 8 -2 41 -13 73 -24 31 -11 57 -18 57 -16 0 2 25 -5 56 -15 30 -11 72 -22 92 -24 20 -3 60 -12 87 -21 28 -8 72 -18 99 -21 26 -2 80 -12 120 -20 39 -8 94 -17 121 -19 28 -2 115 -10 195 -19 188 -20 522 -20 710 0 80 9 168 18 197 20 28 2 83 10 121 19 38 8 93 17 122 20 30 4 61 10 69 14 9 5 41 14 71 20 348 77 775 243 1104 430 22 13 61 34 87 48 26 13 53 31 60 39 6 8 16 14 21 14 17 0 308 205 378 266 14 12 68 57 120 101 185 154 475 464 619 663 91 127 238 350 248 377 3 10 12 25 18 33 67 81 316 636 339 756 2 11 14 43 25 72 12 30 18 58 15 64 -4 6 3 5 16 -2 14 -8 20 -8 16 -1 -4 6 -899 455 -1989 998 -1090 543 -2489 1242 -3110 1553 -620 311 -2253 1129 -3630 1819 -1376 689 -2505 1258 -2509 1265 -4 6 -8 -1856 -8 -4139z"/>
 <path d="M15991 6114 c0 -11 3 -14 6 -6 3 7 2 16 -1 19 -3 4 -6 -2 -5 -13z"/>
 <path d="M11275 4934 c25 -19 165 -87 170 -82 2 2 -40 25 -93 51 -53 26 -88 40 -77 31z"/>
 <path d="M12025 4560 c3 -5 8 -10 11 -10 3 0 2 5 -1 10 -3 6 -8 10 -11 10 -3 0 -2 -4 1 -10z"/>
 <path d="M12105 4520 c3 -5 8 -10 11 -10 3 0 2 5 -1 10 -3 6 -8 10 -11 10 -3 0 -2 -4 1 -10z"/>
 <path d="M12185 4480 c3 -5 8 -10 11 -10 3 0 2 5 -1 10 -3 6 -8 10 -11 10 -3 0 -2 -4 1 -10z"/>
 <path d="M15985 2576 c-6 -8 -55 -24 -110 -36 -101 -22 -207 -47 -300 -69 -156 -38 -209 -51 -295 -70 -52 -12 -117 -28 -145 -36 -27 -7 -66 -16 -85 -20 -19 -3 -69 -14 -110 -25 -121 -30 -212 -52 -255 -60 -45 -8 -146 -33 -250 -61 -38 -11 -78 -19 -88 -19 -11 0 -49 -8 -85 -19 -37 -10 -112 -29 -167 -41 -55 -12 -134 -31 -175 -41 -41 -9 -118 -27 -170 -40 -52 -12 -129 -30 -170 -40 -41 -10 -113 -27 -160 -38 -47 -11 -123 -29 -170 -40 -115 -27 -236 -56 -350 -82 -52 -12 -125 -30 -162 -40 -36 -11 -74 -19 -85 -19 -10 0 -49 -9 -88 -19 -38 -11 -88 -23 -110 -28 l-40 -8 -5 -863 -5 -862 1798 0 1797 0 0 1295 c0 712 -1 1295 -3 1295 -1 0 -7 -6 -12 -14z"/>
 <path d="M9175 960 c-33 -11 -69 -20 -80 -20 -11 0 -51 -8 -90 -19 -104 -28 -205 -53 -250 -61 -41 -8 -120 -26 -255 -60 -41 -10 -118 -29 -170 -41 -52 -12 -124 -29 -160 -38 l-65 -16 -3 -353 -2 -352 590 0 590 0 0 490 0 490 -22 -1 c-13 0 -50 -9 -83 -19z"/>
 </g>
<g id="layer105" fill="#eee9d8" stroke="none">
 <path d="M2957 15993 c-4 -3 -7 -276 -7 -605 l0 -598 1015 0 1015 0 2 -712 3 -713 998 -3 997 -2 0 -293 c0 -160 3 -430 7 -599 l6 -308 -1006 0 -1007 0 0 600 0 600 -1015 0 -1015 0 0 -600 0 -600 1015 0 1015 0 0 -785 c0 -739 1 -786 18 -791 9 -3 38 -17 63 -30 26 -13 54 -24 63 -24 9 0 28 -7 42 -16 13 -9 32 -18 42 -19 22 -2 67 -20 112 -44 46 -25 153 -66 164 -63 5 2 16 -3 25 -11 23 -19 152 -71 172 -70 10 1 23 -5 30 -13 6 -8 17 -14 23 -14 6 0 34 -11 61 -25 28 -13 57 -25 65 -25 8 0 42 -14 75 -30 33 -16 67 -30 75 -30 8 0 24 -7 34 -15 10 -8 22 -12 26 -10 5 3 34 -9 65 -25 31 -17 63 -30 71 -30 8 0 26 -7 40 -16 13 -9 32 -17 42 -18 9 -1 32 -9 49 -19 49 -26 203 -87 221 -87 8 0 23 -6 31 -13 23 -19 152 -71 172 -70 10 1 23 -5 30 -13 6 -8 17 -14 23 -14 6 0 34 -11 61 -25 28 -13 58 -25 67 -25 9 0 29 -7 45 -15 61 -31 149 -68 163 -68 8 0 39 -13 68 -29 30 -15 60 -28 68 -28 8 0 26 -7 40 -16 13 -9 32 -17 42 -18 9 -1 36 -12 59 -24 23 -12 48 -22 55 -22 7 0 40 -14 73 -30 33 -16 68 -30 78 -30 10 0 28 -7 40 -15 34 -22 165 -74 171 -68 3 3 13 0 22 -8 19 -15 143 -69 160 -69 7 0 25 -7 41 -15 58 -30 142 -65 156 -65 8 0 41 -13 73 -30 32 -16 66 -30 74 -30 8 0 24 -7 34 -15 10 -8 23 -12 28 -9 4 3 32 -8 62 -25 29 -17 61 -31 70 -31 9 0 28 -7 42 -16 13 -9 32 -18 42 -19 22 -2 65 -19 122 -49 25 -13 70 -31 100 -41 30 -10 92 -36 138 -57 45 -22 93 -40 105 -41 12 -1 57 -19 99 -40 42 -20 82 -37 90 -37 7 0 40 -14 73 -30 33 -16 67 -30 75 -30 8 0 24 -7 34 -15 10 -8 23 -12 27 -9 5 3 28 -6 52 -20 24 -15 52 -26 62 -26 10 0 33 -10 52 -21 19 -12 42 -23 51 -24 10 -1 51 -17 92 -37 41 -19 100 -43 130 -53 30 -11 93 -36 138 -58 46 -21 93 -39 105 -39 12 -1 29 -7 37 -13 20 -16 138 -65 155 -65 7 0 26 -7 42 -15 61 -31 149 -68 163 -68 8 0 39 -13 68 -29 30 -15 61 -28 71 -28 9 0 25 -7 35 -15 11 -8 28 -15 37 -15 9 0 37 -11 60 -25 24 -14 51 -25 59 -25 8 0 42 -14 75 -30 33 -16 68 -30 78 -30 10 0 28 -7 40 -15 35 -22 165 -74 171 -68 3 4 14 -1 23 -9 10 -8 68 -34 128 -58 61 -24 133 -54 162 -66 28 -13 58 -24 65 -24 7 0 40 -14 73 -30 33 -16 67 -30 75 -30 8 0 24 -7 34 -15 10 -8 23 -12 28 -9 4 3 32 -8 62 -25 29 -17 61 -31 70 -31 9 0 28 -7 42 -16 13 -9 32 -18 42 -18 18 -2 51 -16 122 -51 25 -12 70 -30 100 -40 30 -10 92 -36 138 -57 45 -22 93 -40 105 -41 12 -1 57 -19 99 -40 42 -20 85 -37 95 -37 10 0 27 -7 37 -15 11 -8 27 -15 36 -15 8 0 41 -13 72 -29 31 -16 59 -27 61 -24 3 2 25 -7 50 -21 24 -14 52 -26 61 -26 10 0 37 -11 60 -25 24 -14 45 -23 48 -20 3 3 25 -6 49 -20 24 -13 53 -25 63 -25 11 0 27 -6 35 -14 9 -7 41 -21 71 -31 30 -11 93 -36 138 -58 46 -21 93 -39 105 -39 12 -1 29 -7 37 -13 20 -16 138 -65 155 -65 7 0 26 -7 42 -15 61 -31 149 -68 163 -68 8 0 39 -13 68 -29 30 -15 61 -28 71 -28 9 0 25 -7 35 -15 11 -8 28 -15 37 -15 9 0 37 -11 60 -25 24 -14 51 -25 59 -25 8 0 42 -14 75 -30 33 -16 68 -30 78 -30 10 0 28 -7 40 -15 35 -22 165 -74 171 -68 3 4 14 -1 23 -9 10 -8 68 -34 128 -58 61 -24 133 -54 162 -66 28 -13 58 -24 65 -24 7 0 40 -14 73 -30 33 -16 67 -30 75 -30 8 0 24 -7 34 -15 10 -8 22 -12 26 -10 5 3 34 -9 65 -25 31 -17 63 -30 71 -30 8 0 26 -7 40 -16 13 -9 32 -18 42 -18 18 -2 56 -18 112 -46 47 -25 142 -60 159 -60 8 0 22 -6 30 -14 9 -7 39 -21 66 -31 28 -10 54 -22 60 -27 12 -11 25 -10 25 2 0 6 -6 10 -13 10 -7 0 -17 10 -22 22 -6 13 -19 23 -30 23 -13 0 -20 7 -20 20 0 11 -6 21 -13 21 -6 1 -16 2 -22 3 -5 0 -10 7 -10 14 0 8 -11 24 -25 37 -14 13 -25 20 -25 16 0 -4 -9 -2 -20 4 -11 6 -18 15 -15 20 5 9 -90 95 -98 88 -8 -7 -37 25 -30 35 3 6 1 7 -6 3 -15 -10 -43 13 -34 27 3 6 1 7 -5 3 -8 -4 -16 3 -22 18 -6 18 -14 24 -25 19 -12 -4 -16 -1 -13 13 2 13 -3 19 -17 19 -13 0 -19 6 -19 18 1 10 0 16 -3 13 -8 -8 -44 14 -39 23 7 11 -41 56 -60 56 -7 0 -13 3 -11 6 3 10 -34 49 -42 45 -9 -6 -34 15 -47 39 -6 11 -15 20 -20 20 -18 1 -64 38 -64 51 0 8 -7 14 -15 14 -8 0 -19 9 -25 20 -6 11 -16 19 -23 17 -7 -1 -12 6 -12 15 0 10 -16 27 -35 37 -19 11 -34 24 -33 29 1 5 -7 18 -17 27 -11 10 -20 15 -20 11 0 -3 -11 1 -25 10 -14 9 -23 20 -20 24 2 4 -4 15 -15 25 -11 10 -20 14 -20 9 0 -5 -7 -1 -14 9 -8 10 -17 18 -21 17 -4 -1 -13 9 -19 22 -6 13 -17 23 -24 23 -7 0 -17 7 -22 15 -5 8 -10 11 -10 5 0 -12 -70 62 -70 74 0 5 -8 8 -17 7 -12 -1 -18 6 -18 19 0 11 -5 20 -10 20 -18 1 -56 26 -51 34 3 5 -3 16 -14 26 -11 10 -20 14 -20 9 0 -5 -7 -1 -14 9 -8 10 -17 18 -21 17 -4 -1 -13 9 -19 21 -6 12 -13 20 -16 18 -9 -7 -70 42 -70 55 0 8 -8 20 -17 27 -14 12 -16 12 -9 -1 6 -12 5 -12 -6 1 -7 8 -21 18 -31 22 -9 3 -16 10 -15 14 4 13 -53 68 -70 68 -10 0 -17 8 -17 17 0 21 -8 29 -32 33 -10 1 -17 7 -16 13 3 12 -122 124 -130 116 -2 -3 -15 9 -27 26 -12 16 -25 28 -30 25 -4 -3 -13 2 -20 10 -7 8 -9 15 -4 16 5 1 -2 4 -16 8 -14 4 -24 13 -22 20 1 7 -2 10 -8 6 -5 -3 -13 2 -17 11 -10 26 -46 59 -60 56 -7 -2 -13 5 -13 14 0 20 -84 97 -114 104 -12 3 -21 12 -21 20 -1 8 -6 14 -13 13 -6 -2 -26 15 -43 37 -18 22 -35 37 -40 34 -4 -2 -13 5 -19 16 -6 11 -15 20 -20 20 -16 0 -60 42 -60 57 0 7 -9 13 -21 13 -15 0 -19 5 -15 15 3 10 -1 18 -12 22 -28 11 -72 46 -66 54 4 7 -13 23 -26 24 -14 1 -59 38 -55 45 5 8 -12 24 -25 25 -11 0 -46 31 -55 49 -6 10 -14 17 -17 15 -3 -2 -16 9 -28 24 -13 16 -34 33 -47 38 -13 5 -22 13 -19 18 8 12 -18 32 -35 29 -8 -2 -14 5 -14 14 0 10 -3 17 -5 15 -7 -3 -65 43 -65 51 0 14 -17 32 -24 27 -5 -2 -23 14 -40 35 -18 22 -36 38 -41 35 -5 -3 -18 8 -30 25 -12 17 -25 28 -29 25 -5 -2 -17 5 -27 17 -13 15 -14 19 -4 14 8 -4 6 -1 -4 8 -10 8 -22 13 -27 11 -4 -3 -21 14 -38 37 -18 24 -39 43 -49 43 -10 0 -16 7 -15 18 0 10 -1 16 -4 13 -7 -6 -50 26 -49 36 2 14 -48 58 -65 58 -10 0 -21 5 -25 12 -5 7 -3 8 7 3 8 -5 5 1 -5 13 -11 12 -21 20 -24 17 -7 -7 -57 35 -57 48 -1 7 -6 11 -12 10 -6 -1 -23 13 -38 33 -14 19 -31 32 -36 29 -5 -4 -12 2 -16 11 -10 26 -46 59 -61 56 -8 -2 -12 4 -10 15 2 10 -2 18 -8 18 -5 0 -25 17 -43 37 -18 21 -36 36 -39 35 -4 -1 -25 16 -46 38 -21 22 -33 31 -26 20 7 -11 -4 -2 -23 20 -20 22 -41 40 -46 40 -6 0 -20 14 -33 31 -13 17 -28 29 -34 27 -6 -2 -30 21 -53 52 -23 30 -44 55 -48 55 -3 0 0 -8 7 -17 7 -10 -9 5 -35 32 -26 28 -42 41 -35 30 7 -11 -13 7 -44 40 -32 33 -54 53 -50 45 5 -8 -17 11 -47 43 -31 31 -61 57 -67 57 -7 0 -12 6 -12 14 0 8 -8 13 -17 12 -10 0 -17 4 -16 11 3 11 -35 39 -47 35 -3 -1 -5 5 -5 13 0 8 -6 20 -14 27 -12 11 -13 10 -6 -2 4 -8 -14 8 -40 35 -26 28 -41 41 -34 30 7 -11 -11 5 -40 35 -29 30 -49 48 -45 40 3 -8 -7 1 -24 20 -17 19 -31 31 -32 26 0 -14 -40 25 -40 40 0 7 -10 14 -22 16 -13 2 -23 10 -23 18 0 18 -43 55 -65 55 -8 0 -15 7 -15 16 0 8 -41 51 -90 95 -49 43 -86 72 -81 64 4 -8 -1 -6 -11 5 -11 11 -28 25 -38 31 -11 6 -29 25 -40 42 -11 17 -29 32 -40 34 -12 2 -19 10 -19 21 1 9 -2 17 -7 17 -5 0 -23 16 -40 35 -17 19 -34 33 -38 32 -3 -1 -24 16 -45 38 -22 22 -33 31 -25 19 8 -11 1 -6 -16 10 -16 17 -32 31 -35 31 -3 0 -4 3 -3 7 1 3 -5 12 -14 20 -14 11 -16 11 -9 -2 4 -8 -13 8 -39 35 -25 28 -43 43 -40 35 4 -8 -4 -1 -19 15 -14 17 -25 33 -26 37 0 4 -6 5 -14 2 -7 -3 -21 6 -30 20 -9 15 -24 26 -32 26 -10 0 -14 6 -11 14 3 8 -4 22 -16 33 -21 18 -21 18 -8 -2 8 -11 -8 3 -34 30 -26 28 -41 41 -34 30 8 -11 -19 13 -58 53 -40 39 -78 72 -86 72 -8 0 -21 8 -28 17 -12 14 -12 16 1 9 8 -5 -1 7 -20 25 -19 19 -41 33 -47 31 -7 -2 -13 3 -13 12 0 13 -30 37 -50 40 -3 1 -5 6 -5 11 0 6 -25 33 -55 60 -30 28 -50 43 -45 35 6 -9 0 -4 -12 10 -13 14 -28 25 -35 25 -7 0 -13 5 -13 12 0 7 -6 18 -14 25 -12 11 -13 10 -7 -2 4 -8 -2 -4 -13 10 -11 14 -21 21 -21 16 0 -14 -60 46 -60 60 0 7 -10 14 -22 16 -14 2 -23 10 -22 19 1 10 -9 23 -22 30 -13 7 -24 16 -24 20 0 5 -8 5 -17 2 -12 -5 -15 -2 -10 10 3 9 -1 21 -11 29 -13 11 -15 11 -7 -2 5 -8 -13 8 -39 35 -26 28 -44 43 -40 35 4 -8 -12 5 -35 30 -23 25 -39 38 -36 30 4 -8 -7 1 -23 20 -17 19 -35 35 -41 35 -6 0 -21 15 -34 32 -13 18 -27 30 -30 26 -11 -10 -38 19 -33 34 3 8 2 12 -2 9 -5 -3 -16 6 -26 19 -10 14 -22 23 -26 20 -4 -2 -16 5 -26 18 l-19 22 23 -19 22 -19 0 1894 c0 1042 3 1911 6 1931 l7 38 -1154 -3 -1154 -2 -3 -602 -2 -603 -320 0 c-320 0 -321 0 -310 -20 10 -19 10 -20 -9 -8 -12 7 -21 16 -21 20 0 5 -301 8 -670 8 l-670 0 0 605 0 605 -1008 0 c-555 0 -1012 -3 -1015 -7z m3433 -1253 c0 -5 -4 -10 -10 -10 -5 0 -10 5 -10 10 0 6 5 10 10 10 6 0 10 -4 10 -10z m41 -47 c13 -15 12 -15 -8 -4 -24 12 -29 21 -14 21 5 0 15 -7 22 -17z m79 -68 c11 -13 10 -14 -4 -9 -9 3 -16 10 -16 15 0 13 6 11 20 -6z m132 -116 c20 -20 39 -35 41 -33 2 3 10 -2 17 -11 23 -28 -1 -31 -25 -2 -13 15 -28 27 -33 27 -5 0 -24 19 -42 43 -37 45 -17 35 42 -24z m106 -99 c12 -19 11 -20 -8 -8 -20 13 -27 28 -12 28 4 0 13 -9 20 -20z m42 -30 c0 -5 -4 -10 -10 -10 -5 0 -10 5 -10 10 0 6 5 10 10 10 6 0 10 -4 10 -10z m36 -41 c19 -22 19 -22 -3 -8 -13 8 -23 17 -23 21 0 12 6 9 26 -13z m94 -81 c0 -12 -6 -9 -26 13 -19 22 -19 22 4 8 12 -8 22 -17 22 -21z m60 -48 c19 -17 29 -30 23 -30 -7 0 -15 5 -18 11 -4 5 -18 14 -31 19 -13 5 -24 14 -24 20 0 16 13 11 50 -20z m114 -105 c38 -36 64 -65 59 -65 -6 0 -33 22 -61 49 -29 28 -52 47 -52 44 0 -3 -7 0 -15 7 -16 13 -20 30 -7 30 4 0 38 -29 76 -65z m136 -127 c0 -6 -6 -5 -15 2 -8 7 -15 14 -15 16 0 2 7 1 15 -2 8 -4 15 -11 15 -16z m85 -68 c3 -5 2 -10 -4 -10 -5 0 -13 5 -16 10 -3 6 -2 10 4 10 5 0 13 -4 16 -10z m87 -80 c28 -25 69 -62 89 -82 21 -21 42 -38 48 -38 6 0 11 -4 11 -10 0 -5 -4 -10 -8 -10 -8 0 -88 69 -150 130 -19 19 -40 35 -45 35 -6 0 -12 6 -15 14 -7 21 13 10 70 -39z m279 -257 c13 -15 12 -15 -8 -4 -24 12 -29 21 -14 21 5 0 15 -7 22 -17z m149 -133 c0 -4 9 -10 20 -13 11 -3 20 -13 20 -22 0 -13 -8 -10 -37 15 -42 36 -103 100 -103 107 0 3 23 -14 50 -37 28 -23 50 -45 50 -50z m80 -70 c10 -19 10 -20 -9 -8 -22 13 -28 28 -11 28 5 0 14 -9 20 -20z m40 -30 c0 -5 -4 -10 -10 -10 -5 0 -10 5 -10 10 0 6 5 10 10 10 6 0 10 -4 10 -10z m36 -41 c19 -22 19 -22 -3 -8 -13 8 -23 17 -23 21 0 12 6 9 26 -13z m80 -70 c19 -22 19 -22 -3 -8 -13 8 -23 17 -23 21 0 12 6 9 26 -13z m64 -54 c14 -16 10 -18 -14 -9 -9 3 -16 10 -16 15 0 14 16 11 30 -6z m58 -71 c-4 -3 -12 5 -18 18 -12 22 -12 22 6 6 10 -10 15 -20 12 -24z m82 -64 c0 -15 -5 -12 -26 11 -19 22 -19 22 4 10 12 -6 22 -16 22 -21z m80 -72 c0 -12 -6 -9 -26 13 -19 22 -19 22 4 8 12 -8 22 -17 22 -21z m158 -153 c-3 -3 -13 7 -23 22 l-17 28 23 -22 c12 -12 20 -25 17 -28z m82 -66 c0 -6 -4 -7 -10 -4 -5 3 -10 11 -10 16 0 6 5 7 10 4 6 -3 10 -11 10 -16z m70 -59 c0 -15 -5 -12 -26 11 -19 22 -19 22 4 10 12 -6 22 -16 22 -21z m90 -81 c0 -14 -5 -11 -31 17 l-24 27 28 -18 c15 -9 27 -21 27 -26z m45 -39 c3 -5 4 -10 1 -10 -3 0 -8 5 -11 10 -3 6 -4 10 -1 10 3 0 8 -4 11 -10z m80 -70 c3 -5 4 -10 1 -10 -3 0 -8 5 -11 10 -3 6 -4 10 -1 10 3 0 8 -4 11 -10z m30 -30 c3 -5 1 -10 -4 -10 -6 0 -11 5 -11 10 0 6 2 10 4 10 3 0 8 -4 11 -10z m60 -50 c3 -5 2 -10 -4 -10 -5 0 -13 5 -16 10 -3 6 -2 10 4 10 5 0 13 -4 16 -10z m90 -80 c3 -5 2 -10 -4 -10 -5 0 -13 5 -16 10 -3 6 -2 10 4 10 5 0 13 -4 16 -10z m50 -50 c3 -5 4 -10 1 -10 -3 0 -8 5 -11 10 -3 6 -4 10 -1 10 3 0 8 -4 11 -10z m35 -30 c0 -5 -2 -10 -4 -10 -3 0 -8 5 -11 10 -3 6 -1 10 4 10 6 0 11 -4 11 -10z m41 -37 c13 -16 12 -17 -3 -4 -17 13 -22 21 -14 21 2 0 10 -8 17 -17z m3154 -2833 c3 -5 4 -10 1 -10 -3 0 -8 5 -11 10 -3 6 -4 10 -1 10 3 0 8 -4 11 -10z m700 -630 c3 -5 4 -10 1 -10 -3 0 -8 5 -11 10 -3 6 -4 10 -1 10 3 0 8 -4 11 -10z"/>
 <path d="M14150 13150 c0 -7 3 -10 7 -7 3 4 3 10 0 14 -4 3 -7 0 -7 -7z"/>
 <path d="M14151 13054 c0 -11 3 -14 6 -6 3 7 2 16 -1 19 -3 4 -6 -2 -5 -13z"/>
 <path d="M0 6450 c0 -3815 1 -4130 16 -4130 9 0 33 4 53 9 34 9 102 25 298 72 49 11 111 26 138 34 28 7 66 16 85 20 19 3 69 14 110 25 41 10 116 29 165 40 245 58 305 72 455 109 25 6 68 16 95 22 28 6 85 19 128 30 42 10 112 27 155 38 42 10 109 26 147 36 39 10 88 21 110 25 22 4 72 15 110 25 39 9 104 25 145 35 41 10 98 24 125 31 28 6 84 20 125 29 74 17 102 24 250 60 41 10 116 28 165 40 50 11 127 30 173 40 45 11 121 29 170 40 48 12 121 30 162 40 41 11 91 22 110 25 19 4 58 13 85 20 28 8 89 23 138 34 115 28 245 59 337 81 158 38 133 47 269 -89 67 -66 160 -153 208 -193 49 -40 93 -78 98 -84 38 -43 425 -313 520 -363 32 -18 67 -38 75 -46 9 -8 22 -15 28 -15 13 0 86 -36 122 -61 14 -9 30 -17 35 -18 18 -3 135 -62 140 -72 4 -5 15 -9 25 -9 11 0 58 -18 105 -40 47 -22 92 -40 101 -40 8 0 33 -9 54 -20 22 -11 40 -18 40 -16 0 3 27 -6 59 -19 33 -13 61 -21 64 -19 2 2 31 -7 65 -20 34 -14 62 -23 62 -21 0 2 25 -5 56 -15 31 -11 77 -22 103 -24 25 -3 74 -14 109 -26 34 -11 67 -18 72 -15 5 3 51 -4 102 -16 51 -11 120 -22 153 -24 33 -2 129 -11 214 -20 182 -19 533 -16 726 8 66 8 129 14 140 14 11 0 58 8 104 17 46 10 100 19 120 21 36 3 205 43 351 83 296 82 639 225 914 381 22 13 61 34 87 48 26 13 53 31 60 39 6 8 16 14 21 14 17 0 308 205 378 266 14 12 68 57 120 101 185 154 475 464 619 663 91 127 238 350 248 377 3 10 12 25 18 33 67 81 316 636 339 756 2 11 14 43 25 72 12 30 18 58 15 64 -4 5 4 4 17 -3 22 -11 23 -11 10 4 -7 10 -21 17 -31 17 -9 0 -29 9 -43 20 -14 11 -32 20 -40 20 -8 0 -26 9 -40 20 -14 11 -31 20 -39 20 -8 0 -29 11 -48 25 -19 14 -40 25 -48 25 -8 0 -25 9 -39 20 -14 11 -32 20 -40 20 -8 0 -26 9 -40 20 -14 11 -32 20 -40 20 -8 0 -26 9 -40 20 -14 11 -32 20 -40 20 -8 0 -26 9 -40 20 -14 11 -32 20 -40 20 -8 0 -26 9 -40 20 -14 11 -34 20 -43 20 -10 0 -23 7 -30 14 -6 8 -28 20 -48 27 -20 6 -44 17 -52 24 -8 8 -27 16 -42 20 -15 4 -32 13 -39 21 -6 8 -16 14 -22 14 -8 0 -1792 885 -1857 922 -8 4 -26 13 -40 19 -14 6 -32 15 -40 20 -8 5 -26 14 -40 20 -14 6 -32 15 -40 20 -8 5 -26 14 -40 20 -14 6 -32 15 -40 20 -8 5 -26 14 -40 20 -14 6 -32 15 -40 20 -8 5 -26 14 -40 20 -14 6 -32 15 -40 20 -8 5 -26 14 -40 20 -14 6 -32 15 -40 20 -8 5 -26 14 -40 20 -14 6 -32 15 -40 20 -14 8 -26 14 -85 40 -11 5 -27 13 -35 18 -8 5 -26 14 -40 20 -14 6 -32 15 -40 20 -8 5 -26 14 -40 20 -14 6 -32 15 -40 20 -8 5 -26 14 -40 20 -14 6 -32 15 -40 20 -8 5 -26 14 -40 20 -14 6 -32 15 -40 20 -8 5 -26 14 -40 20 -14 6 -32 15 -40 19 -40 23 -77 42 -100 53 -14 6 -32 15 -40 20 -8 5 -26 14 -40 20 -14 6 -32 15 -40 20 -8 5 -31 16 -50 24 -19 9 -42 20 -50 25 -8 6 -26 15 -40 20 -14 6 -32 15 -40 20 -8 6 -26 15 -39 20 -63 27 -1908 954 -1921 965 -8 7 -1141 576 -2517 1264 l-2503 1251 0 -4130z"/>
 <path d="M11290 4926 c0 -3 9 -10 20 -16 11 -6 20 -8 20 -6 0 3 -9 10 -20 16 -11 6 -20 8 -20 6z"/>
 <path d="M11370 4886 c0 -3 9 -10 20 -16 11 -6 20 -8 20 -6 0 3 -9 10 -20 16 -11 6 -20 8 -20 6z"/>
 <path d="M12025 4560 c3 -5 8 -10 11 -10 3 0 2 5 -1 10 -3 6 -8 10 -11 10 -3 0 -2 -4 1 -10z"/>
 <path d="M12105 4520 c3 -5 8 -10 11 -10 3 0 2 5 -1 10 -3 6 -8 10 -11 10 -3 0 -2 -4 1 -10z"/>
 <path d="M12185 4480 c3 -5 8 -10 11 -10 3 0 2 5 -1 10 -3 6 -8 10 -11 10 -3 0 -2 -4 1 -10z"/>
 <path d="M15930 2554 c-30 -7 -98 -23 -150 -35 -52 -12 -125 -30 -162 -40 -36 -11 -74 -19 -85 -19 -10 0 -49 -9 -88 -19 -38 -11 -113 -29 -165 -41 -52 -11 -117 -27 -145 -35 -27 -7 -66 -16 -85 -20 -19 -3 -69 -14 -110 -25 -121 -30 -212 -52 -255 -60 -45 -8 -146 -33 -250 -61 -38 -11 -78 -19 -88 -19 -11 0 -49 -8 -85 -19 -37 -10 -112 -29 -167 -41 -55 -12 -134 -31 -175 -41 -41 -9 -118 -27 -170 -40 -52 -12 -129 -30 -170 -40 -41 -10 -115 -28 -165 -39 -49 -12 -126 -30 -170 -40 -121 -29 -250 -59 -345 -81 -88 -21 -185 -44 -305 -74 -38 -9 -91 -21 -117 -26 -27 -4 -52 -11 -58 -14 -7 -4 -10 -302 -10 -866 l0 -859 1795 0 1795 0 0 1285 c0 707 -3 1285 -7 1284 -5 0 -33 -7 -63 -15z"/>
 <path d="M9175 960 c-33 -11 -69 -20 -80 -20 -11 0 -51 -8 -90 -19 -104 -28 -205 -53 -250 -61 -41 -8 -120 -26 -255 -60 -41 -10 -118 -29 -170 -41 -52 -12 -124 -29 -160 -38 l-65 -16 0 -350 0 -350 588 -3 587 -2 0 490 0 490 -22 -1 c-13 0 -50 -9 -83 -19z"/>
 </g>
<g id="layer106" fill="#ffffff" stroke="none">
 <path d="M2957 15993 c-4 -3 -7 -276 -7 -605 l0 -598 1015 0 1015 0 2 -712 3 -713 998 -3 997 -2 0 -293 c0 -160 3 -430 7 -599 l6 -308 -1006 0 -1007 0 0 600 0 600 -1015 0 -1015 0 0 -600 0 -600 1015 0 1015 0 0 -782 1 -783 38 -17 c20 -10 42 -18 47 -18 5 -1 27 -9 49 -20 22 -11 45 -19 51 -20 6 0 17 -7 24 -15 7 -8 16 -12 21 -10 4 3 16 2 26 -3 100 -49 196 -90 230 -97 17 -3 37 -13 44 -21 6 -8 22 -14 35 -14 12 0 25 -4 29 -10 3 -5 32 -17 65 -26 33 -9 65 -23 71 -30 6 -8 22 -14 34 -14 12 0 28 -7 35 -15 7 -8 22 -15 35 -15 12 0 43 -11 69 -25 26 -14 55 -25 64 -25 10 0 26 -6 37 -14 11 -7 44 -21 72 -30 29 -10 55 -22 58 -27 4 -5 14 -9 23 -9 9 -1 35 -9 57 -20 22 -11 45 -19 51 -20 6 0 17 -6 24 -14 6 -8 17 -13 25 -10 7 3 16 1 20 -5 3 -6 14 -11 23 -11 9 0 53 -18 97 -40 44 -22 90 -40 101 -40 12 0 33 -9 47 -20 14 -11 34 -20 45 -20 12 0 23 -4 27 -10 3 -5 32 -17 65 -26 33 -9 65 -23 71 -30 6 -8 22 -14 34 -14 12 0 28 -7 35 -15 7 -8 22 -15 35 -15 12 0 43 -11 69 -25 26 -14 54 -25 63 -25 9 0 24 -6 32 -14 9 -7 42 -21 73 -30 31 -9 60 -21 63 -26 3 -6 15 -10 26 -10 10 0 36 -9 56 -20 21 -11 43 -20 49 -20 6 0 17 -6 24 -14 6 -8 17 -13 25 -10 7 3 16 1 20 -5 3 -6 14 -11 23 -11 9 -1 35 -9 57 -20 22 -11 45 -19 51 -20 6 0 17 -7 24 -15 7 -8 28 -17 49 -21 20 -4 52 -15 71 -24 98 -50 118 -58 151 -64 21 -4 42 -13 49 -21 7 -8 22 -15 34 -15 11 0 30 -7 40 -15 11 -8 27 -15 36 -15 10 0 38 -11 64 -25 26 -14 55 -25 65 -25 10 0 24 -7 31 -15 7 -8 22 -15 35 -15 12 0 44 -11 71 -25 27 -14 55 -25 62 -25 8 0 26 -7 40 -15 15 -8 59 -26 97 -41 39 -15 89 -35 112 -45 23 -11 46 -19 51 -19 5 0 15 -7 22 -15 7 -8 16 -12 21 -10 4 3 16 2 26 -3 23 -11 94 -45 154 -71 25 -12 53 -21 63 -21 10 0 37 -10 60 -21 22 -12 49 -26 60 -31 10 -6 40 -16 66 -24 27 -8 61 -21 77 -29 15 -8 33 -15 39 -15 6 0 17 -7 24 -15 7 -8 22 -15 35 -15 12 0 43 -11 69 -25 26 -14 55 -25 64 -25 10 0 26 -6 37 -14 11 -7 44 -21 72 -30 29 -10 55 -22 58 -27 4 -5 14 -9 24 -9 22 0 128 -47 136 -60 3 -5 12 -7 19 -4 8 3 17 1 21 -5 3 -6 14 -11 23 -11 9 0 53 -18 97 -40 44 -22 88 -40 98 -40 10 0 37 -10 60 -22 71 -36 90 -44 139 -58 26 -7 53 -19 59 -26 6 -8 22 -14 34 -14 12 0 28 -7 35 -15 7 -8 16 -12 21 -9 5 3 37 -8 71 -25 34 -17 68 -31 76 -31 9 0 23 -6 31 -14 9 -7 42 -21 73 -30 31 -9 60 -21 63 -26 3 -6 15 -10 27 -10 11 0 32 -7 46 -14 15 -8 45 -22 67 -31 22 -9 48 -21 57 -26 10 -5 23 -9 30 -9 7 -1 31 -9 53 -20 22 -11 45 -19 51 -20 6 0 17 -7 24 -15 7 -8 28 -17 49 -21 20 -4 52 -15 71 -24 98 -50 118 -58 151 -64 21 -4 42 -13 49 -21 7 -8 22 -15 34 -15 11 0 30 -7 40 -15 11 -8 27 -15 35 -15 9 0 37 -11 63 -25 26 -14 56 -25 66 -25 11 0 25 -7 32 -15 7 -8 22 -15 35 -15 12 0 43 -11 69 -25 26 -14 54 -25 62 -25 9 0 28 -7 42 -15 15 -8 59 -26 97 -41 39 -15 89 -35 112 -45 23 -11 46 -19 51 -19 5 0 15 -7 22 -15 7 -8 16 -12 21 -10 4 3 16 2 26 -3 23 -11 94 -45 154 -71 25 -12 53 -21 63 -21 10 0 37 -10 60 -21 22 -12 49 -26 60 -31 10 -6 40 -16 66 -24 27 -8 61 -21 77 -29 15 -8 33 -15 39 -15 6 0 17 -7 24 -15 7 -8 22 -15 35 -15 12 0 43 -11 69 -25 26 -14 55 -25 64 -25 10 0 26 -6 37 -14 11 -7 44 -21 72 -30 29 -10 55 -22 58 -27 4 -5 14 -9 24 -9 22 0 128 -47 136 -60 3 -5 12 -7 19 -4 8 3 17 1 21 -5 3 -6 14 -11 23 -11 9 0 53 -18 97 -40 44 -22 89 -40 100 -40 11 0 34 -9 50 -20 17 -11 36 -20 43 -20 7 0 32 -9 55 -19 24 -11 55 -23 69 -26 15 -4 32 -13 39 -21 6 -8 22 -14 34 -14 12 0 28 -7 35 -15 7 -8 16 -12 21 -9 5 3 37 -8 71 -25 34 -17 69 -31 78 -31 10 0 23 -7 30 -15 7 -8 22 -15 34 -15 11 0 44 -12 71 -25 28 -14 57 -25 65 -25 9 0 24 -6 35 -14 11 -7 44 -21 72 -30 29 -10 55 -22 58 -27 4 -5 14 -9 23 -9 9 -1 35 -9 57 -20 22 -11 45 -19 51 -20 6 0 17 -7 24 -15 7 -8 28 -17 49 -21 20 -4 52 -15 71 -24 98 -50 118 -58 151 -64 21 -4 42 -13 49 -21 7 -8 22 -15 34 -15 11 0 30 -7 40 -15 11 -8 27 -15 35 -15 9 0 37 -11 63 -25 26 -14 56 -25 66 -25 11 0 25 -7 32 -15 7 -8 22 -15 35 -15 12 0 43 -11 69 -25 26 -14 55 -25 64 -25 10 0 26 -6 37 -14 11 -7 44 -21 72 -30 29 -10 55 -22 58 -27 4 -5 14 -9 23 -9 9 -1 35 -9 57 -20 22 -11 45 -19 51 -20 6 0 17 -7 24 -15 7 -8 16 -12 21 -10 4 3 16 2 26 -3 23 -11 94 -45 154 -71 25 -12 55 -21 66 -21 11 0 32 -9 46 -20 14 -11 34 -20 44 -20 10 0 24 -5 29 -10 6 -6 21 -13 34 -15 21 -4 19 0 -14 26 -20 18 -35 37 -32 45 3 8 0 11 -9 7 -9 -3 -18 4 -25 21 -6 18 -14 24 -25 19 -12 -4 -15 -1 -13 10 2 9 1 15 -2 15 -12 -3 -50 24 -45 31 6 10 -60 71 -76 71 -18 0 -98 73 -92 84 3 6 3 8 -2 4 -12 -11 -107 72 -101 88 3 8 2 13 -2 13 -26 -4 -44 3 -39 15 7 18 -12 36 -30 29 -10 -4 -13 0 -11 13 2 13 -3 19 -17 19 -11 0 -19 5 -18 11 2 12 -25 42 -39 44 -22 2 -38 14 -38 26 0 8 -5 14 -11 14 -13 0 -93 66 -173 143 -28 26 -54 47 -59 47 -5 0 -7 6 -4 14 6 15 -16 40 -25 30 -8 -7 -48 27 -43 36 3 4 -4 15 -15 25 -11 10 -20 15 -20 11 0 -3 -11 1 -25 10 -14 9 -25 23 -25 30 0 8 -6 14 -14 14 -8 0 -39 24 -70 53 -31 29 -56 51 -56 48 0 -3 -20 15 -45 39 -24 24 -42 47 -39 52 3 4 -2 5 -11 2 -12 -5 -16 -2 -13 9 2 9 1 15 -2 14 -10 -3 -53 32 -64 54 -6 12 -13 20 -16 18 -9 -7 -70 42 -70 57 0 8 -5 14 -11 14 -19 0 -70 41 -63 51 3 5 2 8 -3 7 -15 -5 -104 75 -99 88 3 8 0 11 -8 8 -14 -5 -30 12 -31 31 0 6 -9 9 -19 7 -13 -3 -17 1 -13 12 7 16 -8 30 -33 31 -8 0 -14 5 -13 11 2 12 -38 54 -48 51 -15 -4 -89 65 -83 76 4 7 4 9 -1 5 -11 -11 -47 11 -39 24 4 6 3 8 -4 4 -6 -3 -19 5 -30 19 -11 14 -24 25 -29 25 -15 0 -44 36 -41 51 2 7 -6 13 -17 14 -11 0 -20 5 -20 10 0 20 -16 34 -31 28 -11 -4 -15 0 -12 12 2 13 -5 21 -22 25 -14 3 -25 12 -25 20 -1 8 -6 14 -12 13 -7 -2 -23 11 -37 27 -13 17 -28 30 -33 30 -5 0 -37 27 -73 60 -36 33 -68 60 -72 60 -4 0 -20 16 -35 35 -15 19 -34 35 -42 35 -7 0 -11 6 -8 15 5 12 -7 29 -23 30 -14 1 -59 38 -55 45 5 8 -12 24 -25 25 -15 2 -50 32 -50 42 0 7 -5 13 -11 13 -19 0 -119 90 -119 107 0 9 -6 13 -14 10 -18 -7 -40 18 -30 34 5 8 3 9 -5 4 -8 -4 -21 1 -32 14 -11 12 -24 21 -30 21 -5 0 -9 8 -7 17 2 10 -1 18 -7 18 -18 1 -65 37 -60 45 5 9 -13 25 -28 25 -15 0 -177 147 -177 161 0 8 -6 14 -14 12 -15 -3 -92 71 -88 84 1 4 -6 4 -15 1 -12 -5 -15 -2 -11 9 8 19 -10 38 -34 38 -11 0 -23 11 -28 26 -6 14 -14 23 -18 20 -10 -6 -138 104 -134 116 1 4 -3 7 -10 6 -6 -2 -21 11 -33 29 -12 18 -25 29 -28 26 -10 -10 -38 19 -33 33 3 8 2 13 -2 11 -16 -4 -82 48 -77 61 3 7 1 11 -4 8 -8 -6 -159 122 -233 196 -21 21 -41 38 -45 38 -11 0 -87 83 -88 95 0 6 -5 10 -11 10 -14 0 -194 155 -194 167 0 4 -6 8 -14 8 -8 0 -25 13 -38 28 -12 15 -27 29 -33 31 -20 6 -36 25 -31 37 3 8 0 11 -9 8 -7 -3 -18 4 -25 15 -6 12 -18 21 -26 21 -10 0 -14 6 -11 14 5 14 -19 43 -32 39 -13 -3 -70 51 -64 60 3 6 1 7 -4 4 -6 -4 -35 16 -64 43 -29 28 -56 50 -60 50 -4 0 -21 16 -38 35 -17 20 -31 33 -31 29 0 -3 -7 -1 -15 6 -8 7 -14 20 -13 29 2 8 -1 16 -7 16 -23 2 -74 41 -72 55 1 8 -4 15 -11 15 -8 0 -19 8 -26 17 -7 10 -15 16 -17 13 -3 -2 -37 26 -77 63 -40 38 -74 66 -76 65 -5 -5 -66 66 -66 77 0 5 -6 7 -13 4 -18 -7 -41 21 -31 38 4 7 4 10 -1 6 -10 -9 -50 18 -50 35 0 6 -9 11 -19 9 -14 -3 -17 1 -12 13 3 9 2 14 -3 11 -9 -6 -181 142 -181 156 0 4 -7 8 -15 8 -8 0 -24 14 -37 30 -12 17 -27 30 -34 30 -7 0 -26 16 -41 35 -15 19 -34 35 -42 35 -7 0 -11 6 -8 14 6 14 -10 34 -26 35 -13 0 -254 210 -261 227 -3 8 -10 13 -15 10 -13 -8 -34 21 -25 35 5 8 3 9 -5 4 -8 -4 -18 1 -27 14 -8 12 -22 21 -31 21 -9 0 -13 6 -10 14 6 15 -10 34 -28 35 -19 0 -75 52 -69 63 4 7 2 8 -5 4 -6 -4 -14 0 -17 8 -3 9 -10 14 -14 11 -4 -3 -24 13 -44 35 -20 22 -40 40 -45 40 -5 0 -22 15 -37 33 -15 17 -30 31 -33 30 -12 -3 -31 20 -29 36 2 8 -1 16 -7 16 -22 1 -75 40 -72 55 1 8 -3 14 -9 13 -14 -3 -184 144 -184 158 0 6 -4 8 -9 5 -5 -3 -23 10 -40 29 -17 19 -34 35 -39 35 -17 0 -44 39 -36 51 4 7 3 10 -4 5 -6 -3 -15 1 -20 10 -5 9 -13 16 -18 16 -5 0 -8 4 -6 10 1 5 -2 7 -7 4 -5 -3 -20 7 -34 23 -14 17 -27 28 -30 25 -2 -3 -18 11 -35 31 -17 19 -36 35 -41 35 -5 0 -23 16 -40 35 -17 19 -35 35 -40 35 -5 0 -21 15 -36 33 -15 17 -36 35 -46 39 -11 4 -19 12 -19 18 0 6 5 8 12 4 7 -4 8 -3 4 4 -4 6 -13 9 -21 6 -9 -4 -19 4 -26 19 -7 15 -17 23 -25 20 -13 -5 -19 8 -15 30 1 5 -3 6 -8 2 -6 -3 -16 3 -23 15 -7 11 -18 20 -24 20 -16 0 -45 35 -37 45 5 4 2 5 -5 1 -7 -4 -15 -1 -18 8 -3 9 -12 16 -19 16 -7 0 -28 17 -46 38 -18 20 -36 36 -40 35 -10 -3 -59 55 -59 69 0 6 -6 8 -14 5 -7 -3 -19 0 -25 6 -14 14 -14 30 1 21 7 -4 8 -3 4 5 -4 6 -11 9 -16 6 -5 -3 -15 3 -22 12 -7 10 -20 19 -28 21 -17 4 -31 23 -24 33 2 4 -1 11 -7 15 -8 5 -10 2 -5 -7 4 -8 -2 -3 -13 11 -11 14 -21 21 -21 16 0 -5 -9 -1 -20 9 -11 10 -17 22 -13 28 3 6 1 7 -5 3 -6 -3 -16 3 -22 14 -6 11 -15 18 -19 15 -5 -3 -23 10 -39 29 -17 19 -32 32 -35 30 -2 -3 -20 13 -39 36 -19 22 -39 40 -44 40 -5 0 -21 12 -35 28 -34 36 -79 77 -234 211 -71 63 -142 126 -156 142 -14 16 -29 29 -32 29 -4 0 -24 17 -45 39 -20 21 -93 87 -162 146 -69 59 -139 123 -156 141 -17 19 -36 34 -42 34 -7 0 -12 4 -12 9 0 5 -64 64 -142 132 -79 68 -165 145 -193 171 -82 78 -84 81 -225 203 -74 65 -146 130 -161 144 -14 14 -61 58 -104 96 -43 39 -87 78 -97 88 -17 16 -63 17 -683 17 l-665 0 0 605 0 605 -1008 0 c-555 0 -1012 -3 -1015 -7z m7008 -4473 c3 -5 4 -10 1 -10 -3 0 -8 5 -11 10 -3 6 -4 10 -1 10 3 0 8 -4 11 -10z m400 -360 c3 -5 4 -10 1 -10 -3 0 -8 5 -11 10 -3 6 -4 10 -1 10 3 0 8 -4 11 -10z m1160 -1040 c3 -5 4 -10 1 -10 -3 0 -8 5 -11 10 -3 6 -4 10 -1 10 3 0 8 -4 11 -10z"/>
 <path d="M9282 15975 c0 -16 2 -22 5 -12 2 9 2 23 0 30 -3 6 -5 -1 -5 -18z"/>
 <path d="M14150 13150 c0 -7 3 -10 7 -7 3 4 3 10 0 14 -4 3 -7 0 -7 -7z"/>
 <path d="M14151 13054 c0 -11 3 -14 6 -6 3 7 2 16 -1 19 -3 4 -6 -2 -5 -13z"/>
 <path d="M3898 8568 c-44 -55 -158 -225 -158 -236 0 -5 -9 -17 -20 -27 -11 -10 -20 -21 -20 -25 0 -4 -25 -52 -56 -106 -80 -141 -144 -263 -144 -275 0 -6 -16 -38 -36 -72 -20 -34 -40 -73 -45 -87 -4 -14 -22 -59 -39 -100 -38 -90 -69 -174 -80 -215 -4 -16 -15 -50 -23 -75 -61 -178 -113 -406 -159 -700 -21 -132 -23 -179 -23 -540 0 -363 2 -407 23 -540 52 -328 87 -476 180 -760 74 -228 200 -519 246 -570 19 -21 89 -140 153 -261 7 -15 20 -32 28 -39 8 -7 15 -16 15 -21 0 -9 48 -88 60 -99 3 -3 14 -18 24 -35 76 -121 319 -419 396 -486 28 -24 50 -49 50 -56 0 -7 7 -13 16 -13 9 0 18 -9 21 -20 3 -11 12 -20 20 -20 8 0 17 -9 20 -20 3 -11 10 -20 17 -20 6 0 35 -27 64 -60 30 -33 57 -58 62 -57 4 1 23 -12 41 -30 83 -78 101 -93 109 -93 5 0 13 -6 17 -14 9 -17 138 -116 151 -116 4 0 26 -16 48 -35 21 -19 44 -35 50 -35 6 0 21 -11 34 -25 12 -13 25 -23 29 -22 3 1 31 -14 61 -34 140 -91 394 -229 420 -229 5 0 10 -4 10 -10 0 -5 4 -10 9 -10 6 0 49 -18 96 -40 47 -22 89 -40 93 -40 4 0 41 -14 82 -31 151 -62 624 -202 680 -202 8 0 53 -8 100 -18 47 -10 110 -20 140 -23 30 -3 114 -13 185 -22 186 -25 598 -25 795 0 80 10 163 19 185 21 47 4 297 51 341 65 17 6 41 10 53 10 12 0 57 12 99 26 42 15 89 28 103 30 14 2 39 9 55 15 16 7 37 13 47 14 10 2 28 7 40 13 33 15 60 25 77 28 21 3 148 52 190 74 36 18 77 36 140 63 19 7 53 23 75 35 48 25 115 58 135 66 8 4 42 21 75 39 33 19 83 46 112 61 28 15 57 34 64 42 6 8 16 14 21 14 17 0 308 205 378 266 14 12 68 57 120 101 185 154 475 464 619 663 91 127 238 350 248 377 3 10 12 25 18 33 67 81 316 636 339 756 2 11 13 43 25 71 11 29 18 58 16 65 -3 7 -297 159 -653 337 -356 178 -655 327 -664 332 -10 5 -27 14 -38 19 -11 6 -29 15 -40 20 -36 18 -65 33 -80 42 -8 4 -26 13 -40 19 -14 6 -32 15 -40 20 -8 5 -26 14 -40 20 -14 6 -32 15 -40 20 -8 5 -26 14 -40 20 -14 6 -32 15 -40 20 -8 5 -22 12 -30 15 -24 9 -54 23 -70 33 -8 5 -26 14 -40 20 -14 6 -32 15 -40 20 -8 5 -26 14 -40 20 -14 6 -32 15 -40 20 -8 5 -26 14 -40 20 -14 6 -32 15 -40 20 -8 5 -26 14 -40 20 -14 6 -32 15 -40 20 -8 5 -26 14 -40 20 -14 6 -32 15 -40 20 -8 5 -395 198 -860 430 -465 231 -852 425 -860 430 -8 5 -26 14 -40 20 -14 6 -32 15 -40 20 -8 5 -26 14 -40 20 -14 6 -32 15 -40 21 -8 5 -26 14 -40 20 -14 5 -32 14 -40 20 -8 5 -26 14 -40 20 -14 5 -32 14 -40 19 -8 6 -105 53 -215 107 -110 53 -207 100 -215 105 -8 5 -26 14 -40 20 -14 6 -32 15 -40 20 -8 5 -26 14 -40 20 -14 6 -32 15 -40 20 -8 5 -26 14 -40 20 -14 6 -32 15 -40 20 -8 5 -26 14 -40 20 -14 6 -32 15 -40 20 -8 5 -26 14 -40 20 -14 6 -32 15 -40 20 -8 5 -26 14 -40 20 -14 6 -32 15 -40 20 -8 5 -26 14 -40 20 -14 6 -32 15 -40 20 -8 5 -22 12 -30 15 -24 9 -54 23 -70 33 -8 5 -26 14 -40 20 -14 6 -32 15 -40 20 -8 5 -26 14 -40 20 -14 6 -32 15 -40 20 -8 5 -26 14 -40 20 -14 6 -32 15 -40 20 -8 5 -26 14 -40 20 -14 6 -32 15 -40 20 -8 5 -26 14 -40 20 -14 6 -32 15 -40 20 -8 4 -113 57 -232 115 -120 59 -218 112 -218 117 0 7 -1069 549 -1084 549 -2 0 -19 -19 -38 -42z"/>
 </g>

</svg>