<!DOCTYPE svg PUBLIC "-//W3C//DTD SVG 20010904//EN" "http://www.w3.org/TR/2001/REC-SVG-20010904/DTD/svg10.dtd">
<svg version="1.0" xmlns="http://www.w3.org/2000/svg" width="1600px" height="1600px" viewBox="0 0 16000 16000" preserveAspectRatio="xMidYMid meet">
<g id="layer101" fill="#0081af" stroke="none">
 <path d="M0 8000 l0 -8000 8000 0 8000 0 0 8000 0 8000 -8000 0 -8000 0 0 -8000z"/>
 </g>
<g id="layer102" fill="#797979" stroke="none">
 <path d="M5226 15987 c-27 -97 -50 -181 -66 -242 -11 -41 -29 -109 -40 -150 -11 -41 -29 -108 -40 -147 -11 -40 -29 -109 -40 -153 -11 -44 -27 -101 -36 -127 -8 -26 -18 -66 -24 -90 -5 -24 -23 -92 -40 -153 -17 -60 -37 -135 -44 -165 -8 -30 -23 -89 -35 -130 -58 -211 -73 -269 -81 -308 -5 -24 -16 -64 -24 -90 -9 -26 -25 -83 -36 -127 -11 -44 -29 -113 -40 -152 -11 -40 -29 -106 -40 -145 -11 -40 -29 -109 -40 -153 -25 -93 -52 -196 -80 -297 -27 -101 -59 -219 -82 -308 -10 -41 -28 -104 -38 -140 -10 -36 -28 -103 -40 -150 -12 -47 -30 -114 -40 -150 -19 -66 -41 -149 -80 -300 -13 -47 -31 -114 -40 -150 -47 -171 -60 -221 -80 -295 -11 -44 -29 -113 -40 -152 -11 -40 -29 -106 -40 -145 -11 -40 -29 -109 -40 -153 -20 -74 -33 -124 -80 -295 -9 -36 -27 -103 -40 -150 -12 -47 -30 -114 -41 -149 -10 -35 -19 -70 -19 -77 0 -8 -9 -42 -19 -76 -11 -35 -29 -101 -41 -148 -12 -47 -30 -114 -40 -150 -10 -36 -28 -99 -38 -140 -45 -171 -66 -240 -73 -240 -4 0 -16 11 -26 24 -16 21 -405 463 -489 556 -32 35 -436 492 -628 710 -55 63 -189 214 -295 335 -107 121 -241 272 -296 335 -56 63 -207 234 -336 380 -129 146 -320 362 -424 480 -830 941 -1100 1245 -1107 1248 -4 2 -8 -3160 -8 -7027 l0 -7031 6211 0 c4965 0 6209 3 6203 13 -11 16 -204 239 -220 252 -6 6 -78 87 -160 180 -81 94 -153 175 -160 180 -6 6 -76 84 -156 175 -79 91 -157 179 -172 195 -16 17 -81 91 -146 165 -65 74 -137 155 -160 180 -23 25 -95 106 -160 180 -65 74 -137 155 -160 180 -23 25 -95 106 -160 180 -65 74 -130 149 -146 165 -15 17 -93 104 -172 195 -80 91 -150 170 -156 175 -7 6 -79 87 -161 180 -81 94 -155 177 -164 185 -10 8 -76 83 -147 165 -71 83 -141 162 -157 177 -15 15 -192 213 -394 440 -201 227 -420 474 -487 548 -370 414 -551 623 -554 637 -4 15 13 82 58 243 10 36 28 100 39 143 28 106 58 218 81 305 11 39 29 106 40 147 11 41 29 109 40 150 11 41 29 109 40 150 11 41 29 108 40 148 11 39 29 108 40 152 12 44 30 109 41 145 10 36 19 71 19 78 0 7 9 41 19 75 11 34 22 74 25 90 l6 27 1734 0 1733 0 35 -32 c19 -18 110 -118 203 -223 93 -104 182 -203 199 -220 16 -16 83 -91 149 -165 66 -74 152 -169 192 -210 39 -41 141 -151 226 -245 344 -379 720 -797 815 -905 55 -63 118 -133 140 -155 21 -22 114 -124 206 -227 92 -103 180 -201 196 -217 17 -15 105 -113 198 -217 92 -104 181 -202 198 -219 16 -16 100 -109 185 -205 86 -96 169 -187 184 -203 15 -15 104 -113 197 -217 93 -104 182 -203 198 -218 16 -16 87 -93 157 -173 70 -79 132 -145 136 -147 5 -2 9 1686 9 3752 l0 3755 -114 130 c-63 71 -127 142 -143 158 -15 15 -95 105 -177 198 -83 94 -164 184 -180 200 -17 17 -98 107 -180 200 -83 94 -164 184 -180 200 -17 17 -98 107 -180 200 -83 94 -164 184 -180 200 -17 17 -98 107 -180 200 -83 94 -164 184 -180 200 -17 17 -98 107 -180 200 -83 94 -164 184 -180 200 -17 17 -98 107 -180 200 -82 94 -157 177 -166 185 -9 8 -90 98 -180 200 -90 102 -171 192 -180 200 -9 8 -90 98 -180 200 -90 102 -171 192 -180 200 -9 8 -91 98 -181 200 -90 102 -181 203 -202 225 -21 22 -105 115 -185 207 l-147 168 -714 0 c-566 0 -712 3 -708 13 9 23 61 214 97 352 11 44 27 101 36 127 8 26 18 66 24 90 5 24 23 93 40 153 30 107 42 154 74 280 9 33 29 110 46 170 17 61 35 129 40 153 6 24 16 64 25 90 8 26 24 85 36 132 12 47 30 112 39 145 10 33 20 72 23 87 l4 28 -2999 0 c-2390 0 -2999 -3 -3002 -13z"/>
 <path d="M12165 4261 c-55 -8 -186 -47 -225 -66 -14 -7 -36 -18 -50 -24 -40 -18 -134 -74 -160 -96 -138 -117 -249 -242 -272 -307 -6 -16 -14 -28 -18 -28 -5 0 -14 -17 -21 -37 -6 -21 -15 -42 -19 -48 -16 -20 -51 -138 -65 -218 -27 -153 -14 -373 31 -502 9 -27 35 -88 58 -135 168 -348 524 -569 916 -569 333 0 647 162 840 435 39 55 108 193 134 269 45 129 58 349 31 502 -14 80 -49 198 -65 218 -4 6 -13 27 -19 48 -7 20 -16 37 -21 37 -4 0 -12 12 -18 28 -23 65 -134 190 -272 307 -26 22 -120 78 -160 96 -14 6 -34 16 -44 21 -11 6 -60 24 -110 40 -82 26 -107 29 -256 33 -91 2 -187 0 -215 -4z"/>
 </g>
<g id="layer103" fill="#d4e7b8" stroke="none">
 <path d="M5226 15988 c-26 -96 -50 -182 -66 -243 -11 -41 -29 -109 -40 -150 -11 -41 -29 -108 -40 -147 -11 -40 -29 -109 -40 -153 -11 -44 -27 -101 -36 -127 -8 -26 -18 -66 -24 -90 -5 -24 -23 -92 -40 -153 -17 -60 -37 -135 -44 -165 -8 -30 -23 -89 -35 -130 -58 -211 -73 -269 -81 -308 -5 -24 -16 -64 -24 -90 -9 -26 -25 -83 -36 -127 -11 -44 -29 -113 -40 -152 -11 -40 -29 -106 -40 -145 -11 -40 -29 -109 -40 -153 -25 -93 -52 -196 -80 -297 -27 -101 -59 -219 -82 -308 -10 -41 -28 -104 -38 -140 -10 -36 -28 -103 -40 -150 -12 -47 -30 -114 -40 -150 -19 -66 -41 -149 -80 -300 -13 -47 -31 -114 -40 -150 -47 -171 -60 -221 -80 -295 -11 -44 -29 -113 -40 -152 -11 -40 -29 -106 -40 -145 -11 -40 -29 -109 -40 -153 -20 -74 -33 -124 -80 -295 -9 -36 -27 -103 -40 -150 -12 -47 -30 -114 -41 -149 -10 -35 -19 -70 -19 -77 0 -8 -9 -42 -19 -76 -11 -35 -29 -101 -41 -148 -12 -47 -30 -114 -40 -150 -10 -36 -28 -99 -38 -140 -45 -171 -66 -240 -73 -240 -4 0 -16 11 -26 24 -16 21 -405 463 -489 556 -32 35 -436 492 -628 710 -55 63 -189 214 -295 335 -107 121 -241 272 -296 335 -56 63 -207 234 -336 380 -129 146 -320 362 -424 480 -830 941 -1100 1245 -1107 1248 -4 2 -8 -1675 -8 -3727 l0 -3731 6089 0 6088 0 35 -32 c19 -18 110 -118 203 -223 93 -104 182 -203 199 -220 16 -16 83 -91 149 -165 66 -74 152 -169 192 -210 39 -41 141 -151 226 -245 344 -379 720 -797 815 -905 55 -63 118 -133 140 -155 21 -22 114 -124 206 -227 92 -103 180 -201 196 -217 17 -15 105 -113 198 -217 92 -104 181 -202 198 -219 16 -16 100 -109 185 -205 86 -96 169 -187 184 -203 15 -15 104 -113 197 -217 93 -104 182 -203 198 -218 16 -16 87 -93 157 -173 70 -79 132 -145 136 -147 5 -2 9 1686 9 3752 l0 3755 -114 130 c-63 71 -127 142 -143 158 -15 15 -95 105 -177 198 -83 94 -164 184 -180 200 -17 17 -98 107 -180 200 -83 94 -164 184 -180 200 -17 17 -98 107 -180 200 -83 94 -164 184 -180 200 -17 17 -98 107 -180 200 -83 94 -164 184 -180 200 -17 17 -98 107 -180 200 -83 94 -164 184 -180 200 -17 17 -98 107 -180 200 -82 94 -157 177 -166 185 -9 8 -90 98 -180 200 -90 102 -171 192 -180 200 -9 8 -90 98 -180 200 -90 102 -171 192 -180 200 -9 8 -91 98 -181 200 -90 102 -181 203 -202 225 -21 22 -105 115 -185 207 l-147 168 -1896 0 -1897 0 8 33 c4 17 14 57 23 87 23 81 54 194 77 285 11 44 27 101 36 127 8 26 19 66 24 90 8 39 23 97 81 308 12 41 27 100 35 130 7 30 27 105 44 165 17 61 35 129 40 153 6 24 16 64 25 90 8 26 24 85 36 132 12 47 30 111 40 144 10 32 16 63 13 67 -3 5 -800 9 -1815 9 -1439 0 -1810 -3 -1813 -12z m7977 -3791 l167 -174 0 -2892 c0 -1648 -4 -2891 -9 -2891 -9 0 -123 128 -299 334 -57 66 -125 144 -151 171 -26 28 -66 73 -89 101 l-42 50 0 560 c-1 737 29 4740 37 4964 l5 175 107 -112 c58 -62 181 -190 274 -286z m1144 -1298 l83 -85 0 -2902 0 -2903 -67 78 c-38 43 -75 85 -84 93 -9 8 -70 77 -135 153 -66 76 -161 186 -212 245 l-93 107 6 540 c3 297 10 1469 15 2605 5 1136 12 2174 16 2308 l6 242 192 -197 c105 -109 228 -237 273 -284z m1016 -1142 l167 -174 0 -2892 c0 -1648 -4 -2891 -9 -2891 -9 0 -123 128 -299 334 -57 66 -125 144 -151 171 -26 28 -66 73 -89 101 l-42 50 0 560 c-1 737 29 4740 37 4964 l5 175 107 -112 c58 -62 181 -190 274 -286z"/>
 <path d="M7 4733 c-4 -3 -7 -1070 -7 -2370 l0 -2363 6211 0 c4965 0 6209 3 6203 12 -11 17 -204 240 -220 253 -6 6 -78 87 -160 180 -81 94 -153 175 -160 180 -6 6 -76 84 -156 175 -79 91 -157 179 -172 195 -16 17 -81 91 -146 165 -65 74 -137 155 -160 180 -23 25 -95 106 -160 180 -65 74 -137 155 -160 180 -23 25 -95 106 -160 180 -65 74 -130 149 -146 165 -15 17 -93 104 -172 195 -80 91 -150 170 -156 175 -7 6 -79 87 -161 180 -81 94 -155 177 -164 185 -10 8 -76 83 -147 165 -71 83 -141 162 -157 177 -15 15 -192 213 -394 440 -201 227 -420 474 -487 548 -67 75 -220 247 -340 383 l-219 247 -4102 0 c-2256 0 -4105 -3 -4108 -7z"/>
 <path d="M12165 4261 c-55 -8 -186 -47 -225 -66 -14 -7 -36 -18 -50 -24 -40 -18 -134 -74 -160 -96 -138 -117 -249 -242 -272 -307 -6 -16 -14 -28 -18 -28 -5 0 -14 -17 -21 -37 -6 -21 -15 -42 -19 -48 -16 -20 -51 -138 -65 -218 -27 -153 -14 -373 31 -502 9 -27 35 -88 58 -135 168 -348 524 -569 916 -569 333 0 647 162 840 435 39 55 108 193 134 269 45 129 58 349 31 502 -14 80 -49 198 -65 218 -4 6 -13 27 -19 48 -7 20 -16 37 -21 37 -4 0 -12 12 -18 28 -23 65 -134 190 -272 307 -26 22 -120 78 -160 96 -14 6 -34 16 -44 21 -11 6 -60 24 -110 40 -82 26 -107 29 -256 33 -91 2 -187 0 -215 -4z"/>
 </g>
<g id="layer104" fill="#d6e7d2" stroke="none">
 <path d="M5226 15988 c-26 -96 -50 -182 -66 -243 -11 -41 -29 -109 -40 -150 -11 -41 -29 -108 -40 -147 -11 -40 -29 -109 -40 -153 -11 -44 -27 -101 -36 -127 -8 -26 -18 -66 -24 -90 -5 -24 -23 -92 -40 -153 -17 -60 -37 -135 -44 -165 -8 -30 -23 -89 -35 -130 -58 -211 -73 -269 -81 -308 -5 -24 -16 -64 -24 -90 -9 -26 -25 -83 -36 -127 -11 -44 -29 -113 -40 -152 -11 -40 -29 -106 -40 -145 -11 -40 -29 -109 -40 -153 -25 -93 -52 -196 -80 -297 -27 -101 -59 -219 -82 -308 -10 -41 -28 -104 -38 -140 -10 -36 -28 -103 -40 -150 -12 -47 -30 -114 -40 -150 -19 -66 -41 -149 -80 -300 -13 -47 -31 -114 -40 -150 -47 -171 -60 -221 -80 -295 -11 -44 -29 -113 -40 -152 -11 -40 -29 -106 -40 -145 -11 -40 -29 -109 -40 -153 -20 -74 -33 -124 -80 -295 -9 -36 -27 -103 -40 -150 -12 -47 -30 -114 -41 -149 -10 -35 -19 -70 -19 -77 0 -8 -9 -42 -19 -76 -11 -35 -29 -101 -41 -148 -12 -47 -30 -114 -40 -150 -10 -36 -28 -99 -38 -140 -45 -171 -66 -240 -73 -240 -4 0 -16 11 -26 24 -16 21 -405 463 -489 556 -32 35 -436 492 -628 710 -55 63 -189 214 -295 335 -107 121 -241 272 -296 335 -56 63 -207 234 -336 380 -129 146 -320 362 -424 480 -830 941 -1100 1245 -1107 1248 -4 2 -8 -1675 -8 -3727 l0 -3731 3168 0 3168 0 19 78 c10 42 21 69 23 59 2 -9 -4 -40 -13 -68 -9 -28 -15 -53 -11 -56 3 -3 1317 -6 2921 -7 1603 0 2915 -5 2915 -9 0 -4 13 -20 29 -36 16 -16 104 -113 197 -217 92 -104 181 -202 198 -219 16 -16 100 -109 185 -205 86 -96 160 -177 166 -179 10 -4 30 -26 114 -121 22 -25 60 -66 83 -92 24 -26 72 -79 108 -119 36 -40 86 -93 113 -119 26 -25 47 -50 47 -55 0 -5 19 -28 43 -52 40 -40 58 -60 192 -213 62 -71 106 -117 184 -196 28 -27 51 -54 51 -58 0 -9 168 -201 236 -271 21 -22 114 -124 206 -227 92 -103 180 -201 196 -217 17 -15 105 -113 198 -217 92 -104 181 -202 198 -219 16 -16 100 -109 185 -205 86 -96 169 -187 184 -203 15 -15 104 -113 197 -217 93 -104 182 -203 198 -218 16 -16 87 -93 157 -173 70 -79 132 -145 136 -147 5 -2 9 1686 9 3752 l0 3755 -114 130 c-63 71 -127 142 -143 158 -15 15 -95 105 -177 198 -83 94 -164 184 -180 200 -17 17 -98 107 -180 200 -83 94 -164 184 -180 200 -17 17 -98 107 -180 200 -83 94 -164 184 -180 200 -17 17 -98 107 -180 200 -83 94 -164 184 -180 200 -17 17 -98 107 -180 200 -83 94 -164 184 -180 200 -17 17 -98 107 -180 200 -82 94 -157 177 -166 185 -9 8 -90 98 -180 200 -90 102 -171 192 -180 200 -9 8 -90 98 -180 200 -90 102 -171 192 -180 200 -9 8 -90 98 -180 200 -90 102 -171 192 -180 200 -9 8 -72 78 -140 155 -68 77 -146 164 -174 193 l-50 52 -1892 0 -1892 0 8 33 c4 17 14 57 23 87 23 81 54 194 77 285 11 44 27 101 36 127 8 26 19 66 24 90 8 39 23 97 81 308 12 41 27 100 35 130 7 30 27 105 44 165 17 61 35 129 40 153 6 24 16 64 25 90 8 26 24 85 36 132 12 47 30 111 40 144 10 32 16 63 13 67 -3 5 -800 9 -1815 9 -1439 0 -1810 -3 -1813 -12z m3131 -1885 c-4 -3 -7 0 -7 7 0 7 3 10 7 7 3 -4 3 -10 0 -14z m-30 -120 c-4 -3 -7 0 -7 7 0 7 3 10 7 7 3 -4 3 -10 0 -14z m-40 -140 c-4 -3 -7 0 -7 7 0 7 3 10 7 7 3 -4 3 -10 0 -14z m-10 -30 c-4 -3 -7 0 -7 7 0 7 3 10 7 7 3 -4 3 -10 0 -14z m-20 -90 c-4 -3 -7 0 -7 7 0 7 3 10 7 7 3 -4 3 -10 0 -14z m-10 -30 c-4 -3 -7 0 -7 7 0 7 3 10 7 7 3 -4 3 -10 0 -14z m-10 -30 c-4 -3 -7 0 -7 7 0 7 3 10 7 7 3 -4 3 -10 0 -14z m-20 -90 c-4 -3 -7 0 -7 7 0 7 3 10 7 7 3 -4 3 -10 0 -14z m-10 -30 c-4 -3 -7 0 -7 7 0 7 3 10 7 7 3 -4 3 -10 0 -14z m-10 -30 c-4 -3 -7 0 -7 7 0 7 3 10 7 7 3 -4 3 -10 0 -14z m-20 -90 c-4 -3 -7 0 -7 7 0 7 3 10 7 7 3 -4 3 -10 0 -14z m-10 -30 c-4 -3 -7 0 -7 7 0 7 3 10 7 7 3 -4 3 -10 0 -14z m-10 -30 c-4 -3 -7 0 -7 7 0 7 3 10 7 7 3 -4 3 -10 0 -14z m-20 -90 c-4 -3 -7 0 -7 7 0 7 3 10 7 7 3 -4 3 -10 0 -14z m-10 -30 c-4 -3 -7 0 -7 7 0 7 3 10 7 7 3 -4 3 -10 0 -14z m-10 -30 c-4 -3 -7 0 -7 7 0 7 3 10 7 7 3 -4 3 -10 0 -14z m-20 -90 c-4 -3 -7 0 -7 7 0 7 3 10 7 7 3 -4 3 -10 0 -14z m-10 -30 c-4 -3 -7 0 -7 7 0 7 3 10 7 7 3 -4 3 -10 0 -14z m-10 -30 c-4 -3 -7 0 -7 7 0 7 3 10 7 7 3 -4 3 -10 0 -14z m-10 -30 c-4 -3 -7 0 -7 7 0 7 3 10 7 7 3 -4 3 -10 0 -14z m-20 -90 c-4 -3 -7 0 -7 7 0 7 3 10 7 7 3 -4 3 -10 0 -14z m-10 -30 c-4 -3 -7 0 -7 7 0 7 3 10 7 7 3 -4 3 -10 0 -14z m-20 -90 c-4 -3 -7 0 -7 7 0 7 3 10 7 7 3 -4 3 -10 0 -14z m-10 -30 c-4 -3 -7 0 -7 7 0 7 3 10 7 7 3 -4 3 -10 0 -14z m-10 -30 c-4 -3 -7 0 -7 7 0 7 3 10 7 7 3 -4 3 -10 0 -14z m-20 -90 c-4 -3 -7 0 -7 7 0 7 3 10 7 7 3 -4 3 -10 0 -14z m-10 -30 c-4 -3 -7 0 -7 7 0 7 3 10 7 7 3 -4 3 -10 0 -14z m-10 -30 c-4 -3 -7 0 -7 7 0 7 3 10 7 7 3 -4 3 -10 0 -14z m-10 -30 c-4 -3 -7 0 -7 7 0 7 3 10 7 7 3 -4 3 -10 0 -14z m5256 -385 l167 -175 0 -2891 c0 -1590 -4 -2893 -8 -2896 -4 -2 -28 21 -53 52 -25 31 -93 109 -150 173 -57 64 -126 142 -152 175 -27 32 -70 82 -96 109 -26 28 -66 73 -89 101 l-42 51 0 886 c0 488 2 962 5 1054 3 93 9 897 15 1788 6 891 13 1699 16 1795 l6 175 107 -111 c58 -61 181 -190 274 -286z m-5286 265 c-4 -3 -7 0 -7 7 0 7 3 10 7 7 3 -4 3 -10 0 -14z m-10 -30 c-4 -3 -7 0 -7 7 0 7 3 10 7 7 3 -4 3 -10 0 -14z m-20 -85 c-3 -8 -6 -5 -6 6 -1 11 2 17 5 13 3 -3 4 -12 1 -19z m-10 -35 c-4 -3 -7 0 -7 7 0 7 3 10 7 7 3 -4 3 -10 0 -14z m-27 -108 c-16 -47 -23 -40 -8 8 6 20 13 35 16 33 2 -3 -1 -21 -8 -41z m-33 -122 c-4 -3 -7 0 -7 7 0 7 3 10 7 7 3 -4 3 -10 0 -14z m-10 -30 c-4 -3 -7 0 -7 7 0 7 3 10 7 7 3 -4 3 -10 0 -14z m-10 -35 c-3 -8 -6 -5 -6 6 -1 11 2 17 5 13 3 -3 4 -12 1 -19z m-10 -35 c-4 -3 -7 0 -7 7 0 7 3 10 7 7 3 -4 3 -10 0 -14z m-10 -50 c-4 -3 -7 0 -7 7 0 7 3 10 7 7 3 -4 3 -10 0 -14z m-13 -47 c-3 -15 -8 -25 -11 -23 -2 3 -1 17 3 31 3 15 8 25 11 23 2 -3 1 -17 -3 -31z m-27 -103 c-4 -3 -7 0 -7 7 0 7 3 10 7 7 3 -4 3 -10 0 -14z m-10 -30 c-4 -3 -7 0 -7 7 0 7 3 10 7 7 3 -4 3 -10 0 -14z m-10 -30 c-4 -3 -7 0 -7 7 0 7 3 10 7 7 3 -4 3 -10 0 -14z m-20 -90 c-4 -3 -7 0 -7 7 0 7 3 10 7 7 3 -4 3 -10 0 -14z m-10 -30 c-4 -3 -7 0 -7 7 0 7 3 10 7 7 3 -4 3 -10 0 -14z m-10 -30 c-4 -3 -7 0 -7 7 0 7 3 10 7 7 3 -4 3 -10 0 -14z m-20 -90 c-4 -3 -7 0 -7 7 0 7 3 10 7 7 3 -4 3 -10 0 -14z m-10 -30 c-4 -3 -7 0 -7 7 0 7 3 10 7 7 3 -4 3 -10 0 -14z m-10 -30 c-4 -3 -7 0 -7 7 0 7 3 10 7 7 3 -4 3 -10 0 -14z m6668 -479 l125 -131 0 -2903 0 -2902 -52 61 c-28 34 -55 61 -60 61 -5 0 -11 7 -14 15 -3 8 -28 38 -54 67 -27 29 -86 97 -132 150 -45 54 -127 149 -181 213 l-99 114 11 1223 c6 673 11 1624 11 2113 1 490 2 913 4 940 2 28 4 304 5 615 2 311 5 618 8 684 l6 118 149 -153 c82 -85 205 -213 273 -285z m-6688 389 c-4 -3 -7 0 -7 7 0 7 3 10 7 7 3 -4 3 -10 0 -14z m-10 -30 c-4 -3 -7 0 -7 7 0 7 3 10 7 7 3 -4 3 -10 0 -14z m-10 -30 c-4 -3 -7 0 -7 7 0 7 3 10 7 7 3 -4 3 -10 0 -14z m-10 -30 c-4 -3 -7 0 -7 7 0 7 3 10 7 7 3 -4 3 -10 0 -14z m-13 -67 c-3 -15 -8 -25 -11 -23 -2 3 -1 17 3 31 3 15 8 25 11 23 2 -3 1 -17 -3 -31z m-17 -53 c-4 -3 -7 0 -7 7 0 7 3 10 7 7 3 -4 3 -10 0 -14z m-10 -30 c-4 -3 -7 0 -7 7 0 7 3 10 7 7 3 -4 3 -10 0 -14z m-21 -89 c-8 -21 -15 -34 -15 -28 -1 15 20 76 25 71 2 -2 -2 -21 -10 -43z m-19 -61 c-4 -3 -7 0 -7 7 0 7 3 10 7 7 3 -4 3 -10 0 -14z m-17 -70 c-11 -17 -11 -17 -6 0 3 10 7 26 7 35 1 15 2 15 6 0 2 -10 -1 -25 -7 -35z m-13 -45 c-3 -8 -6 -5 -6 6 -1 11 2 17 5 13 3 -3 4 -12 1 -19z m-10 -35 c-4 -3 -7 0 -7 7 0 7 3 10 7 7 3 -4 3 -10 0 -14z m-10 -50 c-4 -3 -7 0 -7 7 0 7 3 10 7 7 3 -4 3 -10 0 -14z m-13 -47 c-3 -15 -8 -25 -11 -23 -2 3 -1 17 3 31 3 15 8 25 11 23 2 -3 1 -17 -3 -31z m-17 -53 c-4 -3 -7 0 -7 7 0 7 3 10 7 7 3 -4 3 -10 0 -14z m-18 -82 c-7 -23 -14 -39 -16 -37 -3 2 1 23 8 45 7 23 14 39 16 37 3 -2 -1 -23 -8 -45z m-22 -68 c-4 -3 -7 0 -7 7 0 7 3 10 7 7 3 -4 3 -10 0 -14z m-17 -70 c-11 -17 -11 -17 -6 0 3 10 7 26 7 35 1 15 2 15 6 0 2 -10 -1 -25 -7 -35z m-13 -45 c-3 -8 -6 -5 -6 6 -1 11 2 17 5 13 3 -3 4 -12 1 -19z m-10 -35 c-4 -3 -7 0 -7 7 0 7 3 10 7 7 3 -4 3 -10 0 -14z m-4 -33 c-3 -12 -8 -19 -11 -16 -5 6 5 36 12 36 2 0 2 -9 -1 -20z m-16 -47 c-4 -3 -7 0 -7 7 0 7 3 10 7 7 3 -4 3 -10 0 -14z m-10 -35 c-3 -8 -6 -5 -6 6 -1 11 2 17 5 13 3 -3 4 -12 1 -19z m-10 -35 c-4 -3 -7 0 -7 7 0 7 3 10 7 7 3 -4 3 -10 0 -14z m-10 -50 c-4 -3 -7 0 -7 7 0 7 3 10 7 7 3 -4 3 -10 0 -14z m8066 -385 l167 -175 0 -2891 c0 -1590 -4 -2893 -8 -2896 -4 -2 -28 21 -53 52 -25 31 -93 109 -150 173 -57 64 -126 142 -152 175 -27 32 -70 82 -96 109 -26 28 -66 73 -89 101 l-42 51 0 886 c0 488 2 962 5 1054 3 93 9 897 15 1788 6 891 13 1699 16 1795 l6 175 107 -111 c58 -61 181 -190 274 -286z m-8083 335 c-11 -17 -11 -17 -6 0 3 10 6 24 7 30 0 9 2 9 5 0 3 -7 0 -20 -6 -30z m-23 -98 c-6 -19 -12 -33 -14 -32 -6 7 9 67 17 67 5 0 3 -16 -3 -35z m-20 -62 c-4 -3 -7 0 -7 7 0 7 3 10 7 7 3 -4 3 -10 0 -14z m-10 -35 c-3 -8 -6 -5 -6 6 -1 11 2 17 5 13 3 -3 4 -12 1 -19z m-22 -93 c-10 -36 -20 -63 -22 -61 -2 2 4 33 13 70 10 36 20 63 22 61 3 -2 -4 -34 -13 -70z m-33 -125 c-9 -27 -17 -48 -19 -46 -6 6 21 96 28 96 4 0 0 -22 -9 -50z m-25 -77 c-4 -3 -7 0 -7 7 0 7 3 10 7 7 3 -4 3 -10 0 -14z m-15 -73 c-9 -27 -17 -48 -19 -46 -6 6 21 96 28 96 4 0 0 -22 -9 -50z m-25 -82 c-3 -8 -6 -5 -6 6 -1 11 2 17 5 13 3 -3 4 -12 1 -19z m-17 -73 c-7 -25 -15 -44 -17 -42 -2 3 2 25 9 50 6 26 14 44 16 42 3 -2 -1 -25 -8 -50z m-23 -77 c-3 -8 -6 -5 -6 6 -1 11 2 17 5 13 3 -3 4 -12 1 -19z m-17 -73 c-17 -59 -24 -52 -9 9 6 26 14 44 17 42 2 -3 -1 -26 -8 -51z m-23 -72 c-4 -3 -7 0 -7 7 0 7 3 10 7 7 3 -4 3 -10 0 -14z m-15 -73 c-9 -27 -17 -48 -19 -46 -7 6 19 96 27 96 5 0 1 -22 -8 -50z m-25 -77 c-4 -3 -7 0 -7 7 0 7 3 10 7 7 3 -4 3 -10 0 -14z m-17 -78 c-17 -59 -24 -52 -9 9 6 26 14 44 17 42 2 -3 -1 -26 -8 -51z m-23 -72 c-4 -3 -7 0 -7 7 0 7 3 10 7 7 3 -4 3 -10 0 -14z m-22 -93 c-24 -78 -31 -71 -9 9 10 33 20 59 22 56 3 -3 -3 -32 -13 -65z m-41 -150 c-24 -80 -30 -69 -7 15 10 36 19 61 21 55 2 -6 -4 -38 -14 -70z m-39 -146 c-22 -76 -28 -64 -7 14 9 35 18 59 20 53 2 -6 -4 -36 -13 -67z m-30 -120 c-14 -48 -33 -78 -21 -34 3 14 9 37 12 53 4 15 10 27 15 27 4 0 2 -21 -6 -46z m-28 -86 c-3 -8 -6 -5 -6 6 -1 11 2 17 5 13 3 -3 4 -12 1 -19z m-9 -50 c-5 -18 -14 -50 -20 -71 -18 -65 -20 -33 -2 37 9 36 20 66 25 66 4 0 3 -15 -3 -32z m-49 -180 c-18 -56 -40 -102 -26 -53 3 11 11 41 18 68 6 26 15 47 19 47 4 0 -1 -28 -11 -62z m-22 -95 c-3 -5 -10 -28 -17 -52 -6 -23 -13 -41 -16 -38 -8 8 18 97 28 97 5 0 7 -3 5 -7z m-40 -125 c-3 -8 -6 -5 -6 6 -1 11 2 17 5 13 3 -3 4 -12 1 -19z m-21 -87 c-11 -38 -23 -68 -25 -66 -6 6 31 135 39 135 4 0 -2 -31 -14 -69z m-39 -146 c-11 -35 -23 -63 -25 -61 -6 7 30 126 38 126 5 0 -1 -29 -13 -65z m-40 -150 c-11 -35 -23 -63 -24 -61 -7 7 31 135 38 130 4 -2 -2 -33 -14 -69z m-42 -162 c-13 -43 -31 -106 -41 -141 -9 -34 -19 -60 -21 -58 -7 6 71 285 78 280 4 -2 -4 -39 -16 -81z m-80 -294 c-24 -80 -30 -68 -9 17 10 38 20 62 22 55 2 -7 -4 -40 -13 -72z m-38 -144 c-11 -35 -22 -63 -24 -61 -7 7 30 136 37 131 5 -3 -1 -34 -13 -70z"/>
 <path d="M7 4733 c-4 -3 -7 -1070 -7 -2370 l0 -2363 6211 0 c4965 0 6209 3 6203 12 -11 17 -204 240 -220 253 -6 6 -78 87 -160 180 -81 94 -153 175 -160 180 -6 6 -76 84 -156 175 -79 91 -157 179 -172 195 -16 17 -81 91 -146 165 -65 74 -137 155 -160 180 -23 25 -95 106 -160 180 -65 74 -137 155 -160 180 -23 25 -95 106 -160 180 -65 74 -130 149 -146 165 -15 17 -93 104 -172 195 -80 91 -150 170 -156 175 -7 6 -79 87 -161 180 -81 94 -155 177 -164 185 -10 8 -76 83 -147 165 -71 83 -141 162 -157 177 -15 15 -192 213 -394 440 -201 227 -420 474 -487 548 -67 75 -220 247 -340 383 l-219 247 -4102 0 c-2256 0 -4105 -3 -4108 -7z"/>
 <path d="M12165 4261 c-55 -8 -186 -47 -225 -66 -14 -7 -36 -18 -50 -24 -40 -18 -134 -74 -160 -96 -138 -117 -249 -242 -272 -307 -6 -16 -14 -28 -18 -28 -5 0 -14 -17 -21 -37 -6 -21 -15 -42 -19 -48 -16 -20 -51 -138 -65 -218 -27 -153 -14 -373 31 -502 9 -27 35 -88 58 -135 168 -348 524 -569 916 -569 333 0 647 162 840 435 39 55 108 193 134 269 45 129 58 349 31 502 -14 80 -49 198 -65 218 -4 6 -13 27 -19 48 -7 20 -16 37 -21 37 -4 0 -12 12 -18 28 -23 65 -134 190 -272 307 -26 22 -120 78 -160 96 -14 6 -34 16 -44 21 -11 6 -60 24 -110 40 -82 26 -107 29 -256 33 -91 2 -187 0 -215 -4z"/>
 </g>
<g id="layer105" fill="#d6e7e3" stroke="none">
 <path d="M5226 15988 c-26 -96 -50 -182 -66 -243 -11 -41 -29 -109 -40 -150 -11 -41 -29 -108 -40 -147 -11 -40 -29 -109 -40 -153 -11 -44 -27 -101 -36 -127 -8 -26 -18 -66 -24 -90 -5 -24 -23 -92 -40 -153 -17 -60 -37 -135 -44 -165 -8 -30 -23 -89 -35 -130 -58 -211 -73 -269 -81 -308 -5 -24 -16 -64 -24 -90 -9 -26 -25 -83 -36 -127 -11 -44 -29 -113 -40 -152 -11 -40 -29 -106 -40 -145 -11 -40 -29 -109 -40 -153 -25 -93 -52 -196 -80 -297 -27 -101 -59 -219 -82 -308 -10 -41 -28 -104 -38 -140 -10 -36 -28 -103 -40 -150 -12 -47 -30 -114 -40 -150 -19 -66 -41 -149 -80 -300 -13 -47 -31 -114 -40 -150 -47 -171 -60 -221 -80 -295 -11 -44 -29 -113 -40 -152 -11 -40 -29 -106 -40 -145 -11 -40 -29 -109 -40 -153 -20 -74 -33 -124 -80 -295 -9 -36 -27 -103 -40 -150 -12 -47 -30 -114 -41 -149 -10 -35 -19 -70 -19 -77 0 -8 -9 -42 -19 -76 -11 -35 -29 -101 -41 -148 -12 -47 -30 -114 -40 -150 -11 -36 -28 -101 -40 -145 -11 -44 -31 -118 -44 -165 l-24 -85 -1806 -3 -1806 -2 0 -1685 0 -1685 3164 0 3163 0 33 123 c19 67 41 151 51 187 9 36 27 101 39 145 12 44 28 103 35 130 7 28 55 203 105 390 50 187 100 372 110 410 10 39 26 95 34 125 14 52 41 154 71 265 7 28 46 169 85 315 39 146 80 297 90 335 10 39 26 95 34 125 8 30 24 91 36 135 12 44 28 103 35 130 7 28 55 203 105 390 50 187 98 363 105 390 7 28 23 86 35 130 12 44 28 103 35 130 7 28 55 203 105 390 118 438 132 489 180 670 69 259 88 323 89 301 1 -11 -8 -49 -18 -85 -11 -36 -29 -102 -41 -146 -11 -44 -29 -113 -40 -152 -11 -40 -29 -107 -40 -148 -11 -41 -29 -109 -40 -150 -20 -76 -48 -177 -80 -295 -9 -36 -27 -103 -39 -150 -23 -87 -52 -197 -77 -285 -8 -27 -16 -59 -18 -70 -5 -26 -43 -165 -63 -230 -9 -27 -17 -60 -18 -72 -2 -12 -10 -44 -18 -70 -15 -45 -54 -196 -63 -237 -2 -11 -11 -42 -20 -70 -10 -28 -18 -60 -20 -71 -1 -11 -11 -51 -22 -90 -11 -38 -30 -108 -42 -155 -13 -47 -30 -107 -38 -135 -8 -27 -16 -59 -18 -71 -1 -12 -11 -52 -22 -90 -11 -38 -30 -105 -42 -149 -12 -44 -29 -105 -37 -135 -9 -30 -20 -71 -24 -90 -4 -19 -22 -84 -39 -145 -17 -60 -33 -125 -36 -144 -2 -18 -11 -48 -19 -67 -7 -18 -16 -50 -20 -70 -3 -21 -12 -57 -20 -80 -8 -24 -16 -53 -19 -66 -2 -13 -11 -48 -21 -78 -9 -30 -19 -67 -21 -81 -2 -14 -10 -46 -18 -70 -8 -24 -17 -58 -20 -75 -3 -17 -12 -49 -20 -71 -8 -23 -17 -56 -20 -75 -3 -18 -14 -60 -26 -92 -11 -33 -18 -61 -16 -63 2 -3 -5 -30 -15 -61 -11 -32 -22 -68 -24 -82 -1 -14 -13 -59 -24 -100 -12 -41 -31 -109 -42 -150 -11 -41 -28 -100 -36 -130 -9 -30 -17 -64 -18 -76 -2 -12 -12 -52 -23 -90 -44 -148 -53 -186 -48 -191 3 -3 1317 -6 2921 -7 1603 0 2915 -5 2915 -9 0 -4 13 -20 29 -36 16 -16 104 -113 197 -217 92 -104 181 -202 198 -219 16 -16 100 -109 185 -205 86 -96 160 -177 166 -179 10 -4 30 -26 114 -121 22 -25 60 -66 83 -92 24 -26 72 -79 108 -119 36 -40 86 -93 113 -119 26 -25 47 -50 47 -55 0 -5 19 -28 43 -52 40 -40 58 -60 192 -213 62 -71 106 -117 184 -196 28 -27 51 -54 51 -58 0 -9 168 -201 236 -271 21 -22 114 -124 206 -227 92 -103 180 -201 196 -217 17 -15 105 -113 198 -217 92 -104 181 -202 198 -219 16 -16 100 -109 185 -205 86 -96 169 -187 184 -203 15 -15 104 -113 197 -217 93 -104 182 -203 198 -218 16 -16 87 -93 157 -173 70 -79 132 -145 136 -147 5 -2 9 1686 9 3752 l0 3755 -114 130 c-63 71 -127 142 -143 158 -15 15 -95 105 -177 198 -83 94 -164 184 -180 200 -17 17 -98 107 -180 200 -83 94 -164 184 -180 200 -17 17 -98 107 -180 200 -83 94 -164 184 -180 200 -17 17 -98 107 -180 200 -83 94 -164 184 -180 200 -17 17 -98 107 -180 200 -83 94 -164 184 -180 200 -17 17 -98 107 -180 200 -82 94 -157 177 -166 185 -9 8 -90 98 -180 200 -90 102 -171 192 -180 200 -9 8 -90 98 -180 200 -90 102 -171 192 -180 200 -9 8 -90 98 -180 200 -90 102 -171 192 -180 200 -9 8 -72 78 -140 155 -68 77 -146 164 -174 193 l-50 52 -1892 0 -1892 0 8 33 c4 17 14 57 23 87 23 81 54 194 77 285 11 44 27 101 36 127 8 26 19 66 24 90 8 39 23 97 81 308 12 41 27 100 35 130 7 30 27 105 44 165 17 61 35 129 40 153 6 24 16 64 25 90 8 26 24 85 36 132 12 47 30 111 40 144 10 32 16 63 13 67 -3 5 -800 9 -1815 9 -1439 0 -1810 -3 -1813 -12z m3141 -1845 c-4 -3 -7 0 -7 7 0 7 3 10 7 7 3 -4 3 -10 0 -14z m-17 -50 c-11 -17 -11 -17 -6 0 3 10 6 24 7 30 0 9 2 9 5 0 3 -7 0 -20 -6 -30z m-20 -93 c-16 -59 -20 -46 -6 20 6 30 12 47 14 38 2 -9 -2 -35 -8 -58z m-26 -87 c-4 -21 -13 -54 -21 -73 -13 -35 -13 -30 8 63 13 56 23 64 13 10z m-40 -150 c-4 -21 -13 -54 -21 -73 -13 -35 -13 -30 8 63 13 56 23 64 13 10z m-37 -130 c-4 -3 -7 0 -7 7 0 7 3 10 7 7 3 -4 3 -10 0 -14z m-27 -103 c-11 -30 -18 -44 -15 -30 19 85 30 121 33 104 1 -10 -7 -44 -18 -74z m-40 -150 c-11 -30 -18 -44 -15 -30 19 85 30 121 33 104 1 -10 -7 -44 -18 -74z m-35 -141 c-24 -79 -30 -69 -8 15 10 37 20 61 22 55 2 -6 -5 -38 -14 -70z m-40 -150 c-24 -79 -30 -69 -8 15 10 37 20 61 22 55 2 -6 -5 -38 -14 -70z m-45 -166 c-12 -43 -30 -112 -41 -153 -11 -41 -29 -104 -39 -140 -9 -36 -28 -103 -40 -150 -43 -164 -51 -192 -56 -187 -3 3 11 63 30 133 20 71 46 165 57 209 12 44 30 109 40 145 9 36 28 104 41 152 13 48 24 83 26 78 2 -6 -6 -45 -18 -87z m5021 -573 c76 -80 176 -186 223 -236 l86 -90 0 -2892 c0 -1590 -4 -2893 -8 -2896 -10 -6 -72 55 -69 66 1 4 -59 73 -133 153 -74 81 -135 150 -135 155 0 10 -108 131 -158 178 -16 15 -42 47 -58 70 l-29 44 -1 921 c0 507 3 1174 6 1482 4 308 8 851 10 1207 2 356 6 651 8 655 3 5 7 331 8 726 l3 719 54 -59 c30 -32 117 -123 193 -203z m-5220 -172 c-10 -35 -29 -101 -41 -148 -40 -155 -51 -192 -56 -188 -2 3 22 103 53 222 32 120 59 208 61 197 2 -11 -6 -49 -17 -83z m6482 -1246 l107 -113 0 -2910 c0 -1969 -3 -2908 -10 -2904 -6 4 -8 10 -5 15 3 5 -10 21 -30 37 -19 15 -35 33 -35 40 0 6 -9 18 -19 25 -26 18 -191 204 -191 215 0 5 -41 52 -91 104 -49 51 -101 111 -114 131 -14 20 -34 42 -45 48 -11 6 -20 17 -20 25 0 8 -8 19 -19 24 -17 9 -18 24 -16 193 20 1720 24 2244 24 3078 0 883 8 2068 15 2240 1 36 3 96 4 134 l2 69 168 -169 c92 -93 215 -220 275 -282z m898 -1022 c76 -80 176 -186 223 -236 l86 -90 0 -2892 c0 -1590 -4 -2893 -8 -2896 -10 -6 -72 55 -69 66 1 4 -59 73 -133 153 -74 81 -135 150 -135 155 0 10 -108 131 -158 178 -16 15 -42 47 -58 70 l-29 44 -1 921 c0 507 3 1174 6 1482 4 308 8 851 10 1207 2 356 6 651 8 655 3 5 7 331 8 726 l3 719 54 -59 c30 -32 117 -123 193 -203z"/>
 <path d="M0 12020 l0 -2040 1800 0 c1088 0 1800 4 1800 9 0 5 -22 33 -48 63 -27 29 -133 150 -237 268 -104 118 -191 217 -194 220 -3 3 -53 59 -111 125 -59 66 -214 242 -345 391 -132 149 -305 344 -384 435 -80 90 -159 180 -178 199 -18 19 -100 112 -181 205 -82 94 -290 330 -462 525 -173 195 -381 432 -464 525 -82 94 -162 184 -179 200 -16 17 -137 154 -269 305 -132 151 -253 285 -269 298 -16 13 -29 30 -29 37 0 8 -14 25 -31 37 -17 13 -37 34 -44 48 -7 14 -45 58 -84 98 -39 40 -71 77 -71 82 0 6 -4 10 -10 10 -7 0 -10 -687 -10 -2040z"/>
 <path d="M7 4733 c-4 -3 -7 -1070 -7 -2370 l0 -2363 6211 0 c4965 0 6209 3 6203 12 -11 17 -204 240 -220 253 -6 6 -78 87 -160 180 -81 94 -153 175 -160 180 -6 6 -76 84 -156 175 -79 91 -157 179 -172 195 -16 17 -81 91 -146 165 -65 74 -137 155 -160 180 -23 25 -95 106 -160 180 -65 74 -137 155 -160 180 -23 25 -95 106 -160 180 -65 74 -130 149 -146 165 -15 17 -93 104 -172 195 -80 91 -150 170 -156 175 -7 6 -79 87 -161 180 -81 94 -155 177 -164 185 -10 8 -75 83 -146 165 -71 83 -165 184 -207 227 -43 42 -78 80 -78 85 0 5 -18 24 -40 43 -21 18 -37 36 -35 41 3 4 -13 23 -35 42 -22 18 -40 38 -40 43 0 6 -38 49 -85 97 -47 48 -85 91 -85 95 0 5 -16 22 -35 38 -19 16 -35 33 -35 37 0 11 -175 207 -206 230 -13 10 -24 24 -24 32 0 7 -20 30 -45 51 -25 22 -45 44 -45 51 0 6 -12 21 -26 32 -14 11 -38 37 -53 58 -16 21 -56 66 -90 100 -33 35 -61 67 -61 73 0 5 -16 22 -35 37 -19 15 -35 32 -35 36 0 8 -141 169 -212 242 -16 17 -42 47 -59 68 l-31 37 -4102 0 c-2257 0 -4106 -3 -4109 -7z"/>
 <path d="M12165 4261 c-55 -8 -186 -47 -225 -66 -14 -7 -36 -18 -50 -24 -40 -18 -134 -74 -160 -96 -138 -117 -249 -242 -272 -307 -6 -16 -14 -28 -18 -28 -5 0 -14 -17 -21 -37 -6 -21 -15 -42 -19 -48 -16 -20 -51 -138 -65 -218 -27 -153 -14 -373 31 -502 9 -27 35 -88 58 -135 168 -348 524 -569 916 -569 333 0 647 162 840 435 39 55 108 193 134 269 45 129 58 349 31 502 -14 80 -49 198 -65 218 -4 6 -13 27 -19 48 -7 20 -16 37 -21 37 -4 0 -12 12 -18 28 -23 65 -134 190 -272 307 -26 22 -120 78 -160 96 -14 6 -34 16 -44 21 -11 6 -60 24 -110 40 -82 26 -107 29 -256 33 -91 2 -187 0 -215 -4z"/>
 </g>
<g id="layer106" fill="#f5f0c7" stroke="none">
 <path d="M8375 14168 c-26 -75 -35 -105 -35 -119 0 -9 -9 -45 -19 -80 -10 -35 -29 -100 -40 -144 -12 -44 -30 -113 -41 -152 -11 -40 -29 -107 -40 -148 -11 -41 -29 -109 -40 -150 -11 -41 -29 -109 -40 -150 -11 -41 -29 -108 -40 -147 -11 -40 -29 -109 -40 -153 -30 -112 -58 -219 -80 -295 -9 -36 -28 -103 -40 -150 -12 -47 -30 -113 -41 -148 -10 -34 -19 -70 -19 -79 0 -9 -9 -44 -19 -77 -11 -34 -29 -99 -41 -146 -12 -47 -30 -114 -40 -150 -29 -104 -57 -209 -80 -295 -11 -44 -29 -113 -40 -152 -11 -40 -29 -107 -40 -148 -11 -41 -29 -109 -40 -150 -20 -76 -48 -177 -80 -295 -9 -36 -27 -103 -39 -150 -23 -87 -52 -197 -77 -285 -8 -27 -16 -59 -18 -70 -5 -26 -43 -165 -63 -230 -9 -27 -17 -60 -18 -72 -2 -12 -10 -44 -18 -70 -15 -45 -54 -196 -63 -237 -2 -11 -11 -42 -20 -70 -10 -28 -18 -60 -20 -71 -1 -11 -11 -51 -22 -90 -11 -38 -30 -108 -42 -155 -13 -47 -30 -107 -38 -135 -8 -27 -16 -59 -18 -71 -1 -12 -11 -52 -22 -90 -11 -38 -30 -105 -42 -149 -12 -44 -29 -105 -37 -135 -9 -30 -20 -71 -24 -90 -4 -19 -22 -84 -39 -145 -17 -60 -33 -125 -36 -144 -2 -18 -11 -48 -19 -67 -7 -18 -16 -50 -20 -70 -3 -21 -12 -57 -20 -80 -8 -24 -16 -53 -19 -66 -2 -13 -11 -48 -21 -78 -9 -30 -19 -67 -21 -81 -2 -14 -10 -46 -18 -70 -8 -24 -17 -58 -20 -75 -3 -17 -12 -49 -20 -71 -8 -23 -17 -56 -20 -75 -3 -18 -14 -60 -26 -92 -11 -33 -18 -61 -16 -63 2 -3 -5 -30 -15 -61 -11 -32 -22 -68 -24 -82 -1 -14 -13 -59 -24 -100 -12 -41 -31 -109 -42 -150 -11 -41 -28 -100 -36 -130 -9 -30 -17 -64 -18 -76 -2 -12 -12 -52 -23 -90 -44 -148 -53 -186 -48 -191 3 -3 1317 -6 2921 -7 1603 0 2915 -5 2915 -9 0 -4 13 -20 29 -36 16 -16 104 -113 197 -217 92 -104 181 -202 198 -219 16 -16 100 -109 185 -205 86 -96 160 -177 166 -179 10 -4 30 -26 114 -121 22 -25 60 -66 83 -92 24 -26 72 -79 108 -119 36 -40 86 -93 113 -119 26 -25 47 -50 47 -55 0 -5 19 -28 43 -52 40 -40 58 -60 192 -213 62 -71 106 -117 184 -196 28 -27 51 -54 51 -58 0 -9 168 -201 236 -271 21 -22 114 -124 206 -227 92 -103 180 -201 196 -217 17 -15 105 -113 198 -217 92 -104 181 -202 198 -219 16 -16 100 -109 185 -205 86 -96 169 -187 184 -203 15 -15 104 -113 197 -217 93 -104 182 -203 198 -218 16 -16 87 -93 157 -173 70 -79 132 -145 136 -147 5 -2 9 1686 9 3752 l0 3755 -114 130 c-63 71 -127 142 -143 158 -15 15 -95 105 -177 198 -83 94 -164 184 -180 200 -17 17 -98 107 -180 200 -83 94 -164 184 -180 200 -17 17 -98 107 -180 200 -83 94 -164 184 -180 200 -17 17 -98 107 -180 200 -83 94 -164 184 -180 200 -17 17 -98 107 -180 200 -83 94 -164 184 -180 200 -17 17 -98 107 -180 200 -82 94 -157 177 -166 185 -9 8 -90 98 -180 200 -90 102 -171 192 -180 200 -9 8 -90 98 -180 200 -90 102 -171 192 -180 200 -9 8 -90 98 -180 200 -90 102 -171 192 -180 200 -9 8 -72 78 -140 155 -68 77 -146 164 -174 193 l-50 52 -1888 0 c-1502 0 -1890 -3 -1893 -12z m4679 -1809 c72 -75 173 -182 224 -237 l92 -99 0 -2891 c0 -1590 -4 -2893 -8 -2896 -10 -6 -72 55 -69 66 1 4 -59 73 -133 153 -74 81 -135 150 -135 155 0 5 -28 40 -63 77 -35 38 -90 97 -122 132 l-60 65 0 335 c-2 1504 8 3298 20 3766 5 193 11 637 12 988 l2 639 55 -59 c30 -32 113 -119 185 -194z m1269 -1425 l107 -110 0 -2913 c0 -1970 -3 -2910 -10 -2906 -6 4 -8 10 -5 15 3 5 -10 21 -30 37 -19 15 -35 33 -35 40 0 6 -9 18 -19 25 -26 18 -191 204 -191 215 0 5 -34 45 -76 88 -41 44 -97 105 -122 135 -26 30 -53 59 -59 63 -7 4 -13 14 -13 21 0 8 -10 20 -22 28 l-22 15 12 439 c7 241 15 1137 17 1989 3 853 8 1879 10 2280 3 402 5 790 5 864 l-1 135 173 -175 c95 -96 221 -224 281 -285z m891 -1015 c72 -75 173 -182 224 -237 l92 -99 0 -2891 c0 -1590 -4 -2893 -8 -2896 -10 -6 -72 55 -69 66 1 4 -59 73 -133 153 -74 81 -135 150 -135 155 0 5 -28 40 -63 77 -35 38 -90 97 -122 132 l-60 65 0 335 c-2 1504 8 3298 20 3766 5 193 11 637 12 988 l2 639 55 -59 c30 -32 113 -119 185 -194z"/>
 <path d="M0 12020 l0 -2040 1800 0 c1088 0 1800 4 1800 9 0 5 -22 33 -48 63 -27 29 -133 150 -237 268 -104 118 -191 217 -194 220 -3 3 -53 59 -111 125 -59 66 -214 242 -345 391 -132 149 -305 344 -384 435 -80 90 -159 180 -178 199 -18 19 -100 112 -181 205 -82 94 -290 330 -462 525 -173 195 -381 432 -464 525 -82 94 -162 184 -179 200 -16 17 -137 154 -269 305 -132 151 -253 285 -269 298 -16 13 -29 30 -29 37 0 8 -14 25 -31 37 -17 13 -37 34 -44 48 -7 14 -45 58 -84 98 -39 40 -71 77 -71 82 0 6 -4 10 -10 10 -7 0 -10 -687 -10 -2040z"/>
 <path d="M7 4733 c-4 -3 -7 -1070 -7 -2370 l0 -2363 6211 0 c4965 0 6209 3 6203 12 -11 17 -204 240 -220 253 -6 6 -78 87 -160 180 -81 94 -153 175 -160 180 -6 6 -76 84 -156 175 -79 91 -157 179 -172 195 -16 17 -81 91 -146 165 -65 74 -137 155 -160 180 -23 25 -95 106 -160 180 -65 74 -137 155 -160 180 -23 25 -95 106 -160 180 -65 74 -130 149 -146 165 -15 17 -93 104 -172 195 -80 91 -150 170 -156 175 -7 6 -79 87 -161 180 -81 94 -155 177 -164 185 -10 8 -75 83 -146 165 -71 83 -165 184 -207 227 -43 42 -78 80 -78 85 0 6 -18 24 -40 42 -22 18 -38 36 -35 41 3 4 -13 23 -35 40 -22 17 -40 37 -40 44 0 7 -38 51 -85 99 -47 48 -85 91 -85 96 0 5 -16 21 -35 35 -19 15 -35 33 -35 41 0 7 -12 23 -26 34 -14 11 -38 37 -53 58 -16 21 -56 66 -90 100 -33 35 -61 67 -61 72 0 5 -20 26 -45 47 -25 20 -45 42 -45 49 0 8 -12 23 -26 34 -14 11 -38 37 -53 58 -16 21 -56 66 -90 100 -33 35 -61 67 -61 72 0 6 -18 25 -40 42 -22 18 -40 36 -40 42 0 8 -132 160 -202 232 -16 17 -42 47 -59 68 l-31 37 -4102 0 c-2257 0 -4106 -3 -4109 -7z"/>
 </g>

</svg>