<!DOCTYPE svg PUBLIC "-//W3C//DTD SVG 20010904//EN" "http://www.w3.org/TR/2001/REC-SVG-20010904/DTD/svg10.dtd">
<svg version="1.0" xmlns="http://www.w3.org/2000/svg" width="1600px" height="1600px" viewBox="0 0 16000 16000" preserveAspectRatio="xMidYMid meet">
<g id="layer101" fill="#4c4c4c" stroke="none">
 <path d="M0 8000 l0 -8000 8000 0 8000 0 0 8000 0 8000 -8000 0 -8000 0 0 -8000z"/>
 </g>
<g id="layer102" fill="#5c6160" stroke="none">
 <path d="M13739 15236 c-3 -3 -23 -8 -45 -10 -64 -7 -96 -14 -149 -30 -27 -9 -79 -25 -115 -36 -36 -11 -119 -36 -185 -57 -66 -20 -127 -37 -135 -38 -8 -1 -40 -11 -70 -22 -30 -11 -86 -29 -125 -41 -38 -12 -124 -38 -190 -59 -66 -20 -127 -37 -135 -38 -8 -1 -40 -11 -70 -22 -30 -11 -86 -29 -125 -41 -38 -12 -124 -38 -190 -59 -66 -20 -127 -37 -135 -38 -8 -1 -40 -11 -70 -22 -30 -11 -86 -29 -125 -41 -38 -12 -124 -38 -190 -59 -66 -20 -127 -37 -135 -38 -8 -1 -40 -11 -70 -22 -30 -11 -86 -29 -125 -41 -38 -11 -124 -37 -190 -58 -66 -21 -123 -37 -127 -36 -5 1 -36 -9 -70 -22 -35 -13 -94 -33 -133 -44 -38 -11 -124 -37 -190 -58 -66 -21 -123 -37 -127 -36 -5 1 -36 -9 -70 -22 -35 -13 -94 -33 -133 -44 -38 -11 -124 -37 -190 -58 -66 -21 -123 -37 -127 -36 -5 1 -36 -9 -70 -22 -35 -13 -94 -33 -133 -44 -38 -11 -124 -37 -190 -58 -66 -21 -123 -37 -127 -36 -5 1 -36 -9 -70 -22 -35 -13 -94 -33 -133 -44 -38 -11 -124 -37 -190 -58 -66 -21 -123 -37 -127 -36 -5 1 -36 -9 -70 -22 -35 -13 -94 -33 -133 -44 -38 -11 -124 -37 -190 -58 -66 -21 -123 -37 -127 -36 -5 1 -36 -9 -70 -22 -35 -13 -94 -33 -133 -44 -38 -11 -124 -37 -190 -58 -66 -21 -123 -37 -127 -36 -5 1 -36 -9 -70 -22 -35 -13 -94 -33 -133 -44 -38 -11 -124 -37 -190 -58 -66 -21 -123 -37 -128 -36 -4 1 -35 -9 -69 -23 -34 -14 -67 -25 -73 -25 -6 0 -38 -8 -71 -19 -32 -10 -113 -36 -179 -57 -66 -21 -123 -37 -127 -36 -5 1 -36 -9 -70 -22 -35 -13 -94 -33 -133 -44 -38 -11 -124 -37 -190 -58 -66 -21 -123 -37 -127 -36 -5 1 -36 -9 -70 -22 -35 -13 -94 -33 -133 -44 -38 -11 -124 -37 -190 -58 -66 -21 -124 -37 -129 -36 -5 2 -12 -1 -15 -5 -5 -8 -25 -14 -126 -42 -16 -5 -70 -21 -120 -36 -49 -15 -110 -33 -135 -40 -25 -8 -65 -20 -90 -29 -44 -15 -244 -76 -385 -118 -38 -11 -92 -29 -119 -39 -27 -11 -54 -19 -61 -19 -7 0 -70 -18 -141 -41 -71 -22 -160 -50 -199 -61 -38 -11 -92 -29 -119 -39 -27 -11 -54 -19 -61 -19 -7 0 -70 -18 -141 -41 -71 -22 -160 -50 -199 -61 -38 -11 -92 -29 -119 -39 -27 -11 -54 -19 -61 -19 -7 0 -70 -18 -141 -41 -71 -22 -160 -50 -199 -61 -38 -11 -92 -29 -119 -39 -27 -11 -54 -19 -61 -19 -7 0 -68 -18 -136 -39 -68 -22 -164 -51 -214 -66 -49 -15 -106 -33 -125 -40 -19 -7 -75 -25 -125 -40 -97 -29 -188 -57 -275 -85 -30 -10 -89 -28 -130 -40 -41 -12 -100 -30 -130 -39 -30 -10 -89 -28 -130 -40 -41 -13 -100 -31 -130 -41 -30 -10 -89 -28 -130 -40 -41 -12 -100 -30 -130 -39 -30 -10 -89 -28 -130 -40 -41 -13 -100 -31 -130 -41 -30 -10 -89 -28 -130 -40 -41 -12 -100 -30 -130 -39 -30 -10 -89 -28 -130 -40 -41 -13 -100 -31 -130 -41 -30 -10 -89 -28 -130 -40 -41 -12 -100 -30 -130 -39 -30 -10 -89 -28 -130 -40 -41 -13 -100 -31 -130 -41 -30 -10 -89 -28 -130 -40 -41 -12 -90 -26 -107 -32 l-33 -10 0 -5514 0 -5514 5154 0 5154 0 5 38 c2 20 5 69 6 107 1 39 9 133 17 210 21 191 23 207 40 310 8 50 17 104 20 120 9 65 34 184 54 265 12 47 26 105 31 130 11 52 56 216 69 245 4 11 13 40 20 65 42 156 250 681 285 720 8 9 15 22 15 28 0 30 199 400 289 536 25 39 57 90 71 114 14 24 35 54 46 67 12 13 24 30 27 37 17 44 248 345 397 517 558 643 1305 1188 2055 1501 44 18 98 41 120 50 68 30 293 110 425 151 113 36 191 58 335 93 l50 13 0 4434 c0 4641 1 4551 -41 4789 -9 47 -17 94 -18 105 -5 29 -45 144 -63 179 -78 150 -285 333 -418 367 -16 4 -50 15 -75 25 -45 16 -318 34 -331 20z"/>
 </g>
<g id="layer103" fill="#9bc4bc" stroke="none">
 <path d="M13663 15220 c-56 -10 -119 -24 -140 -31 -115 -36 -155 -49 -223 -69 -41 -12 -102 -30 -135 -40 -169 -53 -204 -64 -255 -80 -30 -10 -89 -28 -130 -40 -41 -12 -104 -31 -140 -42 -36 -11 -94 -30 -130 -40 -36 -11 -90 -28 -120 -38 -30 -10 -89 -28 -130 -40 -41 -12 -104 -31 -140 -42 -36 -11 -94 -30 -130 -40 -36 -11 -90 -28 -120 -38 -30 -10 -89 -28 -130 -40 -41 -12 -103 -31 -137 -41 -115 -36 -187 -58 -253 -78 -36 -11 -123 -38 -194 -60 -71 -23 -134 -41 -141 -41 -7 0 -34 -8 -61 -19 -27 -10 -80 -28 -119 -39 -38 -11 -128 -39 -199 -61 -71 -23 -134 -41 -141 -41 -7 0 -34 -8 -61 -19 -27 -10 -80 -28 -119 -39 -38 -11 -128 -39 -199 -61 -71 -23 -134 -41 -141 -41 -7 0 -34 -8 -61 -19 -27 -10 -80 -28 -119 -39 -38 -11 -128 -39 -199 -61 -71 -23 -134 -41 -141 -41 -7 0 -34 -8 -61 -19 -27 -10 -80 -28 -119 -39 -38 -11 -128 -39 -199 -61 -71 -23 -134 -41 -141 -41 -7 0 -34 -8 -61 -19 -27 -10 -80 -28 -119 -39 -38 -11 -128 -39 -199 -61 -71 -23 -134 -41 -141 -41 -7 0 -34 -8 -61 -19 -27 -10 -80 -28 -119 -39 -38 -11 -128 -39 -199 -61 -71 -23 -134 -41 -141 -41 -7 0 -34 -8 -61 -19 -27 -10 -80 -28 -119 -39 -141 -42 -341 -103 -385 -118 -25 -9 -67 -22 -95 -29 -27 -8 -115 -35 -195 -60 -80 -26 -161 -50 -180 -54 -19 -5 -53 -15 -75 -23 -22 -9 -71 -25 -110 -36 -38 -11 -128 -39 -199 -61 -71 -23 -134 -41 -141 -41 -7 0 -34 -8 -61 -19 -27 -10 -80 -28 -119 -39 -213 -64 -305 -94 -310 -102 -4 -6 -5 -10 -3 -10 2 0 68 -23 148 -51 80 -27 163 -56 185 -64 22 -7 99 -34 170 -59 72 -26 168 -60 215 -76 47 -16 144 -50 215 -75 72 -26 162 -57 200 -70 39 -13 122 -42 185 -65 63 -22 153 -54 200 -70 47 -16 144 -50 215 -75 72 -26 180 -64 240 -85 61 -21 169 -59 240 -85 72 -25 168 -59 215 -75 73 -25 183 -64 395 -140 28 -9 156 -54 285 -99 129 -46 264 -93 300 -106 36 -12 130 -46 210 -73 155 -54 408 -143 685 -240 94 -33 256 -90 360 -127 105 -36 228 -80 275 -97 47 -16 141 -49 210 -73 69 -24 204 -71 300 -105 96 -34 225 -79 285 -100 61 -21 155 -54 210 -73 55 -20 183 -65 285 -100 102 -36 244 -86 315 -111 72 -26 168 -60 215 -76 47 -16 150 -52 230 -80 80 -28 183 -64 230 -80 47 -16 144 -50 215 -75 152 -55 482 -170 540 -190 22 -7 99 -34 170 -59 72 -26 168 -60 215 -76 47 -16 130 -45 185 -65 174 -63 294 -105 300 -105 3 0 4 1016 2 2258 -3 2408 -2 2361 -52 2612 -40 197 -80 282 -183 392 -214 227 -465 305 -789 248z"/>
 <path d="M5725 12790 c-11 -4 -54 -17 -95 -29 -172 -50 -217 -64 -264 -82 -27 -11 -54 -19 -61 -19 -7 0 -70 -18 -141 -41 -71 -22 -160 -50 -199 -61 -38 -11 -92 -29 -119 -39 -27 -11 -54 -19 -61 -19 -7 0 -70 -18 -141 -41 -71 -22 -160 -50 -199 -61 -38 -11 -92 -29 -119 -39 -27 -11 -54 -19 -61 -19 -7 0 -70 -18 -141 -41 -71 -22 -160 -50 -199 -61 -38 -11 -92 -29 -119 -39 -27 -11 -54 -19 -61 -19 -7 0 -70 -18 -141 -41 -71 -22 -160 -50 -199 -61 -38 -11 -92 -29 -119 -39 -27 -11 -54 -19 -61 -19 -7 0 -68 -18 -136 -39 -68 -22 -159 -50 -202 -63 l-78 -24 1 -948 c0 -902 -1 -948 -17 -941 -10 4 -31 11 -48 15 -16 5 -95 31 -175 59 -80 28 -185 65 -235 81 -49 17 -99 35 -110 40 -24 11 -248 88 -290 100 -16 4 -68 22 -115 40 -47 18 -98 36 -115 40 -42 12 -266 89 -290 100 -11 5 -60 23 -110 40 -49 16 -155 53 -235 81 -80 28 -158 54 -175 59 -16 4 -68 22 -115 40 -47 18 -98 36 -115 40 -16 5 -88 29 -160 55 -244 86 -360 127 -415 145 -30 10 -63 21 -72 25 -17 7 -18 -258 -18 -5479 l0 -5486 5153 2 5152 3 17 205 c72 862 307 1637 721 2370 756 1338 2048 2330 3527 2709 l115 29 0 283 0 282 -55 19 c-30 11 -80 27 -110 38 -30 10 -140 48 -245 85 -104 37 -204 70 -220 74 -17 4 -46 15 -65 23 -43 18 -125 47 -165 58 -16 5 -88 30 -160 55 -71 26 -155 55 -185 65 -30 10 -113 39 -185 65 -71 25 -143 50 -160 55 -43 11 -124 40 -165 58 -19 8 -48 18 -65 23 -16 4 -115 37 -220 74 -104 37 -215 75 -245 85 -30 10 -113 40 -185 65 -71 25 -143 50 -160 54 -41 12 -122 41 -165 59 -19 8 -48 19 -65 23 -16 4 -95 30 -175 58 -80 28 -185 65 -235 81 -49 17 -99 35 -110 40 -24 11 -248 88 -290 100 -16 4 -68 22 -115 40 -47 18 -98 36 -115 40 -42 12 -266 89 -290 100 -11 5 -60 23 -110 40 -49 16 -155 53 -235 81 -80 28 -159 54 -175 58 -17 4 -46 15 -65 23 -43 18 -124 47 -165 59 -16 4 -88 29 -160 54 -71 25 -155 55 -185 65 -30 10 -140 48 -245 85 -104 37 -203 70 -220 74 -16 5 -46 15 -65 23 -41 18 -122 47 -165 58 -16 5 -88 30 -160 55 -71 26 -155 55 -185 65 -30 10 -113 39 -185 65 -71 25 -143 50 -160 55 -40 11 -122 40 -165 58 -19 8 -48 19 -65 23 -16 4 -115 37 -220 74 -104 37 -215 75 -245 85 -30 10 -113 39 -185 65 -71 26 -143 50 -160 55 -16 4 -68 22 -115 40 -47 18 -98 36 -115 40 -16 5 -95 31 -175 59 -80 28 -185 65 -235 81 -49 17 -99 35 -110 40 -26 12 -250 89 -290 99 -16 5 -50 16 -75 26 -25 9 -69 26 -97 37 l-53 20 -2 1908 c-3 1902 -3 1907 -23 1900z"/>
 </g>
<g id="layer104" fill="#a6c9bc" stroke="none">
 <path d="M5725 12790 c-11 -4 -54 -17 -95 -29 -172 -50 -217 -64 -264 -82 -27 -11 -54 -19 -61 -19 -7 0 -70 -18 -141 -41 -71 -22 -160 -50 -199 -61 -38 -11 -92 -29 -119 -39 -27 -11 -54 -19 -61 -19 -7 0 -70 -18 -141 -41 -71 -22 -160 -50 -199 -61 -38 -11 -92 -29 -119 -39 -27 -11 -54 -19 -61 -19 -7 0 -70 -18 -141 -41 -71 -22 -160 -50 -199 -61 -38 -11 -92 -29 -119 -39 -27 -11 -54 -19 -61 -19 -7 0 -70 -18 -141 -41 -71 -22 -160 -50 -199 -61 -38 -11 -92 -29 -119 -39 -27 -11 -54 -19 -61 -19 -7 0 -68 -18 -136 -39 -68 -22 -159 -50 -202 -63 l-78 -24 1 -948 c0 -902 -1 -948 -17 -941 -10 4 -31 11 -48 15 -16 5 -95 31 -175 59 -80 28 -185 65 -235 81 -49 17 -99 35 -110 40 -24 11 -248 88 -290 100 -16 4 -68 22 -115 40 -47 18 -98 36 -115 40 -42 12 -266 89 -290 100 -11 5 -60 23 -110 40 -49 16 -155 53 -235 81 -80 28 -158 54 -175 59 -16 4 -68 22 -115 40 -47 18 -98 36 -115 40 -16 5 -88 29 -160 55 -244 86 -360 127 -415 145 -30 10 -63 21 -72 25 -17 7 -18 -258 -18 -5479 l0 -5486 5153 2 5152 3 17 205 c72 862 307 1637 721 2370 756 1338 2048 2330 3527 2709 l115 29 0 283 0 282 -55 19 c-30 11 -80 27 -110 38 -30 10 -140 48 -245 85 -104 37 -204 70 -220 74 -17 4 -46 15 -65 23 -43 18 -125 47 -165 58 -16 5 -88 30 -160 55 -71 26 -155 55 -185 65 -30 10 -113 39 -185 65 -71 25 -143 50 -160 55 -43 11 -124 40 -165 58 -19 8 -48 18 -65 23 -16 4 -115 37 -220 74 -104 37 -215 75 -245 85 -30 10 -113 40 -185 65 -71 25 -143 50 -160 54 -41 12 -122 41 -165 59 -19 8 -48 19 -65 23 -16 4 -95 30 -175 58 -80 28 -185 65 -235 81 -49 17 -99 35 -110 40 -24 11 -248 88 -290 100 -16 4 -68 22 -115 40 -47 18 -98 36 -115 40 -42 12 -266 89 -290 100 -11 5 -60 23 -110 40 -49 16 -155 53 -235 81 -80 28 -159 54 -175 58 -17 4 -46 15 -65 23 -43 18 -124 47 -165 59 -16 4 -88 29 -160 54 -71 25 -155 55 -185 65 -30 10 -140 48 -245 85 -104 37 -203 70 -220 74 -16 5 -46 15 -65 23 -41 18 -122 47 -165 58 -16 5 -88 30 -160 55 -71 26 -155 55 -185 65 -30 10 -113 39 -185 65 -71 25 -143 50 -160 55 -40 11 -122 40 -165 58 -19 8 -48 19 -65 23 -16 4 -115 37 -220 74 -104 37 -215 75 -245 85 -30 10 -113 39 -185 65 -71 26 -143 50 -160 55 -16 4 -68 22 -115 40 -47 18 -98 36 -115 40 -16 5 -95 31 -175 59 -80 28 -185 65 -235 81 -49 17 -99 35 -110 40 -26 12 -250 89 -290 99 -16 5 -50 16 -75 26 -25 9 -69 26 -97 37 l-53 20 -2 1908 c-3 1902 -3 1907 -23 1900z"/>
 </g>
<g id="layer105" fill="#f5b28c" stroke="none">
 <path d="M5725 12790 c-11 -4 -54 -17 -95 -29 -172 -50 -217 -64 -264 -82 -27 -11 -54 -19 -61 -19 -7 0 -70 -18 -141 -41 -71 -22 -160 -50 -199 -61 -38 -11 -92 -29 -119 -39 -27 -11 -54 -19 -61 -19 -7 0 -70 -18 -141 -41 -71 -22 -160 -50 -199 -61 -38 -11 -92 -29 -119 -39 -27 -11 -54 -19 -61 -19 -7 0 -70 -18 -141 -41 -71 -22 -160 -50 -199 -61 -38 -11 -92 -29 -119 -39 -27 -11 -54 -19 -61 -19 -7 0 -70 -18 -141 -41 -71 -22 -160 -50 -199 -61 -38 -11 -92 -29 -119 -39 -27 -11 -54 -19 -61 -19 -7 0 -68 -18 -136 -39 -68 -22 -159 -50 -202 -63 l-78 -24 1 -948 c0 -902 -1 -948 -17 -941 -10 4 -31 11 -48 15 -16 5 -95 31 -175 59 -80 28 -185 65 -235 81 -49 17 -99 35 -110 40 -24 11 -248 88 -290 100 -16 4 -68 22 -115 40 -47 18 -98 36 -115 40 -42 12 -266 89 -290 100 -11 5 -60 23 -110 40 -49 16 -155 53 -235 81 -80 28 -158 54 -175 59 -16 4 -68 22 -115 40 -47 18 -98 36 -115 40 -16 5 -88 29 -160 55 -355 126 -471 165 -487 165 -5 0 -8 -2466 -8 -5480 l0 -5480 5148 2 5147 3 17 205 c72 862 307 1637 721 2370 756 1338 2048 2330 3527 2709 l115 29 0 283 0 282 -55 19 c-30 11 -80 27 -110 38 -30 10 -140 48 -245 85 -104 37 -204 70 -220 74 -17 4 -46 15 -65 23 -43 18 -125 47 -165 58 -16 5 -88 30 -160 55 -71 26 -155 55 -185 65 -30 10 -113 39 -185 65 -71 25 -143 50 -160 55 -43 11 -124 40 -165 58 -19 8 -48 18 -65 23 -16 4 -115 37 -220 74 -104 37 -215 75 -245 85 -30 10 -113 40 -185 65 -71 25 -143 50 -160 54 -41 12 -122 41 -165 59 -19 8 -48 19 -65 23 -16 4 -95 30 -175 58 -80 28 -185 65 -235 81 -49 17 -99 35 -110 40 -24 11 -248 88 -290 100 -16 4 -68 22 -115 40 -47 18 -98 36 -115 40 -42 12 -266 89 -290 100 -11 5 -60 23 -110 40 -49 16 -155 53 -235 81 -80 28 -159 54 -175 58 -17 4 -46 15 -65 23 -43 18 -124 47 -165 59 -16 4 -88 29 -160 54 -71 25 -155 55 -185 65 -30 10 -140 48 -245 85 -104 37 -203 70 -220 74 -16 5 -46 15 -65 23 -41 18 -122 47 -165 58 -16 5 -88 30 -160 55 -71 26 -155 55 -185 65 -30 10 -113 39 -185 65 -71 25 -143 50 -160 55 -40 11 -122 40 -165 58 -19 8 -48 19 -65 23 -16 4 -115 37 -220 74 -104 37 -215 75 -245 85 -30 10 -113 39 -185 65 -71 26 -143 50 -160 55 -16 4 -68 22 -115 40 -47 18 -98 36 -115 40 -16 5 -95 31 -175 59 -80 28 -185 65 -235 81 -49 17 -99 35 -110 40 -26 12 -250 89 -290 99 -16 5 -50 16 -75 26 -25 9 -69 26 -97 37 l-53 20 -2 1908 c-3 1902 -3 1907 -23 1900z"/>
 </g>
<g id="layer106" fill="#f6e9be" stroke="none">
 <path d="M10 5480 l0 -5480 5148 2 5147 3 17 205 c72 862 307 1637 721 2370 756 1338 2048 2330 3527 2709 l115 29 0 283 0 282 -55 19 c-30 11 -80 27 -110 38 -30 10 -140 48 -245 85 -104 37 -204 70 -220 74 -17 4 -46 15 -65 23 -43 18 -125 47 -165 58 -16 5 -88 30 -160 55 -71 26 -155 55 -185 65 -30 10 -113 39 -185 65 -71 25 -143 50 -160 55 -43 11 -124 40 -165 58 -19 8 -48 18 -65 23 -16 4 -115 37 -220 74 -104 37 -215 75 -245 85 -30 10 -113 40 -185 65 -71 25 -143 50 -160 54 -41 12 -122 41 -165 59 -19 8 -48 19 -65 23 -16 4 -95 30 -175 58 -80 28 -185 65 -235 81 -49 17 -99 35 -110 40 -24 11 -248 88 -290 100 -16 4 -68 22 -115 40 -47 18 -98 36 -115 40 -42 12 -266 89 -290 100 -11 5 -60 23 -110 40 -49 16 -155 53 -235 81 -80 28 -159 54 -175 58 -17 4 -46 15 -65 23 -43 18 -124 47 -165 59 -16 4 -88 29 -160 54 -71 25 -155 55 -185 65 -30 10 -140 48 -245 85 -104 37 -203 70 -220 74 -16 5 -46 15 -65 23 -41 18 -122 47 -165 58 -16 5 -88 30 -160 55 -71 26 -155 55 -185 65 -30 10 -113 39 -185 65 -71 25 -143 50 -160 55 -40 11 -122 40 -165 58 -19 8 -48 19 -65 23 -16 4 -115 37 -220 74 -104 37 -215 75 -245 85 -30 10 -113 39 -185 65 -71 26 -143 50 -160 55 -16 4 -68 22 -115 40 -47 18 -98 36 -115 40 -16 5 -95 31 -175 59 -80 28 -185 65 -235 81 -49 17 -99 35 -110 40 -24 11 -248 88 -290 100 -16 4 -68 22 -115 40 -47 17 -89 32 -95 33 -7 1 -11 -234 -13 -685 l-2 -687 97 -46 c54 -25 143 -71 198 -101 105 -57 106 -58 195 -114 31 -19 63 -39 71 -45 43 -27 176 -121 194 -136 11 -10 56 -46 100 -80 111 -87 253 -222 410 -389 128 -137 349 -434 420 -565 15 -27 36 -61 46 -74 11 -13 19 -30 19 -37 0 -7 6 -19 13 -26 28 -28 227 -461 227 -494 0 -6 7 -26 16 -44 9 -18 20 -46 24 -64 4 -17 15 -51 23 -76 68 -199 125 -482 153 -762 13 -128 15 -224 11 -410 -6 -301 -28 -487 -88 -753 -29 -128 -96 -361 -125 -430 -7 -16 -29 -73 -50 -125 -61 -158 -179 -394 -277 -555 -17 -27 -140 -211 -180 -268 -66 -93 -256 -314 -358 -416 -102 -102 -323 -292 -416 -358 -57 -40 -241 -163 -268 -180 -161 -98 -397 -216 -555 -277 -52 -21 -108 -43 -125 -50 -69 -29 -302 -96 -430 -125 -266 -60 -452 -82 -753 -88 -186 -4 -282 -2 -410 11 -280 28 -563 85 -762 153 -25 8 -59 19 -76 23 -18 4 -46 15 -64 24 -18 9 -38 16 -44 16 -33 0 -466 199 -494 227 -7 7 -19 13 -26 13 -7 0 -24 8 -37 19 -13 10 -46 31 -74 46 -82 44 -175 109 -348 240 -210 160 -460 404 -606 590 -34 44 -70 89 -80 100 -15 18 -109 151 -136 194 -5 8 -26 40 -45 71 -56 89 -57 90 -115 196 -63 115 -165 329 -165 345 0 6 -7 23 -15 37 -18 34 -65 155 -65 169 0 6 -8 32 -19 59 -55 144 -118 411 -158 669 -26 173 -26 803 0 980 74 498 214 914 444 1324 29 51 53 95 53 97 0 15 267 395 295 419 6 6 45 51 86 100 96 115 249 268 364 364 49 41 95 80 100 86 24 28 404 295 419 295 2 0 46 24 97 53 52 29 139 74 194 101 55 26 111 54 125 61 l25 14 3 1194 c2 1131 1 1195 -15 1202 -10 4 -31 11 -48 15 -16 5 -95 31 -175 59 -80 28 -185 65 -235 81 -49 17 -99 35 -110 40 -24 11 -248 88 -290 100 -16 4 -68 22 -115 40 -47 18 -98 36 -115 40 -42 12 -266 89 -290 100 -11 5 -60 23 -110 40 -49 16 -155 53 -235 81 -80 28 -158 54 -175 59 -16 4 -68 22 -115 40 -47 18 -98 36 -115 40 -16 5 -88 29 -160 55 -355 126 -471 165 -487 165 -5 0 -8 -2466 -8 -5480z"/>
 </g>

</svg>