<!DOCTYPE svg PUBLIC "-//W3C//DTD SVG 20010904//EN" "http://www.w3.org/TR/2001/REC-SVG-20010904/DTD/svg10.dtd">
<svg version="1.0" xmlns="http://www.w3.org/2000/svg" width="1600px" height="1600px" viewBox="0 0 16000 16000" preserveAspectRatio="xMidYMid meet">
<g id="layer101" fill="#3f3f3f" stroke="none">
 <path d="M0 8000 l0 -8000 8000 0 8000 0 0 8000 0 8000 -8000 0 -8000 0 0 -8000z"/>
 </g>
<g id="layer102" fill="#546558" stroke="none">
 <path d="M2693 15993 c16 -4 17 -77 17 -1349 l0 -1344 -1355 0 -1355 0 0 -6650 0 -6650 3875 0 3875 0 0 5195 0 5195 1325 0 1325 0 0 -5195 0 -5195 2800 0 2800 0 0 5198 0 5197 -2772 -3 c-1525 -1 -2783 0 -2795 3 l-23 5 0 2800 0 2800 -3867 -1 c-2128 -1 -3860 -3 -3850 -6z"/>
 </g>
<g id="layer103" fill="#6eb07c" stroke="none">
 <path d="M2710 14650 l0 -1350 -1352 -2 -1353 -3 -2 -6648 -3 -6647 3868 2 3867 3 3 5193 2 5192 1330 0 1330 0 0 -5195 0 -5195 2800 0 2800 0 0 5195 0 5195 -2779 0 c-1529 0 -2786 3 -2795 6 -15 6 -16 262 -16 2805 l0 2799 -3850 0 -3850 0 0 -1350z"/>
 </g>
<g id="layer104" fill="#e68e86" stroke="none">
 <path d="M2710 14650 l0 -1350 -1352 -2 -1353 -3 -3 -3837 c-1 -2111 1 -3838 5 -3838 10 0 10373 10363 10373 10373 0 4 -1726 7 -3835 7 l-3835 0 0 -1350z"/>
 <path d="M10410 10392 c-7 -3 -10 -1744 -10 -5198 l0 -5194 2800 0 2800 0 0 5195 0 5195 -2790 2 c-1535 2 -2795 2 -2800 0z"/>
 <path d="M0 2800 l0 -2800 3868 2 3867 3 3 2791 2 2791 -1202 6 c-661 4 -2402 7 -3870 7 l-2668 0 0 -2800z m4870 -1785 l0 -585 -585 0 -585 0 0 585 0 585 585 0 585 0 0 -585z"/>
 </g>
<g id="layer105" fill="#dbaa9a" stroke="none">
 <path d="M2710 14650 l0 -1350 -1352 -2 -1353 -3 -3 -3837 c-1 -2111 1 -3838 5 -3838 10 0 10373 10363 10373 10373 0 4 -1726 7 -3835 7 l-3835 0 0 -1350z"/>
 <path d="M10400 5195 l0 -5195 2800 0 2800 0 0 5195 0 5195 -2800 0 -2800 0 0 -5195z"/>
 <path d="M0 2800 l0 -2800 3868 2 3867 3 3 2791 2 2791 -1202 6 c-661 4 -2402 7 -3870 7 l-2668 0 0 -2800z m4870 -1785 l0 -585 -585 0 -585 0 0 585 0 585 585 0 585 0 0 -585z"/>
 </g>
<g id="layer106" fill="#e2a399" stroke="none">
 <path d="M2710 14650 l0 -1350 -1352 -2 -1353 -3 -3 -3837 c-1 -2111 1 -3838 5 -3838 10 0 10373 10363 10373 10373 0 4 -1726 7 -3835 7 l-3835 0 0 -1350z m805 -1810 c3 -5 4 -10 1 -10 -3 0 -8 5 -11 10 -3 6 -4 10 -1 10 3 0 8 -4 11 -10z m140 -80 c3 -5 4 -10 1 -10 -3 0 -8 5 -11 10 -3 6 -4 10 -1 10 3 0 8 -4 11 -10z m70 -40 c3 -5 4 -10 1 -10 -3 0 -8 5 -11 10 -3 6 -4 10 -1 10 3 0 8 -4 11 -10z m970 -560 c3 -5 4 -10 1 -10 -3 0 -8 5 -11 10 -3 6 -4 10 -1 10 3 0 8 -4 11 -10z m280 -160 c3 -5 4 -10 1 -10 -3 0 -8 5 -11 10 -3 6 -4 10 -1 10 3 0 8 -4 11 -10z"/>
 <path d="M10400 5195 l0 -5195 2800 0 2800 0 0 5195 0 5195 -2800 0 -2800 0 0 -5195z"/>
 <path d="M0 2800 l0 -2800 3868 2 3867 3 3 2791 2 2791 -1202 6 c-661 4 -2402 7 -3870 7 l-2668 0 0 -2800z m4870 -1785 l0 -585 -585 0 -585 0 0 585 0 585 585 0 585 0 0 -585z"/>
 </g>
<g id="layer107" fill="#e5b8ae" stroke="none">
 <path d="M2710 14650 l0 -1350 -1352 -2 -1353 -3 -3 -3837 c-1 -2111 1 -3838 5 -3838 10 0 10373 10363 10373 10373 0 4 -1726 7 -3835 7 l-3835 0 0 -1350z m115 -1410 c3 -5 4 -10 1 -10 -3 0 -8 5 -11 10 -3 6 -4 10 -1 10 3 0 8 -4 11 -10z m270 -158 c-3 -3 -11 0 -18 7 -9 10 -8 11 6 5 10 -3 15 -9 12 -12z m60 -32 c3 -5 4 -10 1 -10 -3 0 -8 5 -11 10 -3 6 -4 10 -1 10 3 0 8 -4 11 -10z m30 -20 c3 -5 4 -10 1 -10 -3 0 -8 5 -11 10 -3 6 -4 10 -1 10 3 0 8 -4 11 -10z m110 -60 c3 -5 4 -10 1 -10 -3 0 -8 5 -11 10 -3 6 -4 10 -1 10 3 0 8 -4 11 -10z m70 -40 c3 -5 4 -10 1 -10 -3 0 -8 5 -11 10 -3 6 -4 10 -1 10 3 0 8 -4 11 -10z m90 -58 c-3 -3 -11 0 -18 7 -9 10 -8 11 6 5 10 -3 15 -9 12 -12z m60 -32 c3 -5 4 -10 1 -10 -3 0 -8 5 -11 10 -3 6 -4 10 -1 10 3 0 8 -4 11 -10z m140 -80 c3 -5 4 -10 1 -10 -3 0 -8 5 -11 10 -3 6 -4 10 -1 10 3 0 8 -4 11 -10z m70 -40 c3 -5 4 -10 1 -10 -3 0 -8 5 -11 10 -3 6 -4 10 -1 10 3 0 8 -4 11 -10z m140 -80 c3 -5 4 -10 1 -10 -3 0 -8 5 -11 10 -3 6 -4 10 -1 10 3 0 8 -4 11 -10z m270 -158 c-3 -3 -11 0 -18 7 -9 10 -8 11 6 5 10 -3 15 -9 12 -12z m90 -52 c3 -5 4 -10 1 -10 -3 0 -8 5 -11 10 -3 6 -4 10 -1 10 3 0 8 -4 11 -10z m110 -60 c3 -5 4 -10 1 -10 -3 0 -8 5 -11 10 -3 6 -4 10 -1 10 3 0 8 -4 11 -10z m160 -98 c-3 -3 -11 0 -18 7 -9 10 -8 11 6 5 10 -3 15 -9 12 -12z m200 -112 c3 -5 4 -10 1 -10 -3 0 -8 5 -11 10 -3 6 -4 10 -1 10 3 0 8 -4 11 -10z m280 -160 c3 -5 4 -10 1 -10 -3 0 -8 5 -11 10 -3 6 -4 10 -1 10 3 0 8 -4 11 -10z m210 -120 c3 -5 4 -10 1 -10 -3 0 -8 5 -11 10 -3 6 -4 10 -1 10 3 0 8 -4 11 -10z m360 -210 c3 -5 4 -10 1 -10 -3 0 -8 5 -11 10 -3 6 -4 10 -1 10 3 0 8 -4 11 -10z"/>
 <path d="M10400 5195 l0 -5195 2800 0 2800 0 0 5195 0 5195 -2800 0 -2800 0 0 -5195z"/>
 <path d="M0 2800 l0 -2800 3868 2 3867 3 3 2791 2 2791 -1202 6 c-661 4 -2402 7 -3870 7 l-2668 0 0 -2800z m4870 -1785 l0 -585 -585 0 -585 0 0 585 0 585 585 0 585 0 0 -585z"/>
 </g>
<g id="layer108" fill="#bedfc2" stroke="none">
 <path d="M2710 14650 l0 -1350 -1352 -2 -1353 -3 -3 -3837 c-1 -2111 1 -3838 5 -3838 10 0 10373 10363 10373 10373 0 4 -1726 7 -3835 7 l-3835 0 0 -1350z m50 -1376 c0 -2 -9 0 -20 6 -11 6 -20 13 -20 16 0 2 9 0 20 -6 11 -6 20 -13 20 -16z m35 -14 c3 -5 2 -10 -4 -10 -5 0 -13 5 -16 10 -3 6 -2 10 4 10 5 0 13 -4 16 -10z m30 -20 c3 -5 4 -10 1 -10 -3 0 -8 5 -11 10 -3 6 -4 10 -1 10 3 0 8 -4 11 -10z m81 -51 c3 -6 -5 -3 -20 6 -14 10 -26 19 -26 22 0 7 39 -17 46 -28z m34 -14 c11 -13 10 -14 -4 -9 -9 3 -16 10 -16 15 0 13 6 11 20 -6z m45 -33 c-3 -3 -11 0 -18 7 -9 10 -8 11 6 5 10 -3 15 -9 12 -12z m55 -28 c0 -2 -9 0 -20 6 -11 6 -20 13 -20 16 0 2 9 0 20 -6 11 -6 20 -13 20 -16z m55 -32 c-3 -3 -11 0 -18 7 -9 10 -8 11 6 5 10 -3 15 -9 12 -12z m60 -32 c3 -5 4 -10 1 -10 -3 0 -8 5 -11 10 -3 6 -4 10 -1 10 3 0 8 -4 11 -10z m30 -20 c3 -5 4 -10 1 -10 -3 0 -8 5 -11 10 -3 6 -4 10 -1 10 3 0 8 -4 11 -10z m40 -20 c3 -5 4 -10 1 -10 -3 0 -8 5 -11 10 -3 6 -4 10 -1 10 3 0 8 -4 11 -10z m85 -52 c0 -6 -6 -5 -15 2 -8 7 -15 14 -15 16 0 2 7 1 15 -2 8 -4 15 -11 15 -16z m90 -55 c0 -7 -39 17 -46 28 -3 6 5 3 20 -6 14 -10 26 -19 26 -22z m55 -31 c-3 -3 -11 0 -18 7 -9 10 -8 11 6 5 10 -3 15 -9 12 -12z m56 -29 c13 -16 12 -17 -3 -4 -10 7 -18 15 -18 17 0 8 8 3 21 -13z m60 -33 l24 -20 -32 16 c-33 15 -41 24 -24 24 5 0 19 -9 32 -20z m94 -58 c-3 -3 -11 0 -18 7 -9 10 -8 11 6 5 10 -3 15 -9 12 -12z m60 -32 c3 -5 4 -10 1 -10 -3 0 -8 5 -11 10 -3 6 -4 10 -1 10 3 0 8 -4 11 -10z m40 -20 c3 -5 2 -10 -4 -10 -5 0 -13 5 -16 10 -3 6 -2 10 4 10 5 0 13 -4 16 -10z m105 -66 c0 -2 -9 0 -20 6 -11 6 -20 13 -20 16 0 2 9 0 20 -6 11 -6 20 -13 20 -16z m76 -45 c3 -6 -5 -3 -20 6 -14 10 -26 19 -26 22 0 7 39 -17 46 -28z m21 -16 c-4 -3 -7 0 -7 7 0 7 3 10 7 7 3 -4 3 -10 0 -14z m58 -31 c-3 -3 -11 0 -18 7 -9 10 -8 11 6 5 10 -3 15 -9 12 -12z m55 -28 c0 -2 -9 0 -20 6 -11 6 -20 13 -20 16 0 2 9 0 20 -6 11 -6 20 -13 20 -16z m55 -32 c-3 -3 -11 0 -18 7 -9 10 -8 11 6 5 10 -3 15 -9 12 -12z m90 -52 c3 -5 4 -10 1 -10 -3 0 -8 5 -11 10 -3 6 -4 10 -1 10 3 0 8 -4 11 -10z m40 -20 c3 -5 4 -10 1 -10 -3 0 -8 5 -11 10 -3 6 -4 10 -1 10 3 0 8 -4 11 -10z m85 -52 c0 -6 -6 -5 -15 2 -8 7 -15 14 -15 16 0 2 7 1 15 -2 8 -4 15 -11 15 -16z m90 -54 c0 -2 -9 0 -20 6 -11 6 -20 13 -20 16 0 2 9 0 20 -6 11 -6 20 -13 20 -16z m55 -32 c-3 -3 -11 0 -18 7 -9 10 -8 11 6 5 10 -3 15 -9 12 -12z m45 -18 c0 -2 -7 -4 -15 -4 -8 0 -15 4 -15 10 0 5 7 7 15 4 8 -4 15 -8 15 -10z m55 -34 c3 -6 -1 -7 -9 -4 -18 7 -21 14 -7 14 6 0 13 -4 16 -10z m30 -20 c3 -5 4 -10 1 -10 -3 0 -8 5 -11 10 -3 6 -4 10 -1 10 3 0 8 -4 11 -10z m80 -48 c-3 -3 -11 0 -18 7 -9 10 -8 11 6 5 10 -3 15 -9 12 -12z m36 -19 c13 -16 12 -17 -3 -4 -10 7 -18 15 -18 17 0 8 8 3 21 -13z m64 -33 c3 -5 2 -10 -4 -10 -5 0 -13 5 -16 10 -3 6 -2 10 4 10 5 0 13 -4 16 -10z m100 -60 c3 -5 4 -10 1 -10 -3 0 -8 5 -11 10 -3 6 -4 10 -1 10 3 0 8 -4 11 -10z m80 -48 c-3 -3 -11 0 -18 7 -9 10 -8 11 6 5 10 -3 15 -9 12 -12z m65 -38 c0 -2 -11 2 -25 8 -14 6 -25 15 -25 20 0 5 11 1 25 -8 14 -9 25 -18 25 -20z m41 -21 c13 -15 12 -15 -8 -4 -24 12 -29 21 -14 21 5 0 15 -7 22 -17z m99 -59 c0 -2 -9 0 -20 6 -11 6 -20 13 -20 16 0 2 9 0 20 -6 11 -6 20 -13 20 -16z m100 -57 c0 -9 -26 4 -55 27 -16 13 -13 13 17 -1 21 -10 38 -22 38 -26z m55 -35 c-3 -3 -11 0 -18 7 -9 10 -8 11 6 5 10 -3 15 -9 12 -12z m55 -28 c0 -2 -9 0 -20 6 -11 6 -20 13 -20 16 0 2 9 0 20 -6 11 -6 20 -13 20 -16z m51 -31 c13 -16 12 -17 -3 -4 -17 13 -22 21 -14 21 2 0 10 -8 17 -17z m104 -61 c-3 -3 -11 0 -18 7 -9 10 -8 11 6 5 10 -3 15 -9 12 -12z m49 -31 c-2 -3 -12 3 -22 13 -16 17 -16 18 5 5 12 -7 20 -15 17 -18z m61 -31 c3 -5 4 -10 1 -10 -3 0 -8 5 -11 10 -3 6 -4 10 -1 10 3 0 8 -4 11 -10z m60 -38 c-3 -3 -11 0 -18 7 -9 10 -8 11 6 5 10 -3 15 -9 12 -12z m55 -27 c11 -13 10 -14 -4 -9 -9 3 -16 10 -16 15 0 13 6 11 20 -6z m75 -42 c11 -7 16 -13 12 -13 -11 0 -67 29 -67 35 0 6 32 -6 55 -22z"/>
 <path d="M10400 5195 l0 -5195 2800 0 2800 0 0 5195 0 5195 -2800 0 -2800 0 0 -5195z"/>
 <path d="M0 2800 l0 -2800 3868 2 3867 3 3 2791 2 2791 -1202 6 c-661 4 -2402 7 -3870 7 l-2668 0 0 -2800z m4870 -1785 l0 -585 -585 0 -585 0 0 585 0 585 585 0 585 0 0 -585z"/>
 </g>
<g id="layer109" fill="#e6c7be" stroke="none">
 <path d="M2710 14652 l0 -1347 38 -20 c20 -10 51 -29 69 -42 17 -13 36 -23 41 -23 5 0 20 -8 33 -19 13 -10 26 -19 29 -19 7 0 67 -34 105 -58 18 -12 42 -25 54 -29 12 -3 21 -11 21 -16 0 -11 -12 -4 -259 138 l-144 83 -1346 -2 -1346 -3 -3 -3837 c-1 -2111 1 -3838 5 -3838 11 0 5858 5848 5853 5853 -3 3 -31 19 -62 37 -32 17 -58 33 -58 35 0 7 28 -1 41 -11 8 -6 32 -20 55 -31 l41 -21 2251 2251 c1239 1239 2252 2255 2252 2260 0 4 -1726 7 -3835 7 l-3835 0 0 -1348z m513 -1642 c15 -7 27 -17 27 -21 0 -4 -25 6 -55 24 -30 17 -55 35 -55 40 0 5 12 0 28 -10 15 -10 39 -25 55 -33z m93 -56 l29 -27 -40 23 c-51 30 -51 30 -33 30 8 0 28 -12 44 -26z m94 -60 c0 -3 -13 3 -30 13 -16 9 -30 21 -30 26 0 5 14 -1 30 -13 17 -12 30 -24 30 -26z m40 -14 c8 -5 12 -11 10 -14 -3 -2 -14 2 -24 10 -22 15 -10 19 14 4z m87 -50 c6 0 22 -9 37 -21 15 -12 44 -30 64 -40 20 -11 26 -17 14 -13 -33 8 -138 72 -154 92 -11 14 -9 14 8 0 11 -10 25 -18 31 -18z m163 -100 c0 -5 -2 -10 -4 -10 -3 0 -8 5 -11 10 -3 6 -1 10 4 10 6 0 11 -4 11 -10z m70 -41 c0 -12 -32 4 -49 25 -12 14 -10 14 18 0 17 -9 31 -20 31 -25z m60 -29 c38 -19 49 -30 33 -30 -11 0 -90 49 -80 50 4 0 26 -9 47 -20z m102 -60 c14 -10 28 -17 30 -14 3 3 8 -2 12 -11 4 -11 -7 -8 -42 11 -59 34 -58 34 -40 34 8 0 27 -9 40 -20z m108 -60 c22 -11 40 -22 40 -25 0 -7 -49 13 -73 30 -30 21 -13 19 33 -5z m106 -66 l29 -26 -32 18 c-18 10 -33 22 -33 26 0 12 5 10 36 -18z m84 -45 c38 -20 48 -29 33 -29 -10 0 -90 49 -81 50 4 0 26 -9 48 -21z m57 -46 c-4 -3 -7 0 -7 7 0 7 3 10 7 7 3 -4 3 -10 0 -14z m63 -23 c13 -11 19 -20 14 -20 -12 1 -44 25 -44 34 0 10 5 7 30 -14z m81 -51 c19 -16 20 -18 4 -10 -34 17 -51 31 -39 31 7 0 22 -9 35 -21z m69 -41 c0 -6 -6 -5 -15 2 -8 7 -15 14 -15 16 0 2 7 1 15 -2 8 -4 15 -11 15 -16z m40 -14 c0 -2 -7 -4 -15 -4 -8 0 -15 4 -15 10 0 5 7 7 15 4 8 -4 15 -8 15 -10z m99 -60 c31 -18 61 -38 67 -43 7 -5 14 -8 17 -5 2 2 10 -2 17 -11 17 -21 -2 -19 -31 3 -13 10 -45 29 -72 42 -55 29 -104 65 -73 53 11 -3 44 -21 75 -39z m169 -103 c3 -10 0 -10 -16 -2 -30 16 -38 33 -11 22 13 -4 25 -14 27 -20z m62 -31 c38 -19 49 -30 33 -30 -11 0 -90 49 -80 50 4 0 26 -9 47 -20z m122 -74 c4 -6 8 -7 8 -3 0 5 12 0 28 -10 46 -30 65 -42 115 -69 27 -14 47 -28 44 -31 -7 -6 -254 133 -263 148 -8 14 59 -21 68 -35z m306 -173 c20 -19 4 -16 -39 9 -22 12 -39 26 -39 30 0 10 56 -19 78 -39z m102 -63 c0 -10 -66 26 -76 42 -3 5 12 0 35 -11 23 -12 41 -26 41 -31z m90 -57 c0 -2 -13 4 -30 14 -16 9 -30 21 -30 25 0 5 14 -1 30 -14 17 -12 30 -23 30 -25z m45 -15 c14 -6 25 -15 25 -20 0 -8 -17 -1 -50 22 -20 13 -7 13 25 -2z m75 -50 c0 -5 -9 -3 -20 4 -11 7 -20 16 -20 20 0 5 9 3 20 -4 11 -7 20 -16 20 -20z m46 -23 c10 -8 14 -15 8 -15 -5 0 -19 7 -30 15 -10 8 -14 15 -8 15 5 0 19 -7 30 -15z m74 -47 c0 -10 -36 7 -45 22 -4 6 5 5 19 -2 14 -6 26 -15 26 -20z"/>
 <path d="M10400 5195 l0 -5195 2800 0 2800 0 0 5195 0 5195 -2800 0 -2800 0 0 -5195z"/>
 <path d="M0 2800 l0 -2800 3868 2 3867 3 3 2791 2 2791 -1202 6 c-661 4 -2402 7 -3870 7 l-2668 0 0 -2800z m4870 -1785 l0 -585 -585 0 -585 0 0 585 0 585 585 0 585 0 0 -585z"/>
 </g>
<g id="layer110" fill="#b6ebcb" stroke="none">
 <path d="M2710 14652 l0 -1348 65 -34 c36 -19 65 -39 65 -44 0 -5 3 -6 6 -3 4 4 21 -3 38 -16 16 -12 36 -22 43 -23 7 -1 20 -9 29 -18 8 -9 20 -16 26 -16 6 0 26 -11 45 -26 18 -14 33 -22 33 -19 0 4 12 -2 28 -12 39 -26 58 -37 142 -84 41 -23 78 -47 82 -53 4 -6 8 -7 8 -3 0 4 8 3 18 -3 9 -6 35 -22 57 -35 22 -14 58 -35 80 -46 22 -12 42 -24 45 -28 3 -3 23 -15 45 -26 22 -11 56 -31 75 -44 55 -37 -1 -15 -71 27 -33 21 -71 43 -85 50 -14 8 -197 112 -407 233 l-381 219 -1345 -2 -1346 -3 -3 -3837 c-1 -2111 1 -3838 5 -3838 11 0 5858 5848 5853 5853 -3 3 -31 19 -62 37 -32 17 -58 33 -58 35 0 7 44 -5 49 -13 3 -4 24 -18 47 -29 l41 -21 2251 2251 c1239 1239 2252 2255 2252 2260 0 4 -1726 7 -3835 7 l-3835 0 0 -1348z m1045 -1947 c22 -14 58 -35 80 -46 22 -12 43 -27 47 -33 4 -6 8 -7 8 -2 0 4 16 -4 35 -18 19 -15 35 -24 35 -20 0 4 8 0 18 -8 9 -8 49 -32 87 -53 85 -46 106 -58 170 -96 28 -16 65 -37 83 -46 17 -9 32 -20 32 -25 0 -4 9 -8 20 -8 11 0 20 -4 20 -9 0 -5 10 -13 22 -17 28 -9 88 -47 88 -56 0 -5 -343 188 -430 242 -22 14 -337 193 -365 208 -14 7 -25 18 -25 23 0 6 7 6 18 -1 9 -6 35 -22 57 -35z m845 -488 c72 -37 110 -61 110 -70 0 -5 4 -6 8 -3 11 7 38 -11 30 -20 -4 -4 -20 2 -35 12 -15 10 -48 30 -73 44 -94 52 -130 75 -130 84 0 5 10 1 23 -8 12 -8 42 -26 67 -39z m207 -119 c6 -5 35 -21 65 -36 64 -34 110 -63 120 -77 4 -5 8 -6 8 -2 0 4 8 3 18 -3 9 -6 35 -22 57 -35 22 -14 58 -35 80 -46 22 -12 43 -27 47 -33 4 -6 8 -7 8 -3 0 5 13 -1 29 -12 16 -12 33 -21 39 -21 5 0 16 -8 23 -17 12 -15 12 -16 -2 -11 -9 4 -101 55 -205 116 -104 60 -219 126 -256 146 -37 21 -70 42 -73 47 -7 10 24 1 42 -13z m703 -403 c8 -6 23 -15 33 -18 9 -4 17 -11 17 -18 0 -6 -14 -2 -32 9 -18 11 -70 41 -115 67 -46 25 -86 51 -89 57 -7 11 160 -76 186 -97z m145 -85 c43 -22 80 -49 74 -54 -6 -7 -159 86 -159 97 0 5 12 1 28 -9 15 -10 41 -25 57 -34z"/>
 <path d="M10406 10373 c-3 -4 -6 -2339 -6 -5190 l1 -5183 2800 0 2799 0 0 5190 0 5190 -2793 0 c-1537 0 -2797 -3 -2801 -7z"/>
 <path d="M0 2800 l0 -2800 3868 2 3867 3 3 2791 2 2791 -1202 6 c-661 4 -2402 7 -3870 7 l-2668 0 0 -2800z m4870 -1785 l0 -585 -585 0 -585 0 0 585 0 585 585 0 585 0 0 -585z"/>
 </g>
<g id="layer111" fill="#e3d7cd" stroke="none">
 <path d="M2710 14652 l0 -1348 65 -34 c36 -19 65 -39 65 -44 0 -5 3 -6 6 -3 4 4 21 -3 38 -16 16 -12 36 -22 43 -23 7 -1 20 -9 29 -18 8 -9 20 -16 26 -16 6 0 26 -11 45 -26 18 -14 33 -22 33 -19 0 4 12 -2 28 -12 39 -26 58 -37 142 -84 41 -23 77 -45 80 -48 3 -3 12 -7 20 -9 8 -2 22 -10 31 -18 8 -8 18 -14 21 -14 16 0 116 -69 110 -75 -4 -5 -1 -5 7 0 7 4 16 4 20 -1 3 -5 24 -18 46 -29 63 -31 105 -62 97 -70 -4 -5 1 -5 10 -2 9 3 27 -2 40 -11 24 -18 44 -30 118 -71 25 -14 48 -30 52 -35 4 -6 8 -7 8 -2 0 4 16 -4 35 -18 19 -15 35 -25 35 -22 0 3 16 -6 36 -19 19 -13 44 -27 55 -30 11 -4 17 -10 15 -14 -3 -4 4 -8 15 -8 10 -1 32 -10 47 -21 15 -10 34 -22 42 -26 8 -3 38 -20 65 -36 28 -17 65 -38 83 -47 17 -9 32 -20 32 -25 0 -4 9 -8 20 -8 11 0 20 -4 20 -8 0 -5 17 -16 38 -25 21 -9 47 -25 58 -34 11 -10 26 -19 34 -21 8 -2 22 -9 30 -16 8 -7 33 -22 55 -33 64 -31 105 -57 105 -66 0 -5 4 -6 9 -2 5 3 15 -1 23 -8 7 -7 27 -20 43 -29 150 -78 195 -105 207 -123 4 -5 8 -6 8 -2 0 4 8 3 18 -3 9 -6 35 -22 57 -35 22 -14 58 -35 80 -46 22 -12 43 -27 47 -33 4 -6 8 -7 8 -3 0 5 13 -1 29 -12 16 -12 34 -21 39 -21 6 0 18 -10 26 -22 9 -12 16 -19 16 -15 0 9 166 -78 191 -99 8 -8 21 -14 28 -14 6 0 14 -7 17 -15 4 -8 9 -13 13 -10 4 2 27 -9 52 -26 24 -16 49 -29 54 -29 6 0 23 -12 38 -26 15 -14 37 -27 49 -29 12 -3 24 -8 27 -13 3 -4 24 -18 47 -29 l41 -21 2251 2251 c1239 1239 2252 2255 2252 2260 0 4 -1726 7 -3835 7 l-3835 0 0 -1348z"/>
 <path d="M10406 10373 c-3 -4 -6 -2339 -6 -5190 l1 -5183 2800 0 2799 0 0 5190 0 5190 -2793 0 c-1537 0 -2797 -3 -2801 -7z"/>
 <path d="M0 2800 l0 -2800 3868 2 3867 3 3 2791 2 2791 -1202 6 c-661 4 -2402 7 -3870 7 l-2668 0 0 -2800z m3240 -1785 l0 -585 -585 0 -585 0 0 585 0 585 585 0 585 0 0 -585z m1630 0 l0 -585 -585 0 -585 0 0 585 0 585 585 0 585 0 0 -585z"/>
 </g>
<g id="layer112" fill="#ffffff" stroke="none">
 <path d="M0 2800 l0 -2800 3868 2 3867 3 3 2791 2 2791 -1202 6 c-661 4 -2402 7 -3870 7 l-2668 0 0 -2800z m1610 -1785 l0 -585 -585 0 -585 0 0 585 0 585 585 0 585 0 0 -585z m1630 0 l0 -585 -585 0 -585 0 0 585 0 585 585 0 585 0 0 -585z m1630 0 l0 -585 -585 0 -585 0 0 585 0 585 585 0 585 0 0 -585z"/>
 </g>

</svg>