<!DOCTYPE svg PUBLIC "-//W3C//DTD SVG 20010904//EN" "http://www.w3.org/TR/2001/REC-SVG-20010904/DTD/svg10.dtd">
<svg version="1.0" xmlns="http://www.w3.org/2000/svg" width="1600px" height="1600px" viewBox="0 0 16000 16000" preserveAspectRatio="xMidYMid meet">
<g id="layer101" fill="#4c4c4c" stroke="none">
 <path d="M0 8000 l0 -8000 8000 0 8000 0 0 8000 0 8000 -8000 0 -8000 0 0 -8000z"/>
 </g>
<g id="layer102" fill="#eb3b71" stroke="none">
 <path d="M0 10524 l0 -5477 1538 7 1537 7 530 -530 530 -531 5 3925 5 3925 2112 -2112 2112 -2113 -128 -220 c-270 -467 -486 -841 -693 -1200 -144 -249 -296 -514 -361 -625 -27 -47 -120 -206 -205 -355 -228 -396 -247 -429 -386 -670 -71 -121 -189 -326 -263 -455 -75 -129 -209 -361 -298 -515 -89 -154 -224 -388 -300 -520 -77 -132 -162 -280 -191 -330 l-52 -90 -2746 0 -2746 0 0 -1322 0 -1323 8000 0 8000 0 0 6458 0 6457 -6455 -3 -6455 -2 0 1545 0 1545 -1545 0 -1545 0 0 -5476z"/>
 <path d="M4446 5053 l-50 -4 520 -520 c285 -285 522 -519 527 -519 4 0 6 235 5 523 l-3 522 -475 1 c-261 0 -497 -1 -524 -3z"/>
 </g>
<g id="layer103" fill="#d84f73" stroke="none">
 <path d="M5727 10268 l2642 -2643 -128 -220 c-270 -467 -486 -841 -693 -1200 -144 -249 -296 -514 -361 -625 -27 -47 -120 -206 -205 -355 -228 -396 -247 -429 -386 -670 -71 -121 -189 -326 -263 -455 -75 -129 -209 -361 -298 -515 -89 -154 -224 -388 -300 -520 -77 -132 -162 -280 -191 -330 l-52 -90 -2746 -3 -2746 -2 0 -1320 0 -1320 8000 0 8000 0 0 6455 0 6455 -6457 0 -6458 0 2642 -2642z m7513 -8958 l0 -780 -780 0 -780 0 0 780 0 780 780 0 780 0 0 -780z m2140 0 l0 -780 -780 0 -780 0 0 780 0 780 780 0 780 0 0 -780z"/>
 <path d="M363 5053 c202 -2 532 -2 735 0 202 1 36 2 -368 2 -404 0 -570 -1 -367 -2z"/>
 <path d="M3090 5052 c0 -4 236 -243 525 -532 l525 -525 0 533 0 532 -525 0 c-289 0 -525 -3 -525 -8z"/>
 <path d="M4446 5053 l-50 -4 520 -520 c285 -285 522 -519 527 -519 4 0 6 235 5 523 l-3 522 -475 1 c-261 0 -497 -1 -524 -3z"/>
 </g>
<g id="layer104" fill="#9adbbb" stroke="none">
 <path d="M5727 10268 l2642 -2643 -128 -220 c-270 -467 -486 -841 -693 -1200 -144 -249 -296 -514 -361 -625 -27 -47 -120 -206 -205 -355 -228 -396 -247 -429 -386 -670 -71 -121 -189 -326 -263 -455 -75 -129 -209 -361 -298 -515 -89 -154 -224 -388 -300 -520 -77 -132 -162 -280 -191 -330 l-52 -90 -2746 -3 -2746 -2 0 -1320 0 -1320 8000 0 8000 0 0 6455 0 6455 -6457 0 -6458 0 2642 -2642z m7513 -8958 l0 -780 -780 0 -780 0 0 780 0 780 780 0 780 0 0 -780z m2140 0 l0 -780 -780 0 -780 0 0 780 0 780 780 0 780 0 0 -780z"/>
 <path d="M3090 5052 c0 -4 236 -243 525 -532 l525 -525 0 533 0 532 -525 0 c-289 0 -525 -3 -525 -8z"/>
 <path d="M4446 5053 l-50 -4 520 -520 c285 -285 522 -519 527 -519 4 0 6 235 5 523 l-3 522 -475 1 c-261 0 -497 -1 -524 -3z"/>
 </g>
<g id="layer105" fill="#ffffff" stroke="none">
 <path d="M8231 7388 c-74 -128 -199 -345 -279 -483 -157 -271 -236 -408 -387 -670 -126 -219 -315 -546 -378 -655 -27 -47 -120 -206 -205 -355 -228 -396 -247 -429 -386 -670 -71 -121 -189 -326 -263 -455 -75 -129 -209 -361 -298 -515 -89 -154 -224 -388 -300 -520 -77 -132 -162 -280 -191 -330 l-52 -90 -2746 -3 -2746 -2 0 -1320 0 -1320 8000 0 8000 0 0 1320 0 1320 -3765 0 c-2071 0 -3765 2 -3765 4 0 4 387 678 470 821 37 63 505 873 540 935 20 36 146 254 280 485 426 737 490 849 490 854 0 8 -1873 1881 -1880 1881 -3 0 -66 -105 -139 -232z m5009 -6078 l0 -780 -780 0 -780 0 0 780 0 780 780 0 780 0 0 -780z m2140 0 l0 -780 -780 0 -780 0 0 780 0 780 780 0 780 0 0 -780z"/>
 <path d="M3090 5052 c0 -4 236 -243 525 -532 l525 -525 0 533 0 532 -525 0 c-289 0 -525 -3 -525 -8z"/>
 <path d="M4446 5053 l-50 -4 520 -520 c285 -285 522 -519 527 -519 4 0 6 235 5 523 l-3 522 -475 1 c-261 0 -497 -1 -524 -3z"/>
 </g>

</svg>