<!DOCTYPE svg PUBLIC "-//W3C//DTD SVG 20010904//EN" "http://www.w3.org/TR/2001/REC-SVG-20010904/DTD/svg10.dtd">
<svg version="1.0" xmlns="http://www.w3.org/2000/svg" width="1600px" height="1600px" viewBox="0 0 16000 16000" preserveAspectRatio="xMidYMid meet">
<g id="layer101" fill="#2f2f2f" stroke="none">
 <path d="M0 8000 l0 -8000 8000 0 8000 0 0 8000 0 8000 -8000 0 -8000 0 0 -8000z"/>
 </g>
<g id="layer102" fill="#8497a8" stroke="none">
 <path d="M0 10898 l0 -5103 1500 1500 c824 824 1500 1497 1502 1495 2 -3 1 -1310 -2 -2905 l-5 -2900 -1487 -1477 c-818 -813 -1492 -1478 -1497 -1478 -6 0 -11 -7 -11 -15 0 -13 566 -15 5033 -15 l5032 0 -3 745 -2 745 260 0 260 0 -2 -745 -3 -745 250 0 250 0 -3 740 -2 740 255 0 255 0 0 -740 0 -740 250 0 250 0 0 735 0 735 255 0 255 0 0 -735 0 -735 250 0 250 0 0 740 0 740 255 0 255 0 0 -740 0 -740 253 0 252 0 -3 740 -2 740 260 0 260 0 -2 -740 -3 -740 693 0 692 0 -1 8003 c0 4464 -4 7993 -9 7982 -5 -11 -1157 -1169 -2562 -2573 l-2553 -2552 -2895 2 -2895 3 1763 1763 1762 1762 -438 0 -437 0 -3590 -3590 c-1974 -1974 -3593 -3590 -3597 -3590 -5 0 -8 166 -8 368 l0 368 3449 3447 3448 3447 811 0 811 0 186 185 c102 102 185 187 185 190 0 3 -492 5 -1093 5 l-1092 0 -3350 -3350 -3350 -3350 -3 362 -2 363 2497 2502 c1374 1376 2797 2804 3162 3172 l665 671 1473 0 1473 0 205 205 205 205 -5110 0 -5110 0 0 -5102z m3430 1807 c-1587 -1587 -2888 -2885 -2892 -2885 -5 0 -8 165 -8 368 l0 367 2515 2518 2516 2517 377 0 377 0 -2885 -2885z m-840 730 c-366 -366 -668 -665 -672 -665 -5 0 -8 299 -8 665 l0 665 672 0 673 0 -665 -665z m2110 -3610 l0 -665 -672 0 -673 0 665 665 c366 366 668 665 672 665 5 0 8 -299 8 -665z"/>
 </g>
<g id="layer103" fill="#94a6b6" stroke="none">
 <path d="M0 10905 c0 -2802 3 -5095 7 -5095 5 0 679 671 1500 1492 821 821 1493 1490 1495 1488 2 -3 1 -1310 -2 -2905 l-5 -2900 -1490 -1480 c-820 -814 -1494 -1485 -1498 -1492 -6 -11 952 -13 5023 -13 l5030 0 0 745 0 745 260 0 260 0 0 -745 0 -745 245 0 245 0 0 740 0 740 260 0 260 0 0 -740 0 -740 245 0 245 0 0 735 0 735 255 0 255 0 2 -733 3 -732 245 0 245 0 3 738 2 737 255 0 255 0 0 -740 0 -740 250 0 250 0 0 740 0 740 260 0 260 0 0 -740 0 -740 690 0 690 0 0 7992 c0 4395 -2 7989 -5 7987 -2 -2 -1155 -1155 -2562 -2562 l-2558 -2557 -2895 2 -2895 3 1763 1763 1762 1762 -438 0 -437 0 -3590 -3590 c-1974 -1974 -3593 -3590 -3597 -3590 -5 0 -8 166 -8 368 l0 368 3449 3447 3448 3447 811 0 811 0 186 185 c102 102 185 187 185 190 0 3 -492 5 -1093 5 l-1092 0 -3350 -3350 -3350 -3350 -3 362 -2 363 2497 2502 c1374 1376 2797 2804 3162 3172 l665 671 1473 0 1473 0 200 200 c110 110 200 202 200 205 0 3 -2297 5 -5105 5 l-5105 0 0 -5095z m3430 1800 c-1587 -1587 -2888 -2885 -2892 -2885 -5 0 -8 165 -8 368 l0 367 2515 2518 2516 2517 377 0 377 0 -2885 -2885z m-840 730 c-366 -366 -668 -665 -672 -665 -5 0 -8 299 -8 665 l0 665 672 0 673 0 -665 -665z m2110 -3610 l0 -665 -672 0 -673 0 665 665 c366 366 668 665 672 665 5 0 8 -299 8 -665z"/>
 </g>
<g id="layer104" fill="#9fb5c7" stroke="none">
 <path d="M0 10905 c0 -2802 3 -5095 7 -5095 5 0 679 671 1500 1492 821 821 1493 1490 1495 1488 2 -3 1 -1310 -2 -2905 l-5 -2900 -1490 -1480 c-820 -814 -1494 -1485 -1498 -1492 -6 -11 952 -13 5023 -13 l5030 0 0 745 0 745 260 0 260 0 0 -745 0 -745 246 0 246 0 -4 1338 c-3 735 -3 1068 -1 739 l3 -597 260 0 260 0 0 -740 0 -740 245 0 245 0 0 735 0 735 255 0 255 0 2 -733 3 -732 245 0 245 0 3 738 2 737 255 0 255 0 0 -740 0 -740 250 0 250 0 0 740 0 740 260 0 260 0 0 -740 0 -740 690 0 690 0 0 4455 c0 3285 -3 4455 -11 4455 -9 0 -9 4 0 14 8 10 10 940 9 3535 l-3 3521 -2560 -2560 -2560 -2560 -2895 2 -2895 3 1763 1763 1762 1762 -438 0 -437 0 -3590 -3590 c-1974 -1974 -3593 -3590 -3597 -3590 -5 0 -8 166 -8 368 l0 368 3449 3447 3448 3447 811 0 811 0 186 185 c102 102 185 187 185 190 0 3 -492 5 -1093 5 l-1092 0 -3350 -3350 -3350 -3350 -3 362 -2 363 2497 2502 c1374 1376 2797 2804 3162 3172 l665 671 1473 0 1473 0 200 200 c110 110 200 202 200 205 0 3 -2297 5 -5105 5 l-5105 0 0 -5095z m3430 1800 c-1587 -1587 -2888 -2885 -2892 -2885 -5 0 -8 165 -8 368 l0 367 2515 2518 2516 2517 377 0 377 0 -2885 -2885z m-840 730 c-366 -366 -668 -665 -672 -665 -5 0 -8 299 -8 665 l0 665 672 0 673 0 -665 -665z m2110 -3610 l0 -665 -672 0 -673 0 665 665 c366 366 668 665 672 665 5 0 8 -299 8 -665z m11270 -929 c0 -2 -8 -10 -17 -17 -16 -13 -17 -12 -4 4 13 16 21 21 21 13z m-40 -40 c0 -2 -8 -10 -17 -17 -16 -13 -17 -12 -4 4 13 16 21 21 21 13z m-40 -40 c0 -2 -8 -10 -17 -17 -16 -13 -17 -12 -4 4 13 16 21 21 21 13z m-40 -40 c0 -2 -8 -10 -17 -17 -16 -13 -17 -12 -4 4 13 16 21 21 21 13z m-40 -40 c0 -2 -8 -10 -17 -17 -16 -13 -17 -12 -4 4 13 16 21 21 21 13z m-40 -40 c0 -2 -8 -10 -17 -17 -16 -13 -17 -12 -4 4 13 16 21 21 21 13z m-40 -40 c0 -2 -8 -10 -17 -17 -16 -13 -17 -12 -4 4 13 16 21 21 21 13z m-40 -40 c0 -2 -8 -10 -17 -17 -16 -13 -17 -12 -4 4 13 16 21 21 21 13z m-40 -40 c0 -2 -8 -10 -17 -17 -16 -13 -17 -12 -4 4 13 16 21 21 21 13z m-40 -40 c0 -2 -8 -10 -17 -17 -16 -13 -17 -12 -4 4 13 16 21 21 21 13z m-40 -40 c0 -2 -8 -10 -17 -17 -16 -13 -17 -12 -4 4 13 16 21 21 21 13z m-40 -40 c0 -2 -8 -10 -17 -17 -16 -13 -17 -12 -4 4 13 16 21 21 21 13z m-40 -40 c0 -2 -8 -10 -17 -17 -16 -13 -17 -12 -4 4 13 16 21 21 21 13z m-40 -40 c0 -2 -8 -10 -17 -17 -16 -13 -17 -12 -4 4 13 16 21 21 21 13z m-40 -40 c0 -2 -8 -10 -17 -17 -16 -13 -17 -12 -4 4 13 16 21 21 21 13z m-40 -40 c0 -2 -8 -10 -17 -17 -16 -13 -17 -12 -4 4 13 16 21 21 21 13z m-40 -40 c0 -2 -8 -10 -17 -17 -16 -13 -17 -12 -4 4 13 16 21 21 21 13z m-40 -40 c0 -2 -8 -10 -17 -17 -16 -13 -17 -12 -4 4 13 16 21 21 21 13z m-40 -40 c0 -2 -8 -10 -17 -17 -16 -13 -17 -12 -4 4 13 16 21 21 21 13z m-40 -40 c0 -2 -8 -10 -17 -17 -16 -13 -17 -12 -4 4 13 16 21 21 21 13z m-40 -40 c0 -2 -8 -10 -17 -17 -16 -13 -17 -12 -4 4 13 16 21 21 21 13z m-40 -40 c0 -2 -8 -10 -17 -17 -16 -13 -17 -12 -4 4 13 16 21 21 21 13z m-40 -40 c0 -2 -8 -10 -17 -17 -16 -13 -17 -12 -4 4 13 16 21 21 21 13z m-40 -40 c0 -2 -8 -10 -17 -17 -16 -13 -17 -12 -4 4 13 16 21 21 21 13z m-40 -40 c0 -2 -8 -10 -17 -17 -16 -13 -17 -12 -4 4 13 16 21 21 21 13z m-40 -40 c0 -2 -8 -10 -17 -17 -16 -13 -17 -12 -4 4 13 16 21 21 21 13z m-40 -40 c0 -2 -8 -10 -17 -17 -16 -13 -17 -12 -4 4 13 16 21 21 21 13z m-40 -40 c0 -2 -8 -10 -17 -17 -16 -13 -17 -12 -4 4 13 16 21 21 21 13z m-40 -40 c0 -2 -8 -10 -17 -17 -16 -13 -17 -12 -4 4 13 16 21 21 21 13z m-40 -40 c0 -2 -8 -10 -17 -17 -16 -13 -17 -12 -4 4 13 16 21 21 21 13z m-40 -40 c0 -2 -8 -10 -17 -17 -16 -13 -17 -12 -4 4 13 16 21 21 21 13z m-40 -40 c0 -2 -8 -10 -17 -17 -16 -13 -17 -12 -4 4 13 16 21 21 21 13z m-40 -40 c0 -2 -8 -10 -17 -17 -16 -13 -17 -12 -4 4 13 16 21 21 21 13z m-40 -40 c0 -2 -8 -10 -17 -17 -16 -13 -17 -12 -4 4 13 16 21 21 21 13z m-40 -40 c0 -2 -8 -10 -17 -17 -16 -13 -17 -12 -4 4 13 16 21 21 21 13z m-40 -40 c0 -2 -8 -10 -17 -17 -16 -13 -17 -12 -4 4 13 16 21 21 21 13z m-40 -40 c0 -2 -8 -10 -17 -17 -16 -13 -17 -12 -4 4 13 16 21 21 21 13z m-40 -40 c0 -2 -8 -10 -17 -17 -16 -13 -17 -12 -4 4 13 16 21 21 21 13z m-40 -40 c0 -2 -8 -10 -17 -17 -16 -13 -17 -12 -4 4 13 16 21 21 21 13z m-40 -40 c0 -2 -8 -10 -17 -17 -16 -13 -17 -12 -4 4 13 16 21 21 21 13z m-40 -39 c0 -2 -17 -19 -37 -38 l-38 -34 34 38 c33 34 41 42 41 34z m-80 -81 c0 -2 -8 -10 -17 -17 -16 -13 -17 -12 -4 4 13 16 21 21 21 13z m-40 -40 c0 -2 -8 -10 -17 -17 -16 -13 -17 -12 -4 4 13 16 21 21 21 13z m-40 -40 c0 -2 -8 -10 -17 -17 -16 -13 -17 -12 -4 4 13 16 21 21 21 13z m-40 -40 c0 -2 -8 -10 -17 -17 -16 -13 -17 -12 -4 4 13 16 21 21 21 13z m-40 -40 c0 -2 -8 -10 -17 -17 -16 -13 -17 -12 -4 4 13 16 21 21 21 13z m-40 -40 c0 -2 -8 -10 -17 -17 -16 -13 -17 -12 -4 4 13 16 21 21 21 13z m-40 -40 c0 -2 -8 -10 -17 -17 -16 -13 -17 -12 -4 4 13 16 21 21 21 13z m-40 -40 c0 -2 -8 -10 -17 -17 -16 -13 -17 -12 -4 4 13 16 21 21 21 13z m-40 -40 c0 -2 -8 -10 -17 -17 -16 -13 -17 -12 -4 4 13 16 21 21 21 13z m-40 -40 c0 -2 -8 -10 -17 -17 -16 -13 -17 -12 -4 4 13 16 21 21 21 13z m-40 -40 c0 -2 -8 -10 -17 -17 -16 -13 -17 -12 -4 4 13 16 21 21 21 13z m-40 -40 c0 -2 -8 -10 -17 -17 -16 -13 -17 -12 -4 4 13 16 21 21 21 13z m-40 -40 c0 -2 -8 -10 -17 -17 -16 -13 -17 -12 -4 4 13 16 21 21 21 13z m-40 -40 c0 -2 -8 -10 -17 -17 -16 -13 -17 -12 -4 4 13 16 21 21 21 13z m-40 -40 c0 -2 -8 -10 -17 -17 -16 -13 -17 -12 -4 4 13 16 21 21 21 13z m-40 -40 c0 -2 -8 -10 -17 -17 -16 -13 -17 -12 -4 4 13 16 21 21 21 13z m-40 -40 c0 -2 -8 -10 -17 -17 -16 -13 -17 -12 -4 4 13 16 21 21 21 13z m-40 -40 c0 -2 -8 -10 -17 -17 -16 -13 -17 -12 -4 4 13 16 21 21 21 13z m-40 -40 c0 -2 -8 -10 -17 -17 -16 -13 -17 -12 -4 4 13 16 21 21 21 13z m-40 -40 c0 -2 -8 -10 -17 -17 -16 -13 -17 -12 -4 4 13 16 21 21 21 13z m-40 -40 c0 -2 -8 -10 -17 -17 -16 -13 -17 -12 -4 4 13 16 21 21 21 13z m-40 -40 c0 -2 -8 -10 -17 -17 -16 -13 -17 -12 -4 4 13 16 21 21 21 13z m-40 -40 c0 -2 -8 -10 -17 -17 -16 -13 -17 -12 -4 4 13 16 21 21 21 13z m-40 -40 c0 -2 -8 -10 -17 -17 -16 -13 -17 -12 -4 4 13 16 21 21 21 13z m-40 -40 c0 -2 -8 -10 -17 -17 -16 -13 -17 -12 -4 4 13 16 21 21 21 13z m-40 -40 c0 -2 -8 -10 -17 -17 -16 -13 -17 -12 -4 4 13 16 21 21 21 13z m-40 -40 c0 -2 -8 -10 -17 -17 -16 -13 -17 -12 -4 4 13 16 21 21 21 13z m-40 -40 c0 -2 -8 -10 -17 -17 -16 -13 -17 -12 -4 4 13 16 21 21 21 13z m-40 -40 c0 -2 -8 -10 -17 -17 -16 -13 -17 -12 -4 4 13 16 21 21 21 13z m-40 -40 c0 -2 -8 -10 -17 -17 -16 -13 -17 -12 -4 4 13 16 21 21 21 13z m-40 -40 c0 -2 -8 -10 -17 -17 -16 -13 -17 -12 -4 4 13 16 21 21 21 13z m-40 -40 c0 -2 -8 -10 -17 -17 -16 -13 -17 -12 -4 4 13 16 21 21 21 13z m-40 -40 c0 -2 -8 -10 -17 -17 -16 -13 -17 -12 -4 4 13 16 21 21 21 13z m-40 -40 c0 -2 -8 -10 -17 -17 -16 -13 -17 -12 -4 4 13 16 21 21 21 13z m-40 -40 c0 -2 -8 -10 -17 -17 -16 -13 -17 -12 -4 4 13 16 21 21 21 13z m-40 -40 c0 -2 -8 -10 -17 -17 -16 -13 -17 -12 -4 4 13 16 21 21 21 13z m-40 -40 c0 -2 -8 -10 -17 -17 -16 -13 -17 -12 -4 4 13 16 21 21 21 13z m-40 -40 c0 -2 -8 -10 -17 -17 -16 -13 -17 -12 -4 4 13 16 21 21 21 13z m-40 -40 c0 -2 -8 -10 -17 -17 -16 -13 -17 -12 -4 4 13 16 21 21 21 13z m-40 -40 c0 -2 -8 -10 -17 -17 -16 -13 -17 -12 -4 4 13 16 21 21 21 13z m-40 -40 c0 -2 -8 -10 -17 -17 -16 -13 -17 -12 -4 4 13 16 21 21 21 13z m-40 -40 c0 -2 -8 -10 -17 -17 -16 -13 -17 -12 -4 4 13 16 21 21 21 13z m-40 -40 c0 -2 -8 -10 -17 -17 -16 -13 -17 -12 -4 4 13 16 21 21 21 13z m-40 -40 c0 -2 -8 -10 -17 -17 -16 -13 -17 -12 -4 4 13 16 21 21 21 13z m-40 -40 c0 -2 -8 -10 -17 -17 -16 -13 -17 -12 -4 4 13 16 21 21 21 13z m-40 -40 c0 -2 -8 -10 -17 -17 -16 -13 -17 -12 -4 4 13 16 21 21 21 13z m-40 -40 c0 -2 -8 -10 -17 -17 -16 -13 -17 -12 -4 4 13 16 21 21 21 13z m-40 -40 c0 -2 -8 -10 -17 -17 -16 -13 -17 -12 -4 4 13 16 21 21 21 13z m-40 -40 c0 -2 -8 -10 -17 -17 -16 -13 -17 -12 -4 4 13 16 21 21 21 13z m-40 -40 c0 -2 -8 -10 -17 -17 -16 -13 -17 -12 -4 4 13 16 21 21 21 13z m-40 -40 c0 -2 -8 -10 -17 -17 -16 -13 -17 -12 -4 4 13 16 21 21 21 13z m-40 -40 c0 -2 -8 -10 -17 -17 -16 -13 -17 -12 -4 4 13 16 21 21 21 13z m-40 -40 c0 -2 -8 -10 -17 -17 -16 -13 -17 -12 -4 4 13 16 21 21 21 13z m-40 -40 c0 -2 -8 -10 -17 -17 -16 -13 -17 -12 -4 4 13 16 21 21 21 13z m-40 -40 c0 -2 -8 -10 -17 -17 -16 -13 -17 -12 -4 4 13 16 21 21 21 13z m-40 -40 c0 -2 -8 -10 -17 -17 -16 -13 -17 -12 -4 4 13 16 21 21 21 13z m-40 -40 c0 -2 -8 -10 -17 -17 -16 -13 -17 -12 -4 4 13 16 21 21 21 13z m-40 -40 c0 -2 -8 -10 -17 -17 -16 -13 -17 -12 -4 4 13 16 21 21 21 13z m-40 -40 c0 -2 -8 -10 -17 -17 -16 -13 -17 -12 -4 4 13 16 21 21 21 13z m-40 -40 c0 -2 -8 -10 -17 -17 -16 -13 -17 -12 -4 4 13 16 21 21 21 13z m-40 -40 c0 -2 -8 -10 -17 -17 -16 -13 -17 -12 -4 4 13 16 21 21 21 13z m-40 -40 c0 -2 -8 -10 -17 -17 -16 -13 -17 -12 -4 4 13 16 21 21 21 13z m-40 -40 c0 -2 -8 -10 -17 -17 -16 -13 -17 -12 -4 4 13 16 21 21 21 13z m-40 -40 c0 -2 -8 -10 -17 -17 -16 -13 -17 -12 -4 4 13 16 21 21 21 13z m-40 -40 c0 -2 -8 -10 -17 -17 -16 -13 -17 -12 -4 4 13 16 21 21 21 13z m-40 -40 c0 -2 -8 -10 -17 -17 -16 -13 -17 -12 -4 4 13 16 21 21 21 13z m-40 -40 c0 -2 -8 -10 -17 -17 -16 -13 -17 -12 -4 4 13 16 21 21 21 13z m-40 -40 c0 -2 -8 -10 -17 -17 -16 -13 -17 -12 -4 4 13 16 21 21 21 13z m-40 -40 c0 -2 -8 -10 -17 -17 -16 -13 -17 -12 -4 4 13 16 21 21 21 13z m-40 -40 c0 -2 -8 -10 -17 -17 -16 -13 -17 -12 -4 4 13 16 21 21 21 13z m-40 -40 c0 -2 -8 -10 -17 -17 -16 -13 -17 -12 -4 4 13 16 21 21 21 13z m-40 -40 c0 -2 -8 -10 -17 -17 -16 -13 -17 -12 -4 4 13 16 21 21 21 13z m-40 -40 c0 -2 -8 -10 -17 -17 -16 -13 -17 -12 -4 4 13 16 21 21 21 13z m-40 -40 c0 -2 -8 -10 -17 -17 -16 -13 -17 -12 -4 4 13 16 21 21 21 13z m-40 -40 c0 -2 -8 -10 -17 -17 -16 -13 -17 -12 -4 4 13 16 21 21 21 13z m-40 -40 c0 -2 -8 -10 -17 -17 -16 -13 -17 -12 -4 4 13 16 21 21 21 13z m-40 -40 c0 -2 -8 -10 -17 -17 -16 -13 -17 -12 -4 4 13 16 21 21 21 13z m-40 -40 c0 -2 -8 -10 -17 -17 -16 -13 -17 -12 -4 4 13 16 21 21 21 13z m-40 -40 c0 -2 -8 -10 -17 -17 -16 -13 -17 -12 -4 4 13 16 21 21 21 13z m-40 -40 c0 -2 -8 -10 -17 -17 -16 -13 -17 -12 -4 4 13 16 21 21 21 13z m-40 -40 c0 -2 -8 -10 -17 -17 -16 -13 -17 -12 -4 4 13 16 21 21 21 13z m-40 -40 c0 -2 -8 -10 -17 -17 -16 -13 -17 -12 -4 4 13 16 21 21 21 13z m-40 -40 c0 -2 -8 -10 -17 -17 -16 -13 -17 -12 -4 4 13 16 21 21 21 13z m-40 -40 c0 -2 -8 -10 -17 -17 -16 -13 -17 -12 -4 4 13 16 21 21 21 13z m-40 -40 c0 -2 -8 -10 -17 -17 -16 -13 -17 -12 -4 4 13 16 21 21 21 13z m-40 -40 c0 -2 -8 -10 -17 -17 -16 -13 -17 -12 -4 4 13 16 21 21 21 13z m-40 -40 c0 -2 -8 -10 -17 -17 -16 -13 -17 -12 -4 4 13 16 21 21 21 13z m-40 -40 c0 -2 -8 -10 -17 -17 -16 -13 -17 -12 -4 4 13 16 21 21 21 13z m-40 -40 c0 -2 -8 -10 -17 -17 -16 -13 -17 -12 -4 4 13 16 21 21 21 13z m-40 -40 c0 -2 -8 -10 -17 -17 -16 -13 -17 -12 -4 4 13 16 21 21 21 13z m-40 -40 c0 -2 -8 -10 -17 -17 -16 -13 -17 -12 -4 4 13 16 21 21 21 13z m-40 -40 c0 -2 -8 -10 -17 -17 -16 -13 -17 -12 -4 4 13 16 21 21 21 13z m-40 -40 c0 -2 -8 -10 -17 -17 -16 -13 -17 -12 -4 4 13 16 21 21 21 13z m-40 -40 c0 -2 -8 -10 -17 -17 -16 -13 -17 -12 -4 4 13 16 21 21 21 13z m-40 -40 c0 -2 -8 -10 -17 -17 -16 -13 -17 -12 -4 4 13 16 21 21 21 13z m-40 -40 c0 -2 -8 -10 -17 -17 -16 -13 -17 -12 -4 4 13 16 21 21 21 13z m-40 -40 c0 -2 -8 -10 -17 -17 -16 -13 -17 -12 -4 4 13 16 21 21 21 13z m-40 -40 c0 -2 -8 -10 -17 -17 -16 -13 -17 -12 -4 4 13 16 21 21 21 13z m-40 -40 c0 -2 -8 -10 -17 -17 -16 -13 -17 -12 -4 4 13 16 21 21 21 13z m-40 -40 c0 -2 -8 -10 -17 -17 -16 -13 -17 -12 -4 4 13 16 21 21 21 13z m-40 -40 c0 -2 -8 -10 -17 -17 -16 -13 -17 -12 -4 4 13 16 21 21 21 13z m-40 -40 c0 -2 -8 -10 -17 -17 -16 -13 -17 -12 -4 4 13 16 21 21 21 13z m-40 -40 c0 -2 -8 -10 -17 -17 -16 -13 -17 -12 -4 4 13 16 21 21 21 13z m-40 -40 c0 -2 -8 -10 -17 -17 -16 -13 -17 -12 -4 4 13 16 21 21 21 13z m-40 -40 c0 -2 -8 -10 -17 -17 -16 -13 -17 -12 -4 4 13 16 21 21 21 13z m-40 -40 c0 -3 -5 -8 -12 -12 -7 -4 -8 -3 -4 4 7 12 16 16 16 8z"/>
 </g>
<g id="layer105" fill="#b2cae0" stroke="none">
 <path d="M0 10905 c0 -2802 3 -5095 7 -5095 5 0 679 671 1500 1492 821 821 1493 1490 1495 1488 2 -3 1 -1310 -2 -2905 l-5 -2900 -1490 -1480 c-820 -814 -1494 -1485 -1498 -1492 -6 -11 952 -13 5023 -13 l5030 0 0 745 0 745 260 0 260 0 0 -745 0 -745 246 0 246 0 -4 1338 c-3 735 -3 1068 -1 739 l3 -597 260 0 260 0 0 -740 0 -740 245 0 245 0 0 735 0 735 255 0 255 0 2 -733 3 -732 245 0 245 0 -1 738 0 737 258 0 258 0 0 -740 0 -740 250 0 250 0 0 740 0 740 260 0 260 0 0 -740 0 -740 690 0 690 0 0 2182 0 2182 -32 -30 -32 -29 32 38 32 38 0 2264 c0 1246 -3 2265 -7 2265 -5 0 -1340 -1331 -2968 -2957 l-2960 -2958 2968 2970 2967 2970 -2 3523 -3 3522 -2560 -2560 -2560 -2560 -2895 2 -2895 3 1763 1763 1762 1762 -438 0 -437 0 -3590 -3590 c-1974 -1974 -3593 -3590 -3597 -3590 -5 0 -8 166 -8 368 l0 368 3449 3447 3448 3447 811 0 811 0 186 185 c102 102 185 187 185 190 0 3 -492 5 -1093 5 l-1092 0 -3350 -3350 -3350 -3350 -3 362 -2 363 2497 2502 c1374 1376 2797 2804 3162 3172 l665 671 1473 0 1473 0 200 200 c110 110 200 202 200 205 0 3 -2297 5 -5105 5 l-5105 0 0 -5095z m3430 1800 c-1587 -1587 -2888 -2885 -2892 -2885 -5 0 -8 165 -8 368 l0 367 2515 2518 2516 2517 377 0 377 0 -2885 -2885z m-840 730 c-366 -366 -668 -665 -672 -665 -5 0 -8 299 -8 665 l0 665 672 0 673 0 -665 -665z m2110 -3610 l0 -665 -672 0 -673 0 665 665 c366 366 668 665 672 665 5 0 8 -299 8 -665z m11230 -5529 c0 -2 -8 -10 -17 -17 -16 -13 -17 -12 -4 4 13 16 21 21 21 13z m-40 -40 c0 -2 -8 -10 -17 -17 -16 -13 -17 -12 -4 4 13 16 21 21 21 13z"/>
 </g>
<g id="layer106" fill="#eee9d8" stroke="none">
 <path d="M4430 15275 l-725 -725 -1127 0 -1128 0 0 -42 c0 -24 0 -531 0 -1128 l0 -1084 -725 -726 -725 -725 0 -2518 c0 -1384 3 -2517 7 -2517 5 0 679 671 1500 1492 821 821 1493 1490 1495 1488 2 -3 1 -1310 -2 -2905 l-5 -2900 -1490 -1480 c-820 -814 -1494 -1485 -1498 -1492 -6 -11 548 -13 2905 -13 l2913 0 1493 1493 1492 1492 0 1033 0 1032 1038 0 1037 0 2558 2558 2557 2557 -2 2908 -3 2907 -2560 -2560 -2560 -2560 -2895 2 -2895 3 1763 1763 1762 1762 -438 0 -437 0 -3590 -3590 c-1974 -1974 -3593 -3590 -3597 -3590 -5 0 -8 166 -8 368 l0 368 3449 3447 3448 3447 811 0 811 0 186 185 c102 102 185 187 185 190 0 3 -492 5 -1093 5 l-1092 0 -3350 -3350 -3350 -3350 -3 362 -2 363 2497 2502 c1374 1376 2797 2804 3162 3172 l665 671 1473 0 1473 0 200 200 c110 110 200 202 200 205 0 3 -1137 5 -2528 5 l-2527 0 -725 -725z m-1000 -2570 c-1587 -1587 -2888 -2885 -2892 -2885 -5 0 -8 165 -8 368 l0 367 2515 2518 2516 2517 377 0 377 0 -2885 -2885z m-840 730 c-366 -366 -668 -665 -672 -665 -5 0 -8 299 -8 665 l0 665 672 0 673 0 -665 -665z m2110 -3610 l0 -665 -672 0 -673 0 665 665 c366 366 668 665 672 665 5 0 8 -299 8 -665z"/>
 <path d="M13022 5947 l-2962 -2962 0 -748 0 -747 260 0 260 0 0 750 0 750 245 0 245 0 0 -755 0 -755 255 0 255 0 0 755 0 755 248 0 249 0 6 -232 c4 -128 7 -470 7 -761 l0 -527 248 2 247 3 5 755 c3 415 7 756 8 758 1 1 112 2 247 2 l245 0 0 -755 0 -755 255 0 255 0 0 755 0 755 250 0 250 0 0 -755 0 -755 258 2 257 3 3 755 2 755 690 690 690 690 0 2268 c0 1247 -3 2267 -8 2267 -4 0 -1340 -1333 -2970 -2963z"/>
 </g>
<g id="layer107" fill="#fafafa" stroke="none">
 <path d="M4430 15275 l-725 -725 -1127 0 -1128 0 0 -42 c0 -24 0 -531 0 -1128 l0 -1084 -725 -726 -725 -725 0 -2518 c0 -1384 3 -2517 7 -2517 5 0 679 671 1498 1490 l1490 1490 1038 0 1037 0 0 1030 0 1030 1763 1763 1762 1762 -434 3 -433 2 -3590 -3590 c-1975 -1974 -3594 -3590 -3599 -3590 -5 0 -9 166 -9 371 l0 371 3225 3222 c1774 1771 3330 3323 3458 3449 l232 227 807 0 807 0 188 188 188 187 -1095 3 -1095 2 -3348 -3347 c-1841 -1842 -3350 -3350 -3352 -3352 -3 -2 -5 165 -5 372 0 314 2 377 14 377 7 0 16 9 19 20 3 11 12 20 20 20 8 0 17 9 20 20 3 11 12 20 20 20 8 0 17 9 20 20 3 11 12 20 20 20 8 0 17 9 20 20 3 11 12 20 20 20 8 0 17 9 20 20 3 11 12 20 20 20 8 0 17 9 20 20 3 11 12 20 20 20 8 0 17 9 20 20 3 11 12 20 20 20 8 0 17 9 20 20 3 11 12 20 20 20 8 0 17 9 20 20 3 11 12 20 20 20 8 0 17 9 20 20 3 11 12 20 20 20 8 0 17 9 20 20 3 11 12 20 20 20 8 0 17 9 20 20 3 11 12 20 20 20 8 0 17 9 20 20 3 11 12 20 20 20 8 0 17 9 20 20 3 11 12 20 20 20 8 0 17 9 20 20 3 11 12 20 20 20 8 0 17 9 20 20 3 11 12 20 20 20 8 0 17 9 20 20 3 11 12 20 20 20 8 0 17 9 20 20 3 11 12 20 20 20 8 0 17 9 20 20 3 11 12 20 20 20 8 0 17 9 20 20 3 11 12 20 20 20 8 0 17 9 20 20 3 11 12 20 20 20 8 0 17 9 20 20 3 11 12 20 20 20 8 0 17 9 20 20 3 11 12 20 20 20 8 0 17 9 20 20 3 11 12 20 20 20 8 0 17 9 20 20 3 11 12 20 20 20 8 0 17 9 20 20 3 11 12 20 20 20 8 0 17 9 20 20 3 11 12 20 20 20 8 0 17 9 20 20 3 11 12 20 20 20 8 0 17 9 20 20 3 11 12 20 20 20 8 0 17 9 20 20 3 11 12 20 20 20 8 0 17 9 20 20 3 11 12 20 20 20 8 0 17 9 20 20 3 11 12 20 20 20 8 0 17 9 20 20 3 11 12 20 20 20 8 0 17 9 20 20 3 11 12 20 20 20 8 0 17 9 20 20 3 11 12 20 20 20 8 0 17 9 20 20 3 11 12 20 20 20 8 0 17 9 20 20 3 11 12 20 20 20 8 0 17 9 20 20 3 11 12 20 20 20 8 0 17 9 20 20 3 11 12 20 20 20 8 0 17 9 20 20 3 11 12 20 21 20 9 0 16 7 16 16 0 9 9 18 20 21 11 3 20 12 20 20 0 8 9 17 20 20 11 3 20 12 20 20 0 8 9 17 20 20 11 3 20 12 20 20 0 8 9 17 20 20 11 3 20 12 20 20 0 8 9 17 20 20 11 3 20 12 20 20 0 8 9 17 20 20 11 3 20 12 20 20 0 8 9 17 20 20 11 3 20 12 20 20 0 8 9 17 20 20 11 3 20 12 20 20 0 8 9 17 20 20 11 3 20 12 20 20 0 8 9 17 20 20 11 3 20 12 20 20 0 8 9 17 20 20 11 3 20 12 20 20 0 8 9 17 20 20 11 3 20 12 20 20 0 8 9 17 20 20 11 3 20 12 20 20 0 8 9 17 20 20 11 3 20 12 20 20 0 8 9 17 20 20 11 3 20 12 20 20 0 8 9 17 20 20 11 3 20 12 20 20 0 8 9 17 20 20 11 3 20 12 20 20 0 8 9 17 20 20 11 3 20 12 20 20 0 8 9 17 20 20 11 3 20 12 20 20 0 8 9 17 20 20 11 3 20 12 20 20 0 8 9 17 20 20 11 3 20 12 20 20 0 8 9 17 20 20 11 3 20 12 20 20 0 8 9 17 20 20 11 3 20 12 20 20 0 8 9 17 20 20 11 3 20 12 20 20 0 8 9 17 20 20 11 3 20 12 20 20 0 8 9 17 20 20 11 3 20 12 20 20 0 8 9 17 20 20 11 3 20 12 20 20 0 8 9 17 20 20 11 3 20 12 20 20 0 8 9 17 20 20 11 3 20 12 20 20 0 8 9 17 20 20 11 3 20 12 20 20 0 8 9 17 20 20 11 3 20 12 20 20 0 8 9 17 20 20 11 3 20 12 20 20 0 8 9 17 20 20 11 3 20 12 20 20 0 8 9 17 20 20 11 3 20 12 20 20 0 8 9 17 20 20 11 3 20 12 20 20 0 8 9 17 20 20 11 3 20 12 20 20 0 8 9 17 20 20 11 3 20 12 20 20 0 8 9 17 19 20 11 3 21 13 24 24 3 10 12 19 20 19 8 0 17 9 20 20 3 11 12 20 20 20 8 0 17 9 20 20 3 11 12 20 20 20 8 0 17 9 20 20 3 11 12 20 20 20 8 0 17 9 20 20 3 11 12 20 20 20 8 0 17 9 20 20 3 11 12 20 20 20 8 0 17 9 20 20 3 11 12 20 20 20 8 0 17 9 20 20 3 11 12 20 20 20 8 0 17 9 20 20 3 11 12 20 20 20 8 0 17 9 20 20 3 11 12 20 20 20 8 0 17 9 20 20 3 11 12 20 20 20 8 0 17 9 20 20 3 11 12 20 20 20 8 0 17 9 20 20 3 11 12 20 20 20 8 0 17 9 20 20 3 11 12 20 20 20 8 0 17 9 20 20 3 11 12 20 20 20 8 0 17 9 20 20 3 11 12 20 20 20 8 0 17 9 20 20 3 11 12 20 20 20 8 0 17 9 20 20 3 11 12 20 20 20 8 0 17 9 20 20 3 11 12 20 20 20 8 0 17 9 20 20 3 11 12 20 20 20 8 0 17 9 20 20 3 11 12 20 20 20 8 0 17 9 20 20 3 11 12 20 20 20 8 0 17 9 20 20 3 11 12 20 20 20 8 0 17 9 20 20 3 11 12 20 20 20 8 0 17 9 20 20 3 11 12 20 20 20 8 0 17 9 20 20 3 11 12 20 21 20 9 0 16 7 16 16 0 9 9 18 20 21 11 3 20 12 20 20 0 8 9 17 20 20 11 3 20 12 20 20 0 8 9 17 20 20 11 3 20 12 20 20 0 8 9 17 20 20 11 3 20 12 20 20 0 8 9 17 20 20 11 3 20 12 20 20 0 8 9 17 20 20 11 3 20 12 20 20 0 8 9 17 20 20 11 3 20 12 20 20 0 8 9 17 20 20 11 3 20 12 20 20 0 8 9 17 20 20 11 3 20 12 20 20 0 8 9 17 20 20 11 3 20 12 20 20 0 8 9 17 20 20 11 3 20 12 20 20 0 8 9 17 20 20 11 3 20 12 20 20 0 8 9 17 20 20 11 3 20 12 20 20 0 8 9 17 20 20 11 3 20 12 20 20 0 8 9 17 20 20 11 3 20 12 20 20 0 8 9 17 20 20 11 3 20 12 20 20 0 8 9 17 20 20 11 3 20 12 20 20 0 8 9 17 20 20 11 3 20 12 20 20 0 8 9 17 20 20 11 3 20 10 20 17 0 6 29 37 65 69 36 33 65 63 65 69 0 5 278 288 619 629 l618 619 1477 0 1476 0 200 200 c110 110 200 202 200 205 0 3 -1137 5 -2528 5 l-2527 0 -725 -725z m1890 321 c0 -7 -5770 -5771 -5780 -5774 -7 -2 -10 131 -10 378 0 373 0 382 20 387 11 3 20 12 20 20 0 8 9 17 20 20 11 3 20 12 20 20 0 8 9 17 20 20 11 3 20 12 20 20 0 8 9 17 20 20 11 3 20 12 20 20 0 8 9 17 20 20 11 3 20 12 20 20 0 8 9 17 20 20 11 3 20 12 20 20 0 8 9 17 20 20 11 3 20 12 20 20 0 8 9 17 20 20 11 3 20 12 20 20 0 8 9 17 20 20 11 3 20 12 20 20 0 8 9 17 20 20 11 3 20 12 20 20 0 8 9 17 20 20 11 3 20 12 20 20 0 8 9 17 20 20 11 3 20 12 20 20 0 8 9 17 20 20 11 3 20 12 20 20 0 8 9 17 20 20 11 3 20 12 20 20 0 8 9 17 20 20 11 3 20 12 20 20 0 8 9 17 20 20 11 3 20 12 20 20 0 8 9 17 20 20 11 3 20 12 20 20 0 8 9 17 20 20 11 3 20 12 20 20 0 8 9 17 20 20 11 3 20 12 20 20 0 8 9 17 20 20 11 3 20 12 20 20 0 8 9 17 20 20 11 3 20 12 20 20 0 8 9 17 20 20 11 3 20 12 20 20 0 8 9 17 20 20 11 3 20 12 20 20 0 8 9 17 20 20 11 3 20 12 20 20 0 8 9 17 20 20 11 3 20 12 20 20 0 8 9 17 20 20 11 3 20 12 20 20 0 8 9 17 20 20 11 3 20 12 20 20 0 8 9 17 20 20 11 3 20 12 20 20 0 8 9 17 20 20 11 3 20 12 20 20 0 8 9 17 20 20 11 3 20 12 20 20 0 8 9 17 20 20 11 3 20 12 20 20 0 8 9 17 20 20 11 3 20 12 20 20 0 8 9 17 20 20 11 3 20 12 20 20 0 8 9 17 20 20 11 3 20 12 20 20 0 8 9 17 20 20 11 3 20 12 20 20 0 8 9 17 19 20 11 3 21 13 24 24 3 10 12 19 20 19 8 0 17 9 20 20 3 11 12 20 20 20 8 0 17 9 20 20 3 11 12 20 20 20 8 0 17 9 20 20 3 11 12 20 20 20 8 0 17 9 20 20 3 11 12 20 20 20 8 0 17 9 20 20 3 11 12 20 20 20 8 0 17 9 20 20 3 11 12 20 20 20 8 0 17 9 20 20 3 11 12 20 20 20 8 0 17 9 20 20 3 11 12 20 20 20 8 0 17 9 20 20 3 11 12 20 20 20 8 0 17 9 20 20 3 11 12 20 20 20 8 0 17 9 20 20 3 11 12 20 20 20 8 0 17 9 20 20 3 11 12 20 20 20 8 0 17 9 20 20 3 11 12 20 20 20 8 0 17 9 20 20 3 11 12 20 20 20 8 0 17 9 20 20 3 11 12 20 20 20 8 0 17 9 20 20 3 11 12 20 20 20 8 0 17 9 20 20 3 11 12 20 21 20 9 0 16 7 16 16 0 9 9 18 20 21 11 3 20 12 20 20 0 8 9 17 20 20 11 3 20 12 20 20 0 8 9 17 20 20 11 3 20 12 20 20 0 8 9 17 20 20 11 3 20 12 20 20 0 8 9 17 20 20 11 3 20 12 20 20 0 8 9 17 20 20 11 3 20 12 20 20 0 8 9 17 20 20 11 3 20 12 20 20 0 8 9 17 20 20 11 3 20 12 20 20 0 8 9 17 20 20 11 3 20 12 20 20 0 8 9 17 20 20 11 3 20 12 20 20 0 8 9 17 20 20 11 3 20 12 20 20 0 8 9 17 20 20 11 3 20 12 20 20 0 8 9 17 20 20 11 3 20 8 20 12 0 8 1182 1191 1191 1191 4 0 9 9 12 20 3 11 12 20 20 20 8 0 17 9 20 20 3 11 12 20 21 20 9 0 16 7 16 16 0 9 9 18 20 21 11 3 20 12 20 20 0 8 9 17 20 20 11 3 20 12 20 20 0 8 9 17 20 20 11 3 20 12 20 20 0 8 9 17 20 20 11 3 20 12 20 20 0 8 9 17 20 20 11 3 20 12 20 20 0 8 9 17 20 20 11 3 20 12 20 20 0 8 9 17 20 20 11 3 20 12 20 20 0 8 9 17 20 20 11 3 20 12 20 20 0 8 9 17 20 20 11 3 20 12 20 20 0 8 9 17 20 20 11 3 20 12 20 20 0 8 9 17 20 20 11 3 20 12 20 20 0 8 9 17 20 20 11 3 20 12 20 20 0 8 9 17 19 20 11 3 21 13 24 24 3 10 12 19 20 19 8 0 17 9 20 20 3 11 12 20 20 20 8 0 17 9 20 20 3 11 12 20 20 20 8 0 17 9 20 20 3 11 12 20 20 20 8 0 17 9 20 20 3 11 12 20 20 20 8 0 17 9 20 20 3 11 12 20 20 20 8 0 17 9 20 20 3 11 12 20 20 20 8 0 17 9 20 20 3 11 12 20 21 20 9 0 16 7 16 16 0 9 9 18 19 21 11 3 21 13 24 24 3 10 12 19 21 19 9 0 16 7 16 16 0 9 9 18 20 21 11 3 20 12 20 20 0 8 9 17 20 20 11 3 20 12 20 20 0 8 9 17 19 20 11 3 21 13 24 24 5 18 22 19 389 22 210 1 386 3 391 5 4 1 7 0 7 -2z m-3069 -1491 c6 -5 -1323 -1335 -1334 -1335 -9 0 -10 1324 0 1333 7 8 1327 10 1334 2z m1449 -4282 l0 -668 -487 3 c-269 1 -571 3 -672 5 l-183 2 661 663 c364 364 666 662 671 662 7 0 10 -232 10 -667z"/>
 <path d="M13440 13425 l-2555 -2555 -5 -2907 c-3 -1600 -4 -2910 -2 -2913 2 -2 1155 1148 2562 2555 l2560 2560 -2 2908 -3 2907 -2555 -2555z"/>
 <path d="M10067 2983 c-4 -3 -7 -341 -7 -750 l0 -743 260 0 260 0 0 750 0 750 -253 0 c-140 0 -257 -3 -260 -7z"/>
 <path d="M11070 2235 l0 -755 255 0 255 0 0 755 0 755 -255 0 -255 0 0 -755z"/>
 <path d="M12083 2758 c4 -128 7 -470 7 -760 l0 -528 245 0 c187 0 247 3 250 13 3 6 6 348 7 760 l3 747 -259 0 -259 0 6 -232z"/>
 <path d="M13090 2235 l0 -755 255 0 255 0 0 755 0 755 -255 0 -255 0 0 -755z"/>
 <path d="M14107 2983 c-4 -3 -7 -343 -7 -755 l0 -748 258 2 257 3 3 753 2 752 -253 0 c-140 0 -257 -3 -260 -7z"/>
 <path d="M1502 1503 c-818 -813 -1491 -1483 -1495 -1490 -6 -11 548 -13 2905 -13 l2913 0 1490 1490 1490 1490 -2908 0 -2907 0 -1488 -1477z"/>
 </g>

</svg>