<!DOCTYPE svg PUBLIC "-//W3C//DTD SVG 20010904//EN" "http://www.w3.org/TR/2001/REC-SVG-20010904/DTD/svg10.dtd">
<svg version="1.0" xmlns="http://www.w3.org/2000/svg" width="1600px" height="1600px" viewBox="0 0 16000 16000" preserveAspectRatio="xMidYMid meet">
<g id="layer101" fill="#26596c" stroke="none">
 <path d="M0 8000 l0 -8000 8000 0 8000 0 0 8000 0 8000 -8000 0 -8000 0 0 -8000z"/>
 </g>
<g id="layer102" fill="#417286" stroke="none">
 <path d="M0 11455 c0 -4035 2 -4544 15 -4540 8 3 23 8 33 11 9 4 24 8 32 10 21 4 102 26 120 32 8 3 20 6 25 7 6 0 17 4 25 8 22 10 103 29 122 28 10 0 20 4 23 9 3 5 28 12 56 16 27 4 52 10 55 15 2 4 11 6 18 3 8 -3 17 -1 20 5 4 5 28 13 54 17 26 3 52 10 57 14 6 4 37 13 70 20 33 6 67 15 75 20 9 4 43 13 75 20 33 7 69 16 80 21 22 9 577 159 610 164 11 2 45 11 75 20 30 10 64 19 75 20 32 6 149 37 165 45 8 3 47 15 85 24 96 24 147 37 165 44 8 2 22 6 30 8 20 4 101 25 120 32 8 3 22 6 30 8 30 6 105 27 125 35 11 4 45 13 75 20 30 6 64 15 75 20 11 4 45 13 75 19 30 7 62 16 70 20 9 4 43 13 75 20 33 7 69 16 80 20 11 5 31 11 45 14 35 7 133 34 205 56 33 10 121 33 195 51 74 18 144 36 155 40 27 11 136 41 160 44 11 2 45 11 75 20 30 10 64 19 75 21 11 1 39 8 63 15 23 6 44 10 45 8 1 -2 1 -606 -1 -1341 l-2 -1338 -60 0 c-32 0 -110 -7 -172 -15 -378 -52 -719 -224 -984 -497 -260 -266 -418 -589 -469 -956 -100 -734 293 -1453 965 -1765 209 -97 460 -157 657 -157 l63 0 0 -945 0 -945 6050 0 6050 0 0 7130 0 7130 -33 -14 c-19 -7 -56 -19 -83 -25 -27 -6 -98 -25 -159 -41 -60 -17 -135 -37 -165 -44 -30 -8 -89 -23 -130 -35 -211 -58 -269 -73 -308 -81 -24 -5 -64 -16 -90 -24 -26 -9 -83 -25 -127 -36 -44 -11 -113 -29 -152 -40 -40 -11 -106 -29 -145 -40 -40 -11 -109 -29 -153 -40 -74 -20 -124 -33 -295 -80 -36 -9 -103 -27 -150 -40 -47 -12 -116 -30 -155 -40 -105 -28 -197 -50 -222 -54 -12 -2 -35 -8 -50 -15 -36 -14 -203 -59 -265 -71 -26 -5 -56 -14 -68 -20 -12 -7 -36 -13 -54 -15 -17 -3 -56 -11 -86 -20 -30 -9 -62 -18 -70 -19 -8 -1 -49 -12 -90 -25 -152 -46 -207 -61 -227 -61 -11 0 -38 -7 -59 -16 -21 -9 -52 -18 -69 -20 -39 -4 -122 -28 -131 -37 -4 -4 -16 -7 -27 -7 -12 0 -50 -9 -86 -19 -166 -49 -323 -90 -361 -96 -14 -2 -44 -11 -65 -19 -22 -9 -60 -20 -85 -25 -48 -10 -131 -32 -220 -59 -30 -9 -64 -17 -75 -18 -11 -1 -45 -9 -75 -19 -30 -9 -65 -17 -77 -19 -12 -2 -35 -8 -50 -15 -34 -14 -201 -59 -263 -71 -25 -5 -62 -16 -83 -25 -21 -8 -42 -13 -46 -11 -5 3 -26 -1 -47 -8 -22 -8 -57 -19 -79 -25 -61 -16 -177 -49 -253 -71 -38 -11 -78 -20 -89 -20 -11 0 -37 -7 -57 -15 -19 -8 -50 -17 -68 -20 -47 -7 -126 -29 -134 -38 -4 -4 -16 -7 -27 -7 -12 0 -50 -9 -86 -19 -127 -38 -185 -53 -205 -56 -12 -2 -46 -11 -76 -20 -30 -10 -64 -18 -75 -20 -11 -1 -49 -11 -85 -23 -36 -11 -103 -30 -150 -42 -47 -11 -110 -28 -140 -38 -30 -9 -64 -17 -75 -18 -11 -1 -45 -9 -75 -19 -30 -9 -64 -18 -75 -20 -20 -4 -111 -30 -232 -66 -34 -11 -71 -19 -82 -19 -11 0 -43 -9 -71 -20 -28 -11 -55 -18 -59 -15 -5 2 -26 -2 -47 -9 -22 -8 -57 -19 -79 -25 -38 -10 -115 -31 -236 -65 -94 -27 -213 -57 -234 -60 -31 -5 -108 -27 -127 -37 -10 -5 -26 -9 -35 -9 -10 0 -45 -9 -77 -20 -33 -11 -65 -20 -73 -20 -11 0 -13 322 -11 1970 l3 1970 -3897 0 -3898 0 0 -4545z"/>
 </g>
<g id="layer103" fill="#e2d289" stroke="none">
 <path d="M0 11459 c0 -4320 1 -4540 17 -4535 10 3 36 9 58 15 22 5 362 95 755 201 393 105 748 200 788 211 39 10 105 28 145 38 39 11 131 36 202 56 72 21 153 43 180 50 28 7 85 23 128 34 83 23 183 49 300 80 39 11 191 52 337 91 146 39 317 85 380 101 63 17 165 44 225 61 111 30 204 55 328 87 l68 18 52 -41 c29 -22 57 -46 62 -52 11 -12 203 -167 343 -276 47 -38 89 -73 92 -78 4 -6 43 -39 87 -73 121 -94 336 -268 356 -289 17 -17 204 -18 5557 -18 l5540 0 0 3556 0 3556 -22 -5 c-27 -6 -184 -48 -288 -77 -41 -11 -100 -27 -130 -34 -30 -8 -89 -23 -130 -35 -211 -58 -269 -73 -308 -81 -24 -5 -64 -16 -90 -24 -26 -9 -83 -25 -127 -36 -44 -11 -113 -29 -152 -40 -40 -11 -106 -29 -145 -40 -40 -11 -109 -29 -153 -40 -112 -30 -225 -60 -260 -70 -16 -5 -75 -21 -130 -35 -55 -15 -134 -35 -175 -47 -41 -11 -102 -26 -135 -34 -97 -24 -163 -42 -280 -74 -60 -17 -129 -35 -153 -40 -24 -6 -64 -16 -90 -24 -26 -9 -83 -25 -127 -36 -44 -11 -113 -29 -152 -40 -40 -11 -107 -29 -148 -40 -41 -11 -109 -29 -150 -40 -41 -11 -109 -29 -150 -40 -41 -11 -109 -29 -150 -40 -41 -11 -108 -29 -147 -40 -40 -11 -109 -29 -153 -40 -44 -11 -101 -27 -127 -36 -26 -8 -66 -18 -90 -24 -24 -5 -92 -23 -153 -40 -60 -17 -137 -37 -170 -46 -126 -32 -173 -44 -280 -74 -60 -17 -129 -35 -153 -40 -24 -6 -64 -16 -90 -24 -26 -9 -83 -25 -127 -36 -44 -11 -113 -29 -152 -40 -40 -11 -107 -29 -148 -40 -41 -11 -109 -29 -150 -40 -41 -11 -109 -29 -150 -40 -41 -11 -108 -29 -147 -40 -101 -27 -219 -59 -308 -82 -41 -10 -104 -28 -140 -38 -36 -10 -103 -28 -150 -40 -47 -12 -114 -30 -150 -40 -36 -10 -85 -24 -110 -30 -43 -11 -72 -18 -280 -75 -52 -14 -114 -30 -138 -35 -24 -5 -64 -16 -90 -24 -26 -9 -83 -25 -127 -36 -44 -11 -113 -29 -152 -40 -40 -11 -106 -29 -145 -40 -40 -11 -109 -29 -153 -40 -116 -31 -221 -59 -295 -81 -36 -10 -71 -19 -78 -19 -9 0 -12 425 -12 1970 l0 1970 -3895 0 -3895 0 0 -4541z"/>
 <path d="M5840 6402 c0 -4 22 -24 48 -45 27 -20 60 -47 73 -59 14 -13 65 -54 114 -92 50 -38 95 -75 100 -82 6 -6 58 -50 115 -96 58 -46 152 -121 210 -168 58 -46 121 -99 140 -117 19 -19 44 -36 55 -39 11 -2 2108 -3 4660 -2 l4640 3 0 350 0 350 -5077 3 c-2793 1 -5078 -2 -5078 -6z"/>
 <path d="M3640 5260 c-293 -45 -553 -157 -785 -338 -586 -457 -806 -1234 -548 -1932 216 -586 762 -1016 1383 -1090 707 -84 1393 280 1714 910 138 268 194 532 183 845 -7 180 -28 301 -83 464 -261 785 -1049 1267 -1864 1141z"/>
 <path d="M7615 4954 c17 -14 45 -39 63 -55 19 -16 75 -61 125 -101 51 -39 97 -77 102 -83 6 -7 57 -50 115 -96 209 -167 306 -245 340 -277 19 -18 44 -35 55 -38 11 -2 1721 -3 3800 -2 l3780 3 0 335 0 335 -4205 2 -4205 2 30 -25z"/>
 <path d="M9335 3554 c17 -14 46 -40 65 -57 19 -17 76 -63 125 -101 50 -39 95 -75 100 -82 10 -11 194 -160 344 -279 42 -33 89 -72 105 -88 l29 -27 2949 0 2948 0 -2 328 -3 327 -3345 2 -3345 2 30 -25z"/>
 <path d="M11016 2182 c5 -4 32 -25 59 -47 28 -21 57 -46 65 -55 8 -9 56 -48 105 -86 50 -38 95 -74 100 -80 6 -6 57 -48 115 -94 58 -46 110 -88 115 -94 6 -7 51 -43 100 -81 50 -38 100 -80 112 -92 l22 -23 2096 0 2095 0 0 330 0 330 -2497 0 c-1373 0 -2493 -4 -2487 -8z"/>
 <path d="M12720 796 c0 -1 28 -25 63 -51 34 -27 67 -54 72 -61 10 -11 80 -68 325 -263 58 -46 110 -89 115 -96 6 -6 52 -44 103 -84 51 -39 101 -80 110 -89 9 -9 56 -47 104 -85 l86 -67 1151 0 1151 0 0 400 0 400 -1640 0 c-902 0 -1640 -2 -1640 -4z"/>
 </g>
<g id="layer104" fill="#d6e1e0" stroke="none">
 <path d="M0 11459 c0 -4320 1 -4540 17 -4535 10 3 36 9 58 15 22 5 362 95 755 201 393 105 748 200 788 211 39 10 105 28 145 38 39 11 131 36 202 56 72 21 153 43 180 50 28 7 85 23 128 34 83 23 183 49 300 80 39 11 191 52 337 91 146 39 317 85 380 101 63 17 165 44 225 61 111 30 204 55 328 87 l68 18 52 -41 c29 -22 57 -46 62 -52 11 -12 203 -167 343 -276 47 -38 89 -73 92 -78 4 -6 43 -39 87 -73 121 -94 336 -268 356 -289 17 -17 67 -18 1173 -18 985 0 1154 2 1147 14 -4 8 -51 47 -103 87 -52 40 -99 78 -105 84 -5 7 -57 49 -115 95 -58 46 -109 88 -115 95 -5 6 -53 44 -105 85 -52 41 -99 79 -105 85 -5 7 -57 49 -115 95 -58 46 -112 91 -121 99 -8 9 -36 32 -62 51 -25 19 -47 38 -47 43 0 4 854 7 1898 7 l1897 -1 60 -50 c33 -28 103 -85 155 -127 52 -42 100 -81 105 -88 6 -6 57 -49 115 -94 58 -46 112 -91 120 -100 8 -9 62 -54 120 -100 58 -46 110 -88 115 -95 6 -6 54 -46 107 -88 53 -42 100 -81 103 -87 4 -7 837 -10 2491 -10 l2484 0 0 415 0 415 -1115 0 -1115 0 0 2838 c0 1561 -3 2841 -6 2844 -3 4 -20 2 -37 -4 -18 -6 -57 -16 -87 -24 -30 -7 -104 -27 -165 -44 -60 -17 -129 -35 -153 -40 -24 -6 -64 -16 -90 -24 -26 -9 -83 -25 -127 -36 -44 -11 -113 -29 -152 -40 -40 -11 -107 -29 -148 -40 -41 -11 -109 -29 -150 -40 -41 -11 -109 -29 -150 -40 -41 -11 -109 -29 -150 -40 -41 -11 -108 -29 -147 -40 -40 -11 -109 -29 -153 -40 -44 -11 -101 -27 -127 -36 -26 -8 -66 -18 -90 -24 -24 -5 -92 -23 -153 -40 -60 -17 -137 -37 -170 -46 -126 -32 -173 -44 -280 -74 -60 -17 -129 -35 -153 -40 -24 -6 -64 -16 -90 -24 -26 -9 -83 -25 -127 -36 -44 -11 -113 -29 -152 -40 -40 -11 -107 -29 -148 -40 -41 -11 -109 -29 -150 -40 -41 -11 -109 -29 -150 -40 -41 -11 -108 -29 -147 -40 -101 -27 -219 -59 -308 -82 -41 -10 -104 -28 -140 -38 -36 -10 -103 -28 -150 -40 -47 -12 -114 -30 -150 -40 -36 -10 -85 -24 -110 -30 -43 -11 -72 -18 -280 -75 -52 -14 -114 -30 -138 -35 -24 -5 -64 -16 -90 -24 -26 -9 -83 -25 -127 -36 -44 -11 -113 -29 -152 -40 -40 -11 -106 -29 -145 -40 -40 -11 -109 -29 -153 -40 -94 -25 -204 -55 -295 -80 -36 -10 -101 -28 -145 -40 -44 -12 -109 -30 -145 -40 -36 -10 -103 -28 -150 -40 -47 -12 -114 -30 -150 -40 -170 -48 -216 -60 -222 -60 -5 0 -9 930 -10 2068 l-3 2067 -347 3 -348 2 -2 -2167 -3 -2168 -25 -3 c-14 -2 -52 -11 -85 -21 -33 -10 -98 -28 -145 -40 -47 -12 -106 -28 -132 -36 -26 -9 -66 -19 -90 -25 -24 -5 -91 -22 -150 -38 l-108 -29 0 2264 0 2263 -330 0 -330 0 -2 -2352 -3 -2352 -65 -19 c-77 -21 -181 -49 -285 -77 -41 -11 -110 -29 -153 -41 -42 -11 -107 -29 -143 -40 -36 -10 -71 -19 -77 -19 -9 0 -12 575 -12 2450 l0 2450 -320 0 -320 0 0 -2538 0 -2538 -102 -27 c-105 -28 -173 -45 -275 -72 -77 -19 -264 -71 -283 -78 -8 -3 -30 -8 -47 -11 l-33 -5 0 2634 0 2635 -327 -2 -328 -3 -5 -2725 c-5 -2715 -5 -2725 -25 -2728 -11 -1 -53 -11 -92 -22 -207 -57 -341 -93 -453 -121 -41 -11 -94 -26 -117 -33 l-43 -14 0 2824 0 2824 -725 0 -725 0 0 -4541z"/>
 <path d="M5840 6402 c0 -4 22 -24 48 -45 27 -20 60 -47 73 -59 14 -13 65 -54 114 -92 50 -38 95 -75 100 -82 10 -11 79 -67 325 -263 58 -46 110 -89 115 -95 6 -6 25 -23 43 -39 l34 -27 1145 0 c977 0 1144 2 1141 14 -3 13 -151 137 -351 294 -44 34 -85 68 -91 76 -11 13 -194 162 -319 259 -34 27 -63 53 -65 58 -4 11 -2312 13 -2312 1z"/>
 <path d="M11940 6401 c0 -5 8 -15 19 -22 38 -28 216 -173 226 -184 6 -7 57 -49 115 -95 58 -46 112 -91 120 -100 8 -9 62 -54 120 -100 58 -46 110 -88 115 -94 6 -7 36 -33 68 -59 l59 -47 1606 2 1607 3 0 350 0 350 -2027 3 c-1164 1 -2028 -2 -2028 -7z"/>
 <path d="M7615 4954 c17 -14 45 -39 63 -55 19 -16 75 -61 125 -101 51 -39 97 -77 102 -83 6 -7 57 -50 115 -96 258 -205 315 -252 321 -260 3 -5 20 -20 39 -34 l34 -25 1143 0 c692 0 1143 4 1143 9 0 5 -42 42 -92 82 -51 39 -98 78 -105 86 -6 8 -50 45 -97 81 -158 124 -331 265 -346 282 -8 9 -46 41 -85 71 -38 29 -71 57 -73 61 -2 5 -524 8 -1160 8 l-1157 -1 30 -25z"/>
 <path d="M13678 4974 c-6 -5 95 -93 257 -224 44 -36 85 -70 90 -76 6 -6 57 -48 115 -94 58 -46 112 -91 120 -100 8 -9 61 -54 118 -99 l102 -81 758 2 757 3 0 335 0 335 -1156 3 c-635 1 -1158 -1 -1161 -4z"/>
 <path d="M9335 3554 c17 -14 46 -40 65 -57 19 -17 76 -63 125 -101 50 -39 95 -75 100 -82 10 -11 194 -160 344 -279 42 -33 89 -72 105 -88 l29 -27 1154 0 1155 0 -73 57 c-41 32 -78 62 -84 69 -5 6 -57 48 -115 94 -58 46 -109 88 -115 95 -5 6 -53 44 -105 85 -52 41 -99 79 -105 85 -5 7 -56 49 -112 93 l-102 82 -1148 0 -1148 -1 30 -25z"/>
 <path d="M15370 3572 c0 -11 36 -41 357 -301 70 -57 130 -107 133 -112 3 -4 34 -30 70 -59 l65 -52 3 253 c1 140 0 259 -3 266 -3 10 -73 13 -315 13 -170 0 -310 -4 -310 -8z"/>
 <path d="M11016 2182 c5 -4 32 -25 59 -47 28 -21 57 -46 65 -55 8 -9 56 -48 105 -86 50 -38 95 -74 100 -80 6 -6 57 -48 115 -94 58 -46 110 -88 115 -94 6 -7 51 -43 100 -81 50 -38 100 -80 112 -92 l22 -23 1152 0 1151 0 -83 68 c-45 37 -118 95 -162 130 -44 34 -85 68 -91 76 -6 7 -58 51 -116 97 -234 186 -306 245 -328 267 l-22 22 -1152 0 c-634 0 -1148 -4 -1142 -8z"/>
 <path d="M12720 796 c0 -1 28 -25 63 -51 34 -27 67 -54 72 -61 10 -11 80 -68 325 -263 58 -46 110 -89 115 -96 6 -6 52 -44 103 -84 51 -39 101 -80 110 -89 9 -9 56 -47 103 -85 l87 -67 1136 0 c625 0 1136 3 1136 8 0 4 -46 43 -102 87 -56 44 -111 89 -122 100 -11 11 -57 49 -102 85 -182 144 -330 264 -344 280 -8 9 -55 48 -105 86 -49 37 -92 72 -95 75 -3 4 -25 23 -50 43 l-45 36 -1142 0 c-629 0 -1143 -2 -1143 -4z"/>
 </g>
<g id="layer105" fill="#f5f5f5" stroke="none">
 <path d="M0 14570 l0 -1429 38 -10 c40 -10 78 -17 272 -51 69 -12 165 -31 213 -41 49 -11 100 -19 114 -19 14 0 64 -8 112 -19 47 -10 142 -29 211 -41 69 -12 170 -30 225 -40 55 -11 127 -24 160 -30 33 -6 70 -13 83 -16 l22 -6 0 1566 0 1566 -725 0 -725 0 0 -1430z"/>
 <path d="M2187 15993 c-4 -3 -7 -736 -7 -1629 l0 -1622 77 -17 c42 -10 100 -21 128 -25 47 -6 97 -16 330 -61 55 -10 106 -19 113 -19 9 0 12 345 12 1690 l0 1690 -323 0 c-178 0 -327 -3 -330 -7z"/>
 <path d="M3580 14241 l0 -1760 58 -10 c31 -6 93 -18 137 -27 44 -8 110 -20 147 -24 38 -5 94 -16 125 -24 32 -8 84 -17 116 -21 l57 -6 0 1815 0 1816 -320 0 -320 0 0 -1759z"/>
 <path d="M4962 14113 l3 -1888 25 -3 c14 -1 73 -11 133 -22 59 -11 158 -29 220 -40 61 -12 146 -27 187 -35 42 -8 79 -15 83 -15 4 0 7 875 7 1945 l0 1945 -330 0 -330 0 2 -1887z"/>
 <path d="M6362 13988 l3 -2012 80 -17 c44 -9 136 -26 205 -39 69 -12 168 -30 220 -40 52 -11 115 -20 140 -22 l45 -3 0 2070 0 2070 -348 3 -347 2 2 -2012z"/>
 <path d="M3950 7939 c19 -17 46 -41 60 -53 34 -30 251 -205 358 -288 47 -38 89 -73 92 -78 4 -6 43 -39 87 -73 121 -94 336 -268 356 -289 17 -17 67 -18 1173 -18 985 0 1154 2 1147 14 -4 8 -51 47 -103 87 -52 40 -99 78 -105 84 -5 7 -57 49 -115 95 -58 46 -109 88 -115 95 -5 6 -53 44 -105 85 -52 41 -99 79 -105 85 -5 7 -57 49 -115 95 -58 46 -109 88 -115 94 -5 6 -34 30 -64 54 l-54 42 -1156 0 -1156 -1 35 -30z"/>
 <path d="M10188 7963 l-138 -4 68 -57 c37 -32 101 -84 142 -117 41 -33 80 -64 85 -71 6 -6 57 -49 115 -94 58 -46 112 -91 120 -100 8 -9 62 -54 120 -100 58 -46 110 -88 115 -95 6 -6 54 -46 107 -88 53 -42 100 -81 103 -87 4 -7 837 -10 2491 -10 l2484 0 0 415 0 415 -2837 -2 c-1561 -1 -2900 -4 -2975 -5z"/>
 <path d="M5840 6402 c0 -4 22 -24 48 -45 27 -20 60 -47 73 -59 14 -13 65 -54 114 -92 50 -38 95 -75 100 -82 10 -11 79 -67 325 -263 58 -46 110 -89 115 -95 6 -6 25 -23 43 -39 l34 -27 1145 0 c977 0 1144 2 1141 14 -3 13 -151 137 -351 294 -44 34 -85 68 -91 76 -11 13 -194 162 -319 259 -34 27 -63 53 -65 58 -4 11 -2312 13 -2312 1z"/>
 <path d="M11940 6401 c0 -5 8 -15 19 -22 38 -28 216 -173 226 -184 6 -7 57 -49 115 -95 58 -46 112 -91 120 -100 8 -9 62 -54 120 -100 58 -46 110 -88 115 -94 6 -7 36 -33 68 -59 l59 -47 1606 2 1607 3 0 350 0 350 -2027 3 c-1164 1 -2028 -2 -2028 -7z"/>
 <path d="M7615 4954 c17 -14 45 -39 63 -55 19 -16 75 -61 125 -101 51 -39 97 -77 102 -83 6 -7 57 -50 115 -96 258 -205 315 -252 321 -260 3 -5 20 -20 39 -34 l34 -25 1143 0 c692 0 1143 4 1143 9 0 5 -42 42 -92 82 -51 39 -98 78 -105 86 -6 8 -50 45 -97 81 -158 124 -331 265 -346 282 -8 9 -46 41 -85 71 -38 29 -71 57 -73 61 -2 5 -524 8 -1160 8 l-1157 -1 30 -25z"/>
 <path d="M13678 4974 c-6 -5 95 -93 257 -224 44 -36 85 -70 90 -76 6 -6 57 -48 115 -94 58 -46 112 -91 120 -100 8 -9 61 -54 118 -99 l102 -81 758 2 757 3 0 335 0 335 -1156 3 c-635 1 -1158 -1 -1161 -4z"/>
 <path d="M9335 3554 c17 -14 46 -40 65 -57 19 -17 76 -63 125 -101 50 -39 95 -75 100 -82 10 -11 194 -160 344 -279 42 -33 89 -72 105 -88 l29 -27 1154 0 1155 0 -73 57 c-41 32 -78 62 -84 69 -5 6 -57 48 -115 94 -58 46 -109 88 -115 95 -5 6 -53 44 -105 85 -52 41 -99 79 -105 85 -5 7 -56 49 -112 93 l-102 82 -1148 0 -1148 -1 30 -25z"/>
 <path d="M15370 3572 c0 -11 36 -41 357 -301 70 -57 130 -107 133 -112 3 -4 34 -30 70 -59 l65 -52 3 253 c1 140 0 259 -3 266 -3 10 -73 13 -315 13 -170 0 -310 -4 -310 -8z"/>
 <path d="M11016 2182 c5 -4 32 -25 59 -47 28 -21 57 -46 65 -55 8 -9 56 -48 105 -86 50 -38 95 -74 100 -80 6 -6 57 -48 115 -94 58 -46 110 -88 115 -94 6 -7 51 -43 100 -81 50 -38 100 -80 112 -92 l22 -23 1152 0 1151 0 -83 68 c-45 37 -118 95 -162 130 -44 34 -85 68 -91 76 -6 7 -58 51 -116 97 -234 186 -306 245 -328 267 l-22 22 -1152 0 c-634 0 -1148 -4 -1142 -8z"/>
 <path d="M12720 796 c0 -1 28 -25 63 -51 34 -27 67 -54 72 -61 10 -11 80 -68 325 -263 58 -46 110 -89 115 -96 6 -6 52 -44 103 -84 51 -39 101 -80 110 -89 9 -9 56 -47 103 -85 l87 -67 1136 0 c625 0 1136 3 1136 8 0 4 -46 43 -102 87 -56 44 -111 89 -122 100 -11 11 -57 49 -102 85 -182 144 -330 264 -344 280 -8 9 -55 48 -105 86 -49 37 -92 72 -95 75 -3 4 -25 23 -50 43 l-45 36 -1142 0 c-629 0 -1143 -2 -1143 -4z"/>
 </g>

</svg>